<svg width="32" height="38" viewBox="0 0 32 38" fill="none" xmlns="http://www.w3.org/2000/svg">
<path d="M14.496 7.432C14.496 8.328 14.576 9.24 14.736 10.168C14.96 11.48 15.28 12.136 15.696 12.136C17.36 12.136 18.192 10.936 18.192 8.536C18.192 7.8 17.952 7.128 17.472 6.52C17.024 5.88 16.448 5.56 15.744 5.56C14.912 5.56 14.496 6.184 14.496 7.432ZM16.848 17.032C15.952 17.032 15.488 17.368 15.456 18.04L15.264 21.64C15.104 23.816 15.664 24.904 16.944 24.904C18.928 24.904 19.92 23.64 19.92 21.112C19.92 18.392 18.896 17.032 16.848 17.032ZM2.736 3.976C2.832 1.8 6 0.711998 12.24 0.711998C12.944 0.711998 13.792 0.727998 14.784 0.759997C15.808 0.791999 16.432 0.808 16.656 0.808C19.216 0.808 21.376 1.288 23.136 2.248C25.376 3.464 26.496 5.24 26.496 7.576C26.496 8.856 26.176 9.976 25.536 10.936C24.928 11.864 24.288 12.792 23.616 13.72C25.536 14.36 27.2 15.544 28.608 17.272C30.464 19.512 31.392 22.232 31.392 25.432C31.392 33.304 26.08 37.24 15.456 37.24C11.136 37.24 8.32 37.16 7.008 37C2.848 36.488 0.672 35.32 0.48 33.496C0.448 33.176 0.432 32.888 0.432 32.632C0.432 31.576 0.896 30.632 1.824 29.8C2.88 28.872 3.552 27.672 3.84 26.2C4.32 23.96 4.816 21.736 5.328 19.528C5.872 16.84 6.16 14.568 6.192 12.712C6.192 10.376 5.824 8.584 5.088 7.336L4.896 7.24C4.448 6.856 3.888 6.376 3.216 5.8C2.864 5.416 2.704 4.808 2.736 3.976Z" fill="white"/>
</svg>
