<svg width="186" height="40" viewBox="0 0 186 40" fill="none" xmlns="http://www.w3.org/2000/svg">
<g filter="url(#filter0_d)">
<rect width="182" height="36" rx="18" fill="#36BDCB"/>
</g>
<path d="M9.68 17.632V14.128H12.488C13.056 14.128 13.516 14.272 13.868 14.56C14.22 14.848 14.396 15.288 14.396 15.88C14.396 16.472 14.22 16.912 13.868 17.2C13.516 17.488 13.056 17.632 12.488 17.632H9.68ZM8.864 13.432V22H9.68V18.328H12.668C13.052 18.328 13.4 18.276 13.712 18.172C14.024 18.06 14.292 17.9 14.516 17.692C14.74 17.476 14.912 17.216 15.032 16.912C15.152 16.608 15.212 16.264 15.212 15.88C15.212 15.496 15.152 15.152 15.032 14.848C14.912 14.544 14.74 14.288 14.516 14.08C14.292 13.864 14.024 13.704 13.712 13.6C13.4 13.488 13.052 13.432 12.668 13.432H8.864ZM17.2386 17.5V14.128H20.2866C20.9106 14.128 21.3746 14.28 21.6786 14.584C21.9826 14.888 22.1346 15.304 22.1346 15.832C22.1346 16.096 22.0826 16.332 21.9786 16.54C21.8826 16.74 21.7506 16.912 21.5826 17.056C21.4146 17.2 21.2186 17.312 20.9946 17.392C20.7706 17.464 20.5346 17.5 20.2866 17.5H17.2386ZM16.4226 13.432V22H17.2386V18.196H20.3346C20.7186 18.18 21.0186 18.244 21.2346 18.388C21.4586 18.532 21.6266 18.724 21.7386 18.964C21.8586 19.196 21.9346 19.464 21.9666 19.768C22.0066 20.064 22.0346 20.364 22.0506 20.668C22.0586 20.756 22.0666 20.86 22.0746 20.98C22.0826 21.1 22.0906 21.224 22.0986 21.352C22.1146 21.472 22.1346 21.592 22.1586 21.712C22.1906 21.824 22.2306 21.92 22.2786 22H23.1786C23.0906 21.896 23.0186 21.752 22.9626 21.568C22.9146 21.376 22.8786 21.176 22.8546 20.968C22.8306 20.752 22.8146 20.54 22.8066 20.332C22.7986 20.124 22.7906 19.948 22.7826 19.804C22.7666 19.548 22.7306 19.312 22.6746 19.096C22.6266 18.872 22.5426 18.676 22.4226 18.508C22.3106 18.34 22.1626 18.204 21.9786 18.1C21.7946 17.988 21.5626 17.912 21.2826 17.872V17.848C21.8346 17.736 22.2506 17.48 22.5306 17.08C22.8106 16.68 22.9506 16.208 22.9506 15.664C22.9506 15.28 22.8786 14.948 22.7346 14.668C22.5986 14.38 22.4106 14.148 22.1706 13.972C21.9386 13.788 21.6626 13.652 21.3426 13.564C21.0306 13.476 20.6986 13.432 20.3466 13.432H16.4226ZM24.7865 17.716C24.7865 17.244 24.8465 16.784 24.9665 16.336C25.0945 15.888 25.2865 15.488 25.5425 15.136C25.8065 14.776 26.1425 14.488 26.5505 14.272C26.9585 14.056 27.4465 13.948 28.0145 13.948C28.5825 13.948 29.0665 14.056 29.4665 14.272C29.8745 14.488 30.2065 14.776 30.4625 15.136C30.7265 15.488 30.9185 15.888 31.0385 16.336C31.1665 16.784 31.2305 17.244 31.2305 17.716C31.2305 18.18 31.1665 18.64 31.0385 19.096C30.9185 19.544 30.7265 19.948 30.4625 20.308C30.2065 20.66 29.8745 20.944 29.4665 21.16C29.0665 21.376 28.5825 21.484 28.0145 21.484C27.4465 21.484 26.9585 21.376 26.5505 21.16C26.1425 20.944 25.8065 20.66 25.5425 20.308C25.2865 19.948 25.0945 19.544 24.9665 19.096C24.8465 18.64 24.7865 18.18 24.7865 17.716ZM23.9705 17.716C23.9705 18.308 24.0545 18.872 24.2225 19.408C24.3905 19.944 24.6425 20.416 24.9785 20.824C25.3145 21.232 25.7345 21.56 26.2385 21.808C26.7505 22.048 27.3425 22.168 28.0145 22.168C28.6865 22.168 29.2745 22.048 29.7785 21.808C30.2825 21.56 30.7025 21.232 31.0385 20.824C31.3745 20.416 31.6265 19.944 31.7945 19.408C31.9625 18.872 32.0465 18.308 32.0465 17.716C32.0465 17.124 31.9625 16.56 31.7945 16.024C31.6265 15.488 31.3745 15.016 31.0385 14.608C30.7025 14.192 30.2825 13.864 29.7785 13.624C29.2745 13.376 28.6865 13.252 28.0145 13.252C27.3425 13.252 26.7505 13.376 26.2385 13.624C25.7345 13.864 25.3145 14.192 24.9785 14.608C24.6425 15.016 24.3905 15.488 24.2225 16.024C24.0545 16.56 23.9705 17.124 23.9705 17.716ZM39.585 16.024H40.401C40.345 15.576 40.209 15.18 39.993 14.836C39.785 14.492 39.521 14.204 39.201 13.972C38.889 13.732 38.537 13.552 38.145 13.432C37.761 13.312 37.365 13.252 36.957 13.252C36.285 13.252 35.693 13.376 35.181 13.624C34.677 13.864 34.257 14.192 33.921 14.608C33.585 15.016 33.333 15.488 33.165 16.024C32.997 16.56 32.913 17.124 32.913 17.716C32.913 18.308 32.997 18.872 33.165 19.408C33.333 19.944 33.585 20.416 33.921 20.824C34.257 21.232 34.677 21.56 35.181 21.808C35.693 22.048 36.285 22.168 36.957 22.168C37.461 22.168 37.917 22.088 38.325 21.928C38.741 21.768 39.101 21.54 39.405 21.244C39.709 20.948 39.957 20.588 40.149 20.164C40.341 19.74 40.465 19.264 40.521 18.736H39.705C39.665 19.12 39.573 19.48 39.429 19.816C39.285 20.144 39.097 20.432 38.865 20.68C38.633 20.928 38.357 21.124 38.037 21.268C37.717 21.412 37.357 21.484 36.957 21.484C36.389 21.484 35.901 21.376 35.493 21.16C35.085 20.944 34.749 20.66 34.485 20.308C34.229 19.948 34.037 19.544 33.909 19.096C33.789 18.64 33.729 18.18 33.729 17.716C33.729 17.244 33.789 16.784 33.909 16.336C34.037 15.888 34.229 15.488 34.485 15.136C34.749 14.776 35.085 14.488 35.493 14.272C35.901 14.056 36.389 13.948 36.957 13.948C37.269 13.948 37.565 13.996 37.845 14.092C38.133 14.18 38.393 14.312 38.625 14.488C38.865 14.664 39.065 14.884 39.225 15.148C39.393 15.404 39.513 15.696 39.585 16.024ZM41.7703 13.432V22H47.7463V21.304H42.5863V17.92H47.3623V17.224H42.5863V14.128H47.6862V13.432H41.7703ZM48.8835 13.432V22H51.8475C53.1515 21.968 54.1315 21.604 54.7875 20.908C55.4515 20.204 55.7835 19.14 55.7835 17.716C55.7835 16.292 55.4515 15.232 54.7875 14.536C54.1315 13.832 53.1515 13.464 51.8475 13.432H48.8835ZM49.6995 21.304V14.128H51.4395C52.0555 14.128 52.5835 14.196 53.0235 14.332C53.4715 14.46 53.8395 14.668 54.1275 14.956C54.4155 15.244 54.6275 15.616 54.7635 16.072C54.8995 16.528 54.9675 17.076 54.9675 17.716C54.9675 18.356 54.8995 18.904 54.7635 19.36C54.6275 19.816 54.4155 20.188 54.1275 20.476C53.8395 20.764 53.4715 20.976 53.0235 21.112C52.5835 21.24 52.0555 21.304 51.4395 21.304H49.6995ZM57.0984 13.432V22H63.0744V21.304H57.9144V17.92H62.6904V17.224H57.9144V14.128H63.0144V13.432H57.0984ZM65.0277 17.5V14.128H68.0757C68.6997 14.128 69.1637 14.28 69.4677 14.584C69.7717 14.888 69.9237 15.304 69.9237 15.832C69.9237 16.096 69.8717 16.332 69.7677 16.54C69.6717 16.74 69.5397 16.912 69.3717 17.056C69.2037 17.2 69.0077 17.312 68.7837 17.392C68.5597 17.464 68.3237 17.5 68.0757 17.5H65.0277ZM64.2117 13.432V22H65.0277V18.196H68.1237C68.5077 18.18 68.8077 18.244 69.0237 18.388C69.2477 18.532 69.4157 18.724 69.5277 18.964C69.6477 19.196 69.7237 19.464 69.7557 19.768C69.7957 20.064 69.8237 20.364 69.8397 20.668C69.8477 20.756 69.8557 20.86 69.8637 20.98C69.8717 21.1 69.8797 21.224 69.8877 21.352C69.9037 21.472 69.9237 21.592 69.9477 21.712C69.9797 21.824 70.0197 21.92 70.0677 22H70.9677C70.8797 21.896 70.8077 21.752 70.7517 21.568C70.7037 21.376 70.6677 21.176 70.6437 20.968C70.6197 20.752 70.6037 20.54 70.5957 20.332C70.5877 20.124 70.5797 19.948 70.5717 19.804C70.5557 19.548 70.5197 19.312 70.4637 19.096C70.4157 18.872 70.3317 18.676 70.2117 18.508C70.0997 18.34 69.9517 18.204 69.7677 18.1C69.5837 17.988 69.3517 17.912 69.0717 17.872V17.848C69.6237 17.736 70.0397 17.48 70.3197 17.08C70.5997 16.68 70.7397 16.208 70.7397 15.664C70.7397 15.28 70.6677 14.948 70.5237 14.668C70.3877 14.38 70.1997 14.148 69.9597 13.972C69.7277 13.788 69.4517 13.652 69.1317 13.564C68.8197 13.476 68.4877 13.432 68.1357 13.432H64.2117ZM76.7674 18.64L78.4834 14.248L80.1394 18.64H76.7674ZM78.0634 13.432L74.6194 22H75.4834L76.5154 19.336H80.4154L81.4594 22H82.3354L78.9754 13.432H78.0634ZM83.03 13.432V18.916C83.03 19.356 83.09 19.776 83.21 20.176C83.338 20.568 83.534 20.912 83.798 21.208C84.07 21.504 84.414 21.74 84.83 21.916C85.254 22.084 85.762 22.168 86.354 22.168C86.954 22.168 87.462 22.084 87.878 21.916C88.302 21.74 88.646 21.504 88.91 21.208C89.182 20.912 89.378 20.568 89.498 20.176C89.626 19.776 89.69 19.356 89.69 18.916V13.432H88.874V18.736C88.874 19.232 88.818 19.656 88.706 20.008C88.594 20.352 88.43 20.636 88.214 20.86C87.998 21.076 87.734 21.236 87.422 21.34C87.11 21.436 86.754 21.484 86.354 21.484C85.962 21.484 85.61 21.436 85.298 21.34C84.986 21.236 84.722 21.076 84.506 20.86C84.29 20.636 84.126 20.352 84.014 20.008C83.902 19.656 83.846 19.232 83.846 18.736V13.432H83.03ZM95.4847 17.632V14.128H98.2927C98.8607 14.128 99.3207 14.272 99.6727 14.56C100.025 14.848 100.201 15.288 100.201 15.88C100.201 16.472 100.025 16.912 99.6727 17.2C99.3207 17.488 98.8607 17.632 98.2927 17.632H95.4847ZM94.6687 13.432V22H95.4847V18.328H98.4727C98.8567 18.328 99.2047 18.276 99.5167 18.172C99.8287 18.06 100.097 17.9 100.321 17.692C100.545 17.476 100.717 17.216 100.837 16.912C100.957 16.608 101.017 16.264 101.017 15.88C101.017 15.496 100.957 15.152 100.837 14.848C100.717 14.544 100.545 14.288 100.321 14.08C100.097 13.864 99.8287 13.704 99.5167 13.6C99.2047 13.488 98.8567 13.432 98.4727 13.432H94.6687ZM102.549 18.64L104.265 14.248L105.921 18.64H102.549ZM103.845 13.432L100.401 22H101.265L102.297 19.336H106.197L107.241 22H108.117L104.757 13.432H103.845ZM108.955 13.432V22H109.771V13.432H108.955ZM111.555 13.432V22H117.531V21.304H112.371V17.92H117.147V17.224H112.371V14.128H117.471V13.432H111.555ZM119.845 13.432L122.689 20.944L125.641 13.432H126.841V22H126.025V14.596H126.001L123.073 22H122.305L119.485 14.596H119.461V22H118.645V13.432H119.845ZM128.524 13.432V22H134.5V21.304H129.34V17.92H134.116V17.224H129.34V14.128H134.44V13.432H128.524ZM135.625 13.432V22H136.441V14.752H136.465L141.457 22H142.369V13.432H141.553V20.68H141.529L136.537 13.432H135.625ZM143.175 13.432V14.128H146.151V22H146.967V14.128H149.955V13.432H143.175Z" fill="white"/>
<path d="M166 10C161.589 10 158 13.589 158 18C158 22.411 161.589 26 166 26C170.411 26 174 22.411 174 18C174 13.589 170.411 10 166 10ZM166 25C162.14 25 159 21.86 159 18C159 14.14 162.14 11 166 11C169.86 11 173 14.14 173 18C173 21.86 169.86 25 166 25Z" fill="white"/>
<path d="M168.158 20.2738C167.757 20.496 167.316 20.6089 166.846 20.6089C165.854 20.6089 164.995 20.0769 164.529 19.2964H166.308C166.605 19.2964 166.846 19.1004 166.846 18.8589C166.846 18.6174 166.605 18.4214 166.308 18.4214H164.199C164.174 18.2788 164.154 18.1335 164.154 17.9839C164.154 17.8343 164.174 17.689 164.199 17.5464H166.846C167.143 17.5464 167.384 17.3504 167.384 17.1089C167.384 16.8674 167.143 16.6714 166.846 16.6714H164.529C164.995 15.8909 165.854 15.3589 166.846 15.3589C167.316 15.3589 167.757 15.4718 168.158 15.694C168.403 15.8296 168.739 15.7798 168.906 15.5794C169.074 15.3799 169.011 15.1078 168.765 14.9713C168.19 14.6528 167.527 14.4839 166.846 14.4839C165.268 14.4839 163.918 15.3913 163.357 16.6714H162.538C162.241 16.6714 162 16.8674 162 17.1089C162 17.3504 162.241 17.5464 162.538 17.5464H163.124C163.105 17.6916 163.077 17.8343 163.077 17.9839C163.077 18.1335 163.105 18.2761 163.124 18.4214H162.538C162.241 18.4214 162 18.6174 162 18.8589C162 19.1004 162.241 19.2964 162.538 19.2964H163.357C163.918 20.5765 165.268 21.4839 166.846 21.4839C167.527 21.4839 168.19 21.315 168.765 20.9965C169.011 20.86 169.074 20.5879 168.906 20.3884C168.739 20.1889 168.403 20.1381 168.158 20.2738Z" fill="white"/>
<defs>
<filter id="filter0_d" x="0" y="0" width="186" height="40" filterUnits="userSpaceOnUse" color-interpolation-filters="sRGB">
<feFlood flood-opacity="0" result="BackgroundImageFix"/>
<feColorMatrix in="SourceAlpha" type="matrix" values="0 0 0 0 0 0 0 0 0 0 0 0 0 0 0 0 0 0 127 0"/>
<feOffset dx="4" dy="4"/>
<feColorMatrix type="matrix" values="0 0 0 0 0.964706 0 0 0 0 0.839216 0 0 0 0 0.988235 0 0 0 1 0"/>
<feBlend mode="normal" in2="BackgroundImageFix" result="effect1_dropShadow"/>
<feBlend mode="normal" in="SourceGraphic" in2="effect1_dropShadow" result="shape"/>
</filter>
</defs>
</svg>
