<svg width="14" height="14" viewBox="0 0 14 14" fill="none" xmlns="http://www.w3.org/2000/svg">
<path d="M2.05078 14H6.61719V9.02344H4.97656V7.38281H6.61719V5.33203C6.61719 4.20122 7.53716 3.28125 8.66797 3.28125H10.7188V4.92188H9.07812C8.62578 4.92188 8.25781 5.28984 8.25781 5.74219V7.38281H10.6447L10.3713 9.02344H8.25781V14H11.9492C13.08 14 14 13.08 14 11.9492V2.05078C14 0.919968 13.08 0 11.9492 0H2.05078C0.919968 0 0 0.919968 0 2.05078V11.9492C0 13.08 0.919968 14 2.05078 14ZM0.820312 2.05078C0.820312 1.37231 1.37231 0.820312 2.05078 0.820312H11.9492C12.6277 0.820312 13.1797 1.37231 13.1797 2.05078V11.9492C13.1797 12.6277 12.6277 13.1797 11.9492 13.1797H9.07812V9.84375H11.0662L11.6131 6.5625H9.07812V5.74219H11.5391V2.46094H8.66797C7.08481 2.46094 5.79688 3.74887 5.79688 5.33203V6.5625H4.15625V9.84375H5.79688V13.1797H2.05078C1.37231 13.1797 0.820312 12.6277 0.820312 11.9492V2.05078Z" fill="#F5F5F5"/>
</svg>
