<svg width="157" height="43" viewBox="0 0 157 43" fill="none" xmlns="http://www.w3.org/2000/svg">
<g filter="url(#filter0_d)">
<rect width="153" height="39" rx="19.5" fill="white"/>
<path d="M17.2543 24.072C18.4903 24.072 19.5943 23.652 20.3383 22.836L19.7743 22.272C19.0903 22.98 18.2503 23.28 17.2903 23.28C15.2623 23.28 13.7383 21.792 13.7383 19.8C13.7383 17.808 15.2623 16.32 17.2903 16.32C18.2503 16.32 19.0903 16.62 19.7743 17.316L20.3383 16.752C19.5943 15.936 18.4903 15.528 17.2663 15.528C14.7343 15.528 12.8623 17.34 12.8623 19.8C12.8623 22.26 14.7343 24.072 17.2543 24.072ZM28.9393 24L26.8873 21.12C28.1113 20.724 28.8073 19.8 28.8073 18.48C28.8073 16.68 27.5113 15.6 25.3753 15.6H22.2313V24H23.1193V21.336H25.3753C25.6153 21.336 25.8313 21.324 26.0473 21.3L27.9673 24H28.9393ZM25.3513 20.58H23.1193V16.368H25.3513C27.0313 16.368 27.9193 17.136 27.9193 18.48C27.9193 19.8 27.0313 20.58 25.3513 20.58ZM35.7992 13.428H34.6592L33.0152 14.916H33.8552L35.7992 13.428ZM31.7912 23.232V20.112H36.1352V19.356H31.7912V16.368H36.6632V15.6H30.9032V24H36.8432V23.232H31.7912ZM39.8185 23.232V20.112H44.1625V19.356H39.8185V16.368H44.6905V15.6H38.9305V24H44.8705V23.232H39.8185ZM47.3178 23.232L52.8738 16.212V15.6H46.2138V16.368H51.6978L46.1298 23.388V24H53.0178V23.232H47.3178ZM63.9989 15.6L60.7589 22.896L57.5429 15.6H56.5829L60.3029 24H61.1789L64.8989 15.6H63.9989ZM69.708 24.072C72.228 24.072 74.112 22.26 74.112 19.8C74.112 17.34 72.228 15.528 69.708 15.528C67.164 15.528 65.292 17.352 65.292 19.8C65.292 22.248 67.164 24.072 69.708 24.072ZM69.708 23.28C67.68 23.28 66.168 21.804 66.168 19.8C66.168 17.796 67.68 16.32 69.708 16.32C71.724 16.32 73.224 17.796 73.224 19.8C73.224 21.804 71.724 23.28 69.708 23.28ZM77.6172 24H78.5052V16.368H81.4572V15.6H74.6652V16.368H77.6172V24ZM89.5838 24L87.5318 21.12C88.7558 20.724 89.4518 19.8 89.4518 18.48C89.4518 16.68 88.1558 15.6 86.0198 15.6H82.8758V24H83.7638V21.336H86.0198C86.2598 21.336 86.4758 21.324 86.6918 21.3L88.6118 24H89.5838ZM85.9958 20.58H83.7638V16.368H85.9958C87.6758 16.368 88.5638 17.136 88.5638 18.48C88.5638 19.8 87.6758 20.58 85.9958 20.58ZM92.4357 23.232V20.112H96.7797V19.356H92.4357V16.368H97.3077V15.6H91.5477V24H97.4877V23.232H92.4357ZM108.8 15.6L105.56 22.896L102.344 15.6H101.384L105.104 24H105.98L109.7 15.6H108.8ZM111.807 23.232V20.112H116.151V19.356H111.807V16.368H116.679V15.6H110.919V24H116.859V23.232H111.807ZM121.262 24.072C123.41 24.072 124.394 23.016 124.394 21.78C124.394 18.72 119.222 20.112 119.222 17.808C119.222 16.968 119.906 16.284 121.442 16.284C122.186 16.284 123.026 16.512 123.746 16.98L124.046 16.272C123.374 15.804 122.39 15.528 121.442 15.528C119.306 15.528 118.346 16.596 118.346 17.832C118.346 20.94 123.518 19.524 123.518 21.828C123.518 22.656 122.834 23.316 121.262 23.316C120.158 23.316 119.09 22.884 118.49 22.296L118.142 22.98C118.766 23.628 120.002 24.072 121.262 24.072ZM127.844 24H128.732V16.368H131.684V15.6H124.892V16.368H127.844V24ZM133.99 23.232V20.112H138.334V19.356H133.99V16.368H138.862V15.6H133.102V24H139.042V23.232H133.99Z" fill="#36BDCB"/>
</g>
<defs>
<filter id="filter0_d" x="0" y="0" width="157" height="43" filterUnits="userSpaceOnUse" color-interpolation-filters="sRGB">
<feFlood flood-opacity="0" result="BackgroundImageFix"/>
<feColorMatrix in="SourceAlpha" type="matrix" values="0 0 0 0 0 0 0 0 0 0 0 0 0 0 0 0 0 0 127 0"/>
<feOffset dx="4" dy="4"/>
<feColorMatrix type="matrix" values="0 0 0 0 0.964706 0 0 0 0 0.839216 0 0 0 0 0.988235 0 0 0 1 0"/>
<feBlend mode="normal" in2="BackgroundImageFix" result="effect1_dropShadow"/>
<feBlend mode="normal" in="SourceGraphic" in2="effect1_dropShadow" result="shape"/>
</filter>
</defs>
</svg>
