<svg width="14" height="15" viewBox="0 0 14 15" fill="none" xmlns="http://www.w3.org/2000/svg">
<path d="M2.05078 14.0757H11.9492C13.08 14.0757 14 13.1507 14 12.0138V2.06187C14 0.924941 13.08 0 11.9492 0H2.05078C0.919968 0 0 0.924941 0 2.06187V12.0138C0 13.1507 0.919968 14.0757 2.05078 14.0757ZM0.820312 2.06187C0.820312 1.37973 1.37231 0.824747 2.05078 0.824747H11.9492C12.6277 0.824747 13.1797 1.37973 13.1797 2.06187V12.0138C13.1797 12.696 12.6277 13.2509 11.9492 13.2509H2.05078C1.37231 13.2509 0.820312 12.696 0.820312 12.0138V2.06187Z" fill="#F5F5F5"/>
<path d="M7.5 10.054C9.42986 10.054 11 8.47538 11 6.53516C11 4.59493 9.42986 3.01636 7.5 3.01636C5.57014 3.01636 4 4.59493 4 6.53516C4 8.47538 5.57014 10.054 7.5 10.054ZM7.5 3.79831C9.00107 3.79831 10.2222 5.02602 10.2222 6.53516C10.2222 8.04429 9.00107 9.272 7.5 9.272C5.99893 9.272 4.77778 8.04429 4.77778 6.53516C4.77778 5.02602 5.99893 3.79831 7.5 3.79831Z" fill="#F5F5F5"/>
<path d="M11.5 3.01611C11.7757 3.01611 12 2.79066 12 2.51355C12 2.23644 11.7757 2.01099 11.5 2.01099C11.2243 2.01099 11 2.23644 11 2.51355C11 2.79066 11.2243 3.01611 11.5 3.01611ZM11.5 2.34603C11.5919 2.34603 11.6667 2.4212 11.6667 2.51355C11.6667 2.6059 11.5919 2.68107 11.5 2.68107C11.4081 2.68107 11.3333 2.6059 11.3333 2.51355C11.3333 2.4212 11.4081 2.34603 11.5 2.34603Z" fill="#F5F5F5"/>
</svg>
