<svg width="224" height="256" viewBox="0 0 224 256" fill="none" xmlns="http://www.w3.org/2000/svg">
<path d="M114.45 74.6124L114.667 74.5927L114.571 74.3968C113.332 71.8759 114.36 69.5658 116.217 68.2784C118.079 66.9871 120.75 66.7439 122.765 68.3552C123.126 68.6465 123.448 69.0461 123.787 69.4662C123.873 69.573 123.96 69.681 124.049 69.789C124.48 70.3107 124.954 70.8255 125.554 71.0843L125.554 71.0846C126.322 71.4127 126.996 71.3508 127.651 71.1925C127.866 71.1407 128.084 71.0771 128.301 71.0136C128.41 70.9817 128.519 70.9499 128.628 70.9196C128.957 70.8277 129.292 70.7465 129.647 70.7067L129.647 70.7067L129.65 70.7063C130.998 70.5271 132.369 70.7333 133.601 71.3002C134.832 71.867 135.871 72.7703 136.593 73.9018C137.316 75.0333 137.692 76.3453 137.676 77.6808C137.661 79.0164 137.254 80.3195 136.505 81.4344L136.4 81.5915L136.577 81.6584C137.473 81.9969 138.063 82.7735 138.335 83.7036C138.607 84.6347 138.555 85.7048 138.181 86.6C137.423 88.4112 135.756 89.6825 134.121 90.8993L133.991 90.9957L134.097 91.1178C135.57 92.8187 136.722 94.7638 137.501 96.8619C137.878 97.9001 138.013 99.0086 137.894 100.105C137.775 101.2 137.407 102.255 136.817 103.191C135.542 104.981 132.915 105.858 131.004 104.804L130.829 104.707L130.785 104.902C130.532 106.025 129.936 107.046 129.076 107.827C128.216 108.608 127.133 109.112 125.973 109.27C124.813 109.429 123.631 109.235 122.587 108.715C121.542 108.194 120.685 107.372 120.13 106.36L120.029 106.175L119.887 106.331C118.876 107.444 117.351 107.88 115.823 107.738C114.295 107.597 112.785 106.878 111.821 105.708C109.883 103.357 109.91 99.8324 111.247 97.0702L111.32 96.9192L111.162 96.8634C109.112 96.1412 107.839 93.9278 107.838 91.7333C107.925 89.5305 108.683 87.4039 110.012 85.6284C110.387 85.1741 110.656 84.6443 110.801 84.0763L110.805 84.0603L110.805 84.0439C110.826 83.3651 110.692 82.6906 110.415 82.0691C109.883 80.5067 109.955 78.8063 110.617 77.2926C110.958 76.5538 111.492 75.9165 112.165 75.4457C112.838 74.9746 113.627 74.687 114.45 74.6124Z" fill="white" stroke="black" stroke-width="0.3"/>
<path d="M76.3083 153.931H223.763C222.906 172.561 214.788 190.155 201.088 203.058C187.35 215.998 169.06 223.222 150.036 223.222C131.011 223.222 112.721 215.998 98.9833 203.058C85.2836 190.155 77.1651 172.561 76.3083 153.931Z" fill="white" stroke="black" stroke-width="0.3"/>
<path d="M210.887 191.6L210.763 191.517C202.196 204.352 189.401 210.187 180.193 212.554C175.588 213.737 171.89 214.051 170.078 213.943C169.623 213.916 169.3 213.863 169.112 213.796C169.045 213.772 169.007 213.751 168.988 213.736C169.01 213.712 169.057 213.676 169.146 213.63C169.248 213.576 169.391 213.518 169.58 213.457C169.956 213.336 170.497 213.206 171.221 213.077C172.73 212.809 174.202 211.655 175.621 209.887C177.043 208.115 178.428 205.704 179.758 202.877C182.419 197.224 184.871 189.886 186.957 182.62C189.044 175.352 190.766 168.149 191.967 162.764C192.567 160.072 193.038 157.833 193.358 156.268C193.517 155.485 193.64 154.87 193.722 154.451C193.764 154.242 193.795 154.082 193.816 153.973L193.824 153.931H223.785C223.786 153.944 223.787 153.958 223.789 153.973C223.799 154.089 223.812 154.264 223.824 154.495C223.847 154.957 223.863 155.643 223.836 156.537C223.783 158.325 223.556 160.944 222.863 164.263C221.478 170.9 218.227 180.337 210.763 191.517L210.887 191.6Z" fill="white" stroke="black" stroke-width="0.3"/>
<path d="M85.1441 188.297L85.137 188.284L85.1336 188.275L85.1129 188.218C85.0946 188.168 85.0676 188.094 85.0323 187.996C84.9616 187.801 84.8582 187.514 84.7267 187.146C84.4639 186.409 84.0892 185.347 83.6421 184.047C82.7479 181.447 81.5643 177.896 80.4061 174.089C79.2478 170.282 78.1157 166.221 77.3241 162.603C76.549 159.06 76.1046 155.958 76.2727 153.934L96.4535 154.325C96.4544 154.333 96.4555 154.342 96.4566 154.351C96.4691 154.453 96.4882 154.605 96.5146 154.804C96.5674 155.201 96.6495 155.785 96.7667 156.528C97.001 158.015 97.3757 160.146 97.9369 162.718C99.0594 167.863 100.929 174.78 103.917 181.866C109.891 196.03 120.356 210.915 138.304 213.609C156.18 216.292 167.58 216.563 174.515 216.161C177.983 215.96 180.336 215.591 181.823 215.271C182.449 215.136 182.922 215.01 183.26 214.909C183.126 215.03 182.965 215.171 182.78 215.331C182.121 215.9 181.144 216.704 179.878 217.644C177.347 219.526 173.658 221.951 169.033 224.124C159.783 228.472 146.793 231.813 131.814 227.8C116.831 223.786 105.161 213.909 97.2326 205.026C93.2692 200.586 90.2433 196.397 88.2085 193.318C87.1911 191.779 86.4216 190.517 85.9066 189.641C85.6491 189.203 85.4553 188.861 85.326 188.629C85.2613 188.513 85.2127 188.424 85.1804 188.365L85.1441 188.297Z" fill="white" stroke="black" stroke-width="0.3"/>
<mask id="path-5-inside-1" fill="white">
<path d="M121.109 159.265C121.261 159.055 121.482 158.689 121.748 158.36C122.463 157.41 123.186 157.447 123.643 158.569C124.404 160.387 125.286 162.228 124.731 164.27C124.48 164.878 124.159 165.456 123.772 165.991C122.608 168.056 119.907 169.485 121.033 172.485C121.083 172.625 121.103 172.775 121.089 172.923C121.076 173.071 121.031 173.215 120.957 173.345C119.998 174.729 120.615 175.769 121.467 176.966C122.654 178.634 123.491 180.55 124.708 182.203C126.45 184.537 127.455 187.44 130.087 189.079C131.365 189.872 132.758 190.522 133.96 191.405C134.602 191.894 135.047 192.591 135.215 193.373C135.504 195.438 135.504 197.54 135.725 199.62C135.9 201.288 136.303 202.949 136.486 204.618C136.658 205.56 136.637 206.526 136.425 207.46C135.933 208.823 135.92 210.309 136.387 211.68C136.798 212.907 137.148 214.156 137.52 215.421C138.631 218.855 143.805 221.406 147.48 220.321L143.569 218.383C144.276 217.635 144.824 217.089 145.441 216.453L143.82 215.496L145.342 214.598C145.174 213.887 145.007 213.154 144.809 212.256L147.092 212.615C147.175 212.009 147.251 211.493 147.343 210.865C148.796 210.722 150.257 210.603 151.908 210.453C151.74 209.495 151.58 208.605 151.413 207.715C153.893 208.411 155.4 207.827 157.036 205.755C157.767 204.958 158.549 204.208 159.379 203.51C160.452 202.455 161.661 201.483 161.661 199.77C161.661 199.508 162.293 199.156 162.689 198.984C164.659 198.176 166.371 196.695 168.775 196.889C169.133 196.889 169.673 196.395 169.894 195.991C171.027 193.844 172.123 191.66 173.18 189.475C173.345 189.053 173.384 188.594 173.295 188.151C173.142 187.044 172.891 185.951 174.421 185.54C174.649 185.472 174.801 185.091 174.984 184.852C175.904 183.572 176.794 182.263 177.768 181.029C178.529 180.086 178.712 177.422 177.958 176.54C177.806 176.368 177.502 176.158 177.35 176.195C175.767 176.629 174.892 175.53 173.957 174.699C173.597 174.352 173.153 174.102 172.667 173.971C172.181 173.84 171.669 173.833 171.179 173.951C170.373 174.101 169.46 173.599 168.615 173.689C166.881 173.861 165.915 172.717 164.697 171.856C163.754 171.198 162.514 170.614 161.448 171.983C159.927 171.048 158.778 169.919 158.595 168.138C158.56 167.061 158.162 166.027 157.463 165.197C156.765 164.367 155.807 163.788 154.738 163.552C153.779 163.31 152.783 163.247 151.801 163.365C151.337 163.469 150.852 163.437 150.406 163.273C149.96 163.11 149.572 162.822 149.29 162.445C148.347 161.262 147.518 159.886 145.76 159.572C145.479 159.572 145.113 159.033 145.053 158.696C145.007 158.292 144.837 157.911 144.565 157.605C144.293 157.299 143.932 157.082 143.531 156.983C143.116 156.855 142.691 156.762 142.26 156.706C141.756 156.635 141.243 156.635 140.739 156.706C139.746 156.85 138.734 156.791 137.765 156.533C136.797 156.276 135.893 155.826 135.108 155.21C132.628 153.34 128.512 154.312 126.739 156.848L126.663 156.953C126.29 157.477 125.902 158.008 125.492 158.569C124.983 158.129 124.435 157.733 123.856 157.387C123.049 156.991 122.25 156.639 121.337 157.424C121.06 157.546 120.756 157.597 120.453 157.573C120.15 157.55 119.858 157.452 119.603 157.29C119.466 157.178 120.607 153.916 120.493 153.803H115.426C115.494 154.02 117.708 157.402 117.777 157.544L121.109 159.265Z"/>
</mask>
<path d="M121.109 159.265C121.261 159.055 121.482 158.689 121.748 158.36C122.463 157.41 123.186 157.447 123.643 158.569C124.404 160.387 125.286 162.228 124.731 164.27C124.48 164.878 124.159 165.456 123.772 165.991C122.608 168.056 119.907 169.485 121.033 172.485C121.083 172.625 121.103 172.775 121.089 172.923C121.076 173.071 121.031 173.215 120.957 173.345C119.998 174.729 120.615 175.769 121.467 176.966C122.654 178.634 123.491 180.55 124.708 182.203C126.45 184.537 127.455 187.44 130.087 189.079C131.365 189.872 132.758 190.522 133.96 191.405C134.602 191.894 135.047 192.591 135.215 193.373C135.504 195.438 135.504 197.54 135.725 199.62C135.9 201.288 136.303 202.949 136.486 204.618C136.658 205.56 136.637 206.526 136.425 207.46C135.933 208.823 135.92 210.309 136.387 211.68C136.798 212.907 137.148 214.156 137.52 215.421C138.631 218.855 143.805 221.406 147.48 220.321L143.569 218.383C144.276 217.635 144.824 217.089 145.441 216.453L143.82 215.496L145.342 214.598C145.174 213.887 145.007 213.154 144.809 212.256L147.092 212.615C147.175 212.009 147.251 211.493 147.343 210.865C148.796 210.722 150.257 210.603 151.908 210.453C151.74 209.495 151.58 208.605 151.413 207.715C153.893 208.411 155.4 207.827 157.036 205.755C157.767 204.958 158.549 204.208 159.379 203.51C160.452 202.455 161.661 201.483 161.661 199.77C161.661 199.508 162.293 199.156 162.689 198.984C164.659 198.176 166.371 196.695 168.775 196.889C169.133 196.889 169.673 196.395 169.894 195.991C171.027 193.844 172.123 191.66 173.18 189.475C173.345 189.053 173.384 188.594 173.295 188.151C173.142 187.044 172.891 185.951 174.421 185.54C174.649 185.472 174.801 185.091 174.984 184.852C175.904 183.572 176.794 182.263 177.768 181.029C178.529 180.086 178.712 177.422 177.958 176.54C177.806 176.368 177.502 176.158 177.35 176.195C175.767 176.629 174.892 175.53 173.957 174.699C173.597 174.352 173.153 174.102 172.667 173.971C172.181 173.84 171.669 173.833 171.179 173.951C170.373 174.101 169.46 173.599 168.615 173.689C166.881 173.861 165.915 172.717 164.697 171.856C163.754 171.198 162.514 170.614 161.448 171.983C159.927 171.048 158.778 169.919 158.595 168.138C158.56 167.061 158.162 166.027 157.463 165.197C156.765 164.367 155.807 163.788 154.738 163.552C153.779 163.31 152.783 163.247 151.801 163.365C151.337 163.469 150.852 163.437 150.406 163.273C149.96 163.11 149.572 162.822 149.29 162.445C148.347 161.262 147.518 159.886 145.76 159.572C145.479 159.572 145.113 159.033 145.053 158.696C145.007 158.292 144.837 157.911 144.565 157.605C144.293 157.299 143.932 157.082 143.531 156.983C143.116 156.855 142.691 156.762 142.26 156.706C141.756 156.635 141.243 156.635 140.739 156.706C139.746 156.85 138.734 156.791 137.765 156.533C136.797 156.276 135.893 155.826 135.108 155.21C132.628 153.34 128.512 154.312 126.739 156.848L126.663 156.953C126.29 157.477 125.902 158.008 125.492 158.569C124.983 158.129 124.435 157.733 123.856 157.387C123.049 156.991 122.25 156.639 121.337 157.424C121.06 157.546 120.756 157.597 120.453 157.573C120.15 157.55 119.858 157.452 119.603 157.29C119.466 157.178 120.607 153.916 120.493 153.803H115.426C115.494 154.02 117.708 157.402 117.777 157.544L121.109 159.265Z" fill="white"/>
<path d="M121.109 159.265L120.972 159.531L121.2 159.65L121.352 159.441L121.109 159.265ZM121.748 158.36L121.982 158.548L121.988 158.54L121.748 158.36ZM123.643 158.569L123.365 158.682L123.366 158.685L123.643 158.569ZM124.731 164.27L125.008 164.384L125.015 164.367L125.02 164.349L124.731 164.27ZM123.772 165.991L123.529 165.815L123.519 165.829L123.511 165.843L123.772 165.991ZM121.033 172.485L121.316 172.384L121.314 172.379L121.033 172.485ZM120.957 173.345L121.204 173.516L121.211 173.505L121.218 173.494L120.957 173.345ZM121.467 176.966L121.711 176.792L121.711 176.792L121.467 176.966ZM124.708 182.203L124.466 182.381L124.468 182.383L124.708 182.203ZM130.087 189.079L129.928 189.333L129.929 189.333L130.087 189.079ZM133.96 191.405L134.141 191.166L134.137 191.163L133.96 191.405ZM135.215 193.373L135.512 193.331L135.511 193.321L135.508 193.31L135.215 193.373ZM135.725 199.62L136.023 199.589L136.023 199.588L135.725 199.62ZM136.486 204.618L136.187 204.65L136.189 204.661L136.19 204.672L136.486 204.618ZM136.425 207.46L136.707 207.562L136.713 207.545L136.717 207.527L136.425 207.46ZM136.387 211.68L136.671 211.585L136.671 211.583L136.387 211.68ZM137.52 215.421L137.232 215.506L137.235 215.513L137.52 215.421ZM147.48 220.321L147.565 220.609L148.299 220.392L147.613 220.052L147.48 220.321ZM143.569 218.383L143.351 218.177L143.072 218.472L143.436 218.652L143.569 218.383ZM145.441 216.453L145.656 216.662L145.921 216.389L145.593 216.195L145.441 216.453ZM143.82 215.496L143.668 215.237L143.23 215.495L143.667 215.754L143.82 215.496ZM145.342 214.598L145.494 214.856L145.684 214.744L145.634 214.529L145.342 214.598ZM144.809 212.256L144.856 211.96L144.422 211.891L144.516 212.321L144.809 212.256ZM147.092 212.615L147.045 212.912L147.347 212.959L147.389 212.656L147.092 212.615ZM147.343 210.865L147.313 210.566L147.08 210.589L147.046 210.821L147.343 210.865ZM151.908 210.453L151.935 210.752L152.259 210.722L152.203 210.401L151.908 210.453ZM151.413 207.715L151.494 207.426L151.029 207.296L151.118 207.77L151.413 207.715ZM157.036 205.755L156.815 205.552L156.807 205.56L156.8 205.569L157.036 205.755ZM159.379 203.51L159.572 203.74L159.581 203.732L159.589 203.724L159.379 203.51ZM162.689 198.984L162.575 198.706L162.569 198.709L162.689 198.984ZM168.775 196.889L168.751 197.188L168.763 197.189H168.775V196.889ZM169.894 195.991L170.157 196.135L170.159 196.131L169.894 195.991ZM173.18 189.475L173.45 189.606L173.456 189.595L173.46 189.584L173.18 189.475ZM173.295 188.151L172.997 188.192L172.999 188.201L173.001 188.21L173.295 188.151ZM174.421 185.54L174.499 185.83L174.505 185.828L174.421 185.54ZM174.984 184.852L175.222 185.034L175.227 185.027L174.984 184.852ZM177.768 181.029L177.535 180.84L177.533 180.843L177.768 181.029ZM177.958 176.54L178.187 176.345L178.183 176.341L177.958 176.54ZM177.35 176.195L177.278 175.904L177.27 175.906L177.35 176.195ZM173.957 174.699L173.748 174.915L173.757 174.924L173.957 174.699ZM171.179 173.951L171.234 174.246L171.242 174.245L171.25 174.243L171.179 173.951ZM168.615 173.689L168.645 173.988L168.647 173.988L168.615 173.689ZM164.697 171.856L164.87 171.611L164.869 171.61L164.697 171.856ZM161.448 171.983L161.291 172.239L161.52 172.38L161.685 172.168L161.448 171.983ZM158.595 168.138L158.295 168.148L158.296 168.158L158.297 168.169L158.595 168.138ZM154.738 163.552L154.665 163.843L154.673 163.845L154.738 163.552ZM151.801 163.365L151.765 163.067L151.75 163.069L151.736 163.072L151.801 163.365ZM149.29 162.445L149.531 162.265L149.525 162.257L149.29 162.445ZM145.76 159.572L145.813 159.276L145.787 159.272H145.76V159.572ZM145.053 158.696L144.754 158.73L144.756 158.74L144.757 158.75L145.053 158.696ZM143.531 156.983L143.442 157.27L143.451 157.272L143.459 157.274L143.531 156.983ZM142.26 156.706L142.219 157.003L142.222 157.004L142.26 156.706ZM140.739 156.706L140.697 156.409L140.696 156.409L140.739 156.706ZM135.108 155.21L135.294 154.974L135.289 154.97L135.108 155.21ZM126.739 156.848L126.982 157.025L126.985 157.02L126.739 156.848ZM126.663 156.953L126.421 156.777L126.419 156.779L126.663 156.953ZM125.492 158.569L125.295 158.796L125.541 159.009L125.734 158.746L125.492 158.569ZM123.856 157.387L124.01 157.13L123.999 157.123L123.988 157.118L123.856 157.387ZM121.337 157.424L121.457 157.699L121.499 157.681L121.533 157.652L121.337 157.424ZM119.603 157.29L119.413 157.522L119.426 157.533L119.441 157.543L119.603 157.29ZM120.493 153.803L120.703 153.59L120.616 153.503H120.493V153.803ZM115.426 153.803V153.503H115.017L115.14 153.894L115.426 153.803ZM117.777 157.544L117.506 157.674L117.55 157.765L117.639 157.811L117.777 157.544ZM121.352 159.441C121.531 159.194 121.716 158.876 121.982 158.548L121.515 158.171C121.248 158.501 120.991 158.917 120.866 159.089L121.352 159.441ZM121.988 158.54C122.331 158.084 122.602 157.971 122.764 157.986C122.917 158 123.147 158.148 123.365 158.682L123.921 158.456C123.682 157.868 123.323 157.436 122.821 157.389C122.329 157.342 121.881 157.685 121.509 158.179L121.988 158.54ZM123.366 158.685C124.14 160.536 124.964 162.269 124.441 164.191L125.02 164.349C125.608 162.186 124.667 160.239 123.919 158.453L123.366 158.685ZM124.453 164.156C124.212 164.742 123.902 165.299 123.529 165.815L124.015 166.167C124.416 165.613 124.749 165.014 125.008 164.384L124.453 164.156ZM123.511 165.843C123.235 166.332 122.865 166.79 122.466 167.261C122.073 167.725 121.648 168.206 121.297 168.717C120.943 169.232 120.651 169.795 120.528 170.438C120.403 171.085 120.453 171.793 120.752 172.59L121.314 172.379C121.05 171.677 121.015 171.081 121.117 170.551C121.219 170.018 121.465 169.532 121.791 169.057C122.12 168.578 122.518 168.127 122.924 167.649C123.323 167.177 123.727 166.682 124.033 166.138L123.511 165.843ZM120.751 172.586C120.786 172.685 120.8 172.791 120.791 172.896L121.388 172.949C121.405 172.758 121.38 172.565 121.316 172.384L120.751 172.586ZM120.791 172.896C120.781 173.002 120.749 173.104 120.697 173.196L121.218 173.494C121.313 173.327 121.371 173.141 121.388 172.949L120.791 172.896ZM120.71 173.174C120.187 173.93 120.079 174.623 120.241 175.296C120.397 175.943 120.799 176.546 121.222 177.14L121.711 176.792C121.282 176.189 120.95 175.674 120.824 175.155C120.706 174.663 120.768 174.144 121.204 173.516L120.71 173.174ZM121.222 177.14C121.805 177.96 122.304 178.841 122.815 179.739C123.324 180.631 123.846 181.538 124.466 182.381L124.95 182.025C124.353 181.215 123.847 180.337 123.337 179.442C122.829 178.551 122.315 177.641 121.711 176.792L121.222 177.14ZM124.468 182.383C124.894 182.954 125.278 183.563 125.657 184.187C126.034 184.808 126.41 185.449 126.812 186.066C127.62 187.303 128.558 188.48 129.928 189.333L130.246 188.824C128.984 188.038 128.103 186.945 127.315 185.738C126.919 185.132 126.553 184.507 126.17 183.876C125.788 183.248 125.393 182.619 124.948 182.024L124.468 182.383ZM129.929 189.333C130.575 189.734 131.253 190.101 131.904 190.469C132.56 190.84 133.196 191.217 133.782 191.647L134.137 191.163C133.521 190.711 132.86 190.32 132.2 189.947C131.535 189.571 130.877 189.216 130.245 188.824L129.929 189.333ZM133.778 191.644C134.364 192.09 134.769 192.725 134.922 193.436L135.508 193.31C135.325 192.458 134.84 191.698 134.141 191.166L133.778 191.644ZM134.918 193.415C135.061 194.434 135.132 195.466 135.196 196.509C135.26 197.549 135.315 198.603 135.426 199.652L136.023 199.588C135.914 198.557 135.859 197.52 135.795 196.473C135.731 195.428 135.658 194.376 135.512 193.331L134.918 193.415ZM135.426 199.651C135.515 200.497 135.662 201.339 135.807 202.17C135.953 203.005 136.097 203.827 136.187 204.65L136.784 204.585C136.691 203.739 136.543 202.897 136.398 202.067C136.252 201.233 136.109 200.411 136.023 199.589L135.426 199.651ZM136.19 204.672C136.356 205.574 136.336 206.499 136.132 207.394L136.717 207.527C136.939 206.553 136.96 205.546 136.781 204.564L136.19 204.672ZM136.143 207.359C135.628 208.786 135.614 210.341 136.103 211.777L136.671 211.583C136.226 210.277 136.238 208.861 136.707 207.562L136.143 207.359ZM136.102 211.775C136.511 212.995 136.858 214.236 137.233 215.506L137.808 215.336C137.437 214.077 137.084 212.819 136.671 211.585L136.102 211.775ZM137.235 215.513C137.824 217.333 139.47 218.881 141.406 219.835C143.344 220.789 145.635 221.178 147.565 220.609L147.395 220.033C145.649 220.549 143.516 220.205 141.671 219.296C139.824 218.387 138.328 216.943 137.806 215.328L137.235 215.513ZM147.613 220.052L143.702 218.115L143.436 218.652L147.346 220.59L147.613 220.052ZM143.787 218.59C144.493 217.843 145.035 217.302 145.656 216.662L145.225 216.244C144.613 216.876 144.06 217.428 143.351 218.177L143.787 218.59ZM145.593 216.195L143.973 215.237L143.667 215.754L145.288 216.711L145.593 216.195ZM143.972 215.754L145.494 214.856L145.189 214.339L143.668 215.237L143.972 215.754ZM145.634 214.529C145.467 213.82 145.3 213.088 145.102 212.192L144.516 212.321C144.714 213.22 144.882 213.954 145.05 214.667L145.634 214.529ZM144.762 212.552L147.045 212.912L147.138 212.319L144.856 211.96L144.762 212.552ZM147.389 212.656C147.472 212.052 147.548 211.537 147.64 210.908L147.046 210.821C146.955 211.449 146.878 211.967 146.794 212.574L147.389 212.656ZM147.372 211.163C148.824 211.021 150.28 210.902 151.935 210.752L151.881 210.154C150.233 210.304 148.768 210.424 147.313 210.566L147.372 211.163ZM152.203 210.401C152.036 209.443 151.876 208.551 151.708 207.659L151.118 207.77C151.285 208.659 151.445 209.548 151.612 210.505L152.203 210.401ZM151.332 208.004C152.608 208.362 153.672 208.401 154.642 208.055C155.608 207.711 156.436 206.998 157.271 205.941L156.8 205.569C155.999 206.584 155.256 207.199 154.44 207.49C153.628 207.78 152.699 207.764 151.494 207.426L151.332 208.004ZM157.257 205.957C157.979 205.17 158.752 204.429 159.572 203.74L159.186 203.281C158.346 203.987 157.554 204.745 156.815 205.552L157.257 205.957ZM159.589 203.724C160.624 202.706 161.961 201.637 161.961 199.77H161.361C161.361 201.329 160.279 202.204 159.169 203.296L159.589 203.724ZM161.961 199.77C161.961 199.818 161.938 199.818 161.989 199.761C162.032 199.714 162.102 199.655 162.196 199.591C162.383 199.462 162.622 199.34 162.808 199.259L162.569 198.709C162.36 198.8 162.085 198.939 161.857 199.096C161.744 199.173 161.631 199.262 161.544 199.36C161.464 199.448 161.361 199.59 161.361 199.77H161.961ZM162.802 199.262C163.309 199.054 163.797 198.804 164.272 198.554C164.752 198.303 165.216 198.053 165.694 197.833C166.646 197.397 167.621 197.097 168.751 197.188L168.799 196.59C167.526 196.487 166.443 196.83 165.444 197.288C164.948 197.516 164.465 197.775 163.993 198.023C163.519 198.272 163.053 198.51 162.575 198.706L162.802 199.262ZM168.775 197.189C168.929 197.189 169.078 197.138 169.205 197.074C169.335 197.008 169.462 196.919 169.579 196.822C169.809 196.628 170.026 196.376 170.157 196.135L169.63 195.848C169.541 196.011 169.377 196.208 169.193 196.362C169.102 196.438 169.014 196.498 168.935 196.538C168.853 196.579 168.8 196.589 168.775 196.589V197.189ZM170.159 196.131C171.295 193.981 172.392 191.793 173.45 189.606L172.91 189.344C171.854 191.526 170.76 193.708 169.628 195.851L170.159 196.131ZM173.46 189.584C173.645 189.108 173.69 188.591 173.589 188.091L173.001 188.21C173.079 188.597 173.044 188.998 172.901 189.366L173.46 189.584ZM173.592 188.11C173.552 187.824 173.51 187.563 173.49 187.31C173.47 187.059 173.475 186.841 173.519 186.653C173.562 186.471 173.643 186.316 173.783 186.184C173.927 186.05 174.149 185.923 174.499 185.83L174.343 185.25C173.927 185.362 173.608 185.527 173.373 185.747C173.135 185.97 173.001 186.235 172.935 186.515C172.87 186.791 172.87 187.079 172.892 187.357C172.914 187.633 172.961 187.924 172.997 188.192L173.592 188.11ZM174.505 185.828C174.627 185.792 174.721 185.719 174.791 185.65C174.861 185.581 174.92 185.5 174.969 185.427C175.017 185.354 175.065 185.274 175.106 185.208C175.149 185.138 175.186 185.081 175.222 185.033L174.745 184.67C174.69 184.742 174.639 184.822 174.595 184.893C174.549 184.968 174.511 185.033 174.47 185.093C174.429 185.154 174.396 185.196 174.368 185.225C174.339 185.254 174.328 185.254 174.336 185.252L174.505 185.828ZM175.227 185.027C176.154 183.739 177.035 182.442 178.004 181.214L177.533 180.843C176.553 182.084 175.654 183.406 174.74 184.676L175.227 185.027ZM178.002 181.217C178.227 180.937 178.396 180.551 178.513 180.135C178.633 179.715 178.706 179.244 178.731 178.777C178.755 178.311 178.73 177.84 178.648 177.423C178.566 177.011 178.423 176.621 178.187 176.345L177.73 176.734C177.871 176.899 177.987 177.174 178.059 177.539C178.13 177.899 178.154 178.318 178.132 178.746C178.109 179.173 178.042 179.6 177.936 179.972C177.83 180.348 177.69 180.648 177.535 180.84L178.002 181.217ZM178.183 176.341C178.086 176.231 177.948 176.116 177.81 176.032C177.74 175.99 177.662 175.95 177.581 175.924C177.506 175.9 177.395 175.875 177.278 175.904L177.421 176.487C177.38 176.497 177.365 176.485 177.395 176.494C177.418 176.502 177.454 176.519 177.499 176.546C177.589 176.6 177.679 176.676 177.734 176.738L178.183 176.341ZM177.27 175.906C176.572 176.098 176.042 175.954 175.567 175.665C175.064 175.359 174.653 174.916 174.156 174.475L173.757 174.924C174.196 175.313 174.691 175.835 175.255 176.178C175.847 176.538 176.546 176.727 177.429 176.485L177.27 175.906ZM174.165 174.483C173.768 174.101 173.279 173.825 172.745 173.681L172.589 174.26C173.026 174.378 173.425 174.604 173.748 174.915L174.165 174.483ZM172.745 173.681C172.21 173.537 171.647 173.53 171.109 173.659L171.25 174.243C171.69 174.136 172.151 174.142 172.589 174.26L172.745 173.681ZM171.125 173.656C170.791 173.718 170.42 173.647 169.976 173.55C169.556 173.457 169.065 173.34 168.584 173.391L168.647 173.988C169.011 173.949 169.398 174.037 169.847 174.136C170.272 174.229 170.762 174.334 171.234 174.246L171.125 173.656ZM168.586 173.391C167.8 173.469 167.19 173.252 166.618 172.904C166.329 172.727 166.051 172.518 165.764 172.293C165.48 172.072 165.182 171.832 164.87 171.611L164.524 172.101C164.821 172.311 165.1 172.537 165.394 172.766C165.684 172.993 165.985 173.22 166.306 173.416C166.956 173.812 167.696 174.082 168.645 173.988L168.586 173.391ZM164.869 171.61C164.39 171.276 163.791 170.926 163.149 170.861C162.475 170.793 161.801 171.041 161.212 171.799L161.685 172.168C162.161 171.556 162.64 171.412 163.088 171.458C163.569 171.507 164.061 171.778 164.526 172.102L164.869 171.61ZM161.606 171.728C160.114 170.811 159.062 169.75 158.894 168.107L158.297 168.169C158.494 170.088 159.74 171.285 161.291 172.239L161.606 171.728ZM158.895 168.128C158.857 166.984 158.434 165.885 157.693 165.004L157.234 165.39C157.889 166.169 158.262 167.139 158.295 168.148L158.895 168.128ZM157.693 165.004C156.952 164.123 155.935 163.509 154.803 163.259L154.673 163.845C155.678 164.067 156.579 164.611 157.234 165.39L157.693 165.004ZM154.811 163.261C153.817 163.01 152.784 162.945 151.765 163.067L151.837 163.663C152.783 163.549 153.742 163.61 154.665 163.843L154.811 163.261ZM151.736 163.072C151.327 163.163 150.901 163.135 150.509 162.992L150.303 163.555C150.803 163.738 151.346 163.774 151.867 163.658L151.736 163.072ZM150.509 162.992C150.117 162.848 149.777 162.595 149.531 162.265L149.05 162.624C149.367 163.048 149.803 163.372 150.303 163.555L150.509 162.992ZM149.525 162.257C148.618 161.121 147.709 159.615 145.813 159.276L145.707 159.867C147.326 160.156 148.076 161.404 149.056 162.632L149.525 162.257ZM145.76 159.272C145.782 159.272 145.769 159.279 145.719 159.242C145.673 159.208 145.618 159.152 145.563 159.079C145.448 158.927 145.367 158.752 145.348 158.643L144.757 158.75C144.799 158.978 144.931 159.24 145.085 159.442C145.163 159.545 145.256 159.645 145.36 159.723C145.459 159.797 145.598 159.872 145.76 159.872V159.272ZM145.351 158.663C145.299 158.197 145.102 157.758 144.789 157.406L144.341 157.804C144.572 158.064 144.716 158.388 144.754 158.73L145.351 158.663ZM144.789 157.406C144.477 157.053 144.062 156.805 143.602 156.692L143.459 157.274C143.802 157.359 144.11 157.544 144.341 157.804L144.789 157.406ZM143.619 156.696C143.189 156.563 142.747 156.467 142.299 156.409L142.222 157.004C142.636 157.058 143.044 157.147 143.442 157.27L143.619 156.696ZM142.302 156.409C141.77 156.334 141.229 156.334 140.697 156.409L140.78 157.003C141.257 156.936 141.742 156.936 142.219 157.003L142.302 156.409ZM140.696 156.409C139.743 156.547 138.772 156.49 137.843 156.243L137.688 156.823C138.696 157.091 139.749 157.152 140.782 157.003L140.696 156.409ZM137.843 156.243C136.913 155.996 136.046 155.564 135.294 154.974L134.923 155.446C135.739 156.087 136.681 156.556 137.688 156.823L137.843 156.243ZM135.289 154.97C133.964 153.971 132.221 153.744 130.597 154.083C128.974 154.423 127.43 155.336 126.493 156.677L126.985 157.02C127.821 155.824 129.222 154.984 130.72 154.67C132.218 154.357 133.773 154.579 134.928 155.45L135.289 154.97ZM126.497 156.672L126.421 156.777L126.906 157.129L126.982 157.025L126.497 156.672ZM126.419 156.779C126.047 157.301 125.66 157.831 125.25 158.392L125.734 158.746C126.144 158.185 126.534 157.653 126.908 157.127L126.419 156.779ZM125.688 158.342C125.166 157.89 124.604 157.485 124.01 157.13L123.702 157.645C124.266 157.982 124.8 158.367 125.295 158.796L125.688 158.342ZM123.988 157.118C123.591 156.922 123.142 156.709 122.665 156.664C122.164 156.616 121.656 156.754 121.142 157.197L121.533 157.652C121.931 157.309 122.28 157.23 122.608 157.261C122.96 157.295 123.315 157.455 123.723 157.656L123.988 157.118ZM121.217 157.15C120.985 157.251 120.73 157.294 120.476 157.274L120.43 157.873C120.781 157.9 121.135 157.84 121.457 157.699L121.217 157.15ZM120.476 157.274C120.222 157.255 119.977 157.173 119.764 157.037L119.441 157.543C119.738 157.732 120.078 157.845 120.43 157.873L120.476 157.274ZM119.793 157.058C119.871 157.122 119.886 157.202 119.888 157.212C119.892 157.234 119.891 157.246 119.891 157.241C119.892 157.234 119.894 157.21 119.902 157.165C119.917 157.078 119.948 156.95 119.99 156.791C120.074 156.473 120.199 156.056 120.327 155.633C120.453 155.213 120.582 154.787 120.672 154.459C120.717 154.296 120.754 154.151 120.776 154.04C120.787 153.986 120.796 153.93 120.8 153.88C120.801 153.856 120.802 153.822 120.798 153.786C120.795 153.764 120.783 153.668 120.703 153.59L120.283 154.017C120.21 153.946 120.203 153.863 120.202 153.86C120.2 153.843 120.201 153.833 120.201 153.839C120.2 153.85 120.197 153.876 120.188 153.922C120.17 154.011 120.137 154.14 120.093 154.3C120.006 154.619 119.88 155.037 119.752 155.46C119.625 155.881 119.498 156.307 119.41 156.636C119.367 156.8 119.331 156.947 119.311 157.06C119.301 157.115 119.293 157.173 119.292 157.225C119.291 157.251 119.291 157.288 119.299 157.328C119.305 157.357 119.326 157.451 119.413 157.522L119.793 157.058ZM120.493 153.503H115.426V154.103H120.493V153.503ZM115.14 153.894C115.154 153.94 115.182 153.992 115.199 154.023C115.222 154.064 115.251 154.115 115.286 154.174C115.355 154.29 115.448 154.443 115.558 154.618C115.777 154.97 116.063 155.419 116.349 155.864C116.632 156.306 116.921 156.755 117.138 157.092C117.247 157.262 117.339 157.406 117.405 157.512C117.479 157.629 117.508 157.677 117.506 157.674L118.047 157.414C118.029 157.376 117.973 157.287 117.913 157.191C117.845 157.084 117.752 156.939 117.643 156.768C117.422 156.425 117.141 155.988 116.854 155.54C116.569 155.095 116.284 154.649 116.067 154.301C115.958 154.126 115.867 153.978 115.802 153.868C115.769 153.812 115.744 153.768 115.726 153.736C115.703 153.694 115.706 153.694 115.712 153.713L115.14 153.894ZM117.639 157.811L120.972 159.531L121.247 158.998L117.914 157.278L117.639 157.811Z" fill="black" mask="url(#path-5-inside-1)"/>
<path d="M197.772 209.714L197.772 209.714C196.379 212.602 194.003 214.905 191.562 217.059L191.56 217.06C185.791 222.316 179.466 226.949 172.695 230.882C168.639 233.21 164.371 235.159 159.946 236.706C139.908 243.619 117.826 240.957 96.9979 236.7C96.3451 236.567 95.6907 236.432 95.0349 236.297C85.2087 234.273 75.077 232.186 65.2708 234.277C58.3981 235.741 52.1631 239.157 46.0568 242.522L46.0567 242.522L21.9783 255.813C17.8898 251.553 14.264 246.885 11.1595 241.886L11.1593 241.885C8.41132 237.476 6.12183 232.806 4.3255 227.945C2.42937 222.703 1.03676 217.297 0.165885 211.799C2.17231 210.893 4.80264 210.567 7.4199 210.386C8.19496 210.333 8.96969 210.292 9.72557 210.252C11.5515 210.155 13.2675 210.065 14.6126 209.815L14.6127 209.815C22.8531 208.273 30.9173 205.895 38.9501 203.526L38.9741 203.519L38.9742 203.519L61.297 196.92L61.2545 196.777L61.297 196.92C65.4961 195.679 69.6713 194.435 73.7788 192.839L73.78 192.839C74.8741 192.403 75.9559 191.946 77.0351 191.491C79.6767 190.376 82.3029 189.268 85.0561 188.489L85.0562 188.489C91.2331 186.738 97.7622 186.767 104.21 186.797L136.249 186.984V186.984L136.262 186.983C136.846 186.934 137.432 187.041 137.958 187.295C138.601 187.693 138.785 188.391 138.669 189.179C138.552 189.971 138.132 190.822 137.617 191.452L137.617 191.453C133.23 196.878 125.686 198.663 118.629 199.366L118.629 199.366C118.499 199.379 118.368 199.391 118.238 199.404C116.273 199.598 114.235 199.799 112.453 200.682C110.55 201.625 108.936 203.604 109.198 205.742C109.384 207.355 110.453 208.497 111.844 209.308C113.233 210.118 114.964 210.61 116.522 210.922L116.523 210.922C125.617 212.703 134.782 214.068 144.018 215.016L144.018 215.016C149.17 215.532 154.405 215.901 159.545 215.142C166.342 214.144 172.57 211.245 178.755 208.244C179.132 208.061 179.508 207.878 179.885 207.695C185.666 204.883 191.438 202.075 197.658 200.708C199.404 203.312 199.151 206.864 197.772 209.714Z" fill="white" stroke="black" stroke-width="0.3"/>
<path d="M223.42 154.178C223.42 154.253 223.356 154.371 223.11 154.523C222.875 154.668 222.514 154.817 222.027 154.966C221.056 155.264 219.616 155.553 217.751 155.829C214.025 156.382 208.629 156.879 201.956 157.298C188.612 158.134 170.174 158.652 149.807 158.652C129.441 158.652 111.003 158.134 97.6588 157.298C90.986 156.879 85.5899 156.382 81.8635 155.829C79.9993 155.553 78.5591 155.264 77.5874 154.966C77.1005 154.817 76.7402 154.668 76.5045 154.523C76.2587 154.371 76.1949 154.253 76.1949 154.178C76.1949 154.103 76.2587 153.985 76.5045 153.833C76.7402 153.687 77.1005 153.539 77.5874 153.39C78.5591 153.092 79.9993 152.803 81.8635 152.527C85.5899 151.974 90.986 151.477 97.6588 151.058C111.003 150.222 129.441 149.704 149.807 149.704C170.174 149.704 188.612 150.222 201.956 151.058C208.629 151.477 214.025 151.974 217.751 152.527C219.616 152.803 221.056 153.092 222.027 153.39C222.514 153.539 222.875 153.687 223.11 153.833C223.356 153.985 223.42 154.103 223.42 154.178Z" fill="white" stroke="black" stroke-width="0.3"/>
<path d="M108.791 153.097C106.889 153.08 105.066 152.931 103.817 152.366C104.228 151.797 104.875 151.319 105.676 150.908C106.54 150.464 107.569 150.105 108.642 149.793C109.556 149.528 110.495 149.299 111.386 149.082C111.54 149.045 111.693 149.007 111.844 148.97C112.863 148.72 113.8 148.481 114.519 148.213C115.496 147.853 116.469 147.484 117.442 147.115C121.002 145.764 124.551 144.417 128.271 143.543C132.21 142.703 136.212 142.171 140.237 141.953L140.24 141.953C145.717 141.557 151.252 141.304 156.616 142.362C160.167 143.176 163.658 144.226 167.064 145.505L167.064 145.505L167.068 145.506C180.834 150.197 195.071 153.417 209.534 155.112C181.688 155.955 153.829 155.012 126.008 153.676C122.103 153.481 118.2 153.279 114.3 153.07L114.3 153.07C113.548 153.03 112.662 153.042 111.721 153.061C111.577 153.063 111.431 153.067 111.285 153.07C110.473 153.087 109.627 153.104 108.791 153.097Z" fill="white" stroke="black" stroke-width="0.3"/>
<path d="M132.265 144.458L132.263 144.401C132.259 144.323 132.253 144.207 132.245 144.055C132.23 143.75 132.206 143.302 132.172 142.726C132.104 141.575 131.998 139.914 131.843 137.876C131.532 133.8 131.027 128.214 130.245 122.175C129.464 116.137 128.407 109.643 126.994 103.751C125.6 97.9398 123.857 92.7026 121.682 89.0661L124.016 88.0077L124.116 88.462L124.513 90.2572C124.854 91.8042 125.343 94.0148 125.93 96.6693C127.103 101.979 128.67 109.064 130.244 116.168C131.817 123.272 133.397 130.395 134.597 135.78C135.196 138.473 135.701 140.731 136.062 142.335C136.243 143.137 136.387 143.775 136.49 144.223C136.542 144.447 136.583 144.623 136.612 144.748C136.641 144.868 136.661 144.951 136.671 144.979C136.682 145.012 136.684 145.071 136.655 145.152C136.626 145.232 136.571 145.325 136.486 145.418C136.317 145.604 136.04 145.783 135.661 145.864C134.917 146.024 133.755 145.808 132.265 144.458Z" fill="white" stroke="black" stroke-width="0.3"/>
<path d="M158.449 74.8476L158.657 74.9042L158.638 74.6896C158.391 71.9007 160.185 70.0982 162.387 69.5393C164.596 68.9788 167.18 69.6787 168.486 71.8765C168.722 72.2773 168.881 72.7683 169.047 73.2844C169.088 73.41 169.129 73.5371 169.172 73.6648C169.386 74.303 169.642 74.951 170.109 75.4017L170.109 75.4022C170.709 75.9761 171.362 76.1516 172.032 76.2312C172.249 76.2571 172.474 76.2732 172.699 76.2894C172.814 76.2977 172.929 76.3059 173.043 76.3155C173.384 76.3441 173.726 76.3849 174.072 76.4718L174.072 76.4718L174.076 76.4727C175.407 76.7702 176.623 77.4401 177.576 78.4012C178.529 79.3624 179.179 80.5738 179.447 81.8893C179.715 83.2047 179.591 84.5684 179.089 85.8161C178.587 87.0638 177.728 88.1425 176.617 88.9218L176.46 89.0315L176.604 89.1575C177.324 89.7881 177.596 90.7184 177.516 91.6814C177.435 92.6456 177 93.6272 176.328 94.3354C174.968 95.7673 172.948 96.3797 170.985 96.9429L170.831 96.9872L170.886 97.1381C171.646 99.241 172.021 101.459 171.995 103.691C171.975 104.794 171.702 105.878 171.196 106.863C170.69 107.846 169.966 108.706 169.076 109.376C167.236 110.607 164.46 110.511 163.053 108.863L162.924 108.712L162.814 108.877C162.173 109.84 161.248 110.588 160.161 111.02C159.075 111.451 157.88 111.545 156.737 111.29C155.595 111.034 154.559 110.441 153.77 109.59C152.981 108.739 152.476 107.672 152.322 106.531L152.294 106.32L152.105 106.418C150.76 107.109 149.173 106.988 147.793 106.324C146.413 105.66 145.26 104.462 144.784 103.032C143.826 100.156 145.115 96.8702 147.369 94.7576L147.492 94.642L147.363 94.5333C145.706 93.1418 145.353 90.6215 146.097 88.5764C146.976 86.5469 148.451 84.8214 150.334 83.6214C150.85 83.3188 151.291 82.9083 151.628 82.4188L151.636 82.4062L151.642 82.3922C151.908 81.7629 152.026 81.083 151.989 80.4026C152.059 78.7618 152.739 77.2026 153.9 76.021C154.485 75.4481 155.213 75.0375 156.012 74.8312C156.812 74.6248 157.652 74.6305 158.449 74.8476Z" fill="white" stroke="black" stroke-width="0.3"/>
<mask id="path-12-inside-2" fill="white">
<path d="M159.797 108.833C159.744 107.456 159.706 105.99 160.421 104.808C160.872 104.147 161.429 103.563 162.072 103.08C163.117 102.154 164.262 101.346 165.488 100.671C166.728 99.9971 168.156 99.7347 169.559 99.9225C167.999 101.329 165.755 101.8 164.127 103.102C162.262 104.67 160.819 106.667 159.927 108.915C158.687 112.948 158.626 117.818 157.987 122C157.348 126.182 156.708 130.491 156.062 134.718C155.392 139.207 154.221 143.853 154.038 148.372C154.038 149.008 151.634 150.063 149.777 146.359C152.06 139.626 153.947 132.766 155.666 125.89C157.119 120.032 158.405 114.115 159.295 108.145C159.699 105.451 160.383 102.384 160.239 99.6607C160.079 96.7803 156.99 93.9599 154.525 92.7254C154.358 92.6356 154.183 92.5534 154.008 92.4785C153.749 92.6581 153.947 93.0621 154.16 93.3015C156.031 95.3514 158.55 96.9898 159.531 99.5709C159.79 100.252 159.927 100.97 160.163 101.658C160.011 101.217 160.558 99.93 160.49 99.2941C160.366 98.4465 160.3 97.5917 160.292 96.7354C160.324 94.7312 160.174 92.7283 159.843 90.7503L162.765 90.5483C162.765 90.5483 161.532 98.6282 160.011 108.751"/>
</mask>
<path d="M159.797 108.833C159.744 107.456 159.706 105.99 160.421 104.808C160.872 104.147 161.429 103.563 162.072 103.08C163.117 102.154 164.262 101.346 165.488 100.671C166.728 99.9971 168.156 99.7347 169.559 99.9225C167.999 101.329 165.755 101.8 164.127 103.102C162.262 104.67 160.819 106.667 159.927 108.915C158.687 112.948 158.626 117.818 157.987 122C157.348 126.182 156.708 130.491 156.062 134.718C155.392 139.207 154.221 143.853 154.038 148.372C154.038 149.008 151.634 150.063 149.777 146.359C152.06 139.626 153.947 132.766 155.666 125.89C157.119 120.032 158.405 114.115 159.295 108.145C159.699 105.451 160.383 102.384 160.239 99.6607C160.079 96.7803 156.99 93.9599 154.525 92.7254C154.358 92.6356 154.183 92.5534 154.008 92.4785C153.749 92.6581 153.947 93.0621 154.16 93.3015C156.031 95.3514 158.55 96.9898 159.531 99.5709C159.79 100.252 159.927 100.97 160.163 101.658C160.011 101.217 160.558 99.93 160.49 99.2941C160.366 98.4465 160.3 97.5917 160.292 96.7354C160.324 94.7312 160.174 92.7283 159.843 90.7503L162.765 90.5483C162.765 90.5483 161.532 98.6282 160.011 108.751" fill="white"/>
<path d="M160.421 104.808L160.173 104.639L160.169 104.646L160.165 104.653L160.421 104.808ZM162.072 103.08L162.253 103.319L162.262 103.312L162.271 103.304L162.072 103.08ZM165.488 100.671L165.345 100.407L165.344 100.408L165.488 100.671ZM169.559 99.9225L169.76 100.145L170.241 99.7111L169.599 99.6252L169.559 99.9225ZM164.127 103.102L163.939 102.868L163.934 102.872L164.127 103.102ZM159.927 108.915L159.648 108.804L159.644 108.816L159.64 108.827L159.927 108.915ZM156.062 134.718L155.765 134.673L155.765 134.674L156.062 134.718ZM154.038 148.372L153.738 148.36V148.372H154.038ZM149.777 146.359L149.493 146.263L149.453 146.382L149.509 146.494L149.777 146.359ZM155.666 125.89L155.957 125.963L155.957 125.963L155.666 125.89ZM159.295 108.145L158.999 108.1L158.999 108.1L159.295 108.145ZM160.239 99.6607L160.538 99.6448L160.538 99.644L160.239 99.6607ZM154.525 92.7254L154.383 92.9899L154.391 92.9937L154.525 92.7254ZM154.008 92.4785L154.125 92.2027L153.973 92.1374L153.836 92.2321L154.008 92.4785ZM154.16 93.3015L153.936 93.5009L153.938 93.5038L154.16 93.3015ZM159.531 99.5709L159.812 99.4643L159.812 99.4643L159.531 99.5709ZM160.163 101.658L159.879 101.756L160.446 101.561L160.163 101.658ZM160.49 99.2941L160.788 99.2619L160.787 99.2506L160.49 99.2941ZM160.292 96.7354L159.992 96.7307L159.992 96.7381L160.292 96.7354ZM159.843 90.7503L159.822 90.4511L159.493 90.4738L159.547 90.7998L159.843 90.7503ZM162.765 90.5483L163.061 90.5936L163.118 90.2232L162.744 90.2491L162.765 90.5483ZM160.097 108.821C160.043 107.428 160.017 106.056 160.678 104.963L160.165 104.653C159.395 105.924 159.445 107.485 159.498 108.844L160.097 108.821ZM160.669 104.977C161.101 104.343 161.636 103.783 162.253 103.319L161.892 102.84C161.223 103.343 160.642 103.95 160.173 104.639L160.669 104.977ZM162.271 103.304C163.299 102.394 164.426 101.599 165.633 100.933L165.344 100.408C164.098 101.094 162.934 101.915 161.873 102.855L162.271 103.304ZM165.632 100.934C166.815 100.291 168.179 100.04 169.519 100.22L169.599 99.6252C168.133 99.429 166.641 99.703 165.345 100.407L165.632 100.934ZM169.358 99.6997C168.615 100.37 167.703 100.823 166.74 101.281C165.79 101.732 164.786 102.191 163.939 102.868L164.314 103.336C165.095 102.712 166.028 102.284 166.997 101.822C167.954 101.368 168.943 100.882 169.76 100.145L169.358 99.6997ZM163.934 102.872C162.031 104.473 160.559 106.51 159.648 108.804L160.206 109.026C161.079 106.824 162.492 104.868 164.32 103.332L163.934 102.872ZM159.64 108.827C159.011 110.871 158.684 113.12 158.433 115.368C158.181 117.627 158.009 119.871 157.69 121.955L158.283 122.045C158.604 119.947 158.781 117.664 159.03 115.435C159.279 113.194 159.602 110.991 160.214 109.003L159.64 108.827ZM157.69 121.955C157.049 126.15 156.414 130.435 155.765 134.673L156.358 134.764C157.003 130.548 157.646 126.215 158.283 122.045L157.69 121.955ZM155.765 134.674C155.431 136.914 154.973 139.184 154.572 141.482C154.172 143.773 153.83 146.08 153.738 148.36L154.338 148.384C154.428 146.145 154.764 143.869 155.163 141.586C155.56 139.309 156.023 137.011 156.359 134.763L155.765 134.674ZM153.738 148.372C153.738 148.358 153.743 148.378 153.701 148.427C153.663 148.473 153.595 148.529 153.496 148.58C153.3 148.68 153.004 148.747 152.646 148.696C151.943 148.595 150.947 148.023 150.046 146.225L149.509 146.494C150.464 148.399 151.598 149.152 152.561 149.29C153.036 149.358 153.458 149.274 153.77 149.113C153.926 149.034 154.061 148.932 154.161 148.813C154.258 148.697 154.338 148.545 154.338 148.372H153.738ZM150.061 146.456C152.348 139.712 154.237 132.843 155.957 125.963L155.375 125.818C153.657 132.689 151.772 139.541 149.493 146.263L150.061 146.456ZM155.957 125.963C157.412 120.099 158.7 114.172 159.592 108.189L158.999 108.1C158.11 114.058 156.827 119.966 155.375 125.818L155.957 125.963ZM159.592 108.189C159.99 105.529 160.685 102.408 160.538 99.6448L159.939 99.6766C160.082 102.36 159.407 105.373 158.999 108.1L159.592 108.189ZM160.538 99.644C160.453 98.1067 159.591 96.6187 158.469 95.3749C157.343 94.1268 155.924 93.0906 154.659 92.4572L154.391 92.9937C155.591 93.5947 156.949 94.586 158.024 95.7768C159.102 96.9719 159.865 98.3343 159.939 99.6773L160.538 99.644ZM154.667 92.4611C154.49 92.3663 154.307 92.2803 154.125 92.2027L153.89 92.7544C154.058 92.8264 154.225 92.905 154.383 92.9898L154.667 92.4611ZM153.836 92.2321C153.554 92.428 153.558 92.7397 153.618 92.9499C153.678 93.1599 153.81 93.3596 153.936 93.5009L154.384 93.1021C154.297 93.004 154.223 92.882 154.195 92.7853C154.182 92.7383 154.185 92.716 154.185 92.7128C154.185 92.7125 154.185 92.7161 154.182 92.7208C154.178 92.7257 154.176 92.7268 154.179 92.725L153.836 92.2321ZM153.938 93.5038C154.414 94.0255 154.93 94.5189 155.445 95.0018C155.963 95.4871 156.478 95.9593 156.967 96.4489C157.943 97.4273 158.783 98.4462 159.251 99.6775L159.812 99.4643C159.298 98.1145 158.388 97.0236 157.392 96.0251C156.894 95.5262 156.367 95.0431 155.856 94.564C155.342 94.0825 154.841 93.6025 154.381 93.0992L153.938 93.5038ZM159.251 99.6774C159.374 100.003 159.47 100.34 159.566 100.691C159.661 101.038 159.757 101.4 159.879 101.755L160.446 101.561C160.332 101.228 160.242 100.887 160.145 100.532C160.049 100.182 159.947 99.8196 159.812 99.4643L159.251 99.6774ZM160.446 101.56C160.434 101.526 160.427 101.428 160.456 101.236C160.483 101.059 160.531 100.849 160.587 100.619C160.64 100.394 160.7 100.15 160.741 99.9232C160.782 99.7 160.81 99.4655 160.788 99.262L160.192 99.3262C160.204 99.4407 160.189 99.6054 160.151 99.8161C160.114 100.023 160.059 100.248 160.003 100.479C159.949 100.705 159.894 100.94 159.863 101.148C159.833 101.342 159.815 101.57 159.879 101.756L160.446 101.56ZM160.787 99.2506C160.665 98.4166 160.6 97.5754 160.592 96.7327L159.992 96.7381C160 97.608 160.067 98.4765 160.193 99.3375L160.787 99.2506ZM160.592 96.7402C160.624 94.7179 160.473 92.6967 160.139 90.7009L159.547 90.7998C159.875 92.7598 160.024 94.7446 159.992 96.7307L160.592 96.7402ZM159.864 91.0496L162.785 90.8476L162.744 90.2491L159.822 90.4511L159.864 91.0496ZM162.765 90.5483C162.468 90.5031 162.468 90.5031 162.468 90.5032C162.468 90.5033 162.468 90.5033 162.468 90.5035C162.468 90.5037 162.468 90.5041 162.468 90.5046C162.468 90.5056 162.468 90.507 162.467 90.509C162.467 90.5129 162.466 90.5188 162.465 90.5266C162.462 90.5422 162.459 90.5655 162.454 90.5963C162.445 90.658 162.431 90.7497 162.412 90.8701C162.376 91.1108 162.321 91.466 162.252 91.9239C162.112 92.8395 161.911 94.1659 161.662 95.8086C161.163 99.0939 160.475 103.645 159.714 108.706L160.307 108.795C161.068 103.734 161.757 99.1837 162.255 95.8986C162.504 94.256 162.706 92.9297 162.845 92.0141C162.915 91.5563 162.969 91.2012 163.005 90.9605C163.024 90.8401 163.038 90.7484 163.047 90.6868C163.052 90.6559 163.055 90.6326 163.058 90.6171C163.059 90.6093 163.06 90.6034 163.06 90.5995C163.061 90.5975 163.061 90.596 163.061 90.5951C163.061 90.5946 163.061 90.5942 163.061 90.5939C163.061 90.5938 163.061 90.5937 163.061 90.5937C163.061 90.5936 163.061 90.5936 162.765 90.5483Z" fill="black" mask="url(#path-12-inside-2)"/>
<path d="M191.454 80.3688L191.662 80.4257L191.643 80.2108C191.396 77.4219 193.19 75.6213 195.392 75.0633C197.601 74.5037 200.185 75.2035 201.491 77.3974C201.721 77.7937 201.877 78.2777 202.041 78.7872C202.083 78.9188 202.126 79.0521 202.171 79.186C202.385 79.8246 202.643 80.4727 203.114 80.9234L203.114 80.9235C203.714 81.4974 204.367 81.6728 205.036 81.7524C205.254 81.7783 205.479 81.7945 205.704 81.8106C205.819 81.8189 205.934 81.8272 206.048 81.8368C206.389 81.8654 206.731 81.9062 207.077 81.993L207.077 81.9931L207.08 81.9939C208.412 82.2914 209.628 82.9613 210.581 83.9225C211.534 84.8837 212.184 86.0951 212.452 87.4106C212.72 88.726 212.596 90.0898 212.094 91.3375C211.592 92.5852 210.733 93.6639 209.621 94.4432L209.465 94.5526L209.608 94.6786C210.325 95.3095 210.599 96.2401 210.521 97.2031C210.441 98.1673 210.009 99.1486 209.333 99.8566C207.965 101.289 205.953 101.901 203.983 102.464L203.828 102.509L203.883 102.66C204.645 104.762 205.024 106.981 205 109.212C204.977 110.315 204.702 111.398 204.196 112.382C203.691 113.365 202.968 114.225 202.081 114.898C200.241 116.128 197.465 116.033 196.058 114.384L195.929 114.233L195.819 114.399C195.178 115.362 194.253 116.11 193.166 116.541C192.08 116.973 190.885 117.067 189.742 116.811C188.6 116.556 187.564 115.963 186.775 115.112C185.986 114.261 185.481 113.193 185.327 112.053L185.299 111.842L185.11 111.939C183.765 112.631 182.178 112.509 180.798 111.846C179.418 111.182 178.265 109.984 177.788 108.554C176.831 105.678 178.12 102.392 180.374 100.279L180.497 100.163L180.367 100.055C178.703 98.6634 178.358 96.1434 179.102 94.0903C179.982 92.0636 181.457 90.3407 183.339 89.1428C183.855 88.8402 184.296 88.4296 184.632 87.9401L184.641 87.9272L184.647 87.9128C184.91 87.283 185.028 86.6041 184.994 85.9243C185.064 84.2833 185.743 82.7239 186.905 81.5422C187.489 80.9687 188.218 80.5576 189.017 80.3513C189.816 80.1449 190.657 80.1509 191.454 80.3688Z" fill="white" stroke="black" stroke-width="0.3"/>
<mask id="path-15-inside-3" fill="white">
<path d="M192.802 114.354C192.749 112.978 192.711 111.511 193.419 110.329C193.872 109.668 194.432 109.084 195.077 108.601C196.121 107.676 197.267 106.868 198.493 106.192C199.733 105.518 201.16 105.255 202.564 105.444C201.004 106.85 198.76 107.322 197.131 108.623C195.266 110.193 193.822 112.189 192.924 114.436C191.692 118.469 191.631 123.339 190.992 127.521C190.352 131.704 189.706 136.013 189.067 140.24C188.397 144.729 187.225 149.375 187.035 153.893C187.035 154.529 184.639 155.584 182.782 151.881C185.065 145.148 186.952 138.287 188.663 131.412C190.124 125.554 191.41 119.636 192.3 113.666C192.696 110.973 193.388 107.905 193.236 105.182C193.084 102.302 189.987 99.4811 187.53 98.2467C187.362 98.1569 187.187 98.0746 187.012 97.9998C186.754 98.1793 186.944 98.5833 187.165 98.8227C189.036 100.873 191.555 102.511 192.536 105.092C192.795 105.773 192.932 106.491 193.168 107.179C193.015 106.738 193.563 105.451 193.487 104.815C193.371 103.967 193.305 103.113 193.289 102.257C193.329 100.252 193.178 98.2486 192.84 96.2716L195.77 96.0696C195.77 96.0696 194.537 104.15 193 114.272"/>
</mask>
<path d="M192.802 114.354C192.749 112.978 192.711 111.511 193.419 110.329C193.872 109.668 194.432 109.084 195.077 108.601C196.121 107.676 197.267 106.868 198.493 106.192C199.733 105.518 201.16 105.255 202.564 105.444C201.004 106.85 198.76 107.322 197.131 108.623C195.266 110.193 193.822 112.189 192.924 114.436C191.692 118.469 191.631 123.339 190.992 127.521C190.352 131.704 189.706 136.013 189.067 140.24C188.397 144.729 187.225 149.375 187.035 153.893C187.035 154.529 184.639 155.584 182.782 151.881C185.065 145.148 186.952 138.287 188.663 131.412C190.124 125.554 191.41 119.636 192.3 113.666C192.696 110.973 193.388 107.905 193.236 105.182C193.084 102.302 189.987 99.4811 187.53 98.2467C187.362 98.1569 187.187 98.0746 187.012 97.9998C186.754 98.1793 186.944 98.5833 187.165 98.8227C189.036 100.873 191.555 102.511 192.536 105.092C192.795 105.773 192.932 106.491 193.168 107.179C193.015 106.738 193.563 105.451 193.487 104.815C193.371 103.967 193.305 103.113 193.289 102.257C193.329 100.252 193.178 98.2486 192.84 96.2716L195.77 96.0696C195.77 96.0696 194.537 104.15 193 114.272" fill="white"/>
<path d="M193.419 110.329L193.171 110.16L193.166 110.167L193.161 110.175L193.419 110.329ZM195.077 108.601L195.257 108.841L195.267 108.834L195.276 108.825L195.077 108.601ZM198.493 106.192L198.35 105.928L198.349 105.929L198.493 106.192ZM202.564 105.444L202.765 105.667L203.246 105.233L202.604 105.146L202.564 105.444ZM197.131 108.623L196.944 108.389L196.938 108.394L197.131 108.623ZM192.924 114.436L192.646 114.325L192.641 114.337L192.637 114.349L192.924 114.436ZM189.067 140.24L188.77 140.195L188.77 140.196L189.067 140.24ZM187.035 153.893L186.735 153.881V153.893H187.035ZM182.782 151.881L182.498 151.785L182.458 151.903L182.514 152.015L182.782 151.881ZM188.663 131.412L188.372 131.339L188.372 131.339L188.663 131.412ZM192.3 113.666L192.597 113.71L192.597 113.709L192.3 113.666ZM193.236 105.182L192.936 105.198L192.937 105.199L193.236 105.182ZM187.53 98.2467L187.388 98.5111L187.395 98.5148L187.53 98.2467ZM187.012 97.9998L187.13 97.7239L186.978 97.6587L186.841 97.7533L187.012 97.9998ZM187.165 98.8227L187.386 98.6205L187.385 98.6194L187.165 98.8227ZM192.536 105.092L192.817 104.986L192.816 104.986L192.536 105.092ZM193.168 107.179L192.884 107.277L193.451 107.082L193.168 107.179ZM193.487 104.815L193.785 104.78L193.784 104.775L193.487 104.815ZM193.289 102.257L192.989 102.251L192.989 102.262L193.289 102.257ZM192.84 96.2716L192.82 95.9723L192.489 95.9951L192.545 96.3221L192.84 96.2716ZM195.77 96.0696L196.066 96.1148L196.123 95.7445L195.749 95.7703L195.77 96.0696ZM193.102 114.343C193.048 112.949 193.022 111.576 193.676 110.483L193.161 110.175C192.4 111.446 192.45 113.006 192.503 114.366L193.102 114.343ZM193.666 110.499C194.101 109.865 194.638 109.305 195.257 108.841L194.897 108.361C194.226 108.863 193.643 109.471 193.171 110.16L193.666 110.499ZM195.276 108.825C196.304 107.915 197.431 107.12 198.638 106.455L198.349 105.929C197.103 106.616 195.939 107.436 194.878 108.376L195.276 108.825ZM198.637 106.455C199.82 105.812 201.183 105.561 202.524 105.741L202.604 105.146C201.137 104.95 199.646 105.224 198.35 105.928L198.637 106.455ZM202.363 105.221C201.62 105.891 200.707 106.344 199.744 106.802C198.795 107.254 197.791 107.712 196.944 108.389L197.319 108.858C198.1 108.233 199.033 107.805 200.002 107.344C200.958 106.889 201.948 106.403 202.765 105.667L202.363 105.221ZM196.938 108.394C195.036 109.995 193.562 112.032 192.646 114.325L193.203 114.548C194.082 112.347 195.497 110.391 197.325 108.853L196.938 108.394ZM192.637 114.349C192.012 116.393 191.687 118.642 191.437 120.89C191.186 123.149 191.013 125.393 190.695 127.476L191.288 127.567C191.609 125.468 191.786 123.186 192.033 120.956C192.282 118.715 192.603 116.512 193.211 114.524L192.637 114.349ZM190.695 127.476C190.056 131.659 189.409 135.968 188.77 140.195L189.363 140.285C190.002 136.057 190.649 131.749 191.288 127.567L190.695 127.476ZM188.77 140.196C188.436 142.436 187.978 144.705 187.576 147.004C187.175 149.295 186.831 151.601 186.736 153.881L187.335 153.906C187.429 151.667 187.767 149.391 188.167 147.107C188.565 144.831 189.028 142.533 189.363 140.284L188.77 140.196ZM186.735 153.893C186.735 153.88 186.74 153.9 186.699 153.949C186.66 153.995 186.593 154.051 186.495 154.101C186.299 154.202 186.005 154.269 185.648 154.217C184.946 154.116 183.952 153.544 183.05 151.746L182.514 152.015C183.469 153.921 184.601 154.673 185.562 154.811C186.037 154.88 186.457 154.795 186.769 154.635C186.924 154.555 187.059 154.453 187.159 154.334C187.256 154.218 187.335 154.066 187.335 153.893H186.735ZM183.066 151.977C185.352 145.233 187.242 138.364 188.955 131.484L188.372 131.339C186.662 138.21 184.777 145.062 182.498 151.785L183.066 151.977ZM188.955 131.484C190.417 125.621 191.705 119.693 192.597 113.71L192.003 113.622C191.115 119.579 189.832 125.487 188.372 131.339L188.955 131.484ZM192.597 113.709C192.987 111.052 193.69 107.929 193.536 105.165L192.937 105.199C193.086 107.882 192.404 110.893 192.003 113.622L192.597 113.709ZM193.536 105.166C193.454 103.628 192.592 102.14 191.47 100.896C190.344 99.648 188.925 98.6119 187.664 97.9786L187.395 98.5148C188.592 99.1159 189.95 100.107 191.025 101.298C192.103 102.493 192.866 103.855 192.936 105.198L193.536 105.166ZM187.672 97.9823C187.495 97.8876 187.312 97.8015 187.13 97.7239L186.895 98.2756C187.063 98.3477 187.23 98.4262 187.388 98.511L187.672 97.9823ZM186.841 97.7533C186.562 97.9475 186.56 98.2566 186.62 98.4695C186.679 98.6811 186.812 98.8825 186.944 99.026L187.385 98.6194C187.297 98.5236 187.224 98.4033 187.198 98.3082C187.185 98.2621 187.188 98.2401 187.189 98.2365C187.189 98.236 187.188 98.239 187.185 98.2432C187.182 98.2476 187.181 98.2483 187.184 98.2462L186.841 97.7533ZM186.943 99.025C187.419 99.5467 187.935 100.04 188.45 100.523C188.968 101.008 189.483 101.481 189.972 101.97C190.948 102.949 191.787 103.967 192.256 105.199L192.816 104.986C192.303 103.636 191.393 102.545 190.397 101.546C189.899 101.047 189.372 100.564 188.861 100.085C188.347 99.6038 187.846 99.1237 187.386 98.6205L186.943 99.025ZM192.256 105.199C192.379 105.524 192.475 105.862 192.571 106.212C192.666 106.559 192.762 106.922 192.884 107.277L193.451 107.082C193.337 106.749 193.247 106.408 193.15 106.054C193.054 105.703 192.951 105.341 192.817 104.986L192.256 105.199ZM193.451 107.082C193.439 107.047 193.432 106.949 193.461 106.758C193.487 106.58 193.536 106.37 193.591 106.14C193.644 105.915 193.703 105.671 193.743 105.443C193.783 105.22 193.809 104.984 193.785 104.78L193.189 104.851C193.203 104.964 193.19 105.128 193.152 105.339C193.116 105.545 193.062 105.77 193.007 106.001C192.953 106.227 192.898 106.462 192.867 106.669C192.838 106.863 192.82 107.091 192.884 107.277L193.451 107.082ZM193.784 104.775C193.669 103.938 193.604 103.095 193.589 102.251L192.989 102.262C193.005 103.13 193.072 103.996 193.19 104.856L193.784 104.775ZM193.589 102.263C193.629 100.239 193.477 98.2167 193.136 96.221L192.545 96.3221C192.879 98.2806 193.028 100.265 192.989 102.251L193.589 102.263ZM192.861 96.5709L195.79 96.3689L195.749 95.7703L192.82 95.9723L192.861 96.5709ZM195.77 96.0696C195.473 96.0243 195.473 96.0244 195.473 96.0244C195.473 96.0245 195.473 96.0246 195.473 96.0247C195.473 96.025 195.473 96.0253 195.473 96.0258C195.473 96.0268 195.472 96.0283 195.472 96.0302C195.472 96.0342 195.471 96.04 195.469 96.0478C195.467 96.0634 195.464 96.0867 195.459 96.1176C195.449 96.1792 195.435 96.271 195.417 96.3913C195.38 96.632 195.326 96.9872 195.256 97.445C195.117 98.3607 194.915 99.687 194.665 101.33C194.164 104.615 193.472 109.166 192.704 114.227L193.297 114.317C194.065 109.256 194.758 104.705 195.258 101.42C195.508 99.7774 195.71 98.4511 195.85 97.5354C195.919 97.0776 195.974 96.7225 196.01 96.4818C196.029 96.3614 196.043 96.2697 196.052 96.208C196.057 96.1772 196.06 96.1539 196.063 96.1383C196.064 96.1305 196.065 96.1246 196.065 96.1207C196.066 96.1188 196.066 96.1173 196.066 96.1163C196.066 96.1158 196.066 96.1154 196.066 96.1152C196.066 96.1151 196.066 96.115 196.066 96.1149C196.066 96.1149 196.066 96.1148 195.77 96.0696Z" fill="black" mask="url(#path-15-inside-3)"/>
<path d="M169.374 112.097L169.582 112.154L169.563 111.94C169.434 110.423 170.409 109.441 171.619 109.138C172.835 108.834 174.256 109.224 174.992 110.436C175.12 110.653 175.206 110.917 175.299 111.205C175.322 111.276 175.345 111.349 175.37 111.422C175.49 111.779 175.638 112.157 175.915 112.42L175.914 112.42L175.919 112.424C176.277 112.74 176.655 112.84 177.033 112.889C177.154 112.905 177.281 112.915 177.405 112.926C177.469 112.931 177.532 112.937 177.595 112.943C177.782 112.961 177.968 112.985 178.157 113.033L178.157 113.033L178.16 113.034C178.887 113.202 179.549 113.572 180.067 114.099C180.586 114.626 180.94 115.288 181.087 116.006C181.234 116.724 181.168 117.469 180.898 118.151C180.627 118.834 180.163 119.427 179.56 119.858L179.407 119.968L179.548 120.092C179.926 120.427 180.069 120.92 180.024 121.438C179.978 121.955 179.745 122.482 179.39 122.865C178.551 123.602 177.527 124.105 176.423 124.322L176.252 124.355L176.311 124.52C176.73 125.689 176.938 126.922 176.926 128.162C176.912 128.767 176.761 129.362 176.483 129.902C176.205 130.441 175.809 130.913 175.321 131.283C174.829 131.625 174.228 131.783 173.627 131.73C173.024 131.677 172.462 131.415 172.039 130.992L171.909 130.862L171.808 131.014C171.457 131.54 170.95 131.949 170.356 132.184C169.762 132.42 169.109 132.472 168.484 132.333C167.859 132.194 167.292 131.871 166.86 131.407C166.427 130.943 166.149 130.361 166.063 129.738L166.034 129.528L165.846 129.625C165.117 129.999 164.255 129.933 163.5 129.568C162.747 129.203 162.119 128.548 161.858 127.77C161.646 126.958 161.665 126.105 161.914 125.302C162.164 124.499 162.634 123.778 163.274 123.22L163.398 123.112L163.279 122.999C162.844 122.585 162.543 122.055 162.414 121.475C162.286 120.895 162.334 120.291 162.553 119.739C163.04 118.618 163.856 117.666 164.897 117.003C165.191 116.827 165.443 116.591 165.635 116.309L165.643 116.297L165.649 116.283C165.801 115.924 165.87 115.535 165.851 115.147C165.89 114.245 166.264 113.388 166.903 112.739C167.219 112.427 167.615 112.202 168.049 112.089C168.484 111.976 168.941 111.979 169.374 112.097Z" fill="white" stroke="black" stroke-width="0.3"/>
<mask id="path-18-inside-4" fill="white">
<path d="M170.145 131.023C170.043 130.257 170.164 129.479 170.495 128.778C170.742 128.407 171.054 128.08 171.415 127.813C171.997 127.293 172.638 126.842 173.325 126.467C174.02 126.088 174.821 125.941 175.608 126.048C174.74 126.796 173.492 127.095 172.564 127.821C171.523 128.699 170.716 129.813 170.213 131.068C169.529 133.312 169.491 136.043 169.133 138.377L168.06 145.492C167.687 147.99 167.033 150.601 166.927 153.122C166.927 153.482 165.587 154.065 164.553 152C165.808 148.26 166.881 144.407 167.84 140.561C168.654 137.292 169.361 133.985 169.863 130.649C170.193 129.09 170.369 127.505 170.388 125.913C170.305 124.305 168.578 122.726 167.2 122.038L166.911 121.896C166.767 122 166.911 122.225 166.995 122.359C168.045 123.504 169.452 124.417 170 125.861C170.145 126.242 170.221 126.609 170.35 127.028C170.267 126.781 170.571 126.063 170.533 125.711C170.464 125.235 170.426 124.755 170.419 124.275C170.442 123.152 170.358 122.03 170.168 120.923L171.803 120.811L170.282 130.978"/>
</mask>
<path d="M170.145 131.023C170.043 130.257 170.164 129.479 170.495 128.778C170.742 128.407 171.054 128.08 171.415 127.813C171.997 127.293 172.638 126.842 173.325 126.467C174.02 126.088 174.821 125.941 175.608 126.048C174.74 126.796 173.492 127.095 172.564 127.821C171.523 128.699 170.716 129.813 170.213 131.068C169.529 133.312 169.491 136.043 169.133 138.377L168.06 145.492C167.687 147.99 167.033 150.601 166.927 153.122C166.927 153.482 165.587 154.065 164.553 152C165.808 148.26 166.881 144.407 167.84 140.561C168.654 137.292 169.361 133.985 169.863 130.649C170.193 129.09 170.369 127.505 170.388 125.913C170.305 124.305 168.578 122.726 167.2 122.038L166.911 121.896C166.767 122 166.911 122.225 166.995 122.359C168.045 123.504 169.452 124.417 170 125.861C170.145 126.242 170.221 126.609 170.35 127.028C170.267 126.781 170.571 126.063 170.533 125.711C170.464 125.235 170.426 124.755 170.419 124.275C170.442 123.152 170.358 122.03 170.168 120.923L171.803 120.811L170.282 130.978" fill="white"/>
<path d="M170.495 128.778L170.245 128.612L170.233 128.63L170.224 128.65L170.495 128.778ZM171.415 127.813L171.594 128.055L171.605 128.046L171.615 128.037L171.415 127.813ZM173.325 126.467L173.469 126.73L173.469 126.73L173.325 126.467ZM175.608 126.048L175.804 126.275L176.307 125.84L175.648 125.75L175.608 126.048ZM172.564 127.821L172.379 127.584L172.371 127.591L172.564 127.821ZM170.213 131.068L169.935 130.956L169.93 130.968L169.926 130.98L170.213 131.068ZM169.133 138.377L168.836 138.331L168.836 138.332L169.133 138.377ZM168.06 145.492L167.764 145.447L167.763 145.447L168.06 145.492ZM166.927 153.122L166.627 153.11V153.122H166.927ZM164.553 152L164.268 151.905L164.229 152.023L164.285 152.135L164.553 152ZM167.84 140.561L168.131 140.634L168.131 140.634L167.84 140.561ZM169.863 130.649L169.57 130.587L169.568 130.595L169.567 130.604L169.863 130.649ZM170.388 125.913L170.688 125.917L170.688 125.907L170.688 125.897L170.388 125.913ZM167.2 122.038L167.335 121.769L167.333 121.769L167.2 122.038ZM166.911 121.896L167.044 121.626L166.882 121.547L166.735 121.653L166.911 121.896ZM166.995 122.359L166.74 122.518L166.755 122.542L166.774 122.562L166.995 122.359ZM170 125.861L170.281 125.754L170.281 125.754L170 125.861ZM170.35 127.028L170.066 127.124L170.637 126.939L170.35 127.028ZM170.533 125.711L170.831 125.679L170.83 125.668L170.533 125.711ZM170.419 124.275L170.119 124.268L170.119 124.279L170.419 124.275ZM170.168 120.923L170.147 120.624L169.816 120.646L169.872 120.974L170.168 120.923ZM171.803 120.811L172.1 120.855L172.155 120.486L171.783 120.511L171.803 120.811ZM170.442 130.983C170.348 130.275 170.46 129.555 170.766 128.907L170.224 128.65C169.868 129.403 169.738 130.239 169.847 131.062L170.442 130.983ZM170.745 128.945C170.973 128.602 171.26 128.301 171.594 128.055L171.237 127.572C170.848 127.859 170.512 128.211 170.245 128.612L170.745 128.945ZM171.615 128.037C172.18 127.533 172.802 127.094 173.469 126.73L173.181 126.203C172.474 126.589 171.814 127.054 171.216 127.59L171.615 128.037ZM173.469 126.73C174.107 126.382 174.843 126.246 175.567 126.345L175.648 125.75C174.798 125.635 173.932 125.793 173.181 126.203L173.469 126.73ZM175.412 125.821C175.012 126.165 174.519 126.411 173.978 126.673C173.45 126.928 172.874 127.198 172.379 127.584L172.749 128.057C173.183 127.718 173.695 127.476 174.239 127.213C174.771 126.956 175.335 126.679 175.804 126.275L175.412 125.821ZM172.371 127.591C171.293 128.501 170.456 129.656 169.935 130.956L170.492 131.179C170.976 129.971 171.754 128.897 172.758 128.05L172.371 127.591ZM169.926 130.98C169.575 132.13 169.392 133.397 169.252 134.655C169.111 135.925 169.014 137.172 168.836 138.331L169.429 138.422C169.609 137.248 169.71 135.963 169.849 134.722C169.988 133.47 170.166 132.25 170.5 131.155L169.926 130.98ZM168.836 138.332L167.764 145.447L168.357 145.536L169.43 138.422L168.836 138.332ZM167.763 145.447C167.397 147.903 166.734 150.57 166.627 153.11L167.226 153.135C167.332 150.633 167.978 148.077 168.357 145.536L167.763 145.447ZM166.627 153.122C166.627 153.075 166.647 153.057 166.637 153.07C166.628 153.08 166.606 153.1 166.564 153.122C166.48 153.165 166.344 153.199 166.171 153.173C165.836 153.125 165.311 152.845 164.821 151.866L164.285 152.135C164.829 153.221 165.491 153.681 166.085 153.767C166.375 153.809 166.638 153.759 166.838 153.656C166.938 153.605 167.028 153.537 167.097 153.454C167.164 153.374 167.227 153.26 167.227 153.122H166.627ZM164.837 152.096C166.096 148.345 167.171 144.484 168.131 140.634L167.548 140.489C166.591 144.329 165.52 148.174 164.268 151.905L164.837 152.096ZM168.131 140.634C168.946 137.358 169.656 134.042 170.16 130.693L169.567 130.604C169.066 133.929 168.361 137.226 167.548 140.489L168.131 140.634ZM170.157 130.711C170.49 129.133 170.668 127.528 170.688 125.917L170.088 125.909C170.069 127.481 169.895 129.048 169.57 130.587L170.157 130.711ZM170.688 125.897C170.641 124.996 170.139 124.136 169.502 123.429C168.862 122.719 168.056 122.13 167.335 121.769L167.066 122.306C167.722 122.634 168.468 123.178 169.057 123.831C169.649 124.488 170.052 125.222 170.089 125.929L170.688 125.897ZM167.333 121.769L167.044 121.626L166.779 122.165L167.068 122.307L167.333 121.769ZM166.735 121.653C166.63 121.729 166.571 121.836 166.555 121.95C166.54 122.053 166.561 122.145 166.583 122.211C166.625 122.338 166.704 122.46 166.74 122.518L167.25 122.201C167.227 122.165 167.207 122.133 167.189 122.099C167.17 122.066 167.158 122.04 167.152 122.022C167.145 122.001 167.152 122.01 167.149 122.036C167.146 122.052 167.141 122.072 167.128 122.093C167.116 122.114 167.1 122.129 167.087 122.139L166.735 121.653ZM166.774 122.562C167.045 122.858 167.337 123.136 167.626 123.406C167.917 123.678 168.203 123.939 168.474 124.21C169.015 124.752 169.468 125.305 169.72 125.967L170.281 125.754C169.984 124.973 169.46 124.348 168.898 123.786C168.618 123.505 168.32 123.233 168.035 122.967C167.748 122.699 167.47 122.434 167.216 122.157L166.774 122.562ZM169.72 125.967C169.862 126.342 169.922 126.659 170.064 127.116L170.637 126.939C170.52 126.559 170.428 126.143 170.281 125.754L169.72 125.967ZM170.634 126.931C170.639 126.945 170.63 126.918 170.645 126.812C170.659 126.719 170.685 126.608 170.716 126.478C170.746 126.355 170.78 126.215 170.804 126.084C170.827 125.957 170.845 125.811 170.831 125.679L170.235 125.743C170.239 125.787 170.234 125.862 170.213 125.977C170.193 126.087 170.164 126.208 170.133 126.339C170.103 126.464 170.071 126.6 170.052 126.723C170.036 126.832 170.02 126.988 170.066 127.124L170.634 126.931ZM170.83 125.668C170.762 125.205 170.725 124.738 170.719 124.27L170.119 124.279C170.126 124.773 170.165 125.265 170.236 125.754L170.83 125.668ZM170.719 124.281C170.742 123.139 170.657 121.998 170.463 120.872L169.872 120.974C170.059 122.062 170.141 123.165 170.119 124.268L170.719 124.281ZM170.188 121.222L171.824 121.11L171.783 120.511L170.147 120.624L170.188 121.222ZM171.507 120.766L169.985 130.933L170.578 131.022L172.1 120.855L171.507 120.766Z" fill="black" mask="url(#path-18-inside-4)"/>
<path d="M209.936 112.733L210.132 112.82L210.147 112.606C210.255 111.002 211.426 110.13 212.731 110.001C214.041 109.872 215.453 110.496 216.021 111.866C216.117 112.114 216.162 112.399 216.211 112.704C216.224 112.786 216.237 112.869 216.252 112.953C216.318 113.34 216.412 113.747 216.657 114.064C216.963 114.468 217.35 114.631 217.74 114.736C217.864 114.77 217.994 114.798 218.121 114.826C218.189 114.841 218.257 114.856 218.322 114.872C218.514 114.917 218.699 114.968 218.877 115.045L218.877 115.045L218.882 115.047C219.611 115.334 220.241 115.82 220.697 116.449C221.153 117.077 221.415 117.82 221.453 118.59C221.49 119.36 221.302 120.125 220.911 120.794C220.519 121.462 219.94 122.006 219.242 122.36L219.073 122.446L219.195 122.59C219.537 122.998 219.612 123.533 219.483 124.066C219.355 124.599 219.026 125.116 218.583 125.469C217.601 126.099 216.465 126.459 215.293 126.511L215.12 126.519L215.153 126.69C215.401 127.968 215.422 129.278 215.213 130.563C215.099 131.194 214.841 131.792 214.46 132.312C214.079 132.832 213.583 133.261 213.01 133.568C212.442 133.846 211.791 133.918 211.174 133.77C210.556 133.622 210.012 133.263 209.638 132.759L209.53 132.612L209.407 132.747C208.957 133.24 208.365 133.587 207.709 133.74C207.053 133.893 206.365 133.845 205.737 133.603C205.11 133.36 204.573 132.935 204.199 132.385C203.824 131.835 203.63 131.186 203.642 130.524L203.646 130.312L203.445 130.379C202.612 130.657 201.724 130.456 201.001 129.961C200.279 129.467 199.735 128.689 199.585 127.838C199.497 126.959 199.656 126.073 200.046 125.278C200.436 124.48 201.043 123.804 201.8 123.324L201.938 123.236L201.838 123.106C201.457 122.607 201.235 122.009 201.199 121.387C201.163 120.766 201.314 120.147 201.634 119.61C202.32 118.52 203.321 117.655 204.508 117.126C204.846 116.994 205.148 116.786 205.391 116.52L205.401 116.509L205.409 116.496C205.618 116.147 205.749 115.759 205.794 115.356C205.969 114.424 206.49 113.587 207.256 113.008C207.638 112.734 208.087 112.564 208.557 112.516C209.029 112.467 209.504 112.542 209.936 112.733Z" fill="white" stroke="black" stroke-width="0.3"/>
<mask id="path-21-inside-5" fill="white">
<path d="M207.707 132.489C207.727 131.69 207.975 130.912 208.422 130.245C208.743 129.898 209.121 129.607 209.54 129.384C210.227 128.938 210.962 128.569 211.732 128.284C212.51 128 213.362 127.971 214.159 128.202C213.131 128.883 211.8 128.95 210.727 129.579C209.504 130.321 208.488 131.349 207.768 132.571C206.687 134.816 206.246 137.614 205.485 139.985L203.203 147.205C202.442 149.741 201.316 152.345 200.806 154.948C200.737 155.315 199.284 155.696 198.523 153.452C200.433 149.711 202.16 145.933 203.766 142.088C205.135 138.818 206.406 135.504 207.456 132.115C208.047 130.546 208.483 128.925 208.757 127.275C208.924 125.599 207.387 123.691 206.071 122.786L205.789 122.599C205.622 122.681 205.698 122.935 205.789 123.092C206.695 124.439 208.003 125.606 208.346 127.192C208.429 127.604 208.445 128.038 208.521 128.457C208.475 128.187 208.909 127.484 208.924 127.11C208.929 126.609 208.967 126.109 209.038 125.614C209.236 124.452 209.327 123.275 209.312 122.097L211.024 122.232L207.798 132.549"/>
</mask>
<path d="M207.707 132.489C207.727 131.69 207.975 130.912 208.422 130.245C208.743 129.898 209.121 129.607 209.54 129.384C210.227 128.938 210.962 128.569 211.732 128.284C212.51 128 213.362 127.971 214.159 128.202C213.131 128.883 211.8 128.95 210.727 129.579C209.504 130.321 208.488 131.349 207.768 132.571C206.687 134.816 206.246 137.614 205.485 139.985L203.203 147.205C202.442 149.741 201.316 152.345 200.806 154.948C200.737 155.315 199.284 155.696 198.523 153.452C200.433 149.711 202.16 145.933 203.766 142.088C205.135 138.818 206.406 135.504 207.456 132.115C208.047 130.546 208.483 128.925 208.757 127.275C208.924 125.599 207.387 123.691 206.071 122.786L205.789 122.599C205.622 122.681 205.698 122.935 205.789 123.092C206.695 124.439 208.003 125.606 208.346 127.192C208.429 127.604 208.445 128.038 208.521 128.457C208.475 128.187 208.909 127.484 208.924 127.11C208.929 126.609 208.967 126.109 209.038 125.614C209.236 124.452 209.327 123.275 209.312 122.097L211.024 122.232L207.798 132.549" fill="white"/>
<path d="M208.422 130.245L208.202 130.041L208.186 130.058L208.173 130.078L208.422 130.245ZM209.54 129.384L209.681 129.649L209.693 129.643L209.704 129.636L209.54 129.384ZM211.732 128.284L211.628 128.003L211.627 128.003L211.732 128.284ZM214.159 128.202L214.324 128.452L214.864 128.095L214.242 127.914L214.159 128.202ZM210.727 129.579L210.576 129.32L210.572 129.322L210.727 129.579ZM207.768 132.571L207.509 132.419L207.503 132.43L207.497 132.441L207.768 132.571ZM205.485 139.985L205.199 139.894L205.199 139.895L205.485 139.985ZM203.203 147.205L202.916 147.114L202.915 147.119L203.203 147.205ZM200.806 154.948L200.512 154.89L200.511 154.893L200.806 154.948ZM198.523 153.452L198.256 153.315L198.199 153.428L198.239 153.548L198.523 153.452ZM203.766 142.088L203.489 141.972L203.489 141.972L203.766 142.088ZM207.456 132.115L207.175 132.009L207.172 132.018L207.169 132.026L207.456 132.115ZM208.757 127.275L209.053 127.324L209.054 127.314L209.055 127.304L208.757 127.275ZM206.071 122.786L206.241 122.538L206.237 122.536L206.071 122.786ZM205.789 122.599L205.955 122.349L205.812 122.253L205.657 122.329L205.789 122.599ZM205.789 123.092L205.53 123.243L205.535 123.252L205.54 123.26L205.789 123.092ZM208.346 127.192L208.64 127.132L208.639 127.129L208.346 127.192ZM208.521 128.457L208.226 128.51L208.817 128.406L208.521 128.457ZM208.924 127.11L209.224 127.122L209.224 127.113L208.924 127.11ZM209.038 125.614L208.742 125.563L208.741 125.571L209.038 125.614ZM209.312 122.097L209.336 121.798L209.008 121.773L209.012 122.101L209.312 122.097ZM211.024 122.232L211.31 122.322L211.423 121.963L211.047 121.933L211.024 122.232ZM208.007 132.497C208.025 131.755 208.255 131.032 208.671 130.412L208.173 130.078C207.694 130.792 207.428 131.625 207.407 132.481L208.007 132.497ZM208.642 130.448C208.94 130.126 209.291 129.856 209.681 129.649L209.4 129.119C208.951 129.358 208.545 129.669 208.202 130.041L208.642 130.448ZM209.704 129.636C210.371 129.202 211.087 128.843 211.836 128.566L211.627 128.003C210.837 128.296 210.082 128.675 209.377 129.133L209.704 129.636ZM211.835 128.566C212.553 128.303 213.339 128.277 214.075 128.49L214.242 127.914C213.384 127.665 212.467 127.696 211.628 128.003L211.835 128.566ZM213.993 127.952C213.521 128.265 212.972 128.441 212.373 128.623C211.787 128.801 211.149 128.984 210.576 129.32L210.879 129.838C211.378 129.545 211.942 129.381 212.547 129.197C213.138 129.018 213.769 128.82 214.324 128.452L213.993 127.952ZM210.572 129.322C209.307 130.09 208.254 131.153 207.509 132.419L208.026 132.724C208.721 131.544 209.702 130.552 210.883 129.835L210.572 129.322ZM207.497 132.441C206.944 133.59 206.558 134.873 206.217 136.153C205.873 137.443 205.577 138.717 205.199 139.894L205.771 140.077C206.154 138.882 206.459 137.571 206.796 136.308C207.136 135.035 207.511 133.797 208.038 132.701L207.497 132.441ZM205.199 139.895L202.917 147.114L203.489 147.295L205.771 140.076L205.199 139.895ZM202.915 147.119C202.537 148.38 202.07 149.652 201.626 150.955C201.185 152.251 200.77 153.568 200.512 154.89L201.1 155.006C201.351 153.725 201.755 152.438 202.194 151.148C202.631 149.864 203.107 148.566 203.49 147.291L202.915 147.119ZM200.511 154.893C200.519 154.851 200.539 154.841 200.524 154.854C200.511 154.865 200.482 154.884 200.433 154.9C200.336 154.932 200.188 154.945 200.01 154.892C199.667 154.789 199.169 154.42 198.808 153.355L198.239 153.548C198.639 154.728 199.248 155.29 199.839 155.467C200.128 155.553 200.403 155.542 200.622 155.469C200.731 155.433 200.832 155.38 200.915 155.308C200.995 155.239 201.076 155.137 201.101 155.003L200.511 154.893ZM198.791 153.588C200.704 149.84 202.435 146.055 204.042 142.203L203.489 141.972C201.886 145.811 200.162 149.582 198.256 153.315L198.791 153.588ZM204.042 142.204C205.414 138.929 206.688 135.605 207.742 132.204L207.169 132.026C206.123 135.403 204.856 138.708 203.489 141.972L204.042 142.204ZM207.736 132.221C208.335 130.634 208.775 128.994 209.053 127.324L208.461 127.225C208.19 128.857 207.759 130.459 207.175 132.009L207.736 132.221ZM209.055 127.304C209.149 126.369 208.767 125.403 208.221 124.576C207.671 123.744 206.931 123.013 206.241 122.539L205.901 123.033C206.527 123.464 207.213 124.139 207.72 124.906C208.229 125.678 208.532 126.504 208.458 127.245L209.055 127.304ZM206.237 122.536L205.955 122.349L205.623 122.849L205.905 123.036L206.237 122.536ZM205.657 122.329C205.41 122.451 205.379 122.698 205.394 122.848C205.409 122.998 205.472 123.142 205.53 123.243L206.049 122.942C206.034 122.916 206.02 122.887 206.009 122.857C205.998 122.827 205.992 122.803 205.991 122.787C205.989 122.77 205.993 122.778 205.985 122.799C205.98 122.811 205.972 122.825 205.96 122.839C205.947 122.853 205.933 122.862 205.922 122.868L205.657 122.329ZM205.54 123.26C205.774 123.607 206.031 123.94 206.287 124.264C206.545 124.591 206.799 124.906 207.037 125.23C207.511 125.877 207.895 126.524 208.053 127.256L208.639 127.129C208.455 126.274 208.012 125.545 207.521 124.875C207.275 124.54 207.011 124.212 206.758 123.892C206.503 123.569 206.258 123.252 206.038 122.925L205.54 123.26ZM208.052 127.252C208.091 127.443 208.114 127.642 208.138 127.855C208.161 128.064 208.185 128.288 208.226 128.51L208.816 128.403C208.78 128.206 208.758 128.004 208.734 127.788C208.711 127.577 208.685 127.353 208.64 127.132L208.052 127.252ZM208.817 128.406C208.818 128.417 208.814 128.384 208.849 128.275C208.879 128.179 208.924 128.066 208.977 127.936C209.028 127.811 209.086 127.67 209.132 127.538C209.176 127.409 209.218 127.261 209.224 127.122L208.624 127.098C208.622 127.146 208.604 127.226 208.564 127.343C208.526 127.456 208.475 127.578 208.422 127.709C208.37 127.835 208.315 127.972 208.276 128.095C208.241 128.206 208.2 128.362 208.225 128.507L208.817 128.406ZM209.224 127.113C209.229 126.625 209.266 126.139 209.335 125.656L208.741 125.571C208.668 126.08 208.629 126.593 208.624 127.107L209.224 127.113ZM209.334 125.664C209.535 124.484 209.628 123.289 209.612 122.094L209.012 122.101C209.027 123.261 208.937 124.42 208.742 125.563L209.334 125.664ZM209.289 122.396L211 122.531L211.047 121.933L209.336 121.798L209.289 122.396ZM210.738 122.143L207.512 132.459L208.084 132.638L211.31 122.322L210.738 122.143Z" fill="black" mask="url(#path-21-inside-5)"/>
<path d="M88.6726 112.746L88.8878 112.727L88.795 112.532C88.0567 110.98 88.6998 109.577 89.8511 108.804C91.0079 108.028 92.6534 107.906 93.8903 108.919L93.8905 108.919C94.1123 109.101 94.308 109.348 94.5179 109.614C94.5702 109.68 94.6234 109.747 94.6781 109.815C94.9431 110.143 95.2423 110.476 95.6288 110.646C96.1189 110.866 96.5533 110.831 96.969 110.736C97.1044 110.704 97.2429 110.666 97.3795 110.627C97.4475 110.608 97.515 110.59 97.5815 110.572C97.7858 110.517 97.9912 110.47 98.2074 110.449L98.2075 110.449L98.2105 110.448C99.0408 110.35 99.8823 110.488 100.635 110.846C101.388 111.204 102.019 111.767 102.455 112.467C102.891 113.168 103.113 113.977 103.095 114.797C103.077 115.618 102.819 116.416 102.352 117.097L102.245 117.254L102.422 117.322C102.957 117.529 103.309 117.999 103.469 118.567C103.629 119.134 103.592 119.784 103.361 120.326C102.767 121.408 101.892 122.315 100.824 122.956L100.673 123.047L100.787 123.182C101.688 124.246 102.39 125.458 102.86 126.763C103.082 127.407 103.155 128.091 103.074 128.766C102.993 129.44 102.759 130.088 102.39 130.662C102.006 131.209 101.436 131.604 100.782 131.776C100.127 131.948 99.4312 131.885 98.8195 131.598L98.6504 131.518L98.6094 131.701C98.4533 132.395 98.0828 133.026 97.548 133.506C97.0132 133.986 96.3403 134.293 95.6211 134.383C94.9019 134.474 94.172 134.343 93.5313 134.011C92.8905 133.678 92.3703 133.159 92.0415 132.525L91.9447 132.338L91.7997 132.49C91.158 133.164 90.221 133.417 89.2871 133.317C88.3542 133.217 87.4428 132.766 86.8619 132.054C86.3177 131.281 86.0022 130.375 85.9502 129.437C85.898 128.497 86.1123 127.561 86.5692 126.734L86.6482 126.591L86.4991 126.524C85.8801 126.248 85.3588 125.797 85.001 125.23C84.6434 124.663 84.465 124.005 84.4879 123.339C84.5617 121.978 85.0457 120.669 85.8785 119.58C86.1178 119.286 86.2907 118.946 86.3853 118.582L86.3895 118.566L86.39 118.549C86.4051 118.116 86.3239 117.685 86.1523 117.286C85.8395 116.324 85.8974 115.282 86.3151 114.358C86.5309 113.912 86.8615 113.528 87.2746 113.245C87.6882 112.962 88.1701 112.79 88.6726 112.746Z" fill="white" stroke="black" stroke-width="0.3"/>
<mask id="path-24-inside-6" fill="white">
<path d="M96.8612 132.302C96.4507 131.537 96.2737 130.672 96.3514 129.81C96.4693 129.329 96.67 128.871 96.9448 128.456C97.3515 127.692 97.8468 126.976 98.4209 126.324C98.998 125.67 99.7745 125.216 100.635 125.03C100.026 126.175 98.8317 126.923 98.147 128.022C97.3974 129.333 96.9872 130.806 96.9525 132.309C97.1046 134.928 98.1317 137.793 98.6719 140.374C99.2121 142.955 99.7675 145.611 100.323 148.237C100.901 150.998 101.228 153.976 102.103 156.661C102.233 157.035 101.069 158.158 99.1741 156.377C99.0295 151.963 98.6567 147.541 98.1622 143.157C97.7361 139.417 97.2035 135.676 96.4199 132.003C96.1545 130.243 95.7215 128.512 95.1265 126.833C94.4113 125.187 91.9842 124.184 90.2724 123.975H89.9148C89.8006 124.132 90.0061 124.327 90.1811 124.424C91.7027 125.224 93.5591 125.658 94.6928 126.96C94.9895 127.304 95.233 127.708 95.5145 128.052C95.3319 127.828 95.3699 126.953 95.1949 126.601C94.9373 126.117 94.7112 125.617 94.5178 125.105C94.1004 123.921 93.5758 122.777 92.9505 121.686L94.6167 120.938C94.6167 120.938 95.659 125.928 96.9601 132.16"/>
</mask>
<path d="M96.8612 132.302C96.4507 131.537 96.2737 130.672 96.3514 129.81C96.4693 129.329 96.67 128.871 96.9448 128.456C97.3515 127.692 97.8468 126.976 98.4209 126.324C98.998 125.67 99.7745 125.216 100.635 125.03C100.026 126.175 98.8317 126.923 98.147 128.022C97.3974 129.333 96.9872 130.806 96.9525 132.309C97.1046 134.928 98.1317 137.793 98.6719 140.374C99.2121 142.955 99.7675 145.611 100.323 148.237C100.901 150.998 101.228 153.976 102.103 156.661C102.233 157.035 101.069 158.158 99.1741 156.377C99.0295 151.963 98.6567 147.541 98.1622 143.157C97.7361 139.417 97.2035 135.676 96.4199 132.003C96.1545 130.243 95.7215 128.512 95.1265 126.833C94.4113 125.187 91.9842 124.184 90.2724 123.975H89.9148C89.8006 124.132 90.0061 124.327 90.1811 124.424C91.7027 125.224 93.5591 125.658 94.6928 126.96C94.9895 127.304 95.233 127.708 95.5145 128.052C95.3319 127.828 95.3699 126.953 95.1949 126.601C94.9373 126.117 94.7112 125.617 94.5178 125.105C94.1004 123.921 93.5758 122.777 92.9505 121.686L94.6167 120.938C94.6167 120.938 95.659 125.928 96.9601 132.16" fill="white"/>
<path d="M96.3514 129.81L96.06 129.739L96.0546 129.761L96.0526 129.784L96.3514 129.81ZM96.9448 128.456L97.195 128.622L97.2029 128.61L97.2097 128.597L96.9448 128.456ZM98.4209 126.324L98.1959 126.126L98.1957 126.126L98.4209 126.324ZM100.635 125.03L100.9 125.171L101.203 124.6L100.572 124.737L100.635 125.03ZM98.147 128.022L97.8921 127.864L97.8865 127.874L98.147 128.022ZM96.9525 132.309L96.6525 132.302L96.6522 132.315L96.653 132.327L96.9525 132.309ZM100.323 148.237L100.617 148.176L100.616 148.175L100.323 148.237ZM102.103 156.661L101.818 156.754L101.82 156.759L102.103 156.661ZM99.1741 156.377L98.8742 156.387L98.8783 156.511L98.9686 156.596L99.1741 156.377ZM98.1622 143.157L98.4603 143.124L98.4603 143.123L98.1622 143.157ZM96.4199 132.003L96.1232 132.047L96.1246 132.056L96.1265 132.065L96.4199 132.003ZM95.1265 126.833L95.4092 126.733L95.4058 126.723L95.4016 126.713L95.1265 126.833ZM90.2724 123.975L90.3088 123.677L90.2906 123.675H90.2724V123.975ZM89.9148 123.975V123.675H89.7619L89.672 123.799L89.9148 123.975ZM90.1811 124.424L90.0353 124.686L90.0414 124.689L90.1811 124.424ZM94.6928 126.96L94.92 126.764L94.919 126.763L94.6928 126.96ZM95.5145 128.052L95.2823 128.242L95.7472 127.863L95.5145 128.052ZM95.1949 126.601L95.4636 126.467L95.4598 126.46L95.1949 126.601ZM94.5178 125.105L94.2348 125.204L94.2371 125.211L94.5178 125.105ZM92.9505 121.686L92.8276 121.412L92.5256 121.548L92.6902 121.835L92.9505 121.686ZM94.6167 120.938L94.9104 120.876L94.8341 120.511L94.4938 120.664L94.6167 120.938ZM97.1255 132.16C96.7427 131.447 96.5778 130.64 96.6502 129.837L96.0526 129.784C95.9697 130.704 96.1588 131.627 96.5968 132.444L97.1255 132.16ZM96.6428 129.882C96.7525 129.434 96.9392 129.008 97.195 128.622L96.6947 128.291C96.4009 128.734 96.1862 129.224 96.06 129.739L96.6428 129.882ZM97.2097 128.597C97.6053 127.853 98.0873 127.157 98.6461 126.522L98.1957 126.126C97.6062 126.796 97.0976 127.53 96.68 128.315L97.2097 128.597ZM98.6459 126.523C99.1802 125.917 99.8999 125.496 100.698 125.323L100.572 124.737C99.6491 124.936 98.8158 125.423 98.1959 126.126L98.6459 126.523ZM100.37 124.889C100.089 125.418 99.6681 125.863 99.2057 126.333C98.7532 126.792 98.256 127.28 97.8923 127.864L98.4016 128.181C98.7226 127.665 99.1651 127.229 99.6332 126.753C100.091 126.288 100.572 125.787 100.9 125.171L100.37 124.889ZM97.8865 127.874C97.1123 129.228 96.6884 130.749 96.6525 132.302L97.2524 132.316C97.2859 130.863 97.6825 129.439 98.4074 128.171L97.8865 127.874ZM96.653 132.327C96.7308 133.665 97.0315 135.059 97.3757 136.429C97.7227 137.81 98.1097 139.152 98.3783 140.436L98.9656 140.313C98.694 139.015 98.2973 137.635 97.9576 136.283C97.6152 134.92 97.3263 133.572 97.2519 132.292L96.653 132.327ZM98.3783 140.436C98.9185 143.017 99.4739 145.673 100.029 148.299L100.616 148.175C100.061 145.55 99.5058 142.894 98.9656 140.313L98.3783 140.436ZM100.029 148.299C100.599 151.018 100.937 154.05 101.818 156.754L102.389 156.568C101.52 153.901 101.204 150.978 100.617 148.176L100.029 148.299ZM101.82 156.759C101.806 156.72 101.819 156.704 101.811 156.726C101.804 156.745 101.785 156.78 101.747 156.821C101.671 156.903 101.535 156.993 101.337 157.033C100.954 157.112 100.284 157.009 99.3795 156.158L98.9686 156.596C99.9583 157.526 100.818 157.752 101.458 157.621C101.772 157.557 102.022 157.407 102.187 157.229C102.269 157.141 102.335 157.04 102.374 156.933C102.412 156.83 102.433 156.696 102.387 156.563L101.82 156.759ZM99.4739 156.367C99.329 151.943 98.9554 147.513 98.4603 143.124L97.8641 143.191C98.358 147.57 98.73 151.983 98.8742 156.387L99.4739 156.367ZM98.4603 143.123C98.0336 139.378 97.4997 135.626 96.7133 131.94L96.1265 132.065C96.9073 135.725 97.4386 139.456 97.8641 143.191L98.4603 143.123ZM96.7165 131.958C96.4483 130.18 96.0106 128.43 95.4092 126.733L94.8437 126.933C95.4323 128.595 95.8607 130.307 96.1232 132.047L96.7165 131.958ZM95.4016 126.713C95.0054 125.801 94.1519 125.098 93.2137 124.6C92.2701 124.1 91.1999 123.786 90.3088 123.677L90.2359 124.273C91.0567 124.373 92.056 124.666 92.9326 125.13C93.8147 125.598 94.5324 126.218 94.8513 126.952L95.4016 126.713ZM90.2724 123.675H89.9148V124.275H90.2724V123.675ZM89.672 123.799C89.5961 123.903 89.5701 124.024 89.5866 124.14C89.6018 124.247 89.6504 124.335 89.6976 124.399C89.7905 124.526 89.9248 124.625 90.0353 124.686L90.3268 124.162C90.2976 124.145 90.2668 124.125 90.2393 124.102C90.2112 124.079 90.1921 124.059 90.1814 124.044C90.1696 124.028 90.1773 124.032 90.1806 124.056C90.1825 124.069 90.1826 124.086 90.1779 124.106C90.1731 124.126 90.165 124.141 90.1575 124.151L89.672 123.799ZM90.0414 124.689C90.4331 124.895 90.8438 125.077 91.2505 125.251C91.6606 125.426 92.0634 125.593 92.4556 125.776C93.2395 126.141 93.9413 126.554 94.4665 127.157L94.919 126.763C94.3106 126.064 93.5174 125.609 92.7092 125.232C92.3055 125.044 91.888 124.871 91.4866 124.699C91.0818 124.526 90.6898 124.353 90.3207 124.158L90.0414 124.689ZM94.4656 127.156C94.6038 127.316 94.7315 127.493 94.8649 127.68C94.9957 127.864 95.1337 128.061 95.2823 128.242L95.7467 127.862C95.6138 127.7 95.4892 127.523 95.3537 127.332C95.2209 127.146 95.0785 126.948 94.92 126.764L94.4656 127.156ZM95.7472 127.863C95.7517 127.869 95.7304 127.837 95.7058 127.719C95.684 127.615 95.6675 127.486 95.6497 127.338C95.6325 127.196 95.6141 127.037 95.5884 126.892C95.5635 126.751 95.5273 126.595 95.4635 126.467L94.9264 126.735C94.9501 126.782 94.9747 126.868 94.9976 126.997C95.0197 127.122 95.036 127.262 95.054 127.41C95.0714 127.554 95.0906 127.708 95.1184 127.842C95.1435 127.962 95.186 128.124 95.2818 128.242L95.7472 127.863ZM95.4598 126.46C95.2082 125.987 94.9873 125.499 94.7985 124.999L94.2371 125.211C94.435 125.735 94.6665 126.246 94.9301 126.742L95.4598 126.46ZM94.8007 125.005C94.3772 123.804 93.8451 122.643 93.2108 121.536L92.6902 121.835C93.3065 122.91 93.8235 124.038 94.2349 125.204L94.8007 125.005ZM93.0734 121.959L94.7396 121.211L94.4938 120.664L92.8276 121.412L93.0734 121.959ZM94.6167 120.938C94.323 120.999 94.323 120.999 94.3231 120.999C94.3231 120.999 94.3231 120.999 94.3231 120.999C94.3231 120.999 94.3232 120.999 94.3232 121C94.3234 121 94.3236 121.001 94.3238 121.002C94.3243 121.005 94.3251 121.009 94.3261 121.013C94.3281 121.023 94.3311 121.037 94.3351 121.056C94.343 121.094 94.3549 121.151 94.3704 121.225C94.4014 121.374 94.4472 121.593 94.5062 121.876C94.6243 122.441 94.7952 123.26 95.0068 124.273C95.43 126.299 96.0159 129.105 96.6664 132.221L97.2537 132.098C96.6032 128.982 96.0174 126.177 95.5942 124.15C95.3826 123.137 95.2116 122.318 95.0936 121.753C95.0345 121.471 94.9887 121.251 94.9577 121.103C94.9422 121.028 94.9303 120.972 94.9224 120.934C94.9184 120.915 94.9154 120.9 94.9134 120.891C94.9124 120.886 94.9116 120.882 94.9111 120.88C94.9109 120.879 94.9107 120.878 94.9106 120.877C94.9105 120.877 94.9104 120.877 94.9104 120.876C94.9104 120.876 94.9104 120.876 94.9104 120.876C94.9104 120.876 94.9104 120.876 94.6167 120.938Z" fill="black" mask="url(#path-24-inside-6)"/>
<path d="M129.006 100.918C129.767 99.6307 130.901 98.516 131.479 97.1169C131.983 95.6393 132.182 94.0775 132.065 92.5232C132.323 93.9397 132.423 95.3798 132.362 96.8177C132.938 96.6405 133.55 96.6011 134.145 96.7026C134.74 96.8041 135.303 97.0435 135.785 97.4012C134.264 97.5359 132.681 97.693 131.441 98.5609C129.919 99.6307 129.265 101.554 129.052 103.379C128.839 105.205 128.961 107.075 128.55 108.878C128.55 107.531 127.865 106.245 127.713 104.958C127.561 103.671 128.329 102.017 129.006 100.918Z" fill="#3E3E54"/>
<path d="M120.668 94.2517C120.333 93.5634 120.067 92.7554 119.374 92.4038L121.893 97.147L117.944 98.3814C117.602 98.4861 117.183 98.7555 117.32 99.0772C118.408 99.1744 119.458 98.7031 120.538 98.5535C121.74 98.4151 122.955 98.6623 124.003 99.2582C125.05 99.8541 125.874 100.767 126.351 101.86C126.252 101.621 126.579 100.731 126.579 100.416C126.613 99.9602 126.524 99.5034 126.321 99.0921C125.978 98.6058 125.164 98.3964 124.662 98.0896C122.987 97.2087 121.602 95.8776 120.668 94.2517V94.2517Z" fill="#3E3E54"/>
<path d="M108.881 115.334L109.098 115.314L109.002 115.118C108.25 113.585 108.873 112.184 110.005 111.403C111.144 110.617 112.772 110.477 114 111.463C114.222 111.641 114.418 111.885 114.629 112.147C114.682 112.213 114.736 112.281 114.792 112.348C115.059 112.672 115.36 113.002 115.747 113.168L115.748 113.168C116.238 113.376 116.668 113.335 117.08 113.235C117.214 113.202 117.351 113.162 117.486 113.122C117.554 113.102 117.621 113.082 117.687 113.064C117.89 113.007 118.095 112.957 118.311 112.932L118.311 112.932L118.314 112.932C119.138 112.823 119.977 112.95 120.729 113.297C121.482 113.644 122.117 114.197 122.559 114.888C123 115.58 123.23 116.382 123.221 117.198C123.211 118.014 122.964 118.811 122.506 119.493L122.401 119.649L122.578 119.716C123.113 119.92 123.469 120.385 123.634 120.948C123.799 121.51 123.769 122.157 123.545 122.699C122.965 123.778 122.105 124.687 121.053 125.336L120.903 125.429L121.019 125.562C121.927 126.612 122.639 127.812 123.122 129.107C123.35 129.742 123.431 130.419 123.358 131.089C123.286 131.758 123.062 132.402 122.703 132.976C122.328 133.524 121.766 133.924 121.118 134.103C120.468 134.283 119.775 134.23 119.162 133.953L118.995 133.878L118.954 134.057C118.8 134.742 118.436 135.364 117.911 135.84C117.387 136.316 116.726 136.623 116.018 136.72C115.311 136.817 114.59 136.699 113.952 136.382C113.315 136.064 112.792 135.563 112.453 134.946L112.352 134.761L112.21 134.917C111.603 135.592 110.676 135.862 109.742 135.777C108.809 135.693 107.889 135.256 107.305 134.545C106.757 133.78 106.435 132.883 106.372 131.95C106.31 131.016 106.511 130.082 106.953 129.253L107.03 129.109L106.88 129.045C106.264 128.779 105.742 128.34 105.38 127.783C105.019 127.226 104.834 126.577 104.848 125.917C104.9 124.562 105.363 123.254 106.179 122.159C106.415 121.866 106.583 121.525 106.67 121.16L106.673 121.145L106.674 121.13C106.689 120.701 106.608 120.275 106.436 119.881C106.105 118.926 106.147 117.885 106.554 116.959C106.761 116.511 107.085 116.125 107.494 115.839C107.902 115.553 108.381 115.379 108.881 115.334Z" fill="white" stroke="black" stroke-width="0.3"/>
<path d="M119.978 158.537L119.977 158.526C119.975 158.478 119.971 158.406 119.966 158.311C119.957 158.122 119.942 157.844 119.921 157.487C119.879 156.774 119.813 155.744 119.717 154.481C119.524 151.954 119.211 148.491 118.727 144.747C118.243 141.003 117.588 136.976 116.712 133.322C115.856 129.748 114.785 126.518 113.45 124.259L114.779 123.657L114.826 123.87L115.071 124.982L115.949 128.956C116.675 132.246 117.645 136.637 118.618 141.038C119.592 145.439 120.569 149.852 121.309 153.186C121.68 154.853 121.991 156.251 122.213 157.242C122.325 157.738 122.413 158.133 122.476 158.409C122.508 158.547 122.533 158.656 122.551 158.733C122.568 158.805 122.581 158.859 122.587 158.877C122.587 158.878 122.588 158.882 122.587 158.893C122.586 158.904 122.583 158.92 122.575 158.94C122.56 158.981 122.53 159.032 122.481 159.086C122.384 159.192 122.224 159.299 122.003 159.35C121.573 159.448 120.884 159.34 119.978 158.537Z" fill="white" stroke="black" stroke-width="0.3"/>
<path d="M117.898 131.576C118.463 130.831 118.972 130.046 119.42 129.227C119.73 128.31 119.851 127.341 119.777 126.377C119.937 127.255 119.998 128.149 119.96 129.04C120.317 128.931 120.696 128.907 121.065 128.969C121.434 129.032 121.783 129.179 122.083 129.399C121.133 129.41 120.204 129.668 119.389 130.147C118.947 130.52 118.587 130.978 118.332 131.493C118.077 132.007 117.932 132.568 117.906 133.14C117.866 134.282 117.764 135.42 117.601 136.551C117.477 135.732 117.304 134.92 117.084 134.12C117.087 133.211 117.371 132.324 117.898 131.576V131.576Z" fill="white"/>
<path d="M112.732 127.446C112.519 127.02 112.359 126.511 111.926 126.302L113.447 129.242L111.005 129.99C110.792 130.058 110.526 130.23 110.617 130.424C111.292 130.391 111.96 130.283 112.61 130.102C113.356 130.014 114.111 130.166 114.761 130.536C115.412 130.906 115.922 131.473 116.217 132.152C116.156 132.003 116.354 131.449 116.354 131.255C116.378 130.971 116.322 130.687 116.194 130.432C115.981 130.132 115.479 130.005 115.167 129.811C114.148 129.26 113.304 128.442 112.732 127.446Z" fill="white"/>
<path d="M199.181 35.07L199.181 35.0704C198.264 38.1742 198.741 41.3101 199.532 44.4443C199.771 45.3917 200.038 46.3375 200.305 47.2826C200.895 49.3728 201.485 51.4603 201.769 53.5579C196.871 50.5291 190.991 49.42 185.295 50.4585C179.605 51.4958 174.524 54.5991 171.056 59.1461C170.125 54.9048 167.002 51.3343 163.207 49.1452C159.393 46.9452 154.961 46.0145 150.571 45.6955C153.697 41.3764 155.467 36.2478 155.658 30.9452C155.846 25.7044 154.483 20.5263 151.739 16.0375C151.801 16.0417 151.865 16.042 151.933 16.0391C152.229 16.0265 152.607 15.951 153.033 15.8341C153.888 15.5997 154.969 15.1892 156.053 14.7344C158.22 13.8248 160.419 12.7283 160.869 12.4782L160.87 12.4779C163.882 10.7899 166.587 8.62019 168.874 6.05782C169.482 5.37679 170.001 4.64228 170.506 3.90996C170.558 3.83361 170.611 3.7573 170.663 3.68107C171.115 3.02404 171.563 2.37342 172.066 1.75866L172.067 1.75822C172.345 1.41638 172.56 1.1276 172.733 0.895646C172.81 0.791799 172.879 0.699342 172.941 0.618614C173.151 0.346155 173.277 0.221377 173.401 0.173686C173.515 0.130169 173.659 0.141035 173.944 0.253474C174.148 0.333763 174.402 0.456011 174.741 0.619609C174.876 0.684538 175.024 0.75598 175.188 0.833898C176.492 1.45831 177.652 2.2077 178.812 2.95749C179.186 3.19896 179.56 3.44048 179.938 3.67788C181.488 4.64955 183.11 5.54409 185.107 6.0436L185.108 6.04384C189.737 7.16715 194.999 6.56302 198.757 3.65035C198.287 7.61487 198.9 11.6333 200.537 15.2904C202.197 18.9982 204.845 22.1937 208.2 24.5397C204.451 27.3841 200.517 30.5927 199.181 35.07Z" fill="white" stroke="black" stroke-width="0.3"/>
<path d="M198.465 27.0309C198.465 36.9448 190.291 44.9859 180.203 44.9859C170.114 44.9859 161.941 36.9448 161.941 27.0309C161.941 17.1169 170.114 9.07578 180.203 9.07578C190.291 9.07578 198.465 17.1169 198.465 27.0309Z" fill="white" stroke="black" stroke-width="0.3"/>
</svg>
