<svg width="1368" height="274" viewBox="0 0 1368 274" fill="none" xmlns="http://www.w3.org/2000/svg">
<path d="M1456.08 52.5984L1616.11 1.71116C1631.67 -3.23687 1648.44 3.79099 1655.72 18.3147C1660.31 27.4747 1660.4 38.2772 1655.96 47.581L1639.23 82.6077C1619.46 124.002 1576.67 149.467 1531.04 146.993L1400.31 139.907L1231.42 110.177C1066.63 81.1688 897.309 87.3538 734.528 128.327C660.036 147.077 583.962 158.594 507.37 162.717L92.5899 185.045C74.7016 186.008 56.9253 188.597 39.4811 192.781L-290.108 271.834C-325.724 280.376 -358.892 251.387 -355.169 214.97C-352.918 192.942 -337.314 174.487 -315.953 168.59L20.2563 75.7617C34.5175 71.8241 47.0946 63.2477 55.9946 51.3913C72.4198 29.5102 100.473 19.8042 126.721 26.9213L333.763 83.0604C386.953 97.4829 442.727 100.169 497.24 90.935L548.784 82.2034C578.533 77.1639 608.593 74.2988 638.724 73.6309L760.487 70.9317L930.913 49.2846L1190.19 38.1629C1224.87 36.6753 1259.55 39.9569 1293.27 47.9159L1333.19 57.3412C1373.74 66.9134 1416.21 65.2741 1456.08 52.5984Z" fill="#D9F7FA"/>
</svg>
