<svg width="1368" height="679" viewBox="0 0 1368 679" fill="none" xmlns="http://www.w3.org/2000/svg">
<path d="M1389.89 145.108L1502.78 8.66469C1509.99 -0.048104 1522.4 -2.30457 1532.1 3.3331C1543.69 10.072 1546.97 25.3428 1539.21 36.4033L1423.53 201.083C1401.79 232.021 1372.11 256.517 1337.65 271.942L1307.91 285.253C1277.92 298.678 1251.51 319.061 1230.88 344.701L1212.65 367.366C1179.25 408.888 1126.93 430.364 1074.31 424.16C1025.75 418.434 977.18 436.274 943.58 472.181L784.09 642.625C757.072 671.499 727.352 697.715 695.344 720.907L312.086 998.613C297.531 1009.16 283.955 1021 271.524 1033.99L36.5156 1279.61C11.1384 1306.13 -32.5661 1299.99 -49.2161 1267.57C-59.2886 1247.95 -56.1634 1224.05 -41.3621 1207.49L151.544 991.726C188.214 950.711 231.691 916.352 280.024 890.191L402.891 823.688C466.941 789.019 527.935 748.916 585.196 703.822L674.466 633.519L813.295 539.422L945.244 428.489L1157.84 277.93C1186.27 257.791 1217.3 241.632 1250.06 229.905L1288.86 216.015C1328.24 201.913 1363.16 177.407 1389.89 145.108Z" fill="#FFFFC4"/>
</svg>
