<svg width="1368" height="714" viewBox="0 0 1368 714" fill="none" xmlns="http://www.w3.org/2000/svg">
<path d="M1406.85 110.015L1536.09 6.0475C1544.9 -1.04147 1557.49 -0.74274 1565.84 6.75329C1575.82 15.711 1575.94 31.3527 1566.11 40.629L1421.05 177.494C1392.73 204.213 1357.51 222.439 1319.45 230.07L1137.38 266.575C1020.12 290.085 908.943 338.068 811.111 407.386L751.288 449.774C688.469 494.283 621.551 532.648 551.466 564.334L171.918 735.929C155.553 743.327 139.882 752.196 125.1 762.424L-154.275 955.739C-184.454 976.621 -225.955 961.752 -235.684 926.571C-241.569 905.29 -233.681 882.474 -215.861 869.23L13.808 698.537C59.5851 664.515 111.113 639.091 165.859 623.514L331.248 576.456C405.906 555.213 477.535 524.274 544.3 484.432C581.373 462.309 619.986 442.907 659.832 426.38L754.732 387.02L906.156 304.93L1081.09 202.938C1128.84 175.103 1182.84 159.987 1237.89 159.046L1273.37 158.439C1321.89 157.61 1368.88 140.564 1406.85 110.015Z" fill="#FFD9C9"/>
</svg>
