<svg width="1368" height="652" viewBox="0 0 1368 652" fill="none" xmlns="http://www.w3.org/2000/svg">
<path d="M1481.56 88.9169L1636.43 3.45096C1646.33 -2.01072 1658.66 0.47146 1665.58 9.31523C1673.83 19.8813 1671.24 35.3264 1659.97 42.767L1493.61 152.534C1461.12 173.97 1423.32 185.828 1384.55 186.742L1199.18 191.112C1079.79 193.926 962.135 221.932 853.912 273.297L787.733 304.707C718.243 337.688 645.784 363.898 571.367 382.97L168.369 486.257C150.99 490.711 134.04 496.736 117.728 504.256L-190.502 646.359C-223.806 661.713 -262.053 639.841 -265.527 603.456C-267.629 581.447 -255.917 560.315 -236.094 550.348L19.3309 421.922C70.2543 396.318 125.346 380.193 181.896 374.341L397.148 352.066C443.799 347.238 487.928 328.084 523.472 297.235C566.134 260.208 620.894 240.25 677.124 241.233L736.393 242.27C779.805 243.029 823.088 236.35 864.368 222.522L965.134 188.767L1217.6 126.98C1251.37 118.715 1286.07 115.119 1320.74 116.293L1361.8 117.683C1403.5 119.095 1444.89 109.153 1481.56 88.9169Z" fill="#F6D6FC"/>
</svg>
