<svg width="360" height="240" viewBox="0 0 360 240" fill="none" xmlns="http://www.w3.org/2000/svg">
<path d="M274.246 196.636L274.247 196.636C300.2 196.49 326.378 196.554 351.741 201.604L351.766 201.477L351.741 201.604C353.554 201.963 355.541 202.546 357.096 203.455C358.651 204.364 359.747 205.581 359.843 207.204C359.925 208.574 359.243 209.767 358.179 210.8C357.115 211.832 355.684 212.688 354.31 213.375L354.31 213.375C340.792 220.173 325.985 223.882 310.752 226.556C303.136 227.893 295.416 228.971 287.698 230.047L287.588 230.063C279.907 231.134 272.229 232.205 264.664 233.528C261.321 234.113 257.986 234.75 254.653 235.386C244.698 237.286 234.754 239.183 224.621 239.703C209.71 240.461 195.049 238.179 180.41 235.217C176.252 234.376 172.095 233.479 167.934 232.582C157.453 230.321 146.951 228.056 136.355 226.656C118.187 224.228 99.8339 224.327 81.458 224.695C79.2633 224.738 77.0682 224.786 74.8732 224.834C58.6861 225.186 42.4966 225.538 26.4024 224.352L26.4023 224.352C21.7736 224.014 16.8742 223.387 12.5019 221.962C8.12956 220.536 4.29679 218.316 1.78509 214.802L1.78531 214.802L1.77959 214.795C1.1139 213.973 0.637342 213.039 0.377583 212.047C0.118339 211.058 0.0801572 210.031 0.265192 209.028C0.839579 206.9 2.65133 205.591 4.97126 204.808C7.29176 204.026 10.0885 203.781 12.5643 203.763L12.5645 203.763C46.4058 203.466 80.2691 202.109 114.148 200.692C116.175 200.607 118.202 200.522 120.23 200.437C152.083 199.101 183.95 197.764 215.827 197.257C217.728 197.229 219.63 197.2 221.533 197.171C239.064 196.904 256.635 196.636 274.246 196.636Z" stroke="black" stroke-width="0.3"/>
<path d="M312.372 193.397L312.372 193.397L312.381 193.402C314.934 194.762 317.659 195.834 320.495 196.594L320.496 196.594C321.046 196.739 321.656 196.962 322.103 197.268C322.55 197.574 322.795 197.933 322.724 198.355C322.673 198.549 322.58 198.733 322.449 198.896C322.318 199.06 322.151 199.199 321.958 199.305C320.567 200.019 318.97 200.333 317.378 200.202L317.37 200.201L317.361 200.201C312.415 200.329 307.468 199.984 302.601 199.171C301.231 198.916 300.089 198.181 299.621 197.301C299.389 196.865 299.322 196.395 299.469 195.92C299.616 195.444 299.984 194.947 300.654 194.471C301.076 194.186 301.743 193.892 302.547 193.616C303.349 193.342 304.278 193.088 305.217 192.882C306.155 192.675 307.1 192.515 307.935 192.426C308.769 192.337 309.482 192.32 309.966 192.394C310.826 192.6 311.64 192.939 312.372 193.397Z" fill="white" stroke="black" stroke-width="0.3"/>
<path d="M267.289 164.915L267.29 164.914C267.85 164.654 268.421 164.379 268.999 164.099C271.24 163.017 273.606 161.874 276.019 161.325C278.8 160.882 281.606 160.578 284.423 160.414L284.423 160.414L284.432 160.413L304.678 158.019L304.679 158.019C306.225 157.823 307.899 157.685 309.441 157.842C310.983 157.999 312.377 158.45 313.381 159.413L313.382 159.414C314.111 160.096 314.504 160.953 314.737 161.887C314.941 162.709 315.02 163.58 315.097 164.439C315.108 164.56 315.119 164.681 315.13 164.801C315.189 165.451 315.265 166.097 315.341 166.741C315.564 168.639 315.784 170.517 315.562 172.39C314.997 177.101 311.606 181.344 307.194 184.29C302.784 187.236 297.45 189.004 292.05 190.346C285.113 191.948 278.089 193.222 271.007 194.163L271.013 194.461C279.91 195.318 288.857 195.688 297.803 195.567C298.445 195.558 299.116 195.558 299.738 195.655C300.361 195.752 300.922 195.945 301.355 196.308L301.357 196.31C301.961 196.802 302.125 197.501 301.97 198.206C301.815 198.914 301.34 199.618 300.679 200.087C299.189 200.934 297.491 201.429 295.737 201.526L295.737 201.526L295.724 201.528C293.569 201.835 291.422 202.173 289.278 202.511C285.03 203.181 280.79 203.849 276.508 204.268C271.013 204.805 265.469 204.912 259.926 205.019L259.583 205.026L259.579 205.026C256.599 205.146 253.612 205.052 250.648 204.744C244.739 203.979 239.334 201.523 234.037 199.091C232.086 198.193 230.099 197.248 228.912 195.713C228.2 194.656 227.808 193.447 227.777 192.21C227.747 190.971 228.077 189.746 228.738 188.661C230.133 186.428 232.02 184.48 234.28 182.94L234.28 182.94L234.286 182.936C244.067 175.528 255.724 170.188 267.289 164.915Z" fill="white" stroke="black" stroke-width="0.3"/>
<path d="M145.343 12.4851C151.463 10.1534 156.602 6.10962 160.026 0.947666C158.487 6.78501 159.047 12.9291 161.64 18.4667L161.64 18.4671C162.2 19.6547 162.854 20.8144 163.503 21.9669C163.764 22.4291 164.023 22.8901 164.276 23.3513C165.162 24.9668 165.967 26.5917 166.444 28.3098C167.247 31.5755 166.863 34.9908 165.348 38.0413C163.833 41.0927 161.268 43.615 158.038 45.2248L157.634 45.4266L158.079 45.5067C160.14 45.8775 162.039 46.7794 163.552 48.1036C165.065 49.4277 166.126 51.118 166.614 52.9727C167.101 54.8272 166.994 56.7701 166.305 58.5712C165.615 60.3726 164.372 61.9579 162.721 63.1376L162.721 63.1376C161.972 63.6738 161.152 64.1191 160.322 64.5693C160.257 64.6047 160.192 64.6401 160.127 64.6755C159.235 65.1606 158.34 65.6594 157.542 66.2849C156.738 66.9143 156.044 67.7489 155.654 68.6543C155.263 69.5608 155.174 70.5479 155.603 71.4644C156.28 72.9239 157.85 73.5565 159.458 74.1085C159.627 74.1664 159.796 74.2235 159.965 74.2806C160.612 74.4986 161.258 74.716 161.864 74.9799C162.627 75.3121 163.314 75.7125 163.843 76.2657C164.89 77.3593 165.003 78.8677 164.48 80.3154C163.956 81.7643 162.8 83.1287 161.354 83.8969C159.897 84.671 158.273 85.0538 156.574 85.2892C155.556 85.4303 154.524 85.5173 153.487 85.6046C152.786 85.6637 152.083 85.7229 151.381 85.7991C150.724 85.8663 150.096 85.9187 149.497 85.9679L149.333 85.9812C148.793 86.0254 148.275 86.0677 147.781 86.1167C146.692 86.2245 145.706 86.3652 144.818 86.6328C143.928 86.9009 143.135 87.297 142.433 87.9162C141.768 88.5031 141.192 89.2852 140.692 90.3358C138.795 88.8433 136.232 87.5446 133.66 86.2831C133.428 86.1691 133.195 86.0554 132.963 85.942C130.55 84.762 128.177 83.6018 126.353 82.3257C122.339 79.5163 118.652 76.049 117.184 71.6824C115.718 67.3217 117.021 61.9613 121.223 59.5365C122.247 59.0513 123.235 58.5058 124.182 57.9036L124.191 57.8976L124.2 57.8902C124.829 57.3427 125.316 56.6722 125.624 55.9278C125.932 55.1834 126.053 54.3847 125.976 53.5913C125.9 52.7979 125.628 52.0312 125.183 51.3479C124.738 50.6647 124.131 50.0828 123.407 49.6442L123.407 49.644L123.399 49.6396C121.374 48.5814 120.922 46.2553 121.485 43.8015C122.047 41.3522 123.611 38.8466 125.511 37.5233L125.425 37.4002L125.511 37.5233C126.488 36.8428 127.623 36.3209 128.764 35.7963C129.249 35.5735 129.735 35.3503 130.21 35.1142C131.788 34.3298 133.237 33.407 134.002 31.894L134.002 31.8939C134.909 30.1004 134.491 28.1733 133.967 26.2674C133.912 26.0689 133.856 25.8707 133.801 25.6727C133.316 23.9492 132.838 22.2473 133.163 20.5977L133.163 20.5977C133.621 18.2708 135.409 16.7011 137.73 15.4793C139.462 14.5678 141.466 13.8622 143.399 13.1817C144.06 12.9491 144.712 12.7195 145.342 12.4855L145.343 12.4851Z" fill="white" stroke="black" stroke-width="0.3"/>
<path d="M114.312 190.541L114.312 190.54C115.499 187.697 117.569 185.227 120.271 183.432C122.973 181.637 126.191 180.596 129.533 180.437C132.874 180.277 136.194 181.006 139.088 182.534C141.982 184.062 144.324 186.323 145.831 189.039L145.925 189.209L146.066 189.074C147.8 187.404 150.266 186.646 152.811 186.658C155.357 186.669 157.967 187.449 159.976 188.833C163.952 191.573 166.149 196.055 167.339 200.54C155.257 201.142 143.168 201.401 131.072 201.316H131.071C130.133 201.316 128.817 201.403 127.331 201.502L127.326 201.502C125.835 201.601 124.168 201.711 122.523 201.758C120.877 201.806 119.258 201.79 117.863 201.637C116.462 201.484 115.308 201.195 114.578 200.711C113.125 199.748 112.753 197.923 112.908 195.945C113.063 193.975 113.739 191.908 114.312 190.541Z" fill="white" stroke="black" stroke-width="0.3"/>
<path d="M254.33 151.514L254.5 151.607L254.547 151.419C255.11 149.141 255.796 146.861 256.498 144.574C256.586 144.291 256.673 144.007 256.76 143.723C257.377 141.719 257.996 139.71 258.542 137.695C259.79 133.095 260.665 128.456 260.287 123.766L260.287 123.766C260.173 122.365 260.353 120.578 260.837 118.816C261.321 117.053 262.105 115.328 263.19 114.043C264.285 112.745 265.185 112.1 266.157 111.903C267.134 111.706 268.214 111.953 269.69 112.523L269.69 112.523C271.682 113.29 272.782 114.475 273.545 115.945C274.101 117.015 274.476 118.227 274.884 119.547C275.043 120.059 275.206 120.587 275.387 121.13C276.661 124.946 276.593 129.023 276.203 133.02C275.216 142.894 272.336 152.534 267.695 161.502L267.695 161.502C266.561 163.697 265.008 166.019 262.477 166.402C260.956 166.508 259.433 166.218 258.087 165.566L258.087 165.566L258.076 165.562C254.541 164.183 249.35 162.785 243.799 161.291C241.848 160.766 239.852 160.228 237.868 159.676C230.224 157.546 222.758 155.19 218.606 152.409C218.054 152.039 217.926 151.735 217.95 151.47C217.962 151.328 218.02 151.179 218.113 151.015C218.207 150.851 218.331 150.682 218.469 150.499C218.489 150.473 218.509 150.446 218.529 150.42C218.786 150.08 219.078 149.696 219.238 149.259C219.415 148.776 219.433 148.23 219.106 147.603C218.957 147.317 218.91 147.127 218.918 147.006C218.922 146.949 218.938 146.91 218.96 146.88C218.983 146.85 219.018 146.822 219.073 146.797C219.189 146.745 219.367 146.72 219.611 146.72C219.852 146.72 220.139 146.744 220.461 146.778C220.582 146.791 220.707 146.805 220.837 146.819C221.391 146.881 222.016 146.95 222.637 146.957C223.378 146.965 224.132 146.884 224.774 146.585C229.127 148.399 234.045 148.552 238.909 148.703C239.195 148.712 239.48 148.72 239.765 148.73C244.942 148.896 250.018 149.172 254.33 151.514Z" fill="white" stroke="black" stroke-width="0.3"/>
<path d="M264.519 102.707L264.647 102.785C264.828 102.488 264.969 102.325 265.078 102.25C265.129 102.214 265.166 102.204 265.191 102.203C265.213 102.202 265.238 102.208 265.27 102.229C265.343 102.278 265.428 102.391 265.527 102.586C265.622 102.776 265.72 103.019 265.831 103.301C265.846 103.34 265.862 103.38 265.878 103.42C266.312 104.53 266.937 106.128 268.321 106.956C270.341 108.225 271.912 109.998 272.845 112.061C274.002 114.754 274.632 117.611 274.708 120.502L274.707 120.502L274.708 120.507C274.987 124.876 274.791 129.258 274.121 133.591C268.515 132.588 263.362 130.091 259.315 126.418L259.315 126.417L259.309 126.412C258.964 126.132 258.684 125.794 258.484 125.417L258.485 125.417L258.479 125.407C258.348 125.198 258.268 124.967 258.244 124.729C258.221 124.495 258.252 124.26 258.336 124.038C260.174 121.163 261.021 117.034 261.775 113.048C261.82 112.807 261.865 112.567 261.91 112.327C262.24 110.576 262.561 108.866 262.951 107.308C263.395 105.537 263.924 103.976 264.647 102.785L264.519 102.707ZM264.519 102.707C265.274 101.468 265.546 102.163 266.013 103.354C266.451 104.472 267.06 106.027 268.4 106.828M264.519 102.707L268.4 106.828M268.4 106.828C270.444 108.112 272.036 109.908 272.982 112C274.147 114.711 274.782 117.587 274.858 120.498L268.4 106.828Z" fill="white" stroke="black" stroke-width="0.3"/>
<path d="M273.928 94.6961L273.928 94.6961C280.195 92.3431 286.664 93.9218 291.974 98.8144L291.974 98.8147C304.775 110.543 312.714 121.564 319.303 137.004L319.303 137.004C321.076 141.149 322.592 145.432 322.811 149.855C323.03 154.274 321.794 158.872 318.621 162.189C313.995 167.001 306.241 168.237 299.185 167.754C293.641 167.37 287.86 165.949 284.139 162.25C281.855 159.98 280.532 157.063 279.247 154.172L279.247 154.172L271.605 137.021C267.472 127.741 263.316 118.249 263.316 108.235C263.316 105.238 263.726 102.174 265.67 99.7108C267.616 97.244 270.796 95.8668 273.928 94.6961Z" fill="white" stroke="black" stroke-width="0.3"/>
<path d="M254.16 86.8986L254.161 86.9002L254.161 86.9002C254.329 87.3425 254.736 87.6115 255.263 87.8492C255.436 87.9272 255.614 87.9988 255.796 88.072C255.892 88.1104 255.989 88.1493 256.086 88.1897C256.366 88.3055 256.646 88.4321 256.898 88.5897M254.16 86.8986L256.818 88.7169M254.16 86.8986C254.031 86.5686 254.064 86.1425 254.213 85.6395C254.362 85.1396 254.618 84.5884 254.905 84.0217C255.01 83.8147 255.12 83.6048 255.229 83.3952C255.416 83.0366 255.603 82.6789 255.765 82.338C256.023 81.7974 256.232 81.2761 256.295 80.8246L256.295 80.8246L256.296 80.8207C256.378 80.0982 256.329 79.373 256.281 78.6664C256.279 78.6288 256.276 78.5912 256.274 78.5537C256.223 77.8063 256.182 77.0799 256.295 76.3678L256.295 76.367C256.546 74.7104 258.001 73.003 259.868 71.6563C261.729 70.3143 263.958 69.3601 265.703 69.184M254.16 86.8986L265.703 69.184M256.898 88.5897C256.898 88.5897 256.898 88.5898 256.898 88.5898L256.818 88.7169M256.898 88.5897C256.898 88.5896 256.898 88.5896 256.898 88.5895L256.818 88.7169M256.898 88.5897C257.596 89.0234 258.079 89.7135 258.532 90.3613C258.611 90.4738 258.689 90.585 258.767 90.6934C259.303 91.4403 259.847 92.0627 260.717 92.2246L260.717 92.2247C261.347 92.3441 262.01 92.1752 262.701 91.9991C262.784 91.9777 262.868 91.9563 262.953 91.9352C263.714 91.7457 264.513 91.5882 265.231 91.9651L265.239 91.9691L265.246 91.9739C265.743 92.3122 266.114 92.7857 266.303 93.3295M256.818 88.7169C257.488 89.1329 257.951 89.7937 258.406 90.4425C259.019 91.3185 259.618 92.1725 260.689 92.372C261.354 92.4982 262.051 92.32 262.737 92.1447C263.591 91.9264 264.427 91.7126 265.161 92.0979C265.636 92.4207 265.987 92.8715 266.164 93.3863M266.303 93.3295C266.302 93.3271 266.301 93.3246 266.3 93.3221L266.164 93.3863M266.303 93.3295C266.708 94.1848 267 95.0808 267.174 95.999M266.303 93.3295C266.304 93.3322 266.305 93.3348 266.306 93.3375L266.164 93.3863M266.164 93.3863C266.565 94.2326 266.854 95.119 267.027 96.0271M268.12 98.0831C268.44 98.1944 268.78 98.2472 269.122 98.2385C271.464 98.2648 273.795 97.9564 276.032 97.3247C276.67 97.1832 277.265 96.9148 277.776 96.5388M268.12 98.0831L268.181 97.946C268.179 97.9452 268.177 97.9444 268.175 97.9435M268.12 98.0831C267.358 97.7451 267.186 96.8527 267.039 96.089C267.035 96.0683 267.031 96.0476 267.027 96.0271M268.12 98.0831L268.169 97.9414C268.171 97.9421 268.173 97.9428 268.175 97.9435M268.175 97.9435C268.476 98.0474 268.796 98.0967 269.119 98.0885L269.124 98.0884L269.124 98.0885C271.451 98.1146 273.768 97.8081 275.991 97.1803L275.999 97.178L275.999 97.1782C276.616 97.0414 277.192 96.7823 277.685 96.4201M268.175 97.9435C267.834 97.7901 267.622 97.5086 267.475 97.1581C267.332 96.8192 267.257 96.4314 267.185 96.0559L267.174 95.999M277.685 96.4201C277.684 96.4209 277.683 96.4216 277.682 96.4224L277.776 96.5388M277.685 96.4201C277.685 96.4194 277.686 96.4187 277.687 96.418L277.776 96.5388M277.685 96.4201C278.371 95.8607 278.599 95.0755 278.59 94.1965C278.582 93.312 278.334 92.3546 278.093 91.4801M277.776 96.5388C279.25 95.3418 278.719 93.1853 278.238 91.44C277.565 89.0115 277.228 86.5158 277.235 84.011M277.235 84.011L278.093 91.4801M277.235 84.011L277.085 84.0106C277.085 84.0107 277.085 84.0109 277.085 84.011M277.235 84.011C277.235 83.4063 277.254 82.7955 277.274 82.1833C277.349 79.8071 277.425 77.4096 276.372 75.2662C275.424 73.5023 273.968 72.0055 272.161 70.9349C270.321 69.6214 268.028 68.9476 265.693 69.0343L277.085 84.011M278.093 91.4801L278.237 91.44L278.093 91.4799C278.093 91.4799 278.093 91.48 278.093 91.4801ZM277.085 84.011C277.085 83.4037 277.104 82.79 277.124 82.1777C277.128 82.0431 277.132 81.9085 277.136 81.774C277.159 81.0268 277.175 80.2828 277.15 79.5478C277.1 78.0786 276.887 76.6551 276.239 75.3348C275.304 73.5972 273.869 72.1209 272.084 71.064L272.073 71.0575L272.074 71.057C270.263 69.7643 268.005 69.0996 265.703 69.184M277.085 84.011L265.703 69.184M267.174 95.999C267.174 95.999 267.174 95.9991 267.174 95.9992L267.027 96.0271M267.174 95.999C267.174 95.9988 267.174 95.9987 267.174 95.9986L267.027 96.0271" fill="white" stroke="black" stroke-width="0.3"/>
<path d="M267.408 91.3271L267.408 91.3271L267.408 91.3351C267.377 92.3758 267.268 93.4133 267.08 94.4404C266.674 95.9126 265.692 97.2029 264.313 98.0666C262.931 98.9316 261.249 99.3077 259.582 99.1221L259.58 99.1219C259.098 99.0747 258.641 98.9087 258.257 98.6428C257.914 98.3162 257.66 97.9234 257.511 97.495L257.508 97.4853L257.503 97.4761C256.765 96.0237 256.263 94.4812 256.014 92.8974C255.895 92.1193 255.958 91.327 256.2 90.5725C256.441 89.8214 256.853 89.1241 257.411 88.5265C258.543 87.6443 259.868 86.9892 261.299 86.6048L261.299 86.6054L261.312 86.6008C263.373 85.845 265.358 84.9241 267.241 83.8489L267.241 83.8491L267.249 83.8439C267.911 83.4091 268.647 83.0763 269.428 82.8593C269.817 82.778 270.112 82.7485 270.333 82.7573C270.555 82.7663 270.685 82.8138 270.757 82.8698C270.822 82.9207 270.856 82.9906 270.859 83.0926C270.863 83.2005 270.831 83.3384 270.765 83.5027C270.633 83.8308 270.384 84.2158 270.119 84.5874C270.008 84.7433 269.893 84.8989 269.785 85.0451C269.642 85.2381 269.511 85.4149 269.418 85.5543L269.418 85.5552C268.266 87.3101 267.577 89.2862 267.408 91.3271Z" fill="white" stroke="black" stroke-width="0.3"/>
<path d="M255.532 78.2176L255.532 78.2176L255.529 78.2184C254.47 78.477 253.357 78.4972 252.287 78.2773C251.218 78.0575 250.224 77.6047 249.391 76.9588C248.591 76.2917 248.071 75.3957 247.914 74.4235C247.758 73.452 247.974 72.4602 248.528 71.6147C249.131 70.795 250.017 70.2724 251.029 69.8803C251.78 69.5891 252.586 69.3743 253.387 69.161C253.67 69.0857 253.952 69.0105 254.231 68.9323C256.01 68.438 257.626 67.4907 259.201 66.5677C259.423 66.4378 259.644 66.3084 259.864 66.1809C261.659 65.1413 263.425 64.2196 265.382 64.067C267.504 63.9268 269.633 64.2053 271.625 64.8832C273.617 65.5611 275.424 66.6224 276.923 67.9939L276.922 67.994L276.928 67.9989C278.139 68.9976 279.092 70.2255 279.723 71.595C280.221 72.9857 280.484 74.4368 280.504 75.899L280.504 75.899L280.504 75.9073C280.745 79.4089 280.945 82.9076 281.106 86.4031L281.106 86.4036C281.146 87.2156 281.117 88.1109 280.88 88.8762C280.645 89.6378 280.208 90.2569 279.437 90.5508L279.437 90.5508C278.776 90.803 278.064 90.7251 277.387 90.4514C276.71 90.1775 276.077 89.7112 275.587 89.2067L275.587 89.2062C273.921 87.5052 272.94 85.3413 272.802 83.0698C272.854 82.1328 272.747 81.1942 272.485 80.2872L272.483 80.2802L272.48 80.2735C272.392 80.0515 272.246 79.7429 272.061 79.4458C271.878 79.1513 271.648 78.8548 271.389 78.6703C271.125 78.4823 270.806 78.3974 270.486 78.5871C270.187 78.7644 269.923 79.1644 269.692 79.832L269.679 79.8699L269.687 79.9092C269.829 80.6567 270.031 81.1626 270.229 81.6586L270.231 81.6648C270.409 82.1104 270.583 82.549 270.716 83.1603C269.326 82.8802 268.522 81.7512 267.736 80.4456C267.649 80.3004 267.562 80.1529 267.474 80.0046C267.153 79.4616 266.824 78.9064 266.453 78.4031C265.979 77.7599 265.426 77.188 264.709 76.8148C263.277 76.0698 261.732 76.2687 260.184 76.7204C259.553 76.9048 258.914 77.1334 258.278 77.3608C258.134 77.4123 257.991 77.4637 257.848 77.5145C257.068 77.7909 256.295 78.0508 255.532 78.2176Z" fill="white" stroke="black" stroke-width="0.3"/>
<path d="M276.318 164.054L276.318 164.054C264.753 169.703 253.097 175.406 243.315 183.344L243.31 183.348L243.309 183.348C241.023 185.027 239.138 187.112 237.767 189.476C236.542 191.873 236.367 194.859 237.937 197.028L237.938 197.029C239.125 198.683 241.115 199.72 243.074 200.635L243.076 200.637C248.364 203.242 253.767 205.871 259.675 206.69C262.636 207.024 265.624 207.121 268.604 206.981L268.608 206.981L268.608 206.981C274.265 206.881 279.924 206.771 285.532 206.178L285.532 206.178C289.562 205.761 293.543 205.097 297.531 204.431C299.931 204.03 302.333 203.629 304.749 203.282L304.76 203.28C306.542 203.023 308.369 202.76 309.694 201.749C310.348 201.249 310.829 200.489 310.988 199.723C311.146 198.96 310.984 198.204 310.378 197.677L310.376 197.675C309.944 197.286 309.383 197.081 308.762 196.977C308.14 196.874 307.471 196.873 306.829 196.882C297.88 197.011 288.931 196.617 280.037 195.703L280.031 195.405C287.122 194.391 294.146 193.025 301.073 191.315C306.472 189.882 311.806 187.987 316.216 184.841C320.626 181.695 324.021 177.142 324.587 172.09C324.81 170.061 324.589 168.063 324.367 166.041C324.291 165.351 324.214 164.657 324.155 163.959M276.318 164.054L324.305 163.947M276.318 164.054C276.927 163.756 277.547 163.438 278.178 163.114C280.37 161.988 282.685 160.799 285.052 160.2M276.318 164.054L313.704 156.658M324.155 163.959L324.305 163.947M324.155 163.959C324.155 163.96 324.155 163.96 324.155 163.96L324.305 163.947M324.155 163.959C324.144 163.831 324.133 163.702 324.122 163.572C324.045 162.653 323.966 161.718 323.761 160.834C323.528 159.828 323.134 158.899 322.402 158.149L322.402 158.148C321.398 157.114 320.006 156.642 318.465 156.48C316.924 156.317 315.252 156.466 313.704 156.658L313.704 156.658L313.685 156.509M324.305 163.947C324.294 163.819 324.283 163.69 324.272 163.56C324.106 161.594 323.93 159.501 322.51 158.044C320.434 155.906 316.784 156.125 313.685 156.509M313.685 156.509L313.704 156.658M313.685 156.509L293.439 159.049C292.501 159.165 291.528 159.245 290.547 159.326C288.666 159.482 286.756 159.64 285.016 160.054L285.051 160.2C285.051 160.2 285.052 160.2 285.052 160.2M280.052 195.554C280.257 195.524 280.461 195.495 280.665 195.465C280.466 195.445 280.267 195.425 280.068 195.404L280.052 195.554ZM280.052 195.554L280.074 195.702C280.272 195.674 280.47 195.645 280.669 195.616C280.463 195.596 280.258 195.575 280.052 195.554ZM313.704 156.658L293.458 159.198L293.458 159.198C292.517 159.314 291.538 159.395 290.556 159.476C290.106 159.513 289.656 159.551 289.208 159.591C287.777 159.721 286.364 159.887 285.052 160.2M313.704 156.658L285.052 160.2" fill="white" stroke="black" stroke-width="0.3"/>
<path d="M264.702 143.03L264.555 142.91C257.043 136.765 249.181 130.986 241 125.596C238.45 126.366 237.329 129.361 237.971 131.79C238.62 134.247 240.583 136.286 242.512 138.116L242.514 138.118C249.534 145.073 256.713 151.997 265.27 157.286L265.281 157.293L265.28 157.293C266.465 158.164 267.898 158.712 269.413 158.872C270.692 158.906 271.839 158.423 272.865 157.684C273.894 156.943 274.794 155.95 275.574 154.981L275.574 154.98C282.016 146.995 286.871 138.043 289.917 128.53C291.149 124.679 292.073 120.683 291.626 116.713C291.179 112.746 289.172 108.8 285.559 106.581L264.702 143.03ZM264.702 143.03L264.785 142.859M264.702 143.03L264.785 142.859M264.785 142.859C268.944 134.246 271.683 125.119 272.911 115.775C273.005 115.06 273.027 114.225 273.05 113.349L273.05 113.346L273.05 113.346C273.073 112.466 273.098 111.541 273.195 110.638C273.389 108.827 273.873 107.139 275.183 106.086C276.498 105.029 278.421 104.74 280.368 104.928M264.785 142.859L280.368 104.928M280.368 104.928C282.311 105.116 284.247 105.776 285.559 106.581L280.368 104.928Z" fill="white" stroke="black" stroke-width="0.3"/>
<path d="M269.248 126.243L269.244 126.257C269.181 126.439 269.159 126.63 269.178 126.819C269.198 127.008 269.258 127.193 269.356 127.362C269.455 127.53 269.59 127.681 269.755 127.803C269.919 127.926 270.109 128.018 270.314 128.074L270.329 128.078L270.343 128.085C274.737 130.341 279.332 132.255 284.079 133.805L284.088 133.808L284.088 133.808C286.111 134.606 288.34 134.869 290.52 134.567C290.887 134.512 291.226 134.358 291.494 134.128C291.692 133.867 291.816 133.566 291.856 133.253L291.858 133.241L291.858 133.241C292.513 130.137 292.944 126.997 293.149 123.841L293.149 123.837L293.149 123.837C293.432 120.817 293.247 117.775 292.601 114.802C292.447 114.179 292.266 113.272 292.055 112.214C292.013 112.004 291.97 111.789 291.926 111.569C291.657 110.231 291.343 108.706 290.977 107.209C290.61 105.712 290.192 104.246 289.716 103.025C289.238 101.798 288.711 100.843 288.136 100.343L288.136 100.343C286.609 99.0007 284.963 98.5518 283.166 98.5012C281.799 98.4626 280.354 98.6541 278.808 98.8592C278.31 98.9252 277.802 98.9926 277.282 99.0541C276.281 99.1727 275.415 99.8501 274.667 100.885C273.921 101.918 273.308 103.287 272.811 104.746C271.818 107.661 271.301 110.898 271.095 112.421L269.248 126.243ZM269.248 126.243L269.25 126.228L271.095 112.421L269.248 126.243Z" fill="white" stroke="black" stroke-width="0.3"/>
<path d="M320.736 196.651L320.736 196.651L320.744 196.655C323.293 198.023 326.019 199.095 328.859 199.848L328.859 199.848C329.409 199.992 330.019 200.215 330.467 200.521C330.916 200.827 331.164 201.186 331.097 201.609C331.045 201.804 330.952 201.989 330.821 202.153C330.69 202.319 330.523 202.46 330.33 202.567C328.94 203.282 327.343 203.595 325.751 203.464L325.743 203.463L325.735 203.463C320.789 203.59 315.842 203.247 310.974 202.442C309.604 202.187 308.462 201.45 307.994 200.569C307.762 200.132 307.695 199.662 307.842 199.188C307.989 198.712 308.357 198.216 309.028 197.742C309.452 197.448 310.121 197.147 310.927 196.866C311.73 196.586 312.659 196.329 313.597 196.121C314.535 195.913 315.48 195.754 316.313 195.669C317.146 195.584 317.857 195.573 318.337 195.655C319.192 195.864 320.003 196.201 320.736 196.651Z" fill="white" stroke="black" stroke-width="0.3"/>
<path d="M200.512 126.396L220.327 121.044C221.125 120.828 221.985 120.91 222.716 121.272C223.448 121.634 223.992 122.246 224.228 122.973L228.885 137.288C229.388 138.837 229.552 140.461 229.366 142.067C229.18 143.673 228.648 145.23 227.801 146.648C226.954 148.067 225.808 149.32 224.429 150.334C223.05 151.349 221.465 152.105 219.764 152.561C216.337 153.486 212.647 153.134 209.506 151.58C206.364 150.026 204.028 147.399 203.013 144.276L198.359 129.97C198.123 129.242 198.213 128.459 198.61 127.793C199.007 127.126 199.678 126.63 200.476 126.415L200.512 126.396ZM200.512 126.396L200.558 126.538L200.575 126.534M200.512 126.396L200.59 126.526L200.575 126.534M200.575 126.534L220.373 121.186C221.137 120.98 221.956 121.059 222.652 121.403C223.347 121.747 223.86 122.326 224.083 123.012L228.74 137.327C229.237 138.856 229.398 140.458 229.215 142.044C229.031 143.63 228.506 145.168 227.669 146.57C226.831 147.972 225.698 149.211 224.334 150.215C222.97 151.218 221.401 151.967 219.718 152.418L219.718 152.418C216.326 153.334 212.675 152.984 209.57 151.449C206.465 149.913 204.16 147.318 203.158 144.237L198.504 129.931C198.281 129.245 198.365 128.504 198.742 127.871C199.12 127.237 199.76 126.763 200.523 126.557L200.539 126.553L200.554 126.545L200.575 126.534Z" fill="white" stroke="black" stroke-width="0.3"/>
<path d="M228.07 138.043L226.844 135.192C227.299 135.009 228.032 134.655 228.758 134.159C229.566 133.607 230.384 132.869 230.792 131.982L230.792 131.982L230.793 131.98C230.995 131.521 231.089 131.028 231.069 130.532C231.049 130.039 230.916 129.555 230.68 129.112C229.802 127.196 228.339 126.508 227 126.339C225.794 126.186 224.689 126.452 224.195 126.6L223.033 123.732C224.384 123.289 226.426 123.02 228.439 123.489C230.52 123.975 232.572 125.25 233.809 127.953L233.809 127.953L233.811 127.957C234.216 128.772 234.433 129.654 234.448 130.548C234.464 131.441 234.277 132.329 233.899 133.154C233.154 134.763 231.784 135.957 230.532 136.772C229.444 137.479 228.457 137.894 228.07 138.043Z" fill="white" stroke="black" stroke-width="0.3"/>
<path d="M184.445 133.694C184.548 133.517 184.783 133.35 185.288 133.287L201.571 135.737L204.207 143.856L184.993 135.416C184.982 135.401 184.966 135.381 184.947 135.356C184.904 135.299 184.846 135.217 184.781 135.118C184.652 134.917 184.506 134.654 184.426 134.389C184.344 134.121 184.338 133.878 184.445 133.694Z" fill="white" stroke="black" stroke-width="0.3"/>
<path d="M232.804 122.493L232.811 122.493L232.819 122.492C234.098 122.343 235.748 122.373 237.266 122.728C238.788 123.084 240.153 123.761 240.899 124.885C241.672 126.048 242.466 127.456 243.001 128.917C243.536 130.38 243.808 131.884 243.554 133.245L243.554 133.245L243.552 133.259C243.544 133.356 243.506 133.451 243.441 133.532C243.32 133.605 243.178 133.644 243.03 133.643L243.03 133.643L243.02 133.643L235.76 134.109L235.76 134.109L235.751 134.11C234.829 134.224 233.891 134.167 232.994 133.941C231.378 133.395 230.46 131.854 229.727 130.364L229.728 130.364L229.723 130.357C229.296 129.599 229.018 128.779 228.899 127.935C228.852 127.526 228.912 127.112 229.076 126.728C229.239 126.346 229.5 126.004 229.838 125.73C230.309 125.461 230.802 125.225 231.313 125.023L231.313 125.023L231.316 125.022C231.599 124.902 231.842 124.711 232.015 124.47C232.188 124.228 232.284 123.945 232.29 123.653L232.29 123.645L232.289 123.637C232.28 123.54 232.257 123.447 232.233 123.362C232.223 123.327 232.214 123.294 232.205 123.264C232.19 123.214 232.176 123.168 232.164 123.119C232.126 122.972 232.12 122.863 232.164 122.767C232.24 122.687 232.333 122.62 232.44 122.573C232.553 122.523 232.677 122.495 232.804 122.493Z" fill="white" stroke="black" stroke-width="0.3"/>
<path d="M141.353 57.7621L141.689 187.365L137.61 184.26L141.353 57.7621Z" fill="white" stroke="black" stroke-width="0.3"/>
<path d="M233.465 52.4756C233.531 52.439 233.582 52.4088 233.619 52.386C233.642 52.3986 233.668 52.4141 233.699 52.4324C233.797 52.4905 233.935 52.5768 234.091 52.6885C234.404 52.9129 234.788 53.2358 235.081 53.6351C235.374 54.034 235.571 54.4994 235.533 55.0151C235.495 55.5294 235.22 56.1217 234.515 56.7711C233.795 57.4338 233.28 57.9193 232.983 58.3647C232.832 58.5908 232.734 58.8124 232.693 59.0476C232.652 59.2833 232.672 59.523 232.744 59.7828C232.885 60.2939 233.238 60.9028 233.769 61.7431C233.927 61.9922 234.101 62.2625 234.291 62.5582C234.748 63.2683 235.299 64.1245 235.943 65.1833C236.39 65.9198 236.587 66.5364 236.597 67.0643C236.607 67.5886 236.433 68.0392 236.115 68.448C235.794 68.8599 235.325 69.2296 234.745 69.583C234.167 69.9359 233.486 70.2676 232.749 70.607C232.486 70.728 232.216 70.8499 231.941 70.9741C230.679 71.5438 229.314 72.1599 228.077 72.9429C226.567 73.8981 225.23 75.1113 224.482 76.8142C223.735 78.5139 223.837 79.7539 224.328 80.767C224.721 81.5786 225.364 82.2383 225.97 82.8604C226.107 83.0011 226.243 83.1397 226.372 83.2778C227.089 84.0386 227.656 84.7853 227.67 85.774C227.685 86.7666 227.142 88.0474 225.51 89.8687C223.904 91.661 222 92.2455 220.074 92.2799C218.265 92.3122 216.446 91.8592 214.84 91.4595C214.729 91.4319 214.619 91.4046 214.511 91.3778C213.673 91.1705 212.897 90.988 212.228 90.9187C211.562 90.8498 210.974 90.8893 210.531 91.1547C210.077 91.4266 209.808 91.9141 209.736 92.6595C209.665 93.4003 209.785 94.4151 210.124 95.7799C211.138 99.8664 212.704 102.536 213.817 104.434C214.19 105.07 214.512 105.619 214.746 106.106C214.979 106.592 215.121 107.008 215.148 107.385C215.174 107.756 215.09 108.094 214.857 108.433C214.621 108.776 214.23 109.123 213.632 109.498C213.036 109.872 212.243 110.268 211.213 110.71C209.16 111.594 206.971 112.184 204.892 112.667C204.195 112.83 203.509 112.98 202.844 113.126C201.532 113.414 200.305 113.683 199.242 113.988C198.439 114.218 197.722 114.47 197.126 114.768C196.53 115.067 196.047 115.416 195.722 115.845C195.393 116.277 195.23 116.784 195.265 117.381C195.299 117.975 195.528 118.65 195.97 119.429C196.755 120.815 197.659 122.148 198.492 123.375C198.585 123.513 198.678 123.65 198.77 123.785C199.678 125.128 200.465 126.324 200.886 127.317C201.31 128.318 201.332 129.04 200.839 129.513C200.583 129.757 200.174 129.954 199.559 130.081C198.945 130.208 198.14 130.263 197.107 130.235C195.039 130.178 192.821 129.873 190.673 129.536C190.162 129.456 189.655 129.374 189.154 129.293C187.556 129.035 186.03 128.788 184.683 128.651C183.797 128.561 182.983 128.517 182.272 128.549C181.562 128.58 180.945 128.687 180.457 128.905C179.966 129.124 179.602 129.459 179.417 129.94C179.233 130.417 179.232 131.017 179.419 131.755C179.789 133.212 180.372 134.583 180.911 135.842L180.939 135.906C181.47 137.145 181.951 138.267 182.156 139.272C182.364 140.289 182.284 141.162 181.704 141.902C181.118 142.651 180 143.293 178.063 143.79C174.165 144.791 169.21 146.176 165.23 147.31C163.24 147.878 161.493 148.382 160.244 148.745C159.62 148.927 159.12 149.073 158.776 149.173L158.39 149.286L158.312 148.998C158.235 148.715 158.123 148.301 157.982 147.779C157.701 146.735 157.305 145.258 156.849 143.524C155.937 140.056 154.781 135.561 153.809 131.456C153.329 129.427 153.498 127.922 154.06 126.716C154.624 125.507 155.591 124.58 156.743 123.725C157.319 123.297 157.937 122.89 158.571 122.474L158.643 122.427C159.253 122.026 159.877 121.617 160.483 121.178C161.744 120.263 162.941 119.209 163.818 117.799C164.721 116.347 164.426 114.69 163.661 112.927C163.162 111.775 162.448 110.55 161.709 109.281C161.319 108.612 160.922 107.931 160.546 107.242C159.449 105.234 158.514 103.14 158.361 101.004C158.208 98.8778 158.829 96.6962 160.872 94.5028C164.648 90.45 169.086 89.2398 172.553 88.2944C172.858 88.2112 173.155 88.1301 173.444 88.0493C174.336 87.7999 175.149 87.5518 175.844 87.2532C176.54 86.9546 177.127 86.6014 177.559 86.1362C178.437 85.1909 178.634 83.8332 177.953 81.6993C177.749 81.0606 177.549 80.455 177.36 79.8801C176.922 78.5489 176.539 77.3822 176.274 76.349C175.894 74.8689 175.768 73.6968 176.062 72.7405C176.352 71.7951 177.062 71.0326 178.425 70.3931C179.793 69.7514 181.802 69.2416 184.662 68.799C189.125 68.108 192.575 68.6007 195.232 68.9802C195.969 69.0854 196.644 69.1819 197.264 69.2421C198.683 69.38 199.837 69.3301 200.727 68.7054C201.619 68.0796 202.207 66.9045 202.575 64.8948C203.308 60.891 204.095 58.2298 206.116 56.6337C208.138 55.0361 211.435 54.4773 217.28 54.8108C223.141 55.1451 227.238 54.5317 229.874 53.8317C231.193 53.4817 232.145 53.1102 232.77 52.8251C233.082 52.6825 233.312 52.5615 233.465 52.4756Z" fill="white" stroke="black" stroke-width="0.3"/>
<path d="M126.492 147.664L126.414 147.952L126.028 147.839C125.684 147.739 125.183 147.593 124.558 147.411C123.308 147.048 121.56 146.544 119.569 145.977C115.586 144.842 110.629 143.458 106.731 142.456C104.794 141.959 103.674 141.317 103.086 140.568C102.504 139.827 102.421 138.955 102.628 137.938C102.834 136.922 103.323 135.786 103.864 134.531L103.874 134.508C104.417 133.25 105.005 131.879 105.385 130.423C105.577 129.684 105.58 129.084 105.398 128.607C105.216 128.125 104.853 127.79 104.362 127.571C103.875 127.353 103.257 127.246 102.547 127.215C101.834 127.183 101.019 127.227 100.131 127.317C98.7799 127.455 97.2489 127.702 95.6463 127.96C95.1462 128.041 94.6391 128.122 94.1283 128.202C91.9766 128.539 89.7548 128.844 87.6869 128.901C86.6539 128.929 85.8486 128.874 85.235 128.747C84.6202 128.62 84.2106 128.424 83.9551 128.179C83.4619 127.706 83.484 126.985 83.9083 125.983C84.3289 124.99 85.1156 123.794 86.0243 122.452C86.1159 122.316 86.2086 122.18 86.3022 122.042C87.1345 120.815 88.0391 119.481 88.8243 118.095C89.2657 117.316 89.4949 116.641 89.5295 116.048C89.5644 115.45 89.4011 114.943 89.0725 114.511C88.7466 114.082 88.2636 113.733 87.6683 113.434C87.0724 113.136 86.3554 112.884 85.5525 112.654C84.4894 112.35 83.2615 112.08 81.95 111.792C81.2852 111.646 80.5989 111.496 79.9017 111.334C77.8228 110.85 75.6345 110.26 73.5811 109.377C72.5514 108.934 71.7582 108.538 71.1616 108.164C70.5642 107.789 70.1726 107.442 69.9369 107.099C69.7043 106.761 69.62 106.422 69.6464 106.051C69.6732 105.674 69.8148 105.258 70.0484 104.772C70.2819 104.285 70.6041 103.736 70.977 103.1C72.0904 101.202 73.6565 98.5324 74.6702 94.446C75.0088 93.0812 75.1289 92.0666 75.0573 91.3263C74.9852 90.5813 74.7161 90.0943 74.2614 89.8233C73.8178 89.5588 73.2292 89.5203 72.5633 89.5901C71.894 89.6603 71.1171 89.8437 70.2793 90.0518C70.1721 90.0785 70.0637 90.1055 69.9544 90.1329C68.347 90.5344 66.5255 90.9894 64.7155 90.9575C62.7908 90.9235 60.8875 90.3386 59.284 88.5441C57.6546 86.7205 57.1132 85.438 57.1281 84.444C57.143 83.4538 57.7099 82.7062 58.4254 81.9449C58.5553 81.8067 58.6904 81.6678 58.8274 81.5271C59.433 80.9046 60.0752 80.2447 60.4678 79.4331C60.9579 78.4199 61.0594 77.1799 60.3123 75.4803C59.5637 73.7773 58.2269 72.5642 56.7173 71.6089C55.4798 70.826 54.1151 70.2099 52.8529 69.6401C52.578 69.5159 52.3079 69.394 52.045 69.273C51.3076 68.9336 50.6274 68.602 50.0487 68.249C49.4694 67.8957 49.0004 67.526 48.6793 67.1141C48.3607 66.7053 48.1873 66.2546 48.1973 65.7304C48.2073 65.2024 48.4037 64.5858 48.8515 63.8493C49.5005 62.7819 50.0555 61.9202 50.5151 61.2066C50.7011 60.9178 50.8715 60.6533 51.0262 60.4092C51.5586 59.569 51.9123 58.9601 52.0553 58.4492C52.128 58.1894 52.148 57.9497 52.108 57.7141C52.068 57.4788 51.9697 57.2571 51.8194 57.0309C51.5235 56.5854 51.0088 56.0999 50.289 55.4372C49.5835 54.7877 49.3093 54.196 49.271 53.6826C49.2327 53.1678 49.4296 52.7036 49.7227 52.3059C50.0162 51.9077 50.3995 51.5859 50.713 51.3624C50.8691 51.2511 51.0065 51.1652 51.1045 51.1073C51.1354 51.089 51.1624 51.0735 51.1847 51.061C51.2223 51.0837 51.2735 51.1139 51.3388 51.1504C51.4919 51.2361 51.7222 51.3567 52.0346 51.4989C52.6592 51.7832 53.6117 52.1535 54.9297 52.5024C57.5659 53.2 61.6631 53.8112 67.5238 53.4768C73.3693 53.1433 76.6657 53.7044 78.6883 55.3042C80.7091 56.9026 81.4956 59.5662 82.2288 63.57C82.5968 65.5797 83.1855 66.7542 84.077 67.3792C84.9669 68.0031 86.1209 68.0517 87.5402 67.9127C88.1583 67.8521 88.8322 67.7554 89.5668 67.65C92.2248 67.2687 95.6759 66.7736 100.142 67.465C103.002 67.9077 105.011 68.4186 106.379 69.0617C107.742 69.7028 108.452 70.4673 108.742 71.4144C109.036 72.3726 108.91 73.5462 108.53 75.0267C108.265 76.0629 107.88 77.233 107.44 78.5679C107.252 79.1391 107.054 79.7405 106.851 80.3745C106.17 82.5061 106.367 83.8633 107.245 84.8088C107.677 85.2741 108.264 85.6277 108.959 85.9267C109.655 86.2259 110.468 86.4744 111.36 86.7245C111.65 86.8058 111.948 86.8874 112.255 86.9711C115.721 87.9184 120.157 89.1308 123.932 93.1781C125.975 95.3692 126.596 97.549 126.444 99.6742C126.29 101.809 125.356 103.901 124.258 105.91C123.882 106.598 123.486 107.278 123.096 107.947C122.357 109.216 121.643 110.441 121.143 111.593C120.378 113.356 120.083 115.013 120.986 116.465C121.863 117.875 123.06 118.929 124.321 119.844C124.927 120.283 125.551 120.692 126.161 121.093L126.233 121.14C126.867 121.556 127.485 121.963 128.061 122.391C129.213 123.246 130.18 124.173 130.744 125.382C131.306 126.588 131.475 128.093 130.995 130.122C130.023 134.227 128.867 138.722 127.955 142.19C127.499 143.924 127.104 145.402 126.822 146.445C126.681 146.967 126.569 147.381 126.492 147.664Z" fill="white" stroke="black" stroke-width="0.3"/>
<path d="M151.105 168.614L151.105 168.613C152.205 157.31 156.883 145.154 163.29 133.273C169.696 121.392 177.826 109.795 185.82 99.6105C193.813 89.4265 201.669 80.6579 207.527 74.4352C210.023 71.7836 212.157 69.5944 213.783 67.9551C209.396 73.2763 201.539 82.8771 187.892 99.6425C166.863 125.475 158.382 148.376 155.159 164.825C153.548 173.049 153.252 179.659 153.359 184.215C153.412 186.493 153.567 188.257 153.708 189.453C153.778 190.051 153.846 190.507 153.895 190.814C153.914 190.931 153.931 191.027 153.944 191.1H148.686L151.105 168.614Z" fill="white" stroke="black" stroke-width="0.3"/>
<path d="M58.5376 58.3964C66.7044 63.3459 73.9283 68.7708 80.3179 74.5032C77.7344 72.3893 75.169 70.3813 72.7098 68.5165C67.5191 64.5802 62.7988 61.2791 59.3762 58.962C59.0872 58.7664 58.8075 58.5778 58.5376 58.3964ZM131.512 184.223L129.491 185.024C129.491 185.016 129.491 185.008 129.491 185C129.494 184.835 129.496 184.59 129.496 184.268C129.497 183.624 129.487 182.675 129.446 181.452C129.366 179.007 129.163 175.465 128.675 171.079C127.699 162.308 125.582 150.159 121.018 136.646C115.083 119.07 105.007 99.1843 87.917 81.4238C93.4947 86.4727 98.722 91.8508 102.652 97.158C110.161 107.299 118.471 123.771 124.354 140.374C127.295 148.674 129.628 157.004 130.952 164.587C132.269 172.134 132.585 178.932 131.512 184.223Z" fill="white" stroke="black" stroke-width="0.3"/>
</svg>
