<svg width="232" height="304" viewBox="0 0 232 304" fill="none" xmlns="http://www.w3.org/2000/svg">
<path d="M3.66283 280.061L3.66315 280.061L164.158 267.128L164.157 267.278C164.157 267.278 164.157 267.278 164.157 267.278C183.581 267.409 202.998 267.13 222.409 266.439V266.439L222.42 266.438C224.522 266.209 226.648 266.454 228.65 267.154C230.567 267.998 232.126 270.013 231.808 272.076C231.486 273.885 229.991 275.179 228.502 276.322L228.502 276.322C222.579 280.914 216.588 285.447 210.53 289.921L210.526 289.924C206.262 293.297 201.688 296.236 196.87 298.702C184.227 304.7 169.664 304.125 155.693 303.431L67.8396 299.028C67.8396 299.028 67.8396 299.028 67.8396 299.028C45.3049 297.889 21.9728 296.541 2.05374 285.766L2.04603 285.762L2.03788 285.759C1.34327 285.482 0.751052 284.987 0.346342 284.344C-0.0841308 283.467 0.231948 282.603 0.931725 281.839C1.63377 281.072 2.69746 280.439 3.66283 280.061Z" fill="url(#paint0_linear)" stroke="black" stroke-width="0.3"/>
<path d="M93.9071 0.15H208.135C218.154 0.15 226.282 8.47866 226.282 18.7605V250.656C226.282 260.938 218.154 269.267 208.135 269.267H93.9071C83.8879 269.267 75.7594 260.938 75.7594 250.656V18.7605C75.7594 8.47866 83.8879 0.15 93.9071 0.15Z" fill="#FCFCFC" stroke="black" stroke-width="0.3"/>
<path d="M84.5209 0.25H198.748C208.71 0.25 216.796 8.53152 216.796 18.7605V250.656C216.796 260.885 208.71 269.167 198.748 269.167H84.5209C74.5592 269.167 66.4731 260.885 66.4731 250.656V18.7605C66.4731 8.53152 74.5592 0.25 84.5209 0.25Z" fill="white" stroke="black" stroke-width="0.5"/>
<path d="M78.463 30.8424L78.463 30.8425L78.463 229.083C78.4617 231.021 78.8329 232.939 79.5551 234.73C80.2774 236.52 81.3366 238.147 82.672 239.517C84.0074 240.887 85.5928 241.974 87.3375 242.715C89.0823 243.456 90.9522 243.838 92.8406 243.838H191.139C194.952 243.835 198.608 242.28 201.305 239.514C204.001 236.747 205.517 232.995 205.517 229.083V30.8426C205.514 27.624 204.266 24.5386 202.047 22.2638C199.829 19.9891 196.821 18.7108 193.685 18.7081L78.463 30.8424ZM78.463 30.8424C78.4617 29.2497 78.7664 27.6724 79.3596 26.2006C79.9528 24.7289 80.8228 23.3916 81.9199 22.265C83.0169 21.1384 84.3193 20.2445 85.7528 19.6343C87.1863 19.0241 88.7228 18.7094 90.2747 18.7081L78.463 30.8424Z" fill="white" stroke="black" stroke-width="0.3"/>
<path d="M150.413 132.857L150.413 132.857C153.619 129.317 158.139 127.913 162.958 127.425C166.609 127.056 170.412 127.213 173.925 127.359C175.051 127.406 176.147 127.451 177.199 127.478C181.757 127.613 186.641 128.154 189.724 131.468C190.974 132.934 191.956 134.619 192.624 136.443L192.624 136.443L192.626 136.449C194.541 141.084 195.895 145.943 196.656 150.916C196.972 153.046 197.064 155.442 196.611 157.544C196.158 159.643 195.168 161.429 193.337 162.381C191.838 163.012 190.221 163.294 188.602 163.206L188.602 163.206L188.592 163.206C174.889 163.434 161.21 163.113 147.555 162.243L147.553 162.243C144.853 162.106 142.162 161.83 139.49 161.415L139.481 161.414L139.471 161.414C139.172 161.405 138.878 161.329 138.609 161.19C138.348 161.056 138.118 160.865 137.934 160.631C137.831 160.334 137.792 160.017 137.819 159.703C137.847 159.38 137.944 159.068 138.103 158.789L138.108 158.78L138.112 158.771L143.373 145.699C145.242 141.095 147.142 136.459 150.413 132.857Z" fill="#FCFCFC" stroke="black" stroke-width="0.3"/>
<path d="M140.11 130.819L140.107 130.801C140.027 130.362 139.793 129.969 139.449 129.698C139.106 129.427 138.677 129.295 138.246 129.329L138.237 129.329L138.228 129.329C137.046 129.276 135.863 129.32 134.688 129.463L134.674 129.464L134.674 129.464C133.953 129.484 133.258 129.749 132.698 130.217C132.296 130.72 132.047 131.333 131.982 131.981L131.981 131.992L131.98 131.992C131.504 134.641 131.541 137.328 131.751 140.033C131.856 141.385 132.005 142.74 132.153 144.097L132.156 144.121C132.304 145.469 132.452 146.819 132.558 148.165C132.558 148.165 132.558 148.165 132.558 148.165L132.408 148.177C132.444 148.635 132.477 149.096 132.509 149.559C132.738 152.824 132.972 156.166 134.67 158.888C135.547 160.263 136.746 161.39 138.157 162.166C139.568 162.943 141.147 163.344 142.749 163.332L140.11 130.819ZM140.11 130.819L140.117 130.836C144.115 139.74 145.477 149.859 146.174 159.562L146.173 159.562L146.175 159.572C146.267 160.219 146.211 160.879 146.011 161.499L140.11 130.819Z" fill="white" stroke="black" stroke-width="0.3"/>
<path d="M141.703 121.899L141.703 121.899L141.699 121.906C141.456 122.338 141.2 122.766 140.943 123.196C140.406 124.094 139.864 125 139.432 125.957C138.903 127.069 138.519 128.247 138.289 129.462L138.289 129.462L138.289 129.466C138.231 129.822 138.246 130.301 138.261 130.78C138.265 130.91 138.269 131.039 138.272 131.166C138.278 131.47 138.276 131.765 138.251 132.027C138.224 132.292 138.175 132.512 138.091 132.674L138.091 132.674C137.914 133.023 137.613 133.216 137.234 133.295C136.85 133.376 136.389 133.339 135.915 133.222C135.443 133.106 134.968 132.913 134.561 132.694C134.154 132.474 133.824 132.233 133.633 132.023C133.057 131.31 132.585 130.514 132.234 129.661L132.23 129.652L132.226 129.645C130.734 126.98 129.041 124.438 127.164 122.043L127.164 122.043L127.16 122.037C126.244 120.974 125.668 119.648 125.51 118.238C125.555 117.694 125.555 117.146 125.509 116.601L125.509 116.593L125.507 116.585C125.485 116.471 125.485 116.353 125.507 116.238L125.507 116.239L125.508 116.232C125.528 116.097 125.609 116.019 125.733 115.975C125.861 115.929 126.027 115.926 126.179 115.951C126.517 116.073 126.874 116.13 127.232 116.122L127.339 116.119L127.371 116.017C127.407 115.901 127.397 115.785 127.375 115.683C127.354 115.587 127.318 115.49 127.287 115.405C127.285 115.4 127.283 115.395 127.282 115.391C127.247 115.297 127.22 115.219 127.206 115.147C127.193 115.078 127.198 115.031 127.213 114.998C127.25 114.916 127.328 114.866 127.451 114.852C127.572 114.838 127.714 114.863 127.833 114.913C128.123 115.099 128.464 115.185 128.805 115.158L128.839 114.865C128.778 114.846 128.726 114.774 128.744 114.633C128.76 114.499 128.835 114.379 128.927 114.331C129.072 114.293 129.223 114.284 129.372 114.305C129.525 114.327 129.672 114.381 129.805 114.463L129.814 114.468L129.824 114.473C132.722 115.736 135.359 117.556 137.591 119.835C137.605 119.85 137.619 119.865 137.633 119.881C137.875 120.144 138.143 120.436 138.446 120.645C138.773 120.87 139.152 121.009 139.599 120.915C139.823 120.867 140.027 120.757 140.213 120.633C140.333 120.553 140.455 120.46 140.57 120.373C140.63 120.327 140.688 120.283 140.743 120.243C141.088 119.99 141.363 119.85 141.655 119.961C141.803 120.045 141.924 120.172 142.003 120.328C142.083 120.486 142.115 120.665 142.095 120.842C142.04 121.219 141.907 121.58 141.703 121.899Z" fill="white" stroke="black" stroke-width="0.3"/>
<path d="M181.086 146.915L181.085 146.916L181.089 146.929C181.28 147.564 181.333 148.235 181.244 148.895C181.154 149.551 180.926 150.179 180.575 150.734C179.742 151.769 178.278 151.987 176.893 152.06L176.892 152.06C174.476 152.19 172.043 152.12 169.606 152.049C168.654 152.022 167.701 151.994 166.748 151.978C163.363 151.923 159.985 152.018 156.677 152.808C155.698 152.937 154.796 153.417 154.129 154.161L154.117 154.173L154.109 154.188C153.529 155.241 153.361 156.479 153.638 157.653L154.179 162.384L147.815 161.199L147.815 161.199L147.808 161.198C147.588 161.167 147.376 161.093 147.184 160.979C146.908 160.698 146.744 160.321 146.726 159.92L146.725 159.908L146.723 159.896C146.187 157.332 145.954 154.711 146.029 152.09C146.116 149.472 147.119 146.975 148.853 145.054C150.503 143.553 152.492 142.499 154.639 141.987L154.639 141.987L154.646 141.985C159.661 140.503 164.938 140.067 170.185 139.633L170.238 139.628C170.238 139.628 170.238 139.628 170.238 139.628C170.238 139.628 170.238 139.628 170.238 139.628C170.448 139.611 170.67 139.591 170.902 139.57C171.932 139.478 173.152 139.368 174.346 139.405C175.813 139.45 177.204 139.716 178.138 140.475C178.922 141.125 179.559 142.233 180.052 143.442C180.544 144.647 180.885 145.932 181.086 146.915Z" fill="#FDFDFD" stroke="black" stroke-width="0.3"/>
<path d="M154.178 101.761C154.2 101.396 154.216 101.041 154.232 100.695C154.317 98.829 154.391 97.2144 155.358 95.6145L155.358 95.6145L155.359 95.6134C156.482 93.7193 158.165 92.2432 160.162 91.3988C162.159 90.5546 164.365 90.3859 166.462 90.917C171.054 92.1231 174.539 96.2289 176.235 100.81L176.235 100.812C176.992 102.773 177.39 104.861 177.407 106.97C177.326 108.802 177.115 110.625 176.773 112.425L176.773 112.425L176.772 112.43C176.378 115.036 176.164 117.667 176.134 120.303L176.134 120.303L176.134 120.31C176.201 122.272 176.09 124.235 175.803 126.176C175.5 128.107 174.482 129.842 172.963 131.02C172.204 131.571 171.29 131.849 170.362 131.811C169.435 131.773 168.546 131.422 167.833 130.812C167.152 130.136 166.823 129.256 166.489 128.305C166.475 128.265 166.461 128.224 166.447 128.184C166.129 127.275 165.792 126.313 165.111 125.482C164.393 124.607 163.419 124.119 162.386 123.748C161.945 123.589 161.49 123.451 161.037 123.314C160.96 123.29 160.883 123.267 160.805 123.243C160.276 123.081 159.753 122.916 159.255 122.714C157.906 122.164 156.703 121.292 155.748 120.17C154.793 119.049 154.112 117.71 153.761 116.265C153.47 114.606 153.412 112.912 153.592 111.236L153.592 111.236L153.592 111.23C153.794 108.06 153.989 104.903 154.178 101.761ZM154.178 101.761C154.178 101.761 154.178 101.761 154.178 101.761L154.028 101.752M154.178 101.761C154.178 101.761 154.178 101.761 154.178 101.761L154.028 101.752M154.028 101.752C154.05 101.392 154.066 101.04 154.082 100.696C154.166 98.8295 154.241 97.1721 155.23 95.5368L153.442 111.22C153.644 108.05 153.84 104.894 154.028 101.752Z" fill="url(#paint1_linear)" stroke="black" stroke-width="0.3"/>
<path d="M149.513 85.8221L149.513 85.8221L149.513 85.8124C149.495 85.4805 149.575 85.151 149.741 84.8665C149.967 84.5566 150.319 84.457 150.744 84.4861C151.173 84.5154 151.646 84.6757 152.061 84.8501C154.332 85.8154 156.857 85.9499 159.213 85.2312C161.443 84.8601 163.731 85.1882 165.778 86.173L165.778 86.1734L165.789 86.1776C170.367 87.9582 174.223 91.2778 176.727 95.5959C177.193 96.5947 177.824 97.5039 178.591 98.2835L178.591 98.2836L178.594 98.2869C178.817 98.4988 179.069 98.6733 179.317 98.837C179.365 98.8686 179.413 98.8998 179.46 98.9307C179.661 99.062 179.856 99.1893 180.039 99.332C181.172 100.234 181.752 101.533 181.994 103.003C182.237 104.474 182.138 106.104 181.922 107.646C181.488 110.739 180.705 113.922 178.716 116.208L178.715 116.207L178.708 116.218C178.494 116.512 178.194 116.727 177.853 116.831C177.602 116.847 177.35 116.809 177.114 116.719C176.874 116.627 176.655 116.482 176.473 116.295L176.466 116.288L176.459 116.282C175.924 115.856 175.416 115.397 174.938 114.907L174.932 114.9L174.925 114.895C174.778 114.775 174.673 114.609 174.626 114.421C174.619 114.194 174.697 113.973 174.843 113.804L174.848 113.798L174.853 113.792C175.115 113.413 175.417 113.065 175.725 112.71C175.76 112.67 175.796 112.629 175.831 112.588C176.172 112.195 176.514 111.789 176.793 111.334C177.11 110.884 177.298 110.355 177.34 109.803C177.381 109.249 177.272 108.695 177.024 108.201L177.021 108.193L177.016 108.187C176.702 107.696 176.115 107.434 175.566 107.43C175.014 107.426 174.462 107.685 174.264 108.283L174.263 108.284C174.258 108.3 174.253 108.317 174.247 108.334C174.173 108.563 174.087 108.829 173.979 109.014C173.92 109.115 173.867 109.168 173.828 109.187C173.812 109.195 173.8 109.197 173.788 109.196C173.782 109.195 173.775 109.193 173.765 109.19C173.379 106.791 172.913 104.257 172.061 101.965C171.201 99.6506 169.942 97.5728 167.961 96.1303L167.961 96.1302L167.956 96.1269C165.905 94.7539 163.419 94.2383 161.008 94.6867C158.597 95.135 156.447 96.513 154.997 98.5364L154.997 98.5363L154.995 98.5386C154.961 98.5887 154.926 98.6391 154.892 98.6895C154.654 99.0365 154.415 99.3866 154.142 99.6646C153.835 99.9773 153.504 100.179 153.111 100.183C152.803 100.13 152.516 99.989 152.281 99.7762C152.042 99.5606 151.868 99.2798 151.779 98.966L151.78 98.9659L151.776 98.9557C151.659 98.6341 151.584 98.3046 151.508 97.9687C151.504 97.9532 151.501 97.9378 151.497 97.9223C151.418 97.5738 151.335 97.2182 151.198 96.8793L151.198 96.8786C150.941 96.2475 150.517 95.7164 150.063 95.2183C149.91 95.0502 149.755 94.887 149.6 94.725C149.291 94.4003 148.987 94.0803 148.713 93.7345C148.313 93.2291 148.002 92.5718 147.904 91.9313C147.807 91.2949 147.922 90.694 148.342 90.2624C148.978 89.7675 149.768 89.527 150.564 89.5851L150.901 89.6097L150.693 89.3433C149.915 88.3453 149.498 87.101 149.513 85.8221Z" fill="white" stroke="black" stroke-width="0.3"/>
<path d="M205.517 163.389V229.083C205.517 232.996 204.001 236.747 201.305 239.514C198.609 242.28 194.952 243.835 191.139 243.838H105.258V163.389H205.517Z" stroke="black" stroke-width="0.3"/>
<path d="M205.507 163.389V229.083C205.504 232.993 203.99 236.742 201.296 239.508C198.602 242.273 194.949 243.83 191.139 243.838H105.258V163.389H205.507Z" stroke="black" stroke-width="0.3"/>
<path d="M205.507 229.083V229.083C205.513 232.849 204.108 236.471 201.584 239.204H108.387V201.365H205.507V229.083Z" fill="url(#paint2_linear)"/>
<path d="M205.507 229.083V229.083C205.513 232.849 204.108 236.471 201.584 239.204H108.387V201.365H205.507V229.083Z" fill="url(#paint3_linear)"/>
<path d="M205.507 229.083V229.083C205.513 232.849 204.108 236.471 201.584 239.204H108.387V201.365H205.507V229.083Z" stroke="black" stroke-width="0.3"/>
<path d="M78.2904 18.6981L93.3431 18.708L66.0378 52.0581L65.9834 52.1245H46.4908L47.0521 51.5833L47.0523 51.5831L58.0366 41.0292L58.0369 41.0295L58.0438 41.0219L78.2904 18.6981Z" fill="url(#paint4_linear)" stroke="black" stroke-width="0.3"/>
<path d="M145.737 52.0035L126.148 52.1223L126.708 51.5831L126.715 51.5761L126.721 51.5681L152.663 18.6964L172.809 18.2299L145.737 52.0035Z" fill="url(#paint5_linear)" stroke="black" stroke-width="0.3"/>
<path d="M182.609 52.0035L163.02 52.1223L163.58 51.5831L163.587 51.5761L163.593 51.5681L189.535 18.6964L209.681 18.2299L182.609 52.0035Z" fill="#FCFCFC" stroke="black" stroke-width="0.3"/>
<path d="M106.381 52.3452H125.932C125.605 54.7647 124.435 56.981 122.638 58.585C120.841 60.1891 118.539 61.0727 116.157 61.0727C113.775 61.0727 111.473 60.1891 109.676 58.585C107.879 56.981 106.709 54.7647 106.381 52.3452V52.3452Z" fill="#68E1FD"/>
<path d="M86.5244 52.3452H106.076C105.748 54.7647 104.578 56.981 102.781 58.585C100.984 60.1891 98.6824 61.0727 96.3 61.0727C93.9176 61.0727 91.6156 60.1891 89.8189 58.585C88.0222 56.981 86.852 54.7647 86.5244 52.3452V52.3452Z" fill="#68E1FD"/>
<path d="M165.597 52.2241C165.291 54.6532 164.135 56.8859 162.346 58.508C160.556 60.1301 158.253 61.0316 155.864 61.0452C153.475 61.0588 151.163 60.1836 149.355 58.5819C147.548 56.9802 146.369 54.7608 146.036 52.3354H165.479L165.597 52.2241Z" fill="#68E1FD"/>
<path d="M182.592 52.2241C182.119 57.2836 178.487 61.1996 174.085 61.1996C169.683 61.1996 166.101 57.3241 165.587 52.3354H182.523L182.592 52.2241Z" fill="black"/>
<path d="M66.7856 52.3452H86.3368C86.0091 54.7647 84.839 56.981 83.0423 58.585C81.2456 60.1891 78.9436 61.0727 76.5612 61.0727C74.1788 61.0727 71.8768 60.1891 70.0801 58.585C68.2834 56.981 67.1133 54.7647 66.7856 52.3452V52.3452Z" fill="white"/>
<path d="M126.209 52.3452H145.74C145.413 54.7647 144.243 56.981 142.446 58.585C140.649 60.1891 138.347 61.0727 135.965 61.0727C133.582 61.0727 131.28 60.1891 129.484 58.585C127.687 56.981 126.517 54.7647 126.189 52.3452H126.209Z" fill="white"/>
<path d="M46.9092 52.3452H66.4603C66.1327 54.7647 64.9625 56.981 63.1658 58.585C61.3691 60.1891 59.0671 61.0727 56.6847 61.0727C54.3023 61.0727 52.0004 60.1891 50.2036 58.585C48.4069 56.981 47.2368 54.7647 46.9092 52.3452V52.3452Z" fill="white"/>
<path d="M109.776 58.4731C108.048 56.9309 106.908 54.8134 106.554 52.4952H125.759C125.406 54.8134 124.266 56.9309 122.538 58.4731C120.769 60.053 118.502 60.9227 116.157 60.9227C113.812 60.9227 111.545 60.053 109.776 58.4731Z" fill="white" stroke="black" stroke-width="0.3"/>
<path d="M89.9188 58.4731C88.1913 56.9309 87.0513 54.8134 86.6976 52.4952H105.902C105.549 54.8134 104.409 56.9309 102.681 58.4731C100.912 60.053 98.6451 60.9227 96.3 60.9227C93.9549 60.9227 91.6883 60.053 89.9188 58.4731Z" fill="white" stroke="black" stroke-width="0.3"/>
<path d="M146.2 52.6065H165.399C165.047 54.8917 163.929 56.9827 162.235 58.5179C160.472 60.1156 158.205 61.0029 155.853 61.0163C153.502 61.0297 151.225 60.1682 149.445 58.5907C147.707 57.0508 146.559 54.9304 146.2 52.6065Z" fill="white" stroke="black" stroke-width="0.3"/>
<path d="M165.755 52.5561H182.354C181.788 57.4205 178.267 61.1203 174.055 61.1203C169.809 61.1203 166.323 57.4002 165.755 52.5561Z" fill="white" stroke="black" stroke-width="0.3"/>
<path d="M70.18 58.4731C68.4525 56.9309 67.3125 54.8134 66.9588 52.4952H86.1636C85.8099 54.8134 84.6699 56.9309 82.9424 58.4731C81.1728 60.053 78.9063 60.9227 76.5612 60.9227C74.2161 60.9227 71.9496 60.053 70.18 58.4731Z" fill="white" stroke="black" stroke-width="0.3"/>
<path d="M129.584 58.4731C127.856 56.9309 126.716 54.8134 126.362 52.4952H145.567C145.213 54.8134 144.073 56.9309 142.346 58.4731C140.576 60.053 138.31 60.9227 135.965 60.9227C133.62 60.9227 131.353 60.053 129.584 58.4731Z" fill="white" stroke="black" stroke-width="0.3"/>
<path d="M50.3035 58.4731C48.5761 56.9309 47.436 54.8134 47.0823 52.4952H66.2872C65.9334 54.8134 64.7934 56.9309 63.0659 58.4731C61.2964 60.053 59.0298 60.9227 56.6847 60.9227C54.3396 60.9227 52.0731 60.053 50.3035 58.4731Z" fill="white" stroke="black" stroke-width="0.3"/>
<path d="M86.2058 52.1954H66.7636L93.5449 18.9502L113.171 18.7021L86.2058 52.1954Z" fill="url(#paint6_linear)" stroke="black" stroke-width="0.3"/>
<path d="M125.957 52.1954H106.518L133.299 18.9494L151.708 18.5232L125.957 52.1954Z" fill="url(#paint7_linear)" stroke="black" stroke-width="0.3"/>
<path d="M165.701 52.1954H146.271L173.043 18.9494L191.462 18.5232L165.701 52.1954Z" fill="url(#paint8_linear)" stroke="#FCFCFC" stroke-width="0.3"/>
<path d="M208.75 46.6763L183.059 51.8929L210.153 18.2426L208.75 46.6763Z" fill="#FCFCFC" stroke="black" stroke-width="0.3"/>
<path d="M125.439 250.442H146.441C149.44 250.442 151.877 252.936 151.877 256.02C151.877 259.103 149.44 261.597 146.441 261.597H125.439C122.44 261.597 120.003 259.103 120.003 256.02C120.003 252.936 122.44 250.442 125.439 250.442Z" fill="white" stroke="black" stroke-width="0.3"/>
<path d="M108.347 167.012H205.507V196.34H108.347V167.012Z" stroke="black" stroke-width="0.3"/>
<path d="M115.187 175.451H133.569V195.955H115.187V175.451Z" stroke="black" stroke-width="0.3"/>
<path d="M115.187 175.451H133.569V195.955H115.187V175.451Z" stroke="black" stroke-width="0.3"/>
<path d="M157.85 184.317H139.167V196.105H157.85V184.317Z" fill="url(#paint9_linear)"/>
<path d="M112.532 175.451H130.914V195.955H112.532V175.451Z" fill="white" stroke="black" stroke-width="0.3"/>
<path d="M139.702 185.65H153.92V196.188H139.702V185.65Z" stroke="black" stroke-width="0.3"/>
<path d="M114.772 217.515H133.155V238.02H114.772V217.515Z" stroke="black" stroke-width="0.3"/>
<path d="M139.288 227.715H153.505V238.252H139.288V227.715Z" stroke="black" stroke-width="0.3"/>
<path d="M177.912 189.599C177.912 193.242 175.033 196.188 171.489 196.188C167.945 196.188 165.066 193.242 165.066 189.599C165.066 185.956 167.945 183.01 171.489 183.01C175.033 183.01 177.912 185.956 177.912 189.599Z" fill="url(#paint10_linear)" stroke="black" stroke-width="0.3"/>
<path d="M171.892 231.724C171.892 235.367 169.013 238.313 165.469 238.313C161.925 238.313 159.046 235.367 159.046 231.724C159.046 228.081 161.925 225.135 165.469 225.135C169.013 225.135 171.892 228.081 171.892 231.724Z" fill="url(#paint11_linear)" stroke="black" stroke-width="0.3"/>
<path d="M175.494 189.599C175.494 193.242 172.615 196.188 169.071 196.188C165.527 196.188 162.648 193.242 162.648 189.599C162.648 185.956 165.527 183.01 169.071 183.01C172.615 183.01 175.494 185.956 175.494 189.599Z" stroke="black" stroke-width="0.3"/>
<path d="M169.494 231.845C169.494 235.488 166.615 238.435 163.071 238.435C159.527 238.435 156.648 235.488 156.648 231.845C156.648 228.203 159.527 225.256 163.071 225.256C166.615 225.256 169.494 228.203 169.494 231.845Z" fill="#FCFCFC" stroke="black" stroke-width="0.3"/>
<path d="M192.065 228.911C192.065 233.794 188.205 237.747 183.451 237.747C178.697 237.747 174.837 233.794 174.837 228.911C174.837 224.028 178.697 220.075 183.451 220.075C188.205 220.075 192.065 224.028 192.065 228.911Z" fill="url(#paint12_linear)" stroke="black" stroke-width="0.3"/>
<path d="M197.67 187.352C197.67 192.236 193.81 196.188 189.056 196.188C184.303 196.188 180.442 192.236 180.442 187.352C180.442 182.469 184.303 178.517 189.056 178.517C193.81 178.517 197.67 182.469 197.67 187.352Z" stroke="black" stroke-width="0.3"/>
<path d="M189.371 229.285C189.371 234.169 185.51 238.121 180.757 238.121C176.003 238.121 172.143 234.169 172.143 229.285C172.143 224.402 176.003 220.45 180.757 220.45C185.51 220.45 189.371 224.402 189.371 229.285Z" fill="#FCFCFC" stroke="black" stroke-width="0.3"/>
<defs>
<linearGradient id="paint0_linear" x1="120.473" y1="207.959" x2="112.283" y2="328.466" gradientUnits="userSpaceOnUse">
<stop offset="0.01" stop-color="white"/>
<stop offset="0.13" stop-color="white"/>
<stop offset="1" stop-color="white"/>
</linearGradient>
<linearGradient id="paint1_linear" x1="14143.1" y1="-28148.7" x2="14745.4" y2="-28384.6" gradientUnits="userSpaceOnUse">
<stop stop-color="white"/>
<stop offset="0.42" stop-color="#EAD4D1"/>
<stop offset="1" stop-color="#F0E9CB"/>
</linearGradient>
<linearGradient id="paint2_linear" x1="23294.2" y1="9627.48" x2="23509.1" y2="14047.4" gradientUnits="userSpaceOnUse">
<stop offset="0.01" stop-color="#FCFCFC"/>
<stop offset="0.13" stop-opacity="0.69"/>
<stop offset="1" stop-opacity="0"/>
</linearGradient>
<linearGradient id="paint3_linear" x1="23294.2" y1="9627.48" x2="23509.1" y2="14047.4" gradientUnits="userSpaceOnUse">
<stop offset="0.01" stop-color="#FCFCFC"/>
<stop offset="0.13" stop-opacity="0.69"/>
<stop offset="1" stop-opacity="0"/>
</linearGradient>
<linearGradient id="paint4_linear" x1="22743" y1="2296.77" x2="22695" y2="4778.07" gradientUnits="userSpaceOnUse">
<stop offset="0.01" stop-color="#FCFCFC"/>
<stop offset="0.13" stop-opacity="0.69"/>
<stop offset="1" stop-opacity="0"/>
</linearGradient>
<linearGradient id="paint5_linear" x1="9629.99" y1="2184.43" x2="9486.29" y2="4724.84" gradientUnits="userSpaceOnUse">
<stop offset="0.01" stop-opacity="0"/>
<stop offset="0.13" stop-opacity="0.69"/>
<stop offset="1" stop-opacity="0"/>
</linearGradient>
<linearGradient id="paint6_linear" x1="5444.21" y1="3151.22" x2="7686" y2="3151.22" gradientUnits="userSpaceOnUse">
<stop offset="0.02" stop-color="#FCFCFC"/>
<stop offset="0.32" stop-color="white" stop-opacity="0.39"/>
<stop offset="0.68" stop-color="white" stop-opacity="0.68"/>
<stop offset="1" stop-color="white"/>
</linearGradient>
<linearGradient id="paint7_linear" x1="7189.41" y1="3164.86" x2="9316.06" y2="3164.86" gradientUnits="userSpaceOnUse">
<stop offset="0.02" stop-color="white" stop-opacity="0"/>
<stop offset="0.32" stop-color="white" stop-opacity="0.39"/>
<stop offset="0.68" stop-color="white" stop-opacity="0.68"/>
<stop offset="1" stop-color="white"/>
</linearGradient>
<linearGradient id="paint8_linear" x1="9074.52" y1="3164.86" x2="11201.2" y2="3164.86" gradientUnits="userSpaceOnUse">
<stop offset="0.02" stop-color="white" stop-opacity="0"/>
<stop offset="0.32" stop-color="white" stop-opacity="0.39"/>
<stop offset="0.68" stop-color="white" stop-opacity="0.68"/>
<stop offset="1" stop-color="white"/>
</linearGradient>
<linearGradient id="paint9_linear" x1="4003.48" y1="3050.83" x2="3493.74" y2="3264.04" gradientUnits="userSpaceOnUse">
<stop offset="0.01"/>
<stop offset="0.13" stop-opacity="0.69"/>
<stop offset="1" stop-opacity="0"/>
</linearGradient>
<linearGradient id="paint10_linear" x1="3109.73" y1="3373.34" x2="2967.94" y2="3727.58" gradientUnits="userSpaceOnUse">
<stop offset="0.01" stop-opacity="0"/>
<stop offset="0.13" stop-opacity="0.69"/>
<stop offset="1" stop-opacity="0"/>
</linearGradient>
<linearGradient id="paint11_linear" x1="3103.71" y1="3415.47" x2="2961.92" y2="3769.71" gradientUnits="userSpaceOnUse">
<stop offset="0.01" stop-opacity="0"/>
<stop offset="0.13" stop-opacity="0.69"/>
<stop offset="1" stop-opacity="0"/>
</linearGradient>
<linearGradient id="paint12_linear" x1="4489.36" y1="4384.22" x2="4237.16" y2="5013.98" gradientUnits="userSpaceOnUse">
<stop offset="0.01" stop-color="white"/>
<stop offset="0.13" stop-opacity="0.69"/>
<stop offset="1" stop-opacity="0"/>
</linearGradient>
</defs>
</svg>
