<svg width="176" height="42" viewBox="0 0 176 42" fill="none" xmlns="http://www.w3.org/2000/svg">
<rect width="176" height="42" rx="21" fill="white"/>
<path d="M29.2543 25.072C30.4903 25.072 31.5943 24.652 32.3383 23.836L31.7743 23.272C31.0903 23.98 30.2503 24.28 29.2903 24.28C27.2623 24.28 25.7383 22.792 25.7383 20.8C25.7383 18.808 27.2623 17.32 29.2903 17.32C30.2503 17.32 31.0903 17.62 31.7743 18.316L32.3383 17.752C31.5943 16.936 30.4903 16.528 29.2663 16.528C26.7343 16.528 24.8623 18.34 24.8623 20.8C24.8623 23.26 26.7343 25.072 29.2543 25.072ZM40.9393 25L38.8873 22.12C40.1113 21.724 40.8073 20.8 40.8073 19.48C40.8073 17.68 39.5113 16.6 37.3753 16.6H34.2313V25H35.1193V22.336H37.3753C37.6153 22.336 37.8313 22.324 38.0473 22.3L39.9673 25H40.9393ZM37.3513 21.58H35.1193V17.368H37.3513C39.0313 17.368 39.9193 18.136 39.9193 19.48C39.9193 20.8 39.0313 21.58 37.3513 21.58ZM47.7992 14.428H46.6592L45.0152 15.916H45.8552L47.7992 14.428ZM43.7912 24.232V21.112H48.1352V20.356H43.7912V17.368H48.6632V16.6H42.9032V25H48.8432V24.232H43.7912ZM51.8185 24.232V21.112H56.1625V20.356H51.8185V17.368H56.6905V16.6H50.9305V25H56.8705V24.232H51.8185ZM59.3178 24.232L64.8738 17.212V16.6H58.2138V17.368H63.6978L58.1298 24.388V25H65.0178V24.232H59.3178ZM75.9989 16.6L72.7589 23.896L69.5429 16.6H68.5829L72.3029 25H73.1789L76.8989 16.6H75.9989ZM81.708 25.072C84.228 25.072 86.112 23.26 86.112 20.8C86.112 18.34 84.228 16.528 81.708 16.528C79.164 16.528 77.292 18.352 77.292 20.8C77.292 23.248 79.164 25.072 81.708 25.072ZM81.708 24.28C79.68 24.28 78.168 22.804 78.168 20.8C78.168 18.796 79.68 17.32 81.708 17.32C83.724 17.32 85.224 18.796 85.224 20.8C85.224 22.804 83.724 24.28 81.708 24.28ZM89.6172 25H90.5052V17.368H93.4572V16.6H86.6652V17.368H89.6172V25ZM101.584 25L99.5318 22.12C100.756 21.724 101.452 20.8 101.452 19.48C101.452 17.68 100.156 16.6 98.0198 16.6H94.8758V25H95.7638V22.336H98.0198C98.2598 22.336 98.4758 22.324 98.6918 22.3L100.612 25H101.584ZM97.9958 21.58H95.7638V17.368H97.9958C99.6758 17.368 100.564 18.136 100.564 19.48C100.564 20.8 99.6758 21.58 97.9958 21.58ZM104.436 24.232V21.112H108.78V20.356H104.436V17.368H109.308V16.6H103.548V25H109.488V24.232H104.436ZM120.8 16.6L117.56 23.896L114.344 16.6H113.384L117.104 25H117.98L121.7 16.6H120.8ZM123.807 24.232V21.112H128.151V20.356H123.807V17.368H128.679V16.6H122.919V25H128.859V24.232H123.807ZM133.262 25.072C135.41 25.072 136.394 24.016 136.394 22.78C136.394 19.72 131.222 21.112 131.222 18.808C131.222 17.968 131.906 17.284 133.442 17.284C134.186 17.284 135.026 17.512 135.746 17.98L136.046 17.272C135.374 16.804 134.39 16.528 133.442 16.528C131.306 16.528 130.346 17.596 130.346 18.832C130.346 21.94 135.518 20.524 135.518 22.828C135.518 23.656 134.834 24.316 133.262 24.316C132.158 24.316 131.09 23.884 130.49 23.296L130.142 23.98C130.766 24.628 132.002 25.072 133.262 25.072ZM139.844 25H140.732V17.368H143.684V16.6H136.892V17.368H139.844V25ZM145.99 24.232V21.112H150.334V20.356H145.99V17.368H150.862V16.6H145.102V25H151.042V24.232H145.99Z" fill="#36BDCB"/>
</svg>
