<svg width="180" height="46" viewBox="0 0 180 46" fill="none" xmlns="http://www.w3.org/2000/svg">
<g filter="url(#filter0_d)">
<rect width="176" height="42" rx="21" fill="white"/>
<path d="M29.2543 25.072C28.4223 25.072 27.6703 24.888 26.9983 24.52C26.3343 24.152 25.8103 23.644 25.4263 22.996C25.0503 22.34 24.8623 21.608 24.8623 20.8C24.8623 19.992 25.0503 19.264 25.4263 18.616C25.8103 17.96 26.3383 17.448 27.0103 17.08C27.6823 16.712 28.4343 16.528 29.2663 16.528C29.8903 16.528 30.4663 16.632 30.9943 16.84C31.5223 17.048 31.9703 17.352 32.3383 17.752L31.7743 18.316C31.1183 17.652 30.2903 17.32 29.2903 17.32C28.6263 17.32 28.0223 17.472 27.4783 17.776C26.9343 18.08 26.5063 18.496 26.1943 19.024C25.8903 19.552 25.7383 20.144 25.7383 20.8C25.7383 21.456 25.8903 22.048 26.1943 22.576C26.5063 23.104 26.9343 23.52 27.4783 23.824C28.0223 24.128 28.6263 24.28 29.2903 24.28C30.2983 24.28 31.1263 23.944 31.7743 23.272L32.3383 23.836C31.9703 24.236 31.5183 24.544 30.9823 24.76C30.4543 24.968 29.8783 25.072 29.2543 25.072ZM39.9673 25L38.0473 22.3C37.8313 22.324 37.6073 22.336 37.3753 22.336H35.1193V25H34.2313V16.6H37.3753C38.4473 16.6 39.2873 16.856 39.8953 17.368C40.5033 17.88 40.8073 18.584 40.8073 19.48C40.8073 20.136 40.6393 20.692 40.3033 21.148C39.9753 21.596 39.5033 21.92 38.8873 22.12L40.9393 25H39.9673ZM37.3513 21.58C38.1833 21.58 38.8193 21.396 39.2593 21.028C39.6993 20.66 39.9193 20.144 39.9193 19.48C39.9193 18.8 39.6993 18.28 39.2593 17.92C38.8193 17.552 38.1833 17.368 37.3513 17.368H35.1193V21.58H37.3513ZM48.8432 24.232V25H42.9032V16.6H48.6632V17.368H43.7912V20.356H48.1352V21.112H43.7912V24.232H48.8432ZM46.6592 14.428H47.7992L45.8552 15.916H45.0152L46.6592 14.428ZM56.8705 24.232V25H50.9305V16.6H56.6905V17.368H51.8185V20.356H56.1625V21.112H51.8185V24.232H56.8705ZM65.0178 24.232V25H58.1298V24.388L63.6978 17.368H58.2138V16.6H64.8738V17.212L59.3178 24.232H65.0178ZM76.8989 16.6L73.1789 25H72.3029L68.5829 16.6H69.5429L72.7589 23.896L75.9989 16.6H76.8989ZM81.708 25.072C80.876 25.072 80.12 24.888 79.44 24.52C78.768 24.144 78.24 23.632 77.856 22.984C77.48 22.336 77.292 21.608 77.292 20.8C77.292 19.992 77.48 19.264 77.856 18.616C78.24 17.968 78.768 17.46 79.44 17.092C80.12 16.716 80.876 16.528 81.708 16.528C82.54 16.528 83.288 16.712 83.952 17.08C84.624 17.448 85.152 17.96 85.536 18.616C85.92 19.264 86.112 19.992 86.112 20.8C86.112 21.608 85.92 22.34 85.536 22.996C85.152 23.644 84.624 24.152 83.952 24.52C83.288 24.888 82.54 25.072 81.708 25.072ZM81.708 24.28C82.372 24.28 82.972 24.132 83.508 23.836C84.044 23.532 84.464 23.116 84.768 22.588C85.072 22.052 85.224 21.456 85.224 20.8C85.224 20.144 85.072 19.552 84.768 19.024C84.464 18.488 84.044 18.072 83.508 17.776C82.972 17.472 82.372 17.32 81.708 17.32C81.044 17.32 80.44 17.472 79.896 17.776C79.36 18.072 78.936 18.488 78.624 19.024C78.32 19.552 78.168 20.144 78.168 20.8C78.168 21.456 78.32 22.052 78.624 22.588C78.936 23.116 79.36 23.532 79.896 23.836C80.44 24.132 81.044 24.28 81.708 24.28ZM89.6172 17.368H86.6652V16.6H93.4572V17.368H90.5052V25H89.6172V17.368ZM100.612 25L98.6918 22.3C98.4758 22.324 98.2518 22.336 98.0198 22.336H95.7638V25H94.8758V16.6H98.0198C99.0918 16.6 99.9318 16.856 100.54 17.368C101.148 17.88 101.452 18.584 101.452 19.48C101.452 20.136 101.284 20.692 100.948 21.148C100.62 21.596 100.148 21.92 99.5318 22.12L101.584 25H100.612ZM97.9958 21.58C98.8278 21.58 99.4638 21.396 99.9038 21.028C100.344 20.66 100.564 20.144 100.564 19.48C100.564 18.8 100.344 18.28 99.9038 17.92C99.4638 17.552 98.8278 17.368 97.9958 17.368H95.7638V21.58H97.9958ZM109.488 24.232V25H103.548V16.6H109.308V17.368H104.436V20.356H108.78V21.112H104.436V24.232H109.488ZM121.7 16.6L117.98 25H117.104L113.384 16.6H114.344L117.56 23.896L120.8 16.6H121.7ZM128.859 24.232V25H122.919V16.6H128.679V17.368H123.807V20.356H128.151V21.112H123.807V24.232H128.859ZM133.262 25.072C132.638 25.072 132.038 24.972 131.462 24.772C130.894 24.572 130.454 24.308 130.142 23.98L130.49 23.296C130.794 23.6 131.198 23.848 131.702 24.04C132.206 24.224 132.726 24.316 133.262 24.316C134.014 24.316 134.578 24.18 134.954 23.908C135.33 23.628 135.518 23.268 135.518 22.828C135.518 22.492 135.414 22.224 135.206 22.024C135.006 21.824 134.758 21.672 134.462 21.568C134.166 21.456 133.754 21.336 133.226 21.208C132.594 21.048 132.09 20.896 131.714 20.752C131.338 20.6 131.014 20.372 130.742 20.068C130.478 19.764 130.346 19.352 130.346 18.832C130.346 18.408 130.458 18.024 130.682 17.68C130.906 17.328 131.25 17.048 131.714 16.84C132.178 16.632 132.754 16.528 133.442 16.528C133.922 16.528 134.39 16.596 134.846 16.732C135.31 16.86 135.71 17.04 136.046 17.272L135.746 17.98C135.394 17.748 135.018 17.576 134.618 17.464C134.218 17.344 133.826 17.284 133.442 17.284C132.706 17.284 132.15 17.428 131.774 17.716C131.406 17.996 131.222 18.36 131.222 18.808C131.222 19.144 131.322 19.416 131.522 19.624C131.73 19.824 131.986 19.98 132.29 20.092C132.602 20.196 133.018 20.312 133.538 20.44C134.154 20.592 134.65 20.744 135.026 20.896C135.41 21.04 135.734 21.264 135.998 21.568C136.262 21.864 136.394 22.268 136.394 22.78C136.394 23.204 136.278 23.592 136.046 23.944C135.822 24.288 135.474 24.564 135.002 24.772C134.53 24.972 133.95 25.072 133.262 25.072ZM139.844 17.368H136.892V16.6H143.684V17.368H140.732V25H139.844V17.368ZM151.042 24.232V25H145.102V16.6H150.862V17.368H145.99V20.356H150.334V21.112H145.99V24.232H151.042Z" fill="#36BDCB"/>
</g>
<defs>
<filter id="filter0_d" x="0" y="0" width="180" height="46" filterUnits="userSpaceOnUse" color-interpolation-filters="sRGB">
<feFlood flood-opacity="0" result="BackgroundImageFix"/>
<feColorMatrix in="SourceAlpha" type="matrix" values="0 0 0 0 0 0 0 0 0 0 0 0 0 0 0 0 0 0 127 0"/>
<feOffset dx="4" dy="4"/>
<feColorMatrix type="matrix" values="0 0 0 0 0.964706 0 0 0 0 0.839216 0 0 0 0 0.988235 0 0 0 1 0"/>
<feBlend mode="normal" in2="BackgroundImageFix" result="effect1_dropShadow"/>
<feBlend mode="normal" in="SourceGraphic" in2="effect1_dropShadow" result="shape"/>
</filter>
</defs>
</svg>
