<svg width="192" height="45" viewBox="0 0 192 45" fill="none" xmlns="http://www.w3.org/2000/svg">
<g filter="url(#filter0_d)">
<rect width="188" height="41" rx="20.5" fill="#36BDCB"/>
<path d="M15.8305 26.072C17.9785 26.072 18.9625 25.016 18.9625 23.78C18.9625 20.72 13.7905 22.112 13.7905 19.808C13.7905 18.968 14.4745 18.284 16.0105 18.284C16.7545 18.284 17.5945 18.512 18.3145 18.98L18.6145 18.272C17.9425 17.804 16.9585 17.528 16.0105 17.528C13.8745 17.528 12.9145 18.596 12.9145 19.832C12.9145 22.94 18.0865 21.524 18.0865 23.828C18.0865 24.656 17.4025 25.316 15.8305 25.316C14.7265 25.316 13.6585 24.884 13.0585 24.296L12.7105 24.98C13.3345 25.628 14.5705 26.072 15.8305 26.072ZM25.5533 19.688V23C25.5533 24.44 24.7253 25.292 23.4053 25.292C22.2053 25.292 21.5093 24.608 21.5093 23.264V19.688H20.6573V23.348C20.6573 25.16 21.7133 26.06 23.3213 26.06C24.3293 26.06 25.1453 25.616 25.5893 24.848V26H26.4053V19.688H25.5533ZM29.2235 18.308C29.5835 18.308 29.8475 18.032 29.8475 17.684C29.8475 17.36 29.5715 17.096 29.2235 17.096C28.8755 17.096 28.5995 17.372 28.5995 17.696C28.5995 18.032 28.8755 18.308 29.2235 18.308ZM28.7915 26H29.6435V19.688H28.7915V26ZM36.4782 19.688L34.0902 25.064L31.7262 19.688H30.8382L33.6342 26H34.5102L37.3182 19.688H36.4782ZM43.8503 22.844C43.8503 20.948 42.5663 19.64 40.7903 19.64C39.0143 19.64 37.7063 20.972 37.7063 22.844C37.7063 24.716 39.0503 26.06 41.0183 26.06C42.0143 26.06 42.8903 25.7 43.4543 25.028L42.9743 24.476C42.4943 25.028 41.8103 25.304 41.0423 25.304C39.6623 25.304 38.6543 24.428 38.5583 23.108H43.8383C43.8383 23.012 43.8503 22.916 43.8503 22.844ZM40.7903 20.372C42.0263 20.372 42.9263 21.236 43.0343 22.472H38.5583C38.6663 21.236 39.5663 20.372 40.7903 20.372ZM45.9339 25.292L49.9059 20.252V19.688H44.9139V20.408H48.8139L44.8419 25.436V26H49.9779V25.292H45.9339ZM58.0114 19.64C56.9194 19.64 56.0674 20.084 55.6114 20.852V19.688H54.7954V26H55.6474V22.688C55.6474 21.248 56.4994 20.408 57.8554 20.408C59.0554 20.408 59.7514 21.092 59.7514 22.424V26H60.6034V22.34C60.6034 20.528 59.5474 19.64 58.0114 19.64ZM65.52 26.06C67.368 26.06 68.724 24.716 68.724 22.844C68.724 20.972 67.368 19.64 65.52 19.64C63.672 19.64 62.304 20.972 62.304 22.844C62.304 24.716 63.672 26.06 65.52 26.06ZM65.52 25.304C64.176 25.304 63.168 24.32 63.168 22.844C63.168 21.368 64.176 20.384 65.52 20.384C66.864 20.384 67.86 21.368 67.86 22.844C67.86 24.32 66.864 25.304 65.52 25.304ZM75.2994 19.688V23C75.2994 24.44 74.4714 25.292 73.1514 25.292C71.9514 25.292 71.2554 24.608 71.2554 23.264V19.688H70.4034V23.348C70.4034 25.16 71.4594 26.06 73.0674 26.06C74.0754 26.06 74.8914 25.616 75.3354 24.848V26H76.1514V19.688H75.2994ZM80.2296 26.06C81.8736 26.06 82.8336 25.352 82.8336 24.26C82.8336 21.836 78.7416 23.12 78.7416 21.416C78.7416 20.816 79.2456 20.372 80.3856 20.372C81.0336 20.372 81.6936 20.528 82.2456 20.912L82.6176 20.228C82.0896 19.868 81.2016 19.64 80.3856 19.64C78.7776 19.64 77.8896 20.408 77.8896 21.44C77.8896 23.936 81.9816 22.64 81.9816 24.284C81.9816 24.908 81.4896 25.316 80.2896 25.316C79.4016 25.316 78.5496 25.004 78.0456 24.608L77.6616 25.28C78.1776 25.724 79.1856 26.06 80.2296 26.06ZM89.2413 26.06C90.8853 26.06 91.8453 25.352 91.8453 24.26C91.8453 21.836 87.7533 23.12 87.7533 21.416C87.7533 20.816 88.2573 20.372 89.3973 20.372C90.0453 20.372 90.7053 20.528 91.2573 20.912L91.6293 20.228C91.1013 19.868 90.2133 19.64 89.3973 19.64C87.7893 19.64 86.9013 20.408 86.9013 21.44C86.9013 23.936 90.9933 22.64 90.9933 24.284C90.9933 24.908 90.5013 25.316 89.3013 25.316C88.4133 25.316 87.5613 25.004 87.0573 24.608L86.6733 25.28C87.1893 25.724 88.1973 26.06 89.2413 26.06ZM98.2564 19.688V23C98.2564 24.44 97.4284 25.292 96.1084 25.292C94.9084 25.292 94.2124 24.608 94.2124 23.264V19.688H93.3604V23.348C93.3604 25.16 94.4164 26.06 96.0244 26.06C97.0324 26.06 97.8484 25.616 98.2924 24.848V26H99.1084V19.688H98.2564ZM102.311 20.924V19.688H101.495V26H102.347V22.784C102.347 21.296 103.151 20.456 104.471 20.456C104.531 20.456 104.603 20.468 104.675 20.468V19.64C103.511 19.64 102.707 20.084 102.311 20.924ZM109.632 26H110.52V17.6H109.632V26ZM116.289 19.64C115.197 19.64 114.345 20.084 113.889 20.852V19.688H113.073V26H113.925V22.688C113.925 21.248 114.777 20.408 116.133 20.408C117.333 20.408 118.029 21.092 118.029 22.424V26H118.881V22.34C118.881 20.528 117.825 19.64 116.289 19.64ZM122.886 26.06C124.53 26.06 125.49 25.352 125.49 24.26C125.49 21.836 121.398 23.12 121.398 21.416C121.398 20.816 121.902 20.372 123.042 20.372C123.69 20.372 124.35 20.528 124.902 20.912L125.274 20.228C124.746 19.868 123.858 19.64 123.042 19.64C121.434 19.64 120.546 20.408 120.546 21.44C120.546 23.936 124.638 22.64 124.638 24.284C124.638 24.908 124.146 25.316 122.946 25.316C122.058 25.316 121.206 25.004 120.702 24.608L120.318 25.28C120.834 25.724 121.842 26.06 122.886 26.06ZM130.089 25.004C129.849 25.22 129.501 25.328 129.153 25.328C128.445 25.328 128.061 24.92 128.061 24.176V20.408H129.981V19.688H128.061V18.308H127.209V19.688H126.081V20.408H127.209V24.224C127.209 25.388 127.869 26.06 129.057 26.06C129.549 26.06 130.053 25.916 130.389 25.616L130.089 25.004ZM134.148 19.64C133.152 19.64 132.216 19.952 131.58 20.492L131.964 21.128C132.48 20.672 133.248 20.384 134.064 20.384C135.24 20.384 135.852 20.972 135.852 22.052V22.436H133.848C132.036 22.436 131.412 23.252 131.412 24.224C131.412 25.316 132.288 26.06 133.716 26.06C134.76 26.06 135.504 25.664 135.888 25.016V26H136.704V22.088C136.704 20.456 135.78 19.64 134.148 19.64ZM133.848 25.388C132.84 25.388 132.252 24.932 132.252 24.2C132.252 23.552 132.648 23.072 133.872 23.072H135.852V24.104C135.516 24.932 134.808 25.388 133.848 25.388ZM144.07 19.688V20.9C143.542 20.072 142.63 19.64 141.574 19.64C139.774 19.64 138.406 20.876 138.406 22.688C138.406 24.5 139.774 25.76 141.574 25.76C142.606 25.76 143.506 25.34 144.034 24.536V25.34C144.034 26.9 143.302 27.632 141.706 27.632C140.734 27.632 139.822 27.308 139.222 26.768L138.79 27.416C139.45 28.04 140.578 28.388 141.73 28.388C143.818 28.388 144.886 27.404 144.886 25.232V19.688H144.07ZM141.658 25.004C140.266 25.004 139.27 24.056 139.27 22.688C139.27 21.32 140.266 20.384 141.658 20.384C143.05 20.384 144.058 21.32 144.058 22.688C144.058 24.056 143.05 25.004 141.658 25.004ZM148.084 20.924V19.688H147.268V26H148.12V22.784C148.12 21.296 148.924 20.456 150.244 20.456C150.304 20.456 150.376 20.468 150.448 20.468V19.64C149.284 19.64 148.48 20.084 148.084 20.924ZM154.187 19.64C153.191 19.64 152.255 19.952 151.619 20.492L152.003 21.128C152.519 20.672 153.287 20.384 154.103 20.384C155.279 20.384 155.891 20.972 155.891 22.052V22.436H153.887C152.075 22.436 151.451 23.252 151.451 24.224C151.451 25.316 152.327 26.06 153.755 26.06C154.799 26.06 155.543 25.664 155.927 25.016V26H156.743V22.088C156.743 20.456 155.819 19.64 154.187 19.64ZM153.887 25.388C152.879 25.388 152.291 24.932 152.291 24.2C152.291 23.552 152.687 23.072 153.911 23.072H155.891V24.104C155.555 24.932 154.847 25.388 153.887 25.388ZM166.929 19.64C165.789 19.64 164.889 20.156 164.433 20.972C164.049 20.084 163.233 19.64 162.189 19.64C161.133 19.64 160.317 20.084 159.873 20.84V19.688H159.057V26H159.909V22.688C159.909 21.248 160.737 20.408 162.021 20.408C163.173 20.408 163.845 21.092 163.845 22.424V26H164.697V22.688C164.697 21.248 165.513 20.408 166.809 20.408C167.949 20.408 168.621 21.092 168.621 22.424V26H169.473V22.34C169.473 20.528 168.465 19.64 166.929 19.64ZM174.96 23.48H175.62L175.8 17.6H174.792L174.96 23.48ZM175.296 26.06C175.656 26.06 175.92 25.772 175.92 25.436C175.92 25.088 175.656 24.824 175.296 24.824C174.936 24.824 174.66 25.088 174.66 25.436C174.66 25.772 174.936 26.06 175.296 26.06Z" fill="white"/>
</g>
<defs>
<filter id="filter0_d" x="0" y="0" width="192" height="45" filterUnits="userSpaceOnUse" color-interpolation-filters="sRGB">
<feFlood flood-opacity="0" result="BackgroundImageFix"/>
<feColorMatrix in="SourceAlpha" type="matrix" values="0 0 0 0 0 0 0 0 0 0 0 0 0 0 0 0 0 0 127 0"/>
<feOffset dx="4" dy="4"/>
<feColorMatrix type="matrix" values="0 0 0 0 0.964706 0 0 0 0 0.839216 0 0 0 0 0.988235 0 0 0 1 0"/>
<feBlend mode="normal" in2="BackgroundImageFix" result="effect1_dropShadow"/>
<feBlend mode="normal" in="SourceGraphic" in2="effect1_dropShadow" result="shape"/>
</filter>
</defs>
</svg>
