<svg width="89" height="38" viewBox="0 0 89 38" fill="none" xmlns="http://www.w3.org/2000/svg">
<path d="M14.496 7.432C14.496 8.328 14.576 9.24 14.736 10.168C14.96 11.48 15.28 12.136 15.696 12.136C17.36 12.136 18.192 10.936 18.192 8.536C18.192 7.8 17.952 7.128 17.472 6.52C17.024 5.88 16.448 5.56 15.744 5.56C14.912 5.56 14.496 6.184 14.496 7.432ZM16.848 17.032C15.952 17.032 15.488 17.368 15.456 18.04L15.264 21.64C15.104 23.816 15.664 24.904 16.944 24.904C18.928 24.904 19.92 23.64 19.92 21.112C19.92 18.392 18.896 17.032 16.848 17.032ZM2.736 3.976C2.832 1.8 6 0.711998 12.24 0.711998C12.944 0.711998 13.792 0.727998 14.784 0.759997C15.808 0.791999 16.432 0.808 16.656 0.808C19.216 0.808 21.376 1.288 23.136 2.248C25.376 3.464 26.496 5.24 26.496 7.576C26.496 8.856 26.176 9.976 25.536 10.936C24.928 11.864 24.288 12.792 23.616 13.72C25.536 14.36 27.2 15.544 28.608 17.272C30.464 19.512 31.392 22.232 31.392 25.432C31.392 33.304 26.08 37.24 15.456 37.24C11.136 37.24 8.32 37.16 7.008 37C2.848 36.488 0.672 35.32 0.48 33.496C0.448 33.176 0.432 32.888 0.432 32.632C0.432 31.576 0.896 30.632 1.824 29.8C2.88 28.872 3.552 27.672 3.84 26.2C4.32 23.96 4.816 21.736 5.328 19.528C5.872 16.84 6.16 14.568 6.192 12.712C6.192 10.376 5.824 8.584 5.088 7.336L4.896 7.24C4.448 6.856 3.888 6.376 3.216 5.8C2.864 5.416 2.704 4.808 2.736 3.976ZM36.2441 10.072C36.0521 8.408 35.6681 7.352 35.0921 6.904C34.8041 6.744 34.4041 6.504 33.8921 6.184C33.5081 5.8 33.3161 5.256 33.3161 4.552C33.3161 3.24 34.1481 2.264 35.8121 1.624C37.1881 1.08 38.8841 0.823999 40.9001 0.855999C41.2841 0.855999 41.8601 0.887999 42.6281 0.951998C43.4281 1.016 44.0361 1.048 44.4521 1.048C45.5401 1.048 47.3161 0.967999 49.7801 0.808C52.2441 0.647998 53.9881 0.567997 55.0121 0.567997C56.3881 0.567997 57.4601 1.432 58.2281 3.16C58.8041 4.504 59.0921 5.96 59.0921 7.528C59.0921 8.52 58.9001 9.352 58.5161 10.024C58.0041 10.856 57.3001 11.272 56.4041 11.272C55.5401 11.272 54.8041 10.872 54.1961 10.072C53.3001 8.888 52.6121 8.136 52.1321 7.816C50.9481 6.984 49.2041 6.568 46.9001 6.568C46.2281 6.568 45.8761 6.568 45.8441 6.568C45.5241 6.696 45.3001 7.08 45.1721 7.72C45.1081 7.944 45.0761 8.168 45.0761 8.392C45.0761 9.448 45.6041 10.312 46.6601 10.984C47.5881 11.56 48.6921 11.848 49.9721 11.848C50.2281 11.848 50.5321 11.672 50.8841 11.32C51.2681 10.968 51.5881 10.792 51.8441 10.792C52.3241 10.792 52.5641 11.144 52.5641 11.848C52.5641 12.968 52.4201 14.04 52.1321 15.064C51.7161 16.504 51.1081 17.224 50.3081 17.224C49.7961 17.224 49.3001 16.824 48.8201 16.024C48.3721 15.224 47.7001 14.824 46.8041 14.824C45.7801 14.824 45.2681 15.672 45.2681 17.368C45.2681 21.368 47.5881 23.368 52.2281 23.368C52.4201 23.368 52.7241 23.32 53.1401 23.224C53.5561 23.128 53.8761 23.112 54.1001 23.176C54.3241 23.208 54.5161 23.224 54.6761 23.224C55.4761 23.224 56.1321 22.84 56.6441 22.072C57.1881 21.304 57.6201 20.92 57.9401 20.92C58.4201 20.92 58.8361 21.24 59.1881 21.88C59.5401 22.52 59.7161 23.112 59.7161 23.656C59.7161 23.976 59.7481 24.808 59.8121 26.152C59.9081 27.464 59.9561 28.552 59.9561 29.416C59.9561 33.32 59.1561 35.848 57.5561 37C56.9481 37.416 54.9161 37.624 51.4601 37.624C50.5001 37.624 49.1881 37.64 47.5241 37.672C46.1481 37.704 44.8041 37.704 43.4921 37.672L34.4681 37.624C32.8361 37.592 32.0201 36.808 32.0201 35.272C32.0201 34.664 32.2601 34.12 32.7401 33.64C33.5401 32.84 33.9881 32.344 34.0841 32.152L34.9961 30.712C35.4441 29.976 35.7161 28.152 35.8121 25.24L36.1961 12.856C36.2601 11.8 36.2761 10.872 36.2441 10.072ZM65.2129 10.072C65.0209 8.408 64.6369 7.352 64.0609 6.904C63.7729 6.744 63.3729 6.504 62.8609 6.184C62.4769 5.8 62.2849 5.256 62.2849 4.552C62.2849 3.24 63.1169 2.264 64.7809 1.624C66.1569 1.08 67.8529 0.823999 69.8689 0.855999C70.2529 0.855999 70.8289 0.887999 71.5969 0.951998C72.3969 1.016 73.0049 1.048 73.4209 1.048C74.5089 1.048 76.2849 0.967999 78.7489 0.808C81.2129 0.647998 82.9569 0.567997 83.9809 0.567997C85.3569 0.567997 86.4289 1.432 87.1969 3.16C87.7729 4.504 88.0609 5.96 88.0609 7.528C88.0609 8.52 87.8689 9.352 87.4849 10.024C86.9729 10.856 86.2689 11.272 85.3729 11.272C84.5089 11.272 83.7729 10.872 83.1649 10.072C82.2689 8.888 81.5809 8.136 81.1009 7.816C79.9169 6.984 78.1729 6.568 75.8689 6.568C75.1969 6.568 74.8449 6.568 74.8129 6.568C74.4929 6.696 74.2689 7.08 74.1409 7.72C74.0769 7.944 74.0449 8.168 74.0449 8.392C74.0449 9.448 74.5729 10.312 75.6289 10.984C76.5569 11.56 77.6609 11.848 78.9409 11.848C79.1969 11.848 79.5009 11.672 79.8529 11.32C80.2369 10.968 80.5569 10.792 80.8129 10.792C81.2929 10.792 81.5329 11.144 81.5329 11.848C81.5329 12.968 81.3889 14.04 81.1009 15.064C80.6849 16.504 80.0769 17.224 79.2769 17.224C78.7649 17.224 78.2689 16.824 77.7889 16.024C77.3409 15.224 76.6689 14.824 75.7729 14.824C74.7489 14.824 74.2369 15.672 74.2369 17.368C74.2369 21.368 76.5569 23.368 81.1969 23.368C81.3889 23.368 81.6929 23.32 82.1089 23.224C82.5249 23.128 82.8449 23.112 83.0689 23.176C83.2929 23.208 83.4849 23.224 83.6449 23.224C84.4449 23.224 85.1009 22.84 85.6129 22.072C86.1569 21.304 86.5889 20.92 86.9089 20.92C87.3889 20.92 87.8049 21.24 88.1569 21.88C88.5089 22.52 88.6849 23.112 88.6849 23.656C88.6849 23.976 88.7169 24.808 88.7809 26.152C88.8769 27.464 88.9249 28.552 88.9249 29.416C88.9249 33.32 88.1249 35.848 86.5249 37C85.9169 37.416 83.8849 37.624 80.4289 37.624C79.4689 37.624 78.1569 37.64 76.4929 37.672C75.1169 37.704 73.7729 37.704 72.4609 37.672L63.4369 37.624C61.8049 37.592 60.9889 36.808 60.9889 35.272C60.9889 34.664 61.2289 34.12 61.7089 33.64C62.5089 32.84 62.9569 32.344 63.0529 32.152L63.9649 30.712C64.4129 29.976 64.6849 28.152 64.7809 25.24L65.1649 12.856C65.2289 11.8 65.2449 10.872 65.2129 10.072Z" fill="white"/>
</svg>
