<svg width="128" height="40" viewBox="0 0 128 40" fill="none" xmlns="http://www.w3.org/2000/svg">
<g filter="url(#filter0_d)">
<rect width="124" height="36" rx="18" fill="#36BDCB"/>
<path d="M18.6233 13.6C19.6953 13.6 20.5353 13.856 21.1433 14.368C21.7513 14.88 22.0553 15.584 22.0553 16.48C22.0553 17.376 21.7513 18.08 21.1433 18.592C20.5353 19.096 19.6953 19.348 18.6233 19.348H16.3673V22H15.4793V13.6H18.6233ZM18.5993 18.568C19.4313 18.568 20.0673 18.388 20.5073 18.028C20.9473 17.66 21.1673 17.144 21.1673 16.48C21.1673 15.8 20.9473 15.28 20.5073 14.92C20.0673 14.552 19.4313 14.368 18.5993 14.368H16.3673V18.568H18.5993ZM29.9154 21.232V22H23.9754V13.6H29.7354V14.368H24.8634V17.356H29.2074V18.112H24.8634V21.232H29.9154ZM37.7388 22L35.8188 19.3C35.6028 19.324 35.3788 19.336 35.1468 19.336H32.8908V22H32.0028V13.6H35.1468C36.2188 13.6 37.0588 13.856 37.6668 14.368C38.2748 14.88 38.5788 15.584 38.5788 16.48C38.5788 17.136 38.4108 17.692 38.0748 18.148C37.7468 18.596 37.2748 18.92 36.6588 19.12L38.7108 22H37.7388ZM35.1228 18.58C35.9548 18.58 36.5908 18.396 37.0308 18.028C37.4708 17.66 37.6908 17.144 37.6908 16.48C37.6908 15.8 37.4708 15.28 37.0308 14.92C36.5908 14.552 35.9548 14.368 35.1228 14.368H32.8908V18.58H35.1228ZM42.9906 22.072C42.3666 22.072 41.7666 21.972 41.1906 21.772C40.6226 21.572 40.1826 21.308 39.8706 20.98L40.2186 20.296C40.5226 20.6 40.9266 20.848 41.4306 21.04C41.9346 21.224 42.4546 21.316 42.9906 21.316C43.7426 21.316 44.3066 21.18 44.6826 20.908C45.0586 20.628 45.2466 20.268 45.2466 19.828C45.2466 19.492 45.1426 19.224 44.9346 19.024C44.7346 18.824 44.4866 18.672 44.1906 18.568C43.8946 18.456 43.4826 18.336 42.9546 18.208C42.3226 18.048 41.8186 17.896 41.4426 17.752C41.0666 17.6 40.7426 17.372 40.4706 17.068C40.2066 16.764 40.0746 16.352 40.0746 15.832C40.0746 15.408 40.1866 15.024 40.4106 14.68C40.6346 14.328 40.9786 14.048 41.4426 13.84C41.9066 13.632 42.4826 13.528 43.1706 13.528C43.6506 13.528 44.1186 13.596 44.5746 13.732C45.0386 13.86 45.4386 14.04 45.7746 14.272L45.4746 14.98C45.1226 14.748 44.7466 14.576 44.3466 14.464C43.9466 14.344 43.5546 14.284 43.1706 14.284C42.4346 14.284 41.8786 14.428 41.5026 14.716C41.1346 14.996 40.9506 15.36 40.9506 15.808C40.9506 16.144 41.0506 16.416 41.2506 16.624C41.4586 16.824 41.7146 16.98 42.0186 17.092C42.3306 17.196 42.7466 17.312 43.2666 17.44C43.8826 17.592 44.3786 17.744 44.7546 17.896C45.1386 18.04 45.4626 18.264 45.7266 18.568C45.9906 18.864 46.1226 19.268 46.1226 19.78C46.1226 20.204 46.0066 20.592 45.7746 20.944C45.5506 21.288 45.2026 21.564 44.7306 21.772C44.2586 21.972 43.6786 22.072 42.9906 22.072ZM51.7295 22.072C50.8975 22.072 50.1415 21.888 49.4615 21.52C48.7895 21.144 48.2615 20.632 47.8775 19.984C47.5015 19.336 47.3135 18.608 47.3135 17.8C47.3135 16.992 47.5015 16.264 47.8775 15.616C48.2615 14.968 48.7895 14.46 49.4615 14.092C50.1415 13.716 50.8975 13.528 51.7295 13.528C52.5615 13.528 53.3095 13.712 53.9735 14.08C54.6455 14.448 55.1735 14.96 55.5575 15.616C55.9415 16.264 56.1335 16.992 56.1335 17.8C56.1335 18.608 55.9415 19.34 55.5575 19.996C55.1735 20.644 54.6455 21.152 53.9735 21.52C53.3095 21.888 52.5615 22.072 51.7295 22.072ZM51.7295 21.28C52.3935 21.28 52.9935 21.132 53.5295 20.836C54.0655 20.532 54.4855 20.116 54.7895 19.588C55.0935 19.052 55.2455 18.456 55.2455 17.8C55.2455 17.144 55.0935 16.552 54.7895 16.024C54.4855 15.488 54.0655 15.072 53.5295 14.776C52.9935 14.472 52.3935 14.32 51.7295 14.32C51.0655 14.32 50.4615 14.472 49.9175 14.776C49.3815 15.072 48.9575 15.488 48.6455 16.024C48.3415 16.552 48.1895 17.144 48.1895 17.8C48.1895 18.456 48.3415 19.052 48.6455 19.588C48.9575 20.116 49.3815 20.532 49.9175 20.836C50.4615 21.132 51.0655 21.28 51.7295 21.28ZM65.1439 13.6V22H64.4119L59.0119 15.184V22H58.1239V13.6H58.8559L64.2679 20.416V13.6H65.1439ZM73.1536 19.756H68.4736L67.4656 22H66.5416L70.3816 13.6H71.2576L75.0976 22H74.1616L73.1536 19.756ZM72.8296 19.036L70.8136 14.524L68.7976 19.036H72.8296ZM76.4871 13.6H77.3751V21.232H82.0791V22H76.4871V13.6ZM83.5535 13.6H84.4415V22H83.5535V13.6ZM89.4906 22.072C88.8666 22.072 88.2666 21.972 87.6906 21.772C87.1226 21.572 86.6826 21.308 86.3706 20.98L86.7186 20.296C87.0226 20.6 87.4266 20.848 87.9306 21.04C88.4346 21.224 88.9546 21.316 89.4906 21.316C90.2426 21.316 90.8066 21.18 91.1826 20.908C91.5586 20.628 91.7466 20.268 91.7466 19.828C91.7466 19.492 91.6426 19.224 91.4346 19.024C91.2346 18.824 90.9866 18.672 90.6906 18.568C90.3946 18.456 89.9826 18.336 89.4546 18.208C88.8226 18.048 88.3186 17.896 87.9426 17.752C87.5666 17.6 87.2426 17.372 86.9706 17.068C86.7066 16.764 86.5746 16.352 86.5746 15.832C86.5746 15.408 86.6866 15.024 86.9106 14.68C87.1346 14.328 87.4786 14.048 87.9426 13.84C88.4066 13.632 88.9826 13.528 89.6706 13.528C90.1506 13.528 90.6186 13.596 91.0746 13.732C91.5386 13.86 91.9386 14.04 92.2746 14.272L91.9746 14.98C91.6226 14.748 91.2466 14.576 90.8466 14.464C90.4466 14.344 90.0546 14.284 89.6706 14.284C88.9346 14.284 88.3786 14.428 88.0026 14.716C87.6346 14.996 87.4506 15.36 87.4506 15.808C87.4506 16.144 87.5506 16.416 87.7506 16.624C87.9586 16.824 88.2146 16.98 88.5186 17.092C88.8306 17.196 89.2466 17.312 89.7666 17.44C90.3826 17.592 90.8786 17.744 91.2546 17.896C91.6386 18.04 91.9626 18.264 92.2266 18.568C92.4906 18.864 92.6226 19.268 92.6226 19.78C92.6226 20.204 92.5066 20.592 92.2746 20.944C92.0506 21.288 91.7026 21.564 91.2306 21.772C90.7586 21.972 90.1786 22.072 89.4906 22.072ZM100.497 21.232V22H94.5575V13.6H100.317V14.368H95.4455V17.356H99.7895V18.112H95.4455V21.232H100.497ZM108.321 22L106.401 19.3C106.185 19.324 105.961 19.336 105.729 19.336H103.473V22H102.585V13.6H105.729C106.801 13.6 107.641 13.856 108.249 14.368C108.857 14.88 109.161 15.584 109.161 16.48C109.161 17.136 108.993 17.692 108.657 18.148C108.329 18.596 107.857 18.92 107.241 19.12L109.293 22H108.321ZM105.705 18.58C106.537 18.58 107.173 18.396 107.613 18.028C108.053 17.66 108.273 17.144 108.273 16.48C108.273 15.8 108.053 15.28 107.613 14.92C107.173 14.552 106.537 14.368 105.705 14.368H103.473V18.58H105.705Z" fill="#F5F5F5"/>
</g>
<defs>
<filter id="filter0_d" x="0" y="0" width="128" height="40" filterUnits="userSpaceOnUse" color-interpolation-filters="sRGB">
<feFlood flood-opacity="0" result="BackgroundImageFix"/>
<feColorMatrix in="SourceAlpha" type="matrix" values="0 0 0 0 0 0 0 0 0 0 0 0 0 0 0 0 0 0 127 0"/>
<feOffset dx="4" dy="4"/>
<feColorMatrix type="matrix" values="0 0 0 0 0.964706 0 0 0 0 0.839216 0 0 0 0 0.988235 0 0 0 1 0"/>
<feBlend mode="normal" in2="BackgroundImageFix" result="effect1_dropShadow"/>
<feBlend mode="normal" in="SourceGraphic" in2="effect1_dropShadow" result="shape"/>
</filter>
</defs>
</svg>
