<svg width="254" height="40" viewBox="0 0 254 40" fill="none" xmlns="http://www.w3.org/2000/svg">
<g filter="url(#filter0_d)">
<rect width="250" height="36" rx="18" fill="#36BDCB"/>
<path d="M30.0356 22.072C29.4116 22.072 28.8116 21.972 28.2356 21.772C27.6676 21.572 27.2276 21.308 26.9156 20.98L27.2636 20.296C27.5676 20.6 27.9716 20.848 28.4756 21.04C28.9796 21.224 29.4996 21.316 30.0356 21.316C30.7876 21.316 31.3516 21.18 31.7276 20.908C32.1036 20.628 32.2916 20.268 32.2916 19.828C32.2916 19.492 32.1876 19.224 31.9796 19.024C31.7796 18.824 31.5316 18.672 31.2356 18.568C30.9396 18.456 30.5276 18.336 29.9996 18.208C29.3676 18.048 28.8636 17.896 28.4876 17.752C28.1116 17.6 27.7876 17.372 27.5156 17.068C27.2516 16.764 27.1196 16.352 27.1196 15.832C27.1196 15.408 27.2316 15.024 27.4556 14.68C27.6796 14.328 28.0236 14.048 28.4876 13.84C28.9516 13.632 29.5276 13.528 30.2156 13.528C30.6956 13.528 31.1636 13.596 31.6196 13.732C32.0836 13.86 32.4836 14.04 32.8196 14.272L32.5196 14.98C32.1676 14.748 31.7916 14.576 31.3916 14.464C30.9916 14.344 30.5996 14.284 30.2156 14.284C29.4796 14.284 28.9236 14.428 28.5476 14.716C28.1796 14.996 27.9956 15.36 27.9956 15.808C27.9956 16.144 28.0956 16.416 28.2956 16.624C28.5036 16.824 28.7596 16.98 29.0636 17.092C29.3756 17.196 29.7916 17.312 30.3116 17.44C30.9276 17.592 31.4236 17.744 31.7996 17.896C32.1836 18.04 32.5076 18.264 32.7716 18.568C33.0356 18.864 33.1676 19.268 33.1676 19.78C33.1676 20.204 33.0516 20.592 32.8196 20.944C32.5956 21.288 32.2476 21.564 31.7756 21.772C31.3036 21.972 30.7236 22.072 30.0356 22.072ZM38.4864 22.072C37.3984 22.072 36.5504 21.76 35.9424 21.136C35.3344 20.512 35.0304 19.604 35.0304 18.412V13.6H35.9184V18.376C35.9184 19.352 36.1384 20.08 36.5784 20.56C37.0184 21.04 37.6544 21.28 38.4864 21.28C39.3264 21.28 39.9664 21.04 40.4064 20.56C40.8464 20.08 41.0664 19.352 41.0664 18.376V13.6H41.9304V18.412C41.9304 19.604 41.6264 20.512 41.0184 21.136C40.4184 21.76 39.5744 22.072 38.4864 22.072ZM44.6063 13.6H45.4943V22H44.6063V13.6ZM55.1176 13.6L51.3976 22H50.5216L46.8016 13.6H47.7616L50.9776 20.896L54.2176 13.6H55.1176ZM62.2768 21.232V22H56.3368V13.6H62.0968V14.368H57.2248V17.356H61.5688V18.112H57.2248V21.232H62.2768ZM70.4241 21.232V22H63.5361V21.388L69.1041 14.368H63.6201V13.6H70.2801V14.212L64.7241 21.232H70.4241ZM71.3567 18.376H74.5007V19.12H71.3567V18.376ZM83.6068 13.6V22H82.8748L77.4748 15.184V22H76.5868V13.6H77.3188L82.7308 20.416V13.6H83.6068ZM90.0205 22.072C89.1885 22.072 88.4325 21.888 87.7525 21.52C87.0805 21.144 86.5525 20.632 86.1685 19.984C85.7925 19.336 85.6045 18.608 85.6045 17.8C85.6045 16.992 85.7925 16.264 86.1685 15.616C86.5525 14.968 87.0805 14.46 87.7525 14.092C88.4325 13.716 89.1885 13.528 90.0205 13.528C90.8525 13.528 91.6005 13.712 92.2645 14.08C92.9365 14.448 93.4645 14.96 93.8485 15.616C94.2325 16.264 94.4245 16.992 94.4245 17.8C94.4245 18.608 94.2325 19.34 93.8485 19.996C93.4645 20.644 92.9365 21.152 92.2645 21.52C91.6005 21.888 90.8525 22.072 90.0205 22.072ZM90.0205 21.28C90.6845 21.28 91.2845 21.132 91.8205 20.836C92.3565 20.532 92.7765 20.116 93.0805 19.588C93.3845 19.052 93.5365 18.456 93.5365 17.8C93.5365 17.144 93.3845 16.552 93.0805 16.024C92.7765 15.488 92.3565 15.072 91.8205 14.776C91.2845 14.472 90.6845 14.32 90.0205 14.32C89.3565 14.32 88.7525 14.472 88.2085 14.776C87.6725 15.072 87.2485 15.488 86.9365 16.024C86.6325 16.552 86.4805 17.144 86.4805 17.8C86.4805 18.456 86.6325 19.052 86.9365 19.588C87.2485 20.116 87.6725 20.532 88.2085 20.836C88.7525 21.132 89.3565 21.28 90.0205 21.28ZM99.7989 22.072C98.7109 22.072 97.8629 21.76 97.2549 21.136C96.6469 20.512 96.3429 19.604 96.3429 18.412V13.6H97.2309V18.376C97.2309 19.352 97.4509 20.08 97.8909 20.56C98.3309 21.04 98.9669 21.28 99.7989 21.28C100.639 21.28 101.279 21.04 101.719 20.56C102.159 20.08 102.379 19.352 102.379 18.376V13.6H103.243V18.412C103.243 19.604 102.939 20.512 102.331 21.136C101.731 21.76 100.887 22.072 99.7989 22.072ZM108.235 22.072C107.611 22.072 107.011 21.972 106.435 21.772C105.867 21.572 105.427 21.308 105.115 20.98L105.463 20.296C105.767 20.6 106.171 20.848 106.675 21.04C107.179 21.224 107.699 21.316 108.235 21.316C108.987 21.316 109.551 21.18 109.927 20.908C110.303 20.628 110.491 20.268 110.491 19.828C110.491 19.492 110.387 19.224 110.179 19.024C109.979 18.824 109.731 18.672 109.435 18.568C109.139 18.456 108.727 18.336 108.199 18.208C107.567 18.048 107.063 17.896 106.687 17.752C106.311 17.6 105.987 17.372 105.715 17.068C105.451 16.764 105.319 16.352 105.319 15.832C105.319 15.408 105.431 15.024 105.655 14.68C105.879 14.328 106.223 14.048 106.687 13.84C107.151 13.632 107.727 13.528 108.415 13.528C108.895 13.528 109.363 13.596 109.819 13.732C110.283 13.86 110.683 14.04 111.019 14.272L110.719 14.98C110.367 14.748 109.991 14.576 109.591 14.464C109.191 14.344 108.799 14.284 108.415 14.284C107.679 14.284 107.123 14.428 106.747 14.716C106.379 14.996 106.195 15.36 106.195 15.808C106.195 16.144 106.295 16.416 106.495 16.624C106.703 16.824 106.959 16.98 107.263 17.092C107.575 17.196 107.991 17.312 108.511 17.44C109.127 17.592 109.623 17.744 109.999 17.896C110.383 18.04 110.707 18.264 110.971 18.568C111.235 18.864 111.367 19.268 111.367 19.78C111.367 20.204 111.251 20.592 111.019 20.944C110.795 21.288 110.447 21.564 109.975 21.772C109.503 21.972 108.923 22.072 108.235 22.072ZM118.758 22.072C118.134 22.072 117.534 21.972 116.958 21.772C116.39 21.572 115.95 21.308 115.638 20.98L115.986 20.296C116.29 20.6 116.694 20.848 117.198 21.04C117.702 21.224 118.222 21.316 118.758 21.316C119.51 21.316 120.074 21.18 120.45 20.908C120.826 20.628 121.014 20.268 121.014 19.828C121.014 19.492 120.91 19.224 120.702 19.024C120.502 18.824 120.254 18.672 119.958 18.568C119.662 18.456 119.25 18.336 118.722 18.208C118.09 18.048 117.586 17.896 117.21 17.752C116.834 17.6 116.51 17.372 116.238 17.068C115.974 16.764 115.842 16.352 115.842 15.832C115.842 15.408 115.954 15.024 116.178 14.68C116.402 14.328 116.746 14.048 117.21 13.84C117.674 13.632 118.25 13.528 118.938 13.528C119.418 13.528 119.886 13.596 120.342 13.732C120.806 13.86 121.206 14.04 121.542 14.272L121.242 14.98C120.89 14.748 120.514 14.576 120.114 14.464C119.714 14.344 119.322 14.284 118.938 14.284C118.202 14.284 117.646 14.428 117.27 14.716C116.902 14.996 116.718 15.36 116.718 15.808C116.718 16.144 116.818 16.416 117.018 16.624C117.226 16.824 117.482 16.98 117.786 17.092C118.098 17.196 118.514 17.312 119.034 17.44C119.65 17.592 120.146 17.744 120.522 17.896C120.906 18.04 121.23 18.264 121.494 18.568C121.758 18.864 121.89 19.268 121.89 19.78C121.89 20.204 121.774 20.592 121.542 20.944C121.318 21.288 120.97 21.564 120.498 21.772C120.026 21.972 119.446 22.072 118.758 22.072ZM127.209 22.072C126.121 22.072 125.273 21.76 124.665 21.136C124.057 20.512 123.753 19.604 123.753 18.412V13.6H124.641V18.376C124.641 19.352 124.861 20.08 125.301 20.56C125.741 21.04 126.377 21.28 127.209 21.28C128.049 21.28 128.689 21.04 129.129 20.56C129.569 20.08 129.789 19.352 129.789 18.376V13.6H130.653V18.412C130.653 19.604 130.349 20.512 129.741 21.136C129.141 21.76 128.297 22.072 127.209 22.072ZM139.065 22L137.145 19.3C136.929 19.324 136.705 19.336 136.473 19.336H134.217V22H133.329V13.6H136.473C137.545 13.6 138.385 13.856 138.993 14.368C139.601 14.88 139.905 15.584 139.905 16.48C139.905 17.136 139.737 17.692 139.401 18.148C139.073 18.596 138.601 18.92 137.985 19.12L140.037 22H139.065ZM136.449 18.58C137.281 18.58 137.917 18.396 138.357 18.028C138.797 17.66 139.017 17.144 139.017 16.48C139.017 15.8 138.797 15.28 138.357 14.92C137.917 14.552 137.281 14.368 136.449 14.368H134.217V18.58H136.449ZM145.141 13.6H146.029V22H145.141V13.6ZM155.783 13.6V22H155.051L149.651 15.184V22H148.763V13.6H149.495L154.907 20.416V13.6H155.783ZM160.84 22.072C160.216 22.072 159.616 21.972 159.04 21.772C158.472 21.572 158.032 21.308 157.72 20.98L158.068 20.296C158.372 20.6 158.776 20.848 159.28 21.04C159.784 21.224 160.304 21.316 160.84 21.316C161.592 21.316 162.156 21.18 162.532 20.908C162.908 20.628 163.096 20.268 163.096 19.828C163.096 19.492 162.992 19.224 162.784 19.024C162.584 18.824 162.336 18.672 162.04 18.568C161.744 18.456 161.332 18.336 160.804 18.208C160.172 18.048 159.668 17.896 159.292 17.752C158.916 17.6 158.592 17.372 158.32 17.068C158.056 16.764 157.924 16.352 157.924 15.832C157.924 15.408 158.036 15.024 158.26 14.68C158.484 14.328 158.828 14.048 159.292 13.84C159.756 13.632 160.332 13.528 161.02 13.528C161.5 13.528 161.968 13.596 162.424 13.732C162.888 13.86 163.288 14.04 163.624 14.272L163.324 14.98C162.972 14.748 162.596 14.576 162.196 14.464C161.796 14.344 161.404 14.284 161.02 14.284C160.284 14.284 159.728 14.428 159.352 14.716C158.984 14.996 158.8 15.36 158.8 15.808C158.8 16.144 158.9 16.416 159.1 16.624C159.308 16.824 159.564 16.98 159.868 17.092C160.18 17.196 160.596 17.312 161.116 17.44C161.732 17.592 162.228 17.744 162.604 17.896C162.988 18.04 163.312 18.264 163.576 18.568C163.84 18.864 163.972 19.268 163.972 19.78C163.972 20.204 163.856 20.592 163.624 20.944C163.4 21.288 163.052 21.564 162.58 21.772C162.108 21.972 161.528 22.072 160.84 22.072ZM167.422 14.368H164.47V13.6H171.262V14.368H168.31V22H167.422V14.368ZM177.527 19.756H172.847L171.839 22H170.915L174.755 13.6H175.631L179.471 22H178.535L177.527 19.756ZM177.203 19.036L175.187 14.524L173.171 19.036H177.203ZM186.659 17.8H187.511V21.004C187.119 21.348 186.655 21.612 186.119 21.796C185.583 21.98 185.019 22.072 184.427 22.072C183.587 22.072 182.831 21.888 182.159 21.52C181.487 21.152 180.959 20.644 180.575 19.996C180.191 19.34 179.999 18.608 179.999 17.8C179.999 16.992 180.191 16.264 180.575 15.616C180.959 14.96 181.487 14.448 182.159 14.08C182.831 13.712 183.591 13.528 184.439 13.528C185.079 13.528 185.667 13.632 186.203 13.84C186.739 14.04 187.191 14.34 187.559 14.74L187.007 15.304C186.343 14.648 185.499 14.32 184.475 14.32C183.795 14.32 183.179 14.472 182.627 14.776C182.083 15.072 181.655 15.488 181.343 16.024C181.031 16.552 180.875 17.144 180.875 17.8C180.875 18.456 181.031 19.048 181.343 19.576C181.655 20.104 182.083 20.52 182.627 20.824C183.171 21.128 183.783 21.28 184.463 21.28C185.327 21.28 186.059 21.064 186.659 20.632V17.8ZM195.76 22L193.84 19.3C193.624 19.324 193.4 19.336 193.168 19.336H190.912V22H190.024V13.6H193.168C194.24 13.6 195.08 13.856 195.688 14.368C196.296 14.88 196.6 15.584 196.6 16.48C196.6 17.136 196.432 17.692 196.096 18.148C195.768 18.596 195.296 18.92 194.68 19.12L196.732 22H195.76ZM193.144 18.58C193.976 18.58 194.612 18.396 195.052 18.028C195.492 17.66 195.712 17.144 195.712 16.48C195.712 15.8 195.492 15.28 195.052 14.92C194.612 14.552 193.976 14.368 193.144 14.368H190.912V18.58H193.144ZM203.964 19.756H199.284L198.276 22H197.352L201.192 13.6H202.068L205.908 22H204.972L203.964 19.756ZM203.64 19.036L201.624 14.524L199.608 19.036H203.64ZM216.022 13.6V22H215.17V15.28L211.87 20.932H211.45L208.15 15.316V22H207.298V13.6H208.03L211.678 19.828L215.29 13.6H216.022ZM221.587 13.6H222.595L222.415 19.48H221.755L221.587 13.6ZM222.091 22.06C221.915 22.06 221.763 22 221.635 21.88C221.515 21.752 221.455 21.604 221.455 21.436C221.455 21.26 221.515 21.116 221.635 21.004C221.755 20.884 221.907 20.824 222.091 20.824C222.267 20.824 222.415 20.884 222.535 21.004C222.655 21.116 222.715 21.26 222.715 21.436C222.715 21.604 222.655 21.752 222.535 21.88C222.415 22 222.267 22.06 222.091 22.06Z" fill="#F5F5F5"/>
</g>
<defs>
<filter id="filter0_d" x="0" y="0" width="254" height="40" filterUnits="userSpaceOnUse" color-interpolation-filters="sRGB">
<feFlood flood-opacity="0" result="BackgroundImageFix"/>
<feColorMatrix in="SourceAlpha" type="matrix" values="0 0 0 0 0 0 0 0 0 0 0 0 0 0 0 0 0 0 127 0"/>
<feOffset dx="4" dy="4"/>
<feColorMatrix type="matrix" values="0 0 0 0 0.964706 0 0 0 0 0.839216 0 0 0 0 0.988235 0 0 0 1 0"/>
<feBlend mode="normal" in2="BackgroundImageFix" result="effect1_dropShadow"/>
<feBlend mode="normal" in="SourceGraphic" in2="effect1_dropShadow" result="shape"/>
</filter>
</defs>
</svg>
