<svg width="16" height="14" viewBox="0 0 16 14" fill="none" xmlns="http://www.w3.org/2000/svg">
<path d="M16 1.86971C14.9935 1.9193 15.0155 1.91525 14.9017 1.92543L15.4978 0.105565C15.4978 0.105565 13.6372 0.837296 13.1655 0.968191C11.9268 -0.222129 10.0854 -0.274722 8.76904 0.590254C7.69104 1.29876 7.11243 2.51544 7.30542 3.93753C5.2074 3.62628 3.4397 2.56307 2.04407 0.77074L1.60266 0.203964L1.27283 0.851521C0.855957 1.66978 0.717529 2.60535 0.882935 3.48586C0.950806 3.84709 1.06616 4.19162 1.22595 4.51423L0.84729 4.35736L0.802368 5.03376C0.756836 5.72086 0.970825 6.52293 1.37488 7.1791C1.48865 7.36389 1.63513 7.56683 1.8208 7.76702L1.62512 7.73491L1.86389 8.50997C2.17773 9.52829 2.82959 10.3161 3.67554 10.7541C2.83069 11.1374 2.14819 11.382 1.02637 11.7765L0 12.1372L0.947998 12.6913C1.30945 12.9026 2.58667 13.6082 3.84863 13.8199C6.65381 14.2902 9.81213 13.9072 11.9384 11.86C13.7292 10.1357 14.3169 7.68284 14.1948 5.13033C14.1764 4.74391 14.2754 4.37511 14.4736 4.09205C14.8707 3.52527 15.9976 1.87349 16 1.86971ZM13.724 3.49173C13.3948 3.96167 13.2299 4.56186 13.2594 5.18149C13.3826 7.75619 12.7273 9.75289 11.3116 11.1159C9.65796 12.7081 6.9906 13.3331 3.99377 12.8305C3.45105 12.7396 2.89014 12.5359 2.4259 12.3324C3.36646 11.9864 4.09277 11.6781 5.26575 11.0845L6.9032 10.256L5.09534 10.1323C4.22937 10.073 3.5083 9.62434 3.06506 8.89587C3.30042 8.88125 3.52734 8.84054 3.7533 8.7732L5.47754 8.2598L3.73889 7.8046C2.89404 7.5834 2.41248 7.04299 2.15723 6.62851C1.98962 6.35615 1.88013 6.07713 1.81445 5.81991C1.98877 5.86989 2.19202 5.90552 2.51978 5.94023L4.12903 6.11041L2.854 5.04707C1.9353 4.28102 1.56714 3.13011 1.83704 2.0237C4.70422 5.20302 8.07068 4.96407 8.40955 5.04811C8.33496 4.27358 8.33301 4.27175 8.31348 4.19802C7.87952 2.55798 8.83057 1.72524 9.25952 1.44335C10.1555 0.854653 11.5778 0.765911 12.5629 1.73581C12.7756 1.94514 13.0634 2.02749 13.3326 1.95597C13.5743 1.89176 13.7727 1.82377 13.9669 1.74977L13.5626 2.98407L14.0787 2.98447C13.9813 3.1241 13.8645 3.29128 13.724 3.49173Z" fill="#F5F5F5"/>
</svg>
