<svg width="150" height="40" viewBox="0 0 150 40" fill="none" xmlns="http://www.w3.org/2000/svg">
<g filter="url(#filter0_d)">
<rect width="146" height="36" rx="18" fill="#36BDCB"/>
<path d="M20.256 21.232V18.112H24.6V17.356H20.256V14.368H25.128V13.6H19.368V22H25.308V21.232H20.256ZM33.5393 13.6V20.416L28.1273 13.6H27.3953V22H28.2833V15.184L33.6833 22H34.4153V13.6H33.5393ZM43.8651 22L41.8131 19.12C43.0371 18.724 43.7331 17.8 43.7331 16.48C43.7331 14.68 42.4371 13.6 40.3011 13.6H37.1571V22H38.0451V19.336H40.3011C40.5411 19.336 40.7571 19.324 40.9731 19.3L42.8931 22H43.8651ZM40.2771 18.58H38.0451V14.368H40.2771C41.9571 14.368 42.8451 15.136 42.8451 16.48C42.8451 17.8 41.9571 18.58 40.2771 18.58ZM46.7169 21.232V18.112H51.0609V17.356H46.7169V14.368H51.5889V13.6H45.8289V22H51.7689V21.232H46.7169ZM59.7254 20.632C59.0774 21.1 58.3334 21.28 57.5294 21.28C55.4654 21.28 53.9414 19.792 53.9414 17.8C53.9414 15.796 55.4654 14.32 57.5414 14.32C58.5254 14.32 59.3654 14.608 60.0734 15.304L60.6254 14.74C59.8814 13.936 58.7774 13.528 57.5054 13.528C54.9374 13.528 53.0654 15.34 53.0654 17.8C53.0654 20.26 54.9374 22.072 57.4934 22.072C58.6574 22.072 59.7854 21.712 60.5774 21.004V17.8H59.7254V20.632ZM63.0907 22H63.9787V13.6H63.0907V22ZM69.0278 22.072C71.1758 22.072 72.1598 21.016 72.1598 19.78C72.1598 16.72 66.9878 18.112 66.9878 15.808C66.9878 14.968 67.6718 14.284 69.2078 14.284C69.9518 14.284 70.7918 14.512 71.5117 14.98L71.8118 14.272C71.1398 13.804 70.1558 13.528 69.2078 13.528C67.0718 13.528 66.1118 14.596 66.1118 15.832C66.1118 18.94 71.2838 17.524 71.2838 19.828C71.2838 20.656 70.5998 21.316 69.0278 21.316C67.9238 21.316 66.8558 20.884 66.2558 20.296L65.9078 20.98C66.5318 21.628 67.7678 22.072 69.0278 22.072ZM75.6094 22H76.4974V14.368H79.4494V13.6H72.6574V14.368H75.6094V22ZM87.576 22L85.524 19.12C86.748 18.724 87.444 17.8 87.444 16.48C87.444 14.68 86.148 13.6 84.012 13.6H80.868V22H81.756V19.336H84.012C84.252 19.336 84.468 19.324 84.684 19.3L86.604 22H87.576ZM83.988 18.58H81.756V14.368H83.988C85.668 14.368 86.556 15.136 86.556 16.48C86.556 17.8 85.668 18.58 83.988 18.58ZM90.4279 21.232V18.112H94.7719V17.356H90.4279V14.368H95.2999V13.6H89.5399V22H95.4799V21.232H90.4279ZM104.275 22L102.223 19.12C103.447 18.724 104.143 17.8 104.143 16.48C104.143 14.68 102.847 13.6 100.711 13.6H97.5672V22H98.4552V19.336H100.711C100.951 19.336 101.167 19.324 101.383 19.3L103.303 22H104.275ZM100.687 18.58H98.4552V14.368H100.687C102.367 14.368 103.255 15.136 103.255 16.48C103.255 17.8 102.367 18.58 100.687 18.58Z" fill="white"/>
<g clip-path="url(#clip0)">
<path d="M128.034 12.8271L125.283 10.0999C125.218 10.036 125.131 10 125.039 10H114.376C113.617 10 113 10.6116 113 11.3636V23.6364C113 24.3884 113.617 25 114.376 25H126.759C127.518 25 128.135 24.3885 128.135 23.6364V13.0682C128.135 12.9776 128.099 12.8911 128.034 12.8271ZM116.44 10.6818H124.007V14.7727C124.007 15.1486 123.699 15.4545 123.319 15.4545H117.128C116.748 15.4545 116.44 15.1486 116.44 14.7727V10.6818ZM125.383 24.3182H115.752V18.1818H125.383V24.3182ZM127.447 23.6364C127.447 24.0122 127.139 24.3182 126.759 24.3182H126.071V17.8409C126.071 17.6525 125.917 17.5 125.727 17.5H115.408C115.218 17.5 115.064 17.6525 115.064 17.8409V24.3182H114.376C113.996 24.3182 113.688 24.0122 113.688 23.6364V11.3636C113.688 10.9878 113.996 10.6818 114.376 10.6818H115.752V14.7728C115.752 15.5248 116.369 16.1364 117.128 16.1364H123.319C124.078 16.1364 124.695 15.5248 124.695 14.7727V10.6818H124.897L127.447 13.2094V23.6364Z" fill="white"/>
<path d="M121.599 14.7727H122.975C123.165 14.7727 123.319 14.6202 123.319 14.4318V11.7045C123.319 11.5161 123.165 11.3636 122.975 11.3636H121.599C121.409 11.3636 121.255 11.5161 121.255 11.7045V14.4318C121.255 14.6202 121.409 14.7727 121.599 14.7727ZM121.943 12.0454H122.631V14.0909H121.943V12.0454Z" fill="white"/>
</g>
</g>
<defs>
<filter id="filter0_d" x="0" y="0" width="150" height="40" filterUnits="userSpaceOnUse" color-interpolation-filters="sRGB">
<feFlood flood-opacity="0" result="BackgroundImageFix"/>
<feColorMatrix in="SourceAlpha" type="matrix" values="0 0 0 0 0 0 0 0 0 0 0 0 0 0 0 0 0 0 127 0"/>
<feOffset dx="4" dy="4"/>
<feColorMatrix type="matrix" values="0 0 0 0 0.964706 0 0 0 0 0.839216 0 0 0 0 0.988235 0 0 0 1 0"/>
<feBlend mode="normal" in2="BackgroundImageFix" result="effect1_dropShadow"/>
<feBlend mode="normal" in="SourceGraphic" in2="effect1_dropShadow" result="shape"/>
</filter>
<clipPath id="clip0">
<rect x="113" y="10" width="15.1351" height="15" fill="white"/>
</clipPath>
</defs>
</svg>
