<svg width="195" height="40" viewBox="0 0 195 40" fill="none" xmlns="http://www.w3.org/2000/svg">
<g filter="url(#filter0_d)">
<rect width="191" height="36" rx="18" fill="#36BDCB"/>
<path d="M25.644 22H26.58L22.74 13.6H21.864L18.024 22H18.948L19.956 19.756H24.636L25.644 22ZM20.28 19.036L22.296 14.524L24.312 19.036H20.28ZM29.0453 22.072C30.6533 22.072 31.4933 21.196 31.4933 19.42V13.6H27.5453V14.368H30.6173V19.456C30.6173 20.692 30.0893 21.304 29.0573 21.304C28.3133 21.304 27.7013 20.944 27.2453 20.272L26.7173 20.872C27.2333 21.64 28.0973 22.072 29.0453 22.072ZM37.8291 22.072C40.3491 22.072 42.2331 20.26 42.2331 17.8C42.2331 15.34 40.3491 13.528 37.8291 13.528C35.2851 13.528 33.4131 15.352 33.4131 17.8C33.4131 20.248 35.2851 22.072 37.8291 22.072ZM37.8291 21.28C35.8011 21.28 34.2891 19.804 34.2891 17.8C34.2891 15.796 35.8011 14.32 37.8291 14.32C39.8451 14.32 41.3451 15.796 41.3451 17.8C41.3451 19.804 39.8451 21.28 37.8291 21.28ZM47.6075 22.072C49.7555 22.072 51.0515 20.824 51.0515 18.412V13.6H50.1875V18.376C50.1875 20.368 49.2515 21.28 47.6075 21.28C45.9755 21.28 45.0395 20.368 45.0395 18.376V13.6H44.1515V18.412C44.1515 20.824 45.4595 22.072 47.6075 22.072ZM55.1953 22H56.0833V14.368H59.0353V13.6H52.2433V14.368H55.1953V22ZM61.3419 21.232V18.112H65.6859V17.356H61.3419V14.368H66.2139V13.6H60.4539V22H66.3939V21.232H61.3419ZM75.1893 22L73.1373 19.12C74.3613 18.724 75.0573 17.8 75.0573 16.48C75.0573 14.68 73.7613 13.6 71.6253 13.6H68.4813V22H69.3693V19.336H71.6253C71.8653 19.336 72.0813 19.324 72.2973 19.3L74.2173 22H75.1893ZM71.6013 18.58H69.3693V14.368H71.6013C73.2813 14.368 74.1693 15.136 74.1693 16.48C74.1693 17.8 73.2813 18.58 71.6013 18.58ZM86.5698 22H87.5058L83.6658 13.6H82.7898L78.9498 22H79.8738L80.8818 19.756H85.5618L86.5698 22ZM81.2058 19.036L83.2218 14.524L85.2378 19.036H81.2058ZM92.1036 22.072C94.2516 22.072 95.5476 20.824 95.5476 18.412V13.6H94.6836V18.376C94.6836 20.368 93.7476 21.28 92.1036 21.28C90.4716 21.28 89.5356 20.368 89.5356 18.376V13.6H88.6476V18.412C88.6476 20.824 89.9556 22.072 92.1036 22.072ZM104.508 13.6H101.364V22H102.252V19.348H104.508C106.644 19.348 107.94 18.268 107.94 16.48C107.94 14.68 106.644 13.6 104.508 13.6ZM104.484 18.568H102.252V14.368H104.484C106.164 14.368 107.052 15.136 107.052 16.48C107.052 17.8 106.164 18.568 104.484 18.568ZM115.714 22H116.65L112.81 13.6H111.934L108.094 22H109.018L110.026 19.756H114.706L115.714 22ZM110.35 19.036L112.366 14.524L114.382 19.036H110.35ZM124.184 13.6V20.416L118.772 13.6H118.04V22H118.928V15.184L124.328 22H125.06V13.6H124.184ZM127.802 22H128.69V13.6H127.802V22ZM132.311 21.232V18.112H136.655V17.356H132.311V14.368H137.183V13.6H131.423V22H137.363V21.232H132.311ZM146.158 22L144.106 19.12C145.33 18.724 146.026 17.8 146.026 16.48C146.026 14.68 144.73 13.6 142.594 13.6H139.45V22H140.338V19.336H142.594C142.834 19.336 143.05 19.324 143.266 19.3L145.186 22H146.158ZM142.57 18.58H140.338V14.368H142.57C144.25 14.368 145.138 15.136 145.138 16.48C145.138 17.8 144.25 18.58 142.57 18.58Z" fill="white"/>
<path d="M163 10C158.589 10 155 13.589 155 18C155 22.411 158.589 26 163 26C167.411 26 171 22.411 171 18C171 13.589 167.411 10 163 10ZM163 25C159.14 25 156 21.86 156 18C156 14.14 159.14 11 163 11C166.86 11 170 14.14 170 18C170 21.86 166.86 25 163 25Z" fill="white"/>
<path d="M165.158 20.2738C164.757 20.496 164.316 20.6089 163.846 20.6089C162.854 20.6089 161.995 20.0769 161.529 19.2964H163.308C163.605 19.2964 163.846 19.1004 163.846 18.8589C163.846 18.6174 163.605 18.4214 163.308 18.4214H161.199C161.174 18.2788 161.154 18.1335 161.154 17.9839C161.154 17.8343 161.174 17.689 161.199 17.5464H163.846C164.143 17.5464 164.384 17.3504 164.384 17.1089C164.384 16.8674 164.143 16.6714 163.846 16.6714H161.529C161.995 15.8909 162.854 15.3589 163.846 15.3589C164.316 15.3589 164.757 15.4718 165.158 15.694C165.403 15.8296 165.739 15.7798 165.906 15.5794C166.074 15.3799 166.011 15.1078 165.765 14.9713C165.19 14.6528 164.527 14.4839 163.846 14.4839C162.268 14.4839 160.918 15.3913 160.357 16.6714H159.538C159.241 16.6714 159 16.8674 159 17.1089C159 17.3504 159.241 17.5464 159.538 17.5464H160.124C160.105 17.6916 160.077 17.8343 160.077 17.9839C160.077 18.1335 160.105 18.2761 160.124 18.4214H159.538C159.241 18.4214 159 18.6174 159 18.8589C159 19.1004 159.241 19.2964 159.538 19.2964H160.357C160.918 20.5765 162.268 21.4839 163.846 21.4839C164.527 21.4839 165.19 21.315 165.765 20.9965C166.011 20.86 166.074 20.5879 165.906 20.3884C165.739 20.1889 165.403 20.1381 165.158 20.2738Z" fill="white"/>
</g>
<defs>
<filter id="filter0_d" x="0" y="0" width="195" height="40" filterUnits="userSpaceOnUse" color-interpolation-filters="sRGB">
<feFlood flood-opacity="0" result="BackgroundImageFix"/>
<feColorMatrix in="SourceAlpha" type="matrix" values="0 0 0 0 0 0 0 0 0 0 0 0 0 0 0 0 0 0 127 0"/>
<feOffset dx="4" dy="4"/>
<feColorMatrix type="matrix" values="0 0 0 0 0.964706 0 0 0 0 0.839216 0 0 0 0 0.988235 0 0 0 1 0"/>
<feBlend mode="normal" in2="BackgroundImageFix" result="effect1_dropShadow"/>
<feBlend mode="normal" in="SourceGraphic" in2="effect1_dropShadow" result="shape"/>
</filter>
</defs>
</svg>
