<svg width="1366" height="685" viewBox="0 0 1366 685" fill="none" xmlns="http://www.w3.org/2000/svg">
<g opacity="0.7">
<path d="M45.6053 606.56L-105.172 671.429C-119.814 677.729 -136.865 672.502 -145.462 659.079C-150.89 650.603 -152.094 640.093 -148.722 630.609L-136.03 594.911C-121.048 552.77 -82.0182 523.915 -37.3367 521.945L90.9217 516.291L307.5 502.367L546.5 454.294L847.376 425.508L1361.02 346.913C1378.35 344.262 1395.39 340.04 1411.95 334.301L1725.13 225.758C1758.94 214.042 1794.24 239.063 1794.38 274.841C1794.46 296.486 1781.16 315.934 1760.97 323.715L1442.81 446.275C1429.32 451.472 1417.95 461.022 1410.49 473.411C1396.75 496.27 1370.42 508.401 1344.11 503.998L1136.45 469.252C1083.11 460.328 1028.48 463.065 976.301 477.275L926.946 490.717C898.468 498.474 869.463 504.144 840.161 507.685L721.747 521.993L557.857 559.401L306.269 595.095C272.617 599.869 238.47 600.005 204.782 595.498L164.874 590.159C124.366 584.74 83.1469 590.408 45.6053 606.56Z" fill="#D9F7FA"/>
<path d="M8.90171 536.701L-149.71 604.94C-159.833 609.296 -171.622 605.682 -177.565 596.402C-184.673 585.305 -180.772 570.504 -169.119 564.351L2.87805 473.539C36.4215 455.829 74.2855 447.954 112.109 450.821L293.24 464.552C409.861 473.393 527.036 457.527 637.107 417.991L704.41 393.817C775.086 368.431 848.05 349.93 922.283 338.571L1324.32 277.054C1341.64 274.402 1358.69 270.181 1375.25 264.441L1688.43 155.899C1722.24 144.183 1757.53 169.204 1757.67 204.982C1757.75 226.627 1744.46 246.075 1724.26 253.856L1463.77 354.204C1411.88 374.19 1356.79 384.545 1301.19 384.759L1089.32 385.576C1043.43 385.752 998.713 400.128 961.314 426.731C916.425 458.66 861.281 472.788 806.569 466.376L748.877 459.615C706.632 454.664 663.852 456.971 622.384 466.436L521.153 489.542L269.565 525.236C235.914 530.01 201.766 530.146 168.078 525.639L128.17 520.3C87.6625 514.881 46.4433 520.549 8.90171 536.701Z" fill="#F6D6FC"/>
<path d="M8.39292 404.702L-150.219 472.941C-160.342 477.297 -172.13 473.683 -178.074 464.403C-185.181 453.306 -181.281 438.505 -169.628 432.352L3.90954 340.727C36.4938 323.523 73.1471 315.514 109.937 317.56L141.726 319.328C173.759 321.11 205.755 315.211 235.047 302.123L260.947 290.552C308.379 269.359 363.393 274.161 406.436 303.252C446.156 330.097 496.3 336.385 541.419 320.179L755.611 243.245C791.895 230.212 829.352 220.714 867.462 214.883L1323.81 145.055C1341.13 142.403 1358.18 138.182 1374.74 132.442L1687.92 23.8999C1721.73 12.1835 1757.02 37.2046 1757.16 72.9826C1757.25 94.6282 1743.95 114.076 1723.75 121.857L1463.26 222.205C1411.37 242.191 1356.28 252.546 1300.68 252.76L1117.57 253.466C1051.66 253.72 986.075 262.62 922.486 279.939L900.441 285.943C864.883 295.628 830.424 308.971 797.616 325.758L771.912 338.911C747.74 351.279 722.061 360.447 695.521 366.183L692.179 366.906C652.16 375.555 610.784 375.82 570.658 367.684C537.559 360.972 503.557 359.967 470.119 364.711L269.057 393.237C235.405 398.011 201.258 398.147 167.569 393.64L127.661 388.301C87.1537 382.882 45.9345 388.55 8.39292 404.702Z" fill="#FFFFC4"/>
<path d="M-1.34962 476.004L-149.96 539.941C-160.084 544.296 -171.872 540.683 -177.816 531.403C-184.923 520.306 -181.022 505.505 -169.369 499.352L2.62756 408.54C36.171 390.829 74.035 382.954 111.858 385.821L292.989 399.553C409.611 408.393 526.785 392.528 636.856 352.992L704.159 328.818C774.836 303.432 847.799 284.931 922.033 273.572L1324.07 212.054C1341.39 209.403 1358.44 205.182 1375 199.442L1688.18 90.8995C1721.99 79.1831 1757.28 104.204 1757.42 139.982C1757.5 161.628 1744.21 181.076 1724.01 188.856L1463.52 289.204C1411.63 309.191 1356.54 319.545 1300.94 319.76L1171.51 320.258C1069.97 320.65 968.919 334.363 870.947 361.046L847.219 367.509L843.985 368.731C766.451 398.047 684.889 415.329 602.129 419.979L598.181 420.201C546.791 423.088 495.817 431.099 446.019 444.114L329.72 474.511C277.546 488.148 222.741 488.124 170.579 474.443L136.959 465.626C90.9884 453.569 42.3069 457.222 -1.34962 476.004Z" fill="#FFD9C9"/>
</g>
</svg>
