<svg width="320" height="296" viewBox="0 0 320 296" fill="none" xmlns="http://www.w3.org/2000/svg">
<path d="M163.492 86.2475L163.737 86.2295L163.609 86.02C162.719 84.5541 162.651 83.1616 163.126 81.9516C163.603 80.7357 164.635 79.6873 165.976 78.9352C168.66 77.4291 172.52 77.1421 175.431 79.0264C175.952 79.3666 176.417 79.8333 176.901 80.3194C177.024 80.4424 177.147 80.5666 177.274 80.6903C177.891 81.2953 178.56 81.8808 179.398 82.1737L179.399 82.1739C180.472 82.545 181.412 82.4761 182.338 82.2951C182.651 82.2337 182.96 82.1609 183.27 82.0875C183.885 81.9419 184.508 81.7945 185.2 81.7317L185.203 81.7315C187.145 81.5224 189.122 81.7632 190.896 82.4239C192.669 83.0847 194.161 84.1362 195.197 85.4486C196.232 86.7604 196.767 88.2774 196.745 89.8184C196.723 91.3593 196.144 92.8665 195.071 94.1595L194.927 94.3329L195.142 94.3987C197.755 95.1971 198.539 98.0524 197.466 100.129C196.925 101.175 196.057 102.07 195.028 102.881C193.999 103.692 192.816 104.412 191.652 105.113L191.482 105.215L191.627 105.351C193.735 107.321 195.383 109.573 196.495 111.999C197.034 113.2 197.226 114.48 197.056 115.745C196.887 117.009 196.362 118.23 195.516 119.315C194.605 120.35 193.201 121.133 191.67 121.5C190.138 121.867 188.494 121.814 187.106 121.194L186.947 121.123L186.901 121.291C186.54 122.588 185.687 123.773 184.45 124.682C183.212 125.592 181.651 126.181 179.975 126.366C178.298 126.552 176.592 126.325 175.085 125.717C173.578 125.109 172.346 124.152 171.551 122.977L171.455 122.835L171.327 122.949C169.867 124.25 167.66 124.761 165.453 124.595C163.247 124.43 161.071 123.59 159.684 122.228C156.909 119.503 156.951 115.431 158.86 112.239L158.96 112.071L158.773 112.018C155.803 111.17 153.992 108.591 153.99 106.067C154.115 103.523 155.196 101.063 157.1 99.0051C157.632 98.4836 158.016 97.8731 158.222 97.2154L158.228 97.1962L158.229 97.1761C158.258 96.3889 158.067 95.6079 157.671 94.8903C156.912 93.0853 157.014 91.122 157.96 89.3714C158.449 88.5152 159.216 87.7728 160.187 87.2226C161.159 86.672 162.3 86.3349 163.492 86.2475Z" fill="white" stroke="black" stroke-width="0.3"/>
<path d="M108.947 177.96H319.728C318.511 199.504 306.914 219.86 287.325 234.793C267.688 249.764 241.54 258.124 214.337 258.124C187.134 258.124 160.986 249.764 141.349 234.793C121.76 219.86 110.163 199.504 108.947 177.96Z" fill="white" stroke="black" stroke-width="0.3"/>
<path d="M301.267 221.538L301.152 221.442C288.906 236.292 270.611 243.046 257.441 245.786C250.857 247.156 245.564 247.52 242.962 247.395C242.31 247.363 241.838 247.301 241.559 247.221C241.444 247.188 241.378 247.157 241.345 247.134C241.381 247.101 241.457 247.052 241.595 246.994C241.747 246.93 241.957 246.861 242.228 246.79C242.771 246.648 243.548 246.498 244.585 246.349C246.71 246.042 248.799 244.724 250.826 242.679C252.854 240.633 254.832 237.846 256.732 234.579C260.533 228.043 264.036 219.559 267.016 211.156C269.997 202.753 272.458 194.425 274.174 188.198C275.032 185.085 275.703 182.497 276.16 180.687C276.389 179.782 276.564 179.071 276.682 178.587C276.74 178.345 276.785 178.159 276.815 178.034L276.833 177.96H319.754C319.757 177.981 319.759 178.005 319.762 178.032C319.777 178.167 319.796 178.369 319.812 178.636C319.845 179.169 319.868 179.962 319.83 180.996C319.754 183.062 319.43 186.09 318.44 189.927C316.461 197.6 311.817 208.513 301.152 221.442L301.267 221.538Z" fill="white" stroke="black" stroke-width="0.3"/>
<path d="M121.571 217.718L121.56 217.702L121.555 217.691L121.526 217.625C121.5 217.567 121.461 217.481 121.411 217.368C121.31 217.143 121.162 216.811 120.974 216.385C120.599 215.533 120.063 214.305 119.425 212.802C118.147 209.796 116.456 205.69 114.802 201.288C113.147 196.886 111.53 192.191 110.399 188.007C109.288 183.896 108.653 180.3 108.9 177.962L137.852 178.416C137.854 178.432 137.857 178.45 137.86 178.469C137.878 178.588 137.905 178.764 137.943 178.994C138.018 179.454 138.136 180.128 138.303 180.988C138.638 182.707 139.173 185.171 139.975 188.145C141.579 194.094 144.249 202.092 148.518 210.284C157.056 226.669 171.997 243.854 197.591 246.963C223.123 250.065 239.403 250.377 249.303 249.913C254.253 249.68 257.609 249.254 259.729 248.885C260.738 248.709 261.468 248.547 261.956 248.424C261.744 248.578 261.482 248.766 261.169 248.985C260.226 249.643 258.83 250.574 257.02 251.662C253.401 253.839 248.128 256.645 241.515 259.161C228.289 264.192 209.708 268.061 188.283 263.415C166.856 258.768 150.173 247.339 138.845 237.066C133.181 231.931 128.858 227.086 125.95 223.525C124.496 221.745 123.397 220.286 122.661 219.272C122.293 218.765 122.016 218.37 121.831 218.101C121.739 217.967 121.669 217.865 121.623 217.796C121.6 217.761 121.583 217.736 121.571 217.718Z" fill="white" stroke="black" stroke-width="0.3"/>
<path d="M165.174 177.986H171.976C171.975 177.992 171.973 177.998 171.971 178.005C171.944 178.114 171.896 178.268 171.833 178.454C171.716 178.799 171.551 179.242 171.383 179.695C171.37 179.729 171.357 179.764 171.344 179.799C171.163 180.286 170.982 180.776 170.858 181.154C170.796 181.342 170.747 181.506 170.72 181.629C170.706 181.69 170.697 181.748 170.695 181.797C170.694 181.82 170.695 181.85 170.702 181.88C170.709 181.907 170.727 181.958 170.778 181.992L170.785 181.996L170.792 182C171.176 182.198 171.614 182.316 172.066 182.344C172.518 182.373 172.973 182.311 173.389 182.164L173.408 182.157L173.425 182.146C174.048 181.712 174.625 181.595 175.184 181.638C175.749 181.681 176.3 181.887 176.876 182.117C177.695 182.513 178.469 182.966 179.188 183.469L179.296 183.545L179.385 183.447C179.972 182.798 180.526 182.183 181.06 181.577C181.06 181.577 181.06 181.577 181.06 181.577L181.168 181.457L181.168 181.457L181.17 181.454C182.407 180.022 184.475 179.02 186.68 178.646C188.885 178.273 191.201 178.533 192.933 179.589C194.069 180.311 195.377 180.838 196.776 181.139C198.176 181.44 199.638 181.509 201.072 181.341C201.782 181.26 202.503 181.26 203.212 181.341L203.213 181.341C203.822 181.405 204.422 181.511 205.008 181.658L205.008 181.658L205.015 181.659C205.564 181.768 206.054 182.008 206.421 182.342C206.787 182.675 207.01 183.085 207.069 183.514L207.069 183.514L207.072 183.526C207.123 183.756 207.294 184.032 207.496 184.248C207.598 184.357 207.715 184.457 207.836 184.53C207.952 184.601 208.083 184.652 208.217 184.655C210.337 184.965 211.479 186.166 212.634 187.381C212.809 187.565 212.985 187.749 213.164 187.931C213.586 188.388 214.164 188.734 214.823 188.929C215.481 189.124 216.195 189.163 216.879 189.04C218.266 188.906 219.672 188.978 221.024 189.254L221.024 189.254L221.028 189.255C222.529 189.524 223.87 190.181 224.844 191.117C225.817 192.054 226.366 193.214 226.415 194.416L226.414 194.416L226.416 194.429C226.687 196.569 228.394 197.906 230.574 198.991L230.673 199.04L230.749 198.96C231.477 198.203 232.255 197.991 233.014 198.053C233.782 198.116 234.539 198.462 235.208 198.84C235.545 199.033 235.872 199.241 236.2 199.45C237.526 200.295 238.855 201.141 240.891 200.978L240.892 200.978C241.449 200.93 242.031 201.034 242.633 201.141L242.705 201.154C243.322 201.263 243.96 201.37 244.564 201.28L244.564 201.28L244.571 201.278C245.25 201.146 245.961 201.153 246.635 201.3C247.309 201.448 247.922 201.729 248.417 202.115L248.417 202.115L248.422 202.118C248.591 202.239 248.76 202.367 248.931 202.497C250.09 203.373 251.349 204.325 253.387 203.873C253.41 203.869 253.452 203.871 253.516 203.887C253.578 203.904 253.65 203.932 253.726 203.969C253.877 204.043 254.027 204.146 254.124 204.234C254.364 204.462 254.539 204.815 254.645 205.248C254.751 205.68 254.785 206.179 254.752 206.684C254.686 207.702 254.355 208.701 253.849 209.209L253.847 209.21C252.835 210.249 251.884 211.335 250.937 212.417C250.58 212.824 250.224 213.23 249.866 213.634C249.796 213.708 249.73 213.793 249.668 213.874C249.653 213.893 249.639 213.911 249.626 213.929C249.577 213.993 249.531 214.054 249.483 214.112C249.358 214.264 249.25 214.358 249.139 214.385C248.019 214.629 247.501 215.088 247.323 215.697C247.238 215.991 247.236 216.305 247.267 216.619C247.291 216.862 247.335 217.115 247.379 217.362C247.391 217.434 247.404 217.505 247.416 217.575L247.415 217.575L247.418 217.586C247.537 218.062 247.486 218.554 247.268 219.01C245.76 221.532 244.197 224.054 242.58 226.532C242.436 226.746 242.18 226.992 241.896 227.185C241.609 227.38 241.321 227.502 241.112 227.503C239.368 227.39 237.877 227.769 236.475 228.289C235.87 228.514 235.28 228.766 234.694 229.015C234.601 229.055 234.509 229.094 234.417 229.133C233.738 229.422 233.063 229.702 232.365 229.933L232.363 229.934C232.075 230.035 231.7 230.19 231.394 230.36C231.242 230.444 231.1 230.536 230.995 230.631C230.897 230.718 230.795 230.839 230.795 230.984C230.795 231.925 230.387 232.667 229.779 233.331C229.291 233.864 228.684 234.337 228.066 234.819C227.909 234.941 227.752 235.064 227.595 235.188C226.407 235.997 225.285 236.867 224.237 237.792L224.237 237.791L224.229 237.799C223.072 238.986 221.971 239.735 220.731 240.093C219.491 240.452 218.095 240.423 216.338 240.024L216.104 239.971L216.158 240.205C216.385 241.18 216.602 242.157 216.828 243.2C216.031 243.258 215.265 243.312 214.519 243.365C213.123 243.464 211.798 243.558 210.478 243.663L210.362 243.672L210.342 243.786C210.32 243.909 210.298 244.029 210.277 244.147C210.183 244.672 210.097 245.145 210.007 245.67L206.889 245.273L206.667 245.244L206.725 245.461C206.994 246.448 207.224 247.264 207.451 248.048L205.393 249.032L205.109 249.167L205.392 249.302L207.497 250.309C207.263 250.503 207.035 250.691 206.806 250.881C206.242 251.347 205.671 251.819 205.001 252.392L204.813 252.553L205.043 252.645L210.172 254.702C207.683 255.166 204.772 254.737 202.253 253.733C199.568 252.663 197.37 250.955 196.598 249.027C196.484 248.715 196.372 248.403 196.259 248.091C195.848 246.949 195.439 245.815 194.977 244.698L194.976 244.697C194.325 243.15 194.344 241.476 195.03 239.938L195.034 239.928L195.037 239.917C195.347 238.815 195.377 237.674 195.127 236.563C194.998 235.611 194.793 234.662 194.59 233.72L194.579 233.668C194.371 232.705 194.165 231.749 194.041 230.792L194.041 230.791C193.906 229.756 193.829 228.716 193.751 227.672C193.739 227.508 193.727 227.345 193.715 227.182C193.624 225.974 193.52 224.764 193.312 223.562L193.313 223.562L193.309 223.549C193.058 222.603 192.395 221.767 191.45 221.185L191.448 221.184C190.582 220.669 189.649 220.223 188.708 219.792C188.478 219.687 188.248 219.583 188.018 219.479C187.305 219.156 186.594 218.834 185.906 218.488C184.052 217.555 182.769 216.26 181.636 214.855C181.208 214.324 180.803 213.78 180.396 213.233C180.263 213.055 180.13 212.876 179.996 212.697C179.452 211.972 178.892 211.252 178.265 210.571C177.403 209.623 176.674 208.599 175.945 207.565C175.917 207.525 175.889 207.485 175.861 207.445C175.162 206.452 174.458 205.452 173.637 204.518L173.637 204.518C173.025 203.823 172.524 203.2 172.334 202.562C172.24 202.248 172.222 201.932 172.306 201.602C172.39 201.27 172.578 200.915 172.91 200.528L172.91 200.529L172.918 200.517C173.038 200.348 173.112 200.157 173.134 199.959C173.156 199.76 173.124 199.561 173.042 199.375L173.042 199.375L173.041 199.373C172.651 198.533 172.596 197.813 172.749 197.17C172.903 196.522 173.27 195.937 173.748 195.373C174.157 194.892 174.638 194.435 175.127 193.971C175.212 193.89 175.297 193.81 175.382 193.728C175.95 193.186 176.511 192.628 176.935 192.02C177.493 191.395 177.958 190.719 178.321 190.006L178.326 189.996L178.329 189.985C178.739 188.765 178.616 187.609 178.258 186.498C177.95 185.545 177.465 184.616 176.99 183.708C176.915 183.564 176.84 183.421 176.766 183.278C176.428 182.605 175.97 182.218 175.429 182.177C174.896 182.136 174.342 182.437 173.818 183C173.624 183.194 173.447 183.398 173.293 183.583C173.242 183.644 173.194 183.702 173.149 183.757C173.084 183.836 173.025 183.907 172.971 183.97L168.351 182.039C168.341 182.026 168.33 182.012 168.319 181.997C168.29 181.959 168.251 181.908 168.202 181.846C168.106 181.722 167.974 181.555 167.818 181.358C167.677 181.18 167.518 180.98 167.348 180.766C167.14 180.504 166.916 180.222 166.691 179.938C166.283 179.423 165.876 178.906 165.565 178.503C165.409 178.301 165.278 178.128 165.183 177.998C165.18 177.994 165.177 177.99 165.174 177.986Z" fill="white" stroke="black" stroke-width="0.3"/>
<path d="M156.061 237.891C156.328 239.758 157.852 241.069 159.821 241.998C161.795 242.93 164.257 243.497 166.479 243.856L166.479 243.856C179.468 245.916 192.558 247.494 205.749 248.59L205.749 248.59C213.108 249.187 220.578 249.612 227.908 248.736C237.603 247.583 246.489 244.237 255.326 240.766C255.865 240.555 256.403 240.343 256.942 240.13C265.216 236.873 273.488 233.616 282.405 232.037C284.931 235.055 284.572 239.174 282.596 242.481L282.725 242.558L282.596 242.481C280.603 245.825 277.204 248.49 273.714 250.982L273.712 250.984C265.467 257.063 256.428 262.423 246.75 266.972C240.952 269.665 234.85 271.921 228.524 273.711C199.874 281.711 168.307 278.629 138.55 273.707C137.619 273.553 136.685 273.398 135.75 273.242C121.708 270.901 107.252 268.491 93.2633 270.904C83.4598 272.595 74.5633 276.539 65.8378 280.431L65.8377 280.431L31.3818 295.825C25.5214 290.887 20.3257 285.476 15.8791 279.681L15.8789 279.68C11.9521 274.581 8.68099 269.18 6.11467 263.56C3.40512 257.496 1.41549 251.244 0.171563 244.886C3.05695 243.826 6.84174 243.446 10.5935 243.236C11.7053 243.174 12.8148 243.127 13.8961 243.08C16.5015 242.969 18.943 242.865 20.8582 242.576L20.8584 242.576C32.6258 240.795 44.1426 238.046 55.6195 235.307L55.6516 235.299L55.6517 235.299L87.5414 227.669C93.5405 226.233 99.5016 224.796 105.366 222.952L105.367 222.952C106.926 222.449 108.47 221.922 110.01 221.396C113.786 220.106 117.545 218.822 121.484 217.921L121.484 217.921C130.322 215.892 139.663 215.926 148.872 215.961L194.642 216.177L194.642 216.177L194.653 216.177C195.505 216.118 196.36 216.246 197.125 216.545C197.607 216.786 197.902 217.111 198.061 217.479C198.221 217.851 198.246 218.281 198.163 218.737C197.996 219.651 197.396 220.637 196.656 221.37L196.656 221.371C193.517 224.513 189.247 226.603 184.494 228.009C179.742 229.415 174.518 230.134 169.479 230.54L169.491 230.689L169.479 230.54C169.294 230.555 169.109 230.57 168.923 230.585C166.114 230.809 163.218 231.04 160.686 232.055C159.331 232.599 158.087 233.438 157.224 234.448C156.362 235.458 155.874 236.65 156.061 237.891ZM156.061 237.891C156.061 237.891 156.061 237.891 156.061 237.89L156.21 237.869L156.061 237.892C156.061 237.892 156.061 237.891 156.061 237.891Z" fill="white" stroke="black" stroke-width="0.3"/>
<path d="M319.236 178.268C319.236 178.307 319.217 178.362 319.143 178.437C319.068 178.512 318.948 178.594 318.775 178.681C318.43 178.853 317.907 179.027 317.209 179.2C315.815 179.546 313.752 179.88 311.087 180.2C305.76 180.839 298.048 181.415 288.515 181.898C269.449 182.866 243.108 183.464 214.011 183.464C184.914 183.464 158.573 182.866 139.507 181.898C129.974 181.415 122.262 180.839 116.935 180.2C114.27 179.88 112.207 179.546 110.813 179.2C110.114 179.027 109.592 178.853 109.247 178.681C109.074 178.594 108.954 178.512 108.879 178.437C108.804 178.362 108.786 178.307 108.786 178.268C108.786 178.23 108.804 178.174 108.879 178.099C108.954 178.024 109.074 177.942 109.247 177.856C109.592 177.683 110.114 177.509 110.813 177.336C112.207 176.991 114.27 176.656 116.935 176.336C122.262 175.697 129.974 175.121 139.507 174.638C158.573 173.67 184.914 173.072 214.011 173.072C243.108 173.072 269.449 173.67 288.515 174.638C298.048 175.121 305.76 175.697 311.087 176.336C313.752 176.656 315.815 176.991 317.209 177.336C317.907 177.509 318.43 177.683 318.775 177.856C318.948 177.942 319.068 178.024 319.143 178.099C319.217 178.174 319.236 178.23 319.236 178.268Z" fill="white" stroke="black" stroke-width="0.3"/>
<path d="M200.336 164.11L200.334 164.11C194.578 164.363 188.857 164.978 183.224 165.951C177.904 166.962 172.827 168.521 167.739 170.084C166.351 170.511 164.962 170.937 163.568 171.353C162.546 171.66 161.212 171.937 159.756 172.226C159.54 172.268 159.322 172.312 159.102 172.355C157.83 172.606 156.485 172.871 155.177 173.178C153.643 173.539 152.166 173.956 150.925 174.472C149.77 174.952 148.834 175.512 148.242 176.179C150.047 176.849 152.683 177.022 155.415 177.042C156.604 177.051 157.812 177.03 158.973 177.01C160.557 176.984 162.051 176.958 163.281 177.011L163.281 177.011C168.853 177.253 174.429 177.486 180.008 177.711C180.008 177.711 180.008 177.711 180.008 177.711L180.002 177.861C220.303 179.427 260.667 180.528 301.011 179.479L200.336 164.11ZM200.336 164.11C208.161 163.652 216.08 163.359 223.757 164.584C228.834 165.526 233.824 166.742 238.694 168.222L238.698 168.223C258.481 173.679 278.945 177.413 299.733 179.361L200.336 164.11Z" fill="white" stroke="black" stroke-width="0.3"/>
<path d="M188.886 167.031L188.882 166.964C188.877 166.873 188.869 166.739 188.858 166.563C188.835 166.211 188.801 165.692 188.753 165.027C188.656 163.696 188.504 161.775 188.282 159.419C187.839 154.706 187.116 148.247 186 141.264C184.884 134.282 183.374 126.773 181.355 119.96C179.363 113.237 176.871 107.18 173.764 102.977L177.216 101.71L177.224 101.74L177.373 102.287L177.939 104.363C178.428 106.151 179.126 108.707 179.964 111.777C181.641 117.915 183.879 126.108 186.127 134.322C188.375 142.536 190.632 150.772 192.346 156.998C193.202 160.112 193.923 162.722 194.439 164.577C194.697 165.504 194.904 166.243 195.05 166.76C195.124 167.019 195.182 167.223 195.225 167.368C195.266 167.507 195.295 167.603 195.308 167.635C195.324 167.672 195.327 167.736 195.285 167.83C195.244 167.924 195.164 168.033 195.039 168.145C194.79 168.367 194.38 168.581 193.821 168.678C192.715 168.869 191.026 168.603 188.886 167.031Z" fill="white" stroke="black" stroke-width="0.3"/>
<path d="M226.38 86.5211L226.584 86.5661L226.561 86.3583C226.384 84.7434 226.939 83.4183 227.931 82.412C228.927 81.4021 230.367 80.7101 231.96 80.3831C235.152 79.7274 238.88 80.5495 240.757 83.1066C241.096 83.5715 241.323 84.1406 241.561 84.7374C241.619 84.8825 241.678 85.0293 241.739 85.1766C242.045 85.9173 242.411 86.6614 243.069 87.1761L243.069 87.1766C243.912 87.8291 244.825 88.028 245.77 88.1188C246.088 88.1494 246.406 88.1678 246.727 88.1864C247.369 88.2236 248.02 88.2614 248.696 88.3987L248.696 88.3988L248.699 88.3993C250.619 88.7464 252.369 89.5275 253.738 90.645C255.106 91.7622 256.035 93.1665 256.418 94.6859C256.8 96.2045 256.623 97.7793 255.906 99.2223C255.188 100.666 253.958 101.919 252.358 102.827L252.153 102.943L252.346 103.08C253.389 103.819 253.773 104.899 253.658 106.005C253.543 107.116 252.923 108.254 251.955 109.08C249.999 110.747 247.092 111.459 244.29 112.11L244.113 112.151L244.187 112.317C245.273 114.749 245.809 117.314 245.772 119.892C245.743 121.165 245.353 122.418 244.629 123.558C243.906 124.698 242.867 125.697 241.586 126.477C240.266 127.192 238.598 127.529 237 127.44C235.4 127.352 233.889 126.839 232.874 125.876L232.757 125.765L232.654 125.889C231.735 127.008 230.403 127.88 228.835 128.384C227.267 128.888 225.541 128.999 223.89 128.7C222.24 128.401 220.748 127.708 219.613 126.718C218.479 125.728 217.758 124.491 217.539 123.174L217.508 122.988L217.333 123.061C215.382 123.873 213.084 123.728 211.095 122.953C209.104 122.178 207.45 120.783 206.769 119.128C205.404 115.81 207.237 112.01 210.471 109.556L210.637 109.43L210.464 109.312C208.079 107.691 207.586 104.775 208.645 102.418C209.902 100.069 212.015 98.0671 214.718 96.6732C215.445 96.3278 216.071 95.8579 216.549 95.295L216.559 95.2822L216.567 95.2673C216.946 94.5407 217.116 93.7537 217.063 92.9649C217.163 91.0722 218.132 89.2663 219.8 87.8926C220.642 87.2245 221.695 86.7437 222.852 86.5019C224.009 86.2601 225.227 86.2667 226.38 86.5211Z" fill="white" stroke="black" stroke-width="0.3"/>
<mask id="path-11-inside-1" fill="white">
<path d="M228.282 125.838C228.206 124.246 228.152 122.551 229.174 121.184C229.817 120.419 230.614 119.744 231.532 119.186C233.024 118.116 234.661 117.182 236.412 116.4C238.183 115.621 240.222 115.318 242.227 115.535C239.999 117.161 236.793 117.706 234.467 119.212C231.802 121.025 229.742 123.334 228.467 125.933C226.695 130.595 226.608 136.227 225.695 141.062C224.782 145.898 223.869 150.88 222.946 155.768C221.989 160.958 220.315 166.33 220.054 171.555C220.054 172.29 216.62 173.51 213.968 169.228C217.228 161.443 219.924 153.51 222.38 145.561C224.456 138.787 226.293 131.945 227.565 125.042C228.141 121.928 229.119 118.381 228.913 115.232C228.684 111.902 224.272 108.641 220.75 107.214C220.511 107.11 220.261 107.015 220.011 106.928C219.641 107.136 219.924 107.603 220.228 107.88C222.902 110.25 226.5 112.144 227.902 115.129C228.271 115.916 228.467 116.746 228.804 117.542C228.587 117.032 229.369 115.544 229.271 114.809C229.094 113.829 229 112.84 228.989 111.85C229.034 109.533 228.82 107.217 228.347 104.93L232.521 104.696C232.521 104.696 230.76 114.039 228.587 125.743"/>
</mask>
<path d="M228.282 125.838C228.206 124.246 228.152 122.551 229.174 121.184C229.817 120.419 230.614 119.744 231.532 119.186C233.024 118.116 234.661 117.182 236.412 116.4C238.183 115.621 240.222 115.318 242.227 115.535C239.999 117.161 236.793 117.706 234.467 119.212C231.802 121.025 229.742 123.334 228.467 125.933C226.695 130.595 226.608 136.227 225.695 141.062C224.782 145.898 223.869 150.88 222.946 155.768C221.989 160.958 220.315 166.33 220.054 171.555C220.054 172.29 216.62 173.51 213.968 169.228C217.228 161.443 219.924 153.51 222.38 145.561C224.456 138.787 226.293 131.945 227.565 125.042C228.141 121.928 229.119 118.381 228.913 115.232C228.684 111.902 224.272 108.641 220.75 107.214C220.511 107.11 220.261 107.015 220.011 106.928C219.641 107.136 219.924 107.603 220.228 107.88C222.902 110.25 226.5 112.144 227.902 115.129C228.271 115.916 228.467 116.746 228.804 117.542C228.587 117.032 229.369 115.544 229.271 114.809C229.094 113.829 229 112.84 228.989 111.85C229.034 109.533 228.82 107.217 228.347 104.93L232.521 104.696C232.521 104.696 230.76 114.039 228.587 125.743" fill="white"/>
<path d="M229.174 121.184L228.944 120.991L228.938 120.997L228.933 121.004L229.174 121.184ZM231.532 119.186L231.688 119.442L231.698 119.436L231.707 119.429L231.532 119.186ZM236.412 116.4L236.292 116.126L236.29 116.126L236.412 116.4ZM242.227 115.535L242.404 115.777L243.03 115.32L242.26 115.237L242.227 115.535ZM234.467 119.212L234.304 118.96L234.298 118.964L234.467 119.212ZM228.467 125.933L228.198 125.801L228.192 125.813L228.187 125.826L228.467 125.933ZM222.946 155.768L222.651 155.712L222.651 155.714L222.946 155.768ZM220.054 171.555L219.755 171.54L219.754 171.547V171.555H220.054ZM213.968 169.228L213.691 169.112L213.631 169.254L213.713 169.386L213.968 169.228ZM222.38 145.561L222.667 145.649L222.667 145.648L222.38 145.561ZM227.565 125.042L227.27 124.987L227.27 124.988L227.565 125.042ZM228.913 115.232L229.212 115.213L229.212 115.212L228.913 115.232ZM220.75 107.214L220.631 107.489L220.637 107.492L220.75 107.214ZM220.011 106.928L220.109 106.645L219.982 106.6L219.864 106.667L220.011 106.928ZM220.228 107.88L220.026 108.102L220.029 108.104L220.228 107.88ZM227.902 115.129L228.173 115.001L228.173 115.001L227.902 115.129ZM228.804 117.542L228.528 117.66L229.08 117.425L228.804 117.542ZM229.271 114.809L229.569 114.769L229.567 114.755L229.271 114.809ZM228.989 111.85L228.689 111.844L228.689 111.853L228.989 111.85ZM228.347 104.93L228.331 104.63L227.983 104.65L228.054 104.991L228.347 104.93ZM232.521 104.696L232.816 104.752L232.887 104.375L232.504 104.397L232.521 104.696ZM228.582 125.823C228.505 124.215 228.466 122.631 229.414 121.363L228.933 121.004C227.838 122.47 227.907 124.277 227.983 125.852L228.582 125.823ZM229.403 121.377C230.024 120.639 230.795 119.985 231.688 119.442L231.376 118.929C230.432 119.504 229.61 120.199 228.944 120.991L229.403 121.377ZM231.707 119.429C233.181 118.372 234.801 117.448 236.534 116.674L236.29 116.126C234.521 116.916 232.866 117.86 231.357 118.942L231.707 119.429ZM236.533 116.675C238.254 115.918 240.24 115.622 242.195 115.833L242.26 115.237C240.205 115.014 238.113 115.325 236.292 116.126L236.533 116.675ZM242.05 115.293C240.973 116.079 239.651 116.609 238.276 117.139C236.915 117.663 235.499 118.187 234.304 118.96L234.63 119.463C235.761 118.731 237.111 118.23 238.491 117.699C239.858 117.173 241.253 116.618 242.404 115.777L242.05 115.293ZM234.298 118.964C231.596 120.803 229.498 123.15 228.198 125.801L228.736 126.065C229.986 123.518 232.009 121.247 234.636 119.46L234.298 118.964ZM228.187 125.826C227.288 128.191 226.82 130.792 226.462 133.392C226.102 136.005 225.855 138.598 225.401 141.007L225.99 141.118C226.448 138.691 226.702 136.051 227.056 133.474C227.413 130.884 227.874 128.338 228.747 126.039L228.187 125.826ZM225.401 141.007C224.485 145.858 223.577 150.812 222.651 155.712L223.24 155.824C224.162 150.949 225.08 145.938 225.99 141.118L225.401 141.007ZM222.651 155.714C222.173 158.304 221.519 160.927 220.946 163.585C220.374 166.234 219.886 168.903 219.755 171.54L220.354 171.57C220.483 168.982 220.963 166.352 221.532 163.712C222.1 161.08 222.761 158.422 223.241 155.822L222.651 155.714ZM219.754 171.555C219.754 171.531 219.765 171.557 219.694 171.625C219.628 171.688 219.518 171.761 219.361 171.826C219.049 171.956 218.589 172.039 218.04 171.975C216.956 171.849 215.509 171.147 214.223 169.07L213.713 169.386C215.079 171.591 216.675 172.42 217.971 172.571C218.613 172.645 219.177 172.553 219.591 172.381C219.798 172.295 219.977 172.186 220.11 172.058C220.237 171.935 220.354 171.763 220.354 171.555H219.754ZM214.244 169.344C217.51 161.546 220.209 153.604 222.667 145.649L222.094 145.472C219.639 153.417 216.947 161.339 213.691 169.112L214.244 169.344ZM222.667 145.648C224.745 138.869 226.585 132.015 227.86 125.096L227.27 124.988C226.001 131.875 224.168 138.706 222.094 145.473L222.667 145.648ZM227.86 125.096C228.003 124.322 228.172 123.52 228.341 122.699C228.511 121.879 228.682 121.041 228.828 120.202C229.12 118.524 229.318 116.822 229.212 115.213L228.613 115.252C228.714 116.791 228.526 118.438 228.237 120.099C228.092 120.928 227.923 121.758 227.754 122.577C227.585 123.395 227.415 124.205 227.27 124.987L227.86 125.096ZM229.212 115.212C229.09 113.429 227.858 111.713 226.267 110.286C224.666 108.85 222.652 107.661 220.863 106.936L220.637 107.492C222.369 108.194 224.323 109.348 225.866 110.733C227.419 112.125 228.507 113.706 228.613 115.253L229.212 115.212ZM220.869 106.938C220.622 106.831 220.365 106.733 220.109 106.645L219.913 107.212C220.157 107.296 220.4 107.389 220.631 107.489L220.869 106.938ZM219.864 106.667C219.71 106.753 219.601 106.883 219.556 107.048C219.515 107.203 219.541 107.354 219.584 107.478C219.669 107.719 219.855 107.945 220.026 108.102L220.43 107.658C220.298 107.537 220.19 107.391 220.15 107.278C220.131 107.224 220.136 107.203 220.136 107.203C220.133 107.213 220.127 107.207 220.158 107.19L219.864 106.667ZM220.029 108.104C220.707 108.705 221.441 109.273 222.177 109.832C222.916 110.392 223.654 110.939 224.353 111.507C225.754 112.643 226.959 113.828 227.63 115.256L228.173 115.001C227.442 113.445 226.148 112.19 224.731 111.041C224.022 110.465 223.271 109.908 222.539 109.353C221.805 108.796 221.087 108.24 220.427 107.655L220.029 108.104ZM227.63 115.256C227.807 115.633 227.944 116.023 228.081 116.428C228.217 116.829 228.354 117.248 228.528 117.659L229.08 117.425C228.917 117.04 228.788 116.646 228.649 116.236C228.512 115.83 228.366 115.412 228.173 115.001L227.63 115.256ZM229.08 117.425C229.064 117.387 229.053 117.278 229.094 117.058C229.132 116.853 229.202 116.611 229.28 116.345C229.357 116.085 229.443 115.803 229.502 115.54C229.56 115.282 229.6 115.008 229.569 114.769L228.974 114.848C228.991 114.977 228.971 115.165 228.916 115.408C228.863 115.647 228.784 115.907 228.705 116.174C228.628 116.436 228.549 116.708 228.504 116.948C228.462 117.173 228.435 117.442 228.528 117.66L229.08 117.425ZM229.567 114.755C229.392 113.792 229.3 112.82 229.289 111.847L228.689 111.853C228.7 112.86 228.796 113.865 228.976 114.862L229.567 114.755ZM229.289 111.856C229.335 109.516 229.118 107.178 228.641 104.869L228.054 104.991C228.521 107.256 228.734 109.549 228.689 111.844L229.289 111.856ZM228.364 105.229L232.538 104.996L232.504 104.397L228.331 104.63L228.364 105.229ZM232.521 104.696C232.226 104.641 232.226 104.641 232.226 104.641C232.226 104.641 232.226 104.641 232.226 104.641C232.226 104.641 232.226 104.642 232.226 104.642C232.226 104.644 232.226 104.645 232.225 104.648C232.224 104.652 232.223 104.659 232.221 104.668C232.218 104.686 232.213 104.713 232.206 104.749C232.193 104.82 232.173 104.926 232.146 105.065C232.094 105.343 232.017 105.754 231.917 106.283C231.718 107.342 231.43 108.876 231.074 110.775C230.362 114.574 229.379 119.836 228.292 125.688L228.882 125.797C229.968 119.946 230.952 114.684 231.664 110.886C232.02 108.986 232.308 107.453 232.507 106.394C232.606 105.865 232.684 105.454 232.736 105.176C232.762 105.037 232.782 104.931 232.796 104.86C232.802 104.824 232.807 104.797 232.811 104.779C232.813 104.77 232.814 104.763 232.815 104.759C232.815 104.756 232.815 104.755 232.816 104.754C232.816 104.753 232.816 104.753 232.816 104.752C232.816 104.752 232.816 104.752 232.816 104.752C232.816 104.752 232.816 104.752 232.521 104.696Z" fill="black" mask="url(#path-11-inside-1)"/>
<path d="M273.529 92.9051L273.734 92.9503L273.711 92.7423C273.534 91.1275 274.089 89.8029 275.081 88.7972C276.076 87.788 277.517 87.0968 279.109 86.7702C282.301 86.1156 286.03 86.9377 287.907 89.4904C288.238 89.95 288.461 90.511 288.695 91.1003C288.755 91.2523 288.816 91.4061 288.88 91.5606C289.187 92.3017 289.555 93.0459 290.219 93.5606L290.219 93.5606C291.062 94.2131 291.975 94.412 292.92 94.5029C293.238 94.5335 293.556 94.5519 293.877 94.5705C294.519 94.6077 295.17 94.6454 295.846 94.7828L295.846 94.7828L295.849 94.7834C297.769 95.1305 299.519 95.9116 300.887 97.0291C302.256 98.1464 303.185 99.5507 303.567 101.07C303.95 102.589 303.773 104.164 303.056 105.607C302.338 107.05 301.108 108.304 299.508 109.211L299.304 109.327L299.495 109.464C300.534 110.204 300.92 111.284 300.808 112.39C300.695 113.501 300.078 114.639 299.105 115.464C297.138 117.132 294.242 117.844 291.429 118.495L291.252 118.536L291.326 118.702C292.415 121.133 292.955 123.697 292.922 126.276C292.888 127.548 292.496 128.801 291.773 129.94C291.05 131.08 290.013 132.079 288.736 132.862C287.416 133.577 285.748 133.913 284.15 133.825C282.549 133.737 281.039 133.223 280.023 132.26L279.907 132.15L279.804 132.274C278.885 133.393 277.553 134.265 275.985 134.769C274.417 135.273 272.691 135.384 271.04 135.085C269.39 134.786 267.898 134.093 266.763 133.103C265.629 132.113 264.908 130.875 264.689 129.559L264.657 129.373L264.483 129.445C262.532 130.258 260.234 130.112 258.245 129.338C256.254 128.563 254.6 127.168 253.919 125.513C252.554 122.195 254.387 118.394 257.621 115.94L257.787 115.814L257.614 115.697C255.219 114.076 254.736 111.16 255.795 108.794C257.054 106.448 259.166 104.449 261.868 103.057C262.595 102.712 263.221 102.242 263.698 101.679L263.71 101.666L263.717 101.651C264.092 100.923 264.261 100.138 264.213 99.3495C264.312 97.4566 265.282 95.6504 266.95 94.2767C267.792 93.6078 268.844 93.1265 270.001 92.8847C271.159 92.6428 272.377 92.6499 273.529 92.9051Z" fill="white" stroke="black" stroke-width="0.3"/>
<mask id="path-14-inside-2" fill="white">
<path d="M275.432 132.222C275.356 130.63 275.301 128.935 276.312 127.568C276.959 126.804 277.76 126.128 278.682 125.57C280.173 124.5 281.81 123.566 283.562 122.785C285.332 122.005 287.372 121.702 289.377 121.919C287.148 123.546 283.942 124.091 281.616 125.596C278.952 127.411 276.888 129.719 275.606 132.317C273.845 136.98 273.758 142.611 272.845 147.447C271.932 152.282 271.008 157.265 270.095 162.152C269.139 167.343 267.465 172.715 267.193 177.939C267.193 178.675 263.769 179.894 261.117 175.612C264.378 167.827 267.073 159.895 269.519 151.945C271.606 145.172 273.443 138.329 274.714 131.426C275.28 128.312 276.269 124.765 276.051 121.617C275.834 118.286 271.41 115.025 267.899 113.598C267.66 113.494 267.41 113.399 267.16 113.312C266.791 113.52 267.063 113.987 267.378 114.264C270.052 116.634 273.649 118.529 275.051 121.513C275.421 122.3 275.616 123.131 275.953 123.926C275.736 123.416 276.519 121.928 276.41 121.193C276.243 120.212 276.149 119.224 276.127 118.234C276.183 115.917 275.969 113.6 275.486 111.314L279.671 111.081C279.671 111.081 277.91 120.423 275.714 132.127"/>
</mask>
<path d="M275.432 132.222C275.356 130.63 275.301 128.935 276.312 127.568C276.959 126.804 277.76 126.128 278.682 125.57C280.173 124.5 281.81 123.566 283.562 122.785C285.332 122.005 287.372 121.702 289.377 121.919C287.148 123.546 283.942 124.091 281.616 125.596C278.952 127.411 276.888 129.719 275.606 132.317C273.845 136.98 273.758 142.611 272.845 147.447C271.932 152.282 271.008 157.265 270.095 162.152C269.139 167.343 267.465 172.715 267.193 177.939C267.193 178.675 263.769 179.894 261.117 175.612C264.378 167.827 267.073 159.895 269.519 151.945C271.606 145.172 273.443 138.329 274.714 131.426C275.28 128.312 276.269 124.765 276.051 121.617C275.834 118.286 271.41 115.025 267.899 113.598C267.66 113.494 267.41 113.399 267.16 113.312C266.791 113.52 267.063 113.987 267.378 114.264C270.052 116.634 273.649 118.529 275.051 121.513C275.421 122.3 275.616 123.131 275.953 123.926C275.736 123.416 276.519 121.928 276.41 121.193C276.243 120.212 276.149 119.224 276.127 118.234C276.183 115.917 275.969 113.6 275.486 111.314L279.671 111.081C279.671 111.081 277.91 120.423 275.714 132.127" fill="white"/>
<path d="M276.312 127.568L276.083 127.374L276.077 127.382L276.071 127.39L276.312 127.568ZM278.682 125.57L278.837 125.827L278.847 125.821L278.856 125.814L278.682 125.57ZM283.562 122.785L283.441 122.51L283.439 122.511L283.562 122.785ZM289.377 121.919L289.553 122.162L290.179 121.705L289.409 121.621L289.377 121.919ZM281.616 125.596L281.453 125.344L281.447 125.348L281.616 125.596ZM275.606 132.317L275.337 132.184L275.33 132.198L275.325 132.211L275.606 132.317ZM270.095 162.152L269.8 162.097L269.8 162.098L270.095 162.152ZM267.193 177.939L266.893 177.924L266.893 177.932V177.939H267.193ZM261.117 175.612L260.84 175.497L260.781 175.639L260.862 175.77L261.117 175.612ZM269.519 151.945L269.232 151.857L269.232 151.857L269.519 151.945ZM274.714 131.426L275.009 131.481L275.01 131.48L274.714 131.426ZM276.051 121.617L275.752 121.636L275.752 121.637L276.051 121.617ZM267.899 113.598L267.78 113.873L267.786 113.876L267.899 113.598ZM267.16 113.312L267.258 113.029L267.131 112.985L267.013 113.051L267.16 113.312ZM267.378 114.264L267.577 114.039L267.576 114.038L267.378 114.264ZM275.051 121.513L275.323 121.385L275.323 121.385L275.051 121.513ZM275.953 123.926L275.677 124.044L276.23 123.809L275.953 123.926ZM276.41 121.193L276.707 121.149L276.706 121.143L276.41 121.193ZM276.127 118.234L275.827 118.227L275.827 118.241L276.127 118.234ZM275.486 111.314L275.469 111.015L275.12 111.034L275.192 111.376L275.486 111.314ZM279.671 111.081L279.965 111.136L280.036 110.76L279.654 110.781L279.671 111.081ZM275.731 132.208C275.654 130.599 275.615 129.015 276.553 127.747L276.071 127.39C274.987 128.855 275.057 130.662 275.132 132.236L275.731 132.208ZM276.541 127.762C277.166 127.024 277.941 126.37 278.837 125.827L278.526 125.313C277.579 125.887 276.753 126.583 276.083 127.374L276.541 127.762ZM278.856 125.814C280.331 124.756 281.95 123.832 283.684 123.059L283.439 122.511C281.67 123.3 280.016 124.244 278.507 125.326L278.856 125.814ZM283.683 123.059C285.403 122.302 287.389 122.005 289.344 122.218L289.409 121.621C287.354 121.398 285.262 121.708 283.441 122.51L283.683 123.059ZM289.2 121.677C288.123 122.463 286.801 122.994 285.425 123.523C284.064 124.047 282.648 124.571 281.453 125.344L281.779 125.848C282.91 125.116 284.26 124.615 285.641 124.083C287.007 123.557 288.403 123.002 289.553 122.162L289.2 121.677ZM281.447 125.348C278.745 127.189 276.644 129.535 275.337 132.184L275.875 132.45C277.132 129.903 279.159 127.633 281.785 125.844L281.447 125.348ZM275.325 132.211C274.432 134.575 273.967 137.176 273.61 139.776C273.252 142.389 273.005 144.983 272.55 147.391L273.14 147.502C273.598 145.075 273.851 142.435 274.205 139.858C274.56 137.268 275.018 134.722 275.886 132.423L275.325 132.211ZM272.55 147.391C271.637 152.227 270.713 157.21 269.8 162.097L270.39 162.208C271.303 157.319 272.227 152.338 273.14 147.502L272.55 147.391ZM269.8 162.098C269.323 164.688 268.669 167.311 268.094 169.97C267.521 172.619 267.031 175.287 266.893 177.924L267.493 177.955C267.627 175.367 268.109 172.737 268.68 170.096C269.25 167.465 269.911 164.807 270.39 162.207L269.8 162.098ZM266.893 177.939C266.893 177.916 266.903 177.942 266.832 178.01C266.767 178.073 266.658 178.146 266.501 178.211C266.19 178.341 265.731 178.423 265.184 178.359C264.103 178.233 262.659 177.531 261.372 175.454L260.862 175.77C262.228 177.975 263.821 178.805 265.115 178.955C265.755 179.03 266.318 178.937 266.732 178.765C266.938 178.679 267.116 178.57 267.249 178.442C267.376 178.319 267.493 178.147 267.493 177.939H266.893ZM261.394 175.728C264.66 167.931 267.359 159.988 269.806 152.033L269.232 151.857C266.788 159.801 264.096 167.724 260.84 175.497L261.394 175.728ZM269.806 152.033C271.895 145.254 273.735 138.399 275.009 131.481L274.419 131.372C273.15 138.26 271.317 145.09 269.232 151.857L269.806 152.033ZM275.01 131.48C275.15 130.706 275.317 129.904 275.486 129.083C275.655 128.264 275.826 127.426 275.972 126.586C276.264 124.908 276.462 123.206 276.351 121.596L275.752 121.637C275.858 123.176 275.67 124.822 275.381 126.483C275.236 127.313 275.067 128.142 274.898 128.962C274.73 129.78 274.561 130.59 274.419 131.373L275.01 131.48ZM276.351 121.597C276.234 119.813 275.002 118.097 273.411 116.67C271.81 115.235 269.796 114.045 268.012 113.32L267.786 113.876C269.513 114.578 271.467 115.732 273.01 117.117C274.563 118.51 275.651 120.09 275.752 121.636L276.351 121.597ZM268.019 113.323C267.771 113.215 267.514 113.117 267.258 113.029L267.062 113.596C267.307 113.68 267.549 113.773 267.78 113.873L268.019 113.323ZM267.013 113.051C266.861 113.137 266.751 113.266 266.705 113.429C266.662 113.584 266.686 113.735 266.729 113.86C266.813 114.104 267 114.331 267.18 114.489L267.576 114.038C267.441 113.92 267.334 113.775 267.296 113.664C267.287 113.639 267.284 113.62 267.283 113.608C267.282 113.601 267.282 113.597 267.283 113.594C267.283 113.591 267.283 113.59 267.283 113.59C267.283 113.59 267.283 113.59 267.283 113.591C267.283 113.591 267.283 113.591 267.282 113.592C267.282 113.593 267.282 113.593 267.282 113.592C267.283 113.591 267.289 113.584 267.307 113.574L267.013 113.051ZM267.179 114.488C267.856 115.089 268.59 115.658 269.326 116.216C270.065 116.776 270.803 117.324 271.502 117.891C272.903 119.027 274.109 120.212 274.78 121.64L275.323 121.385C274.592 119.829 273.297 118.575 271.88 117.425C271.171 116.85 270.421 116.293 269.689 115.738C268.954 115.181 268.236 114.624 267.577 114.039L267.179 114.488ZM274.78 121.64C274.957 122.017 275.093 122.407 275.23 122.813C275.366 123.213 275.503 123.633 275.677 124.043L276.23 123.809C276.067 123.424 275.937 123.03 275.799 122.62C275.661 122.215 275.516 121.796 275.323 121.385L274.78 121.64ZM276.229 123.809C276.213 123.771 276.203 123.662 276.243 123.442C276.281 123.237 276.35 122.995 276.429 122.728C276.505 122.468 276.59 122.186 276.647 121.922C276.703 121.664 276.742 121.389 276.707 121.149L276.113 121.237C276.132 121.365 276.114 121.551 276.061 121.795C276.009 122.033 275.932 122.292 275.853 122.559C275.776 122.82 275.698 123.092 275.653 123.333C275.612 123.558 275.585 123.827 275.677 124.044L276.229 123.809ZM276.706 121.143C276.542 120.176 276.449 119.203 276.427 118.228L275.827 118.241C275.849 119.245 275.945 120.248 276.114 121.243L276.706 121.143ZM276.427 118.242C276.484 115.901 276.267 113.561 275.78 111.252L275.192 111.376C275.67 113.64 275.883 115.933 275.827 118.227L276.427 118.242ZM275.503 111.614L279.687 111.38L279.654 110.781L275.469 111.015L275.503 111.614ZM279.671 111.081C279.376 111.025 279.376 111.025 279.376 111.025C279.376 111.025 279.376 111.025 279.376 111.025C279.376 111.026 279.376 111.026 279.375 111.027C279.375 111.028 279.375 111.03 279.375 111.032C279.374 111.036 279.372 111.043 279.371 111.052C279.367 111.07 279.362 111.097 279.355 111.133C279.342 111.204 279.322 111.31 279.296 111.449C279.243 111.728 279.166 112.138 279.066 112.668C278.867 113.726 278.578 115.26 278.221 117.159C277.506 120.958 276.517 126.22 275.419 132.072L276.009 132.182C277.107 126.33 278.096 121.069 278.811 117.27C279.168 115.371 279.457 113.837 279.656 112.779C279.756 112.249 279.833 111.839 279.885 111.56C279.912 111.421 279.932 111.315 279.945 111.244C279.952 111.208 279.957 111.181 279.96 111.163C279.962 111.154 279.963 111.147 279.964 111.143C279.965 111.141 279.965 111.139 279.965 111.138C279.965 111.137 279.965 111.137 279.965 111.137C279.965 111.136 279.965 111.136 279.965 111.136C279.965 111.136 279.965 111.136 279.671 111.081Z" fill="black" mask="url(#path-14-inside-2)"/>
<path d="M241.988 129.592L242.191 129.637L242.17 129.43C242.077 128.55 242.38 127.83 242.924 127.281C243.471 126.73 244.264 126.349 245.148 126.17C246.922 125.811 248.989 126.275 250.052 127.692C250.236 127.944 250.359 128.251 250.492 128.584C250.525 128.666 250.558 128.75 250.593 128.835C250.765 129.25 250.976 129.681 251.363 129.979L251.363 129.979L251.368 129.983C251.866 130.338 252.387 130.45 252.916 130.505C253.096 130.524 253.273 130.536 253.451 130.548C253.805 130.573 254.159 130.597 254.533 130.674L254.533 130.674L254.536 130.674C255.591 130.872 256.548 131.306 257.297 131.921C258.045 132.536 258.55 133.305 258.76 134.134C258.97 134.962 258.877 135.821 258.49 136.611C258.103 137.401 257.437 138.092 256.564 138.597L256.363 138.714L256.552 138.849C257.106 139.247 257.306 139.82 257.241 140.412C257.177 141.007 256.844 141.62 256.329 142.069C255.122 142.928 253.645 143.516 252.051 143.769L251.858 143.8L251.937 143.978C252.536 145.331 252.833 146.755 252.816 148.188C252.796 148.885 252.581 149.572 252.183 150.198C251.785 150.824 251.214 151.375 250.509 151.807C249.791 152.211 248.912 152.4 248.03 152.337C247.147 152.274 246.326 151.963 245.713 151.465L245.597 151.371L245.502 151.486C244.997 152.099 244.265 152.579 243.4 152.857C242.535 153.135 241.583 153.196 240.671 153.032C239.76 152.868 238.938 152.487 238.313 151.944C237.688 151.402 237.292 150.725 237.169 150.008L237.137 149.823L236.963 149.895C235.893 150.339 234.63 150.259 233.533 149.83C232.438 149.401 231.535 148.633 231.162 147.732C230.859 146.795 230.886 145.81 231.242 144.883C231.598 143.954 232.272 143.117 233.194 142.466L233.361 142.348L233.199 142.224C232.57 141.74 232.14 141.123 231.956 140.453C231.773 139.785 231.841 139.089 232.154 138.45C232.851 137.152 234.022 136.044 235.522 135.272C235.934 135.073 236.288 134.804 236.559 134.481L236.57 134.469L236.578 134.454C236.794 134.04 236.893 133.59 236.867 133.138C236.921 132.1 237.453 131.107 238.376 130.349C238.835 129.982 239.412 129.716 240.048 129.582C240.684 129.448 241.354 129.451 241.988 129.592Z" fill="white" stroke="black" stroke-width="0.3"/>
<mask id="path-17-inside-3" fill="white">
<path d="M243.064 151.496C242.918 150.61 243.091 149.71 243.564 148.901C243.918 148.471 244.363 148.093 244.879 147.785C245.71 147.184 246.625 146.661 247.607 146.228C248.599 145.789 249.744 145.619 250.868 145.743C249.629 146.608 247.846 146.954 246.52 147.793C245.033 148.808 243.881 150.097 243.162 151.548C242.184 154.143 242.129 157.3 241.618 159.999L240.086 168.225C239.553 171.114 238.618 174.133 238.466 177.049C238.466 177.464 236.553 178.139 235.075 175.751C236.869 171.426 238.401 166.971 239.771 162.525C240.934 158.745 241.944 154.921 242.662 151.063C243.133 149.261 243.384 147.428 243.412 145.587C243.292 143.728 240.825 141.902 238.858 141.107L238.445 140.942C238.238 141.063 238.445 141.323 238.564 141.479C240.064 142.802 242.075 143.857 242.857 145.527C243.064 145.968 243.173 146.392 243.357 146.876C243.238 146.591 243.673 145.76 243.618 145.354C243.519 144.804 243.465 144.249 243.455 143.693C243.488 142.395 243.368 141.098 243.097 139.818L245.433 139.688L243.26 151.444"/>
</mask>
<path d="M243.064 151.496C242.918 150.61 243.091 149.71 243.564 148.901C243.918 148.471 244.363 148.093 244.879 147.785C245.71 147.184 246.625 146.661 247.607 146.228C248.599 145.789 249.744 145.619 250.868 145.743C249.629 146.608 247.846 146.954 246.52 147.793C245.033 148.808 243.881 150.097 243.162 151.548C242.184 154.143 242.129 157.3 241.618 159.999L240.086 168.225C239.553 171.114 238.618 174.133 238.466 177.049C238.466 177.464 236.553 178.139 235.075 175.751C236.869 171.426 238.401 166.971 239.771 162.525C240.934 158.745 241.944 154.921 242.662 151.063C243.133 149.261 243.384 147.428 243.412 145.587C243.292 143.728 240.825 141.902 238.858 141.107L238.445 140.942C238.238 141.063 238.445 141.323 238.564 141.479C240.064 142.802 242.075 143.857 242.857 145.527C243.064 145.968 243.173 146.392 243.357 146.876C243.238 146.591 243.673 145.76 243.618 145.354C243.519 144.804 243.465 144.249 243.455 143.693C243.488 142.395 243.368 141.098 243.097 139.818L245.433 139.688L243.26 151.444" fill="white"/>
<path d="M243.564 148.901L243.332 148.71L243.317 148.729L243.305 148.749L243.564 148.901ZM244.879 147.785L245.033 148.042L245.044 148.035L245.055 148.028L244.879 147.785ZM247.607 146.228L247.728 146.502L247.728 146.502L247.607 146.228ZM250.868 145.743L251.04 145.989L251.694 145.532L250.901 145.445L250.868 145.743ZM246.52 147.793L246.36 147.54L246.351 147.546L246.52 147.793ZM243.162 151.548L242.893 151.414L242.886 151.428L242.881 151.442L243.162 151.548ZM241.618 159.999L241.324 159.943L241.323 159.944L241.618 159.999ZM240.086 168.225L239.791 168.17L239.791 168.171L240.086 168.225ZM238.466 177.049L238.167 177.033L238.166 177.041V177.049H238.466ZM235.075 175.751L234.798 175.636L234.739 175.778L234.82 175.909L235.075 175.751ZM239.771 162.525L240.057 162.613L240.057 162.613L239.771 162.525ZM242.662 151.063L242.372 150.987L242.369 150.998L242.367 151.008L242.662 151.063ZM243.412 145.587L243.712 145.592L243.712 145.58L243.711 145.568L243.412 145.587ZM238.858 141.107L238.97 140.829L238.969 140.828L238.858 141.107ZM238.445 140.942L238.556 140.664L238.419 140.609L238.293 140.684L238.445 140.942ZM238.564 141.479L238.326 141.661L238.344 141.684L238.366 141.704L238.564 141.479ZM242.857 145.527L243.129 145.4L243.129 145.4L242.857 145.527ZM243.357 146.876L243.081 146.992L243.638 146.769L243.357 146.876ZM243.618 145.354L243.916 145.314L243.914 145.301L243.618 145.354ZM243.455 143.693L243.155 143.685L243.155 143.698L243.455 143.693ZM243.097 139.818L243.08 139.518L242.73 139.538L242.803 139.88L243.097 139.818ZM245.433 139.688L245.728 139.743L245.798 139.367L245.417 139.388L245.433 139.688ZM243.36 151.447C243.226 150.634 243.384 149.804 243.823 149.052L243.305 148.749C242.799 149.617 242.61 150.587 242.768 151.544L243.36 151.447ZM243.796 149.091C244.126 148.69 244.544 148.334 245.033 148.042L244.725 147.527C244.182 147.852 243.71 148.251 243.332 148.71L243.796 149.091ZM245.055 148.028C245.868 147.44 246.765 146.927 247.728 146.502L247.486 145.953C246.486 146.395 245.552 146.928 244.703 147.542L245.055 148.028ZM247.728 146.502C248.67 146.086 249.761 145.923 250.835 146.041L250.901 145.445C249.726 145.316 248.529 145.493 247.486 145.953L247.728 146.502ZM250.696 145.497C250.111 145.906 249.389 146.197 248.617 146.499C247.859 146.795 247.052 147.102 246.36 147.54L246.681 148.047C247.314 147.646 248.061 147.36 248.836 147.057C249.597 146.76 250.386 146.445 251.04 145.989L250.696 145.497ZM246.351 147.546C244.827 148.586 243.637 149.913 242.893 151.414L243.431 151.681C244.124 150.282 245.24 149.031 246.689 148.041L246.351 147.546ZM242.881 151.442C242.38 152.772 242.118 154.238 241.918 155.693C241.715 157.162 241.577 158.603 241.324 159.943L241.913 160.055C242.17 158.696 242.315 157.209 242.512 155.775C242.711 154.329 242.966 152.918 243.442 151.653L242.881 151.442ZM241.323 159.944L239.791 168.17L240.381 168.28L241.913 160.054L241.323 159.944ZM239.791 168.171C239.525 169.61 239.162 171.07 238.84 172.564C238.52 174.048 238.244 175.551 238.167 177.033L238.766 177.064C238.841 175.631 239.108 174.167 239.427 172.69C239.743 171.223 240.114 169.729 240.381 168.28L239.791 168.171ZM238.166 177.049C238.166 176.986 238.199 176.969 238.172 176.995C238.151 177.015 238.105 177.048 238.029 177.08C237.878 177.143 237.645 177.186 237.36 177.153C236.803 177.087 236.03 176.723 235.33 175.593L234.82 175.909C235.599 177.167 236.521 177.659 237.29 177.749C237.668 177.793 238.006 177.739 238.26 177.634C238.386 177.581 238.501 177.512 238.59 177.425C238.674 177.344 238.766 177.215 238.766 177.049H238.166ZM235.352 175.866C237.15 171.53 238.686 167.065 240.057 162.613L239.484 162.436C238.116 166.877 236.587 171.322 234.798 175.636L235.352 175.866ZM240.057 162.613C241.223 158.825 242.237 154.99 242.957 151.118L242.367 151.008C241.652 154.852 240.645 158.664 239.484 162.437L240.057 162.613ZM242.952 151.139C243.429 149.314 243.683 147.457 243.712 145.592L243.112 145.583C243.084 147.399 242.836 149.209 242.372 150.987L242.952 151.139ZM243.711 145.568C243.644 144.52 242.925 143.53 242.028 142.725C241.122 141.911 239.983 141.238 238.97 140.829L238.745 141.385C239.7 141.771 240.778 142.409 241.627 143.171C242.486 143.942 243.06 144.795 243.112 145.607L243.711 145.568ZM238.969 140.828L238.556 140.664L238.334 141.221L238.747 141.385L238.969 140.828ZM238.293 140.684C238.174 140.753 238.089 140.863 238.064 141.003C238.042 141.126 238.074 141.237 238.104 141.311C238.164 141.456 238.275 141.595 238.326 141.661L238.802 141.296C238.77 141.255 238.741 141.217 238.714 141.177C238.686 141.136 238.669 141.105 238.66 141.084C238.65 141.059 238.661 141.072 238.655 141.108C238.651 141.129 238.642 141.151 238.628 141.171C238.614 141.19 238.6 141.199 238.596 141.201L238.293 140.684ZM238.366 141.704C238.75 142.043 239.164 142.362 239.577 142.674C239.992 142.988 240.402 143.291 240.791 143.606C241.571 144.237 242.224 144.883 242.586 145.654L243.129 145.4C242.708 144.501 241.965 143.784 241.169 143.14C240.769 142.817 240.347 142.504 239.939 142.195C239.528 141.885 239.128 141.576 238.763 141.254L238.366 141.704ZM242.586 145.654C242.682 145.86 242.757 146.064 242.832 146.283C242.906 146.498 242.982 146.735 243.077 146.983L243.638 146.769C243.548 146.534 243.478 146.316 243.399 146.088C243.322 145.863 243.239 145.635 243.129 145.4L242.586 145.654ZM243.634 146.76C243.642 146.778 243.628 146.752 243.65 146.63C243.67 146.524 243.707 146.395 243.751 146.246C243.793 146.103 243.842 145.94 243.876 145.789C243.909 145.642 243.937 145.471 243.916 145.314L243.321 145.394C243.327 145.44 243.321 145.525 243.291 145.658C243.262 145.785 243.22 145.924 243.176 146.076C243.133 146.22 243.087 146.378 243.06 146.52C243.037 146.647 243.013 146.832 243.081 146.992L243.634 146.76ZM243.914 145.301C243.818 144.766 243.765 144.228 243.755 143.688L243.155 143.698C243.165 144.27 243.221 144.841 243.323 145.407L243.914 145.301ZM243.755 143.701C243.789 142.379 243.666 141.058 243.39 139.755L242.803 139.88C243.07 141.137 243.188 142.411 243.155 143.685L243.755 143.701ZM243.113 140.117L245.45 139.988L245.417 139.388L243.08 139.518L243.113 140.117ZM245.138 139.633L242.965 151.389L243.555 151.498L245.728 139.743L245.138 139.633Z" fill="black" mask="url(#path-17-inside-3)"/>
<path d="M299.946 130.331L300.129 130.396L300.146 130.202C300.3 128.354 301.979 127.319 303.892 127.166C305.805 127.013 307.85 127.754 308.666 129.348C308.803 129.634 308.868 129.963 308.937 130.316C308.956 130.411 308.975 130.507 308.996 130.605C309.091 131.054 309.225 131.523 309.571 131.884C309.999 132.341 310.535 132.525 311.082 132.643C311.257 132.682 311.438 132.714 311.618 132.746C311.716 132.764 311.814 132.781 311.91 132.799C312.186 132.852 312.456 132.913 312.718 133.004L312.718 133.004L312.722 133.005C313.779 133.342 314.688 133.911 315.343 134.642C315.998 135.373 316.372 136.234 316.425 137.121C316.479 138.008 316.212 138.892 315.65 139.668C315.088 140.444 314.254 141.08 313.243 141.495L313.03 141.583L313.196 141.742C313.693 142.22 313.795 142.838 313.613 143.45C313.429 144.065 312.957 144.669 312.311 145.085C310.897 145.821 309.258 146.242 307.566 146.302L307.383 146.309L307.426 146.487C307.781 147.964 307.81 149.478 307.512 150.963C307.349 151.691 306.981 152.383 306.433 152.988C305.885 153.594 305.17 154.095 304.341 154.454C303.511 154.783 302.56 154.868 301.656 154.693C300.752 154.518 299.962 154.094 299.422 153.505L299.322 153.396L299.212 153.494C298.563 154.07 297.703 154.478 296.748 154.659C295.793 154.839 294.791 154.783 293.878 154.497C292.965 154.212 292.189 153.713 291.65 153.072C291.112 152.431 290.836 151.68 290.853 150.919L290.857 150.719L290.664 150.771C289.441 151.101 288.144 150.86 287.097 150.28C286.049 149.7 285.271 148.793 285.058 147.811C284.932 146.798 285.158 145.776 285.716 144.854C286.275 143.93 287.147 143.142 288.239 142.58L288.417 142.489L288.28 142.344C287.731 141.763 287.414 141.07 287.363 140.354C287.312 139.638 287.526 138.924 287.986 138.299C288.969 137.034 290.407 136.027 292.121 135.409C292.591 135.26 293.015 135.026 293.357 134.722L293.369 134.712L293.378 134.699C293.675 134.299 293.863 133.85 293.927 133.383C294.177 132.307 294.922 131.333 296.03 130.656C296.585 130.333 297.241 130.131 297.93 130.074C298.619 130.016 299.315 130.105 299.946 130.331Z" fill="white" stroke="black" stroke-width="0.3"/>
<mask id="path-20-inside-4" fill="white">
<path d="M296.724 153.19C296.753 152.266 297.107 151.367 297.746 150.595C298.204 150.194 298.744 149.858 299.344 149.6C300.324 149.085 301.374 148.658 302.474 148.329C303.587 147.999 304.803 147.966 305.941 148.233C304.474 149.021 302.572 149.099 301.039 149.825C299.293 150.683 297.84 151.872 296.811 153.285C295.268 155.88 294.638 159.116 293.551 161.858L290.29 170.205C289.203 173.138 287.594 176.148 286.866 179.159C286.768 179.582 284.692 180.024 283.605 177.428C286.334 173.103 288.801 168.735 291.094 164.289C293.051 160.508 294.866 156.676 296.366 152.758C297.211 150.944 297.833 149.07 298.224 147.161C298.463 145.223 296.268 143.017 294.388 141.971L293.985 141.754C293.746 141.85 293.855 142.144 293.985 142.325C295.279 143.882 297.148 145.232 297.637 147.066C297.757 147.541 297.779 148.043 297.887 148.528C297.822 148.216 298.442 147.403 298.463 146.971C298.47 146.392 298.525 145.814 298.626 145.24C298.909 143.897 299.04 142.537 299.018 141.175L301.463 141.331L296.855 153.259"/>
</mask>
<path d="M296.724 153.19C296.753 152.266 297.107 151.367 297.746 150.595C298.204 150.194 298.744 149.858 299.344 149.6C300.324 149.085 301.374 148.658 302.474 148.329C303.587 147.999 304.803 147.966 305.941 148.233C304.474 149.021 302.572 149.099 301.039 149.825C299.293 150.683 297.84 151.872 296.811 153.285C295.268 155.88 294.638 159.116 293.551 161.858L290.29 170.205C289.203 173.138 287.594 176.148 286.866 179.159C286.768 179.582 284.692 180.024 283.605 177.428C286.334 173.103 288.801 168.735 291.094 164.289C293.051 160.508 294.866 156.676 296.366 152.758C297.211 150.944 297.833 149.07 298.224 147.161C298.463 145.223 296.268 143.017 294.388 141.971L293.985 141.754C293.746 141.85 293.855 142.144 293.985 142.325C295.279 143.882 297.148 145.232 297.637 147.066C297.757 147.541 297.779 148.043 297.887 148.528C297.822 148.216 298.442 147.403 298.463 146.971C298.47 146.392 298.525 145.814 298.626 145.24C298.909 143.897 299.04 142.537 299.018 141.175L301.463 141.331L296.855 153.259" fill="white"/>
<path d="M297.746 150.595L297.548 150.369L297.53 150.385L297.515 150.404L297.746 150.595ZM299.344 149.6L299.462 149.876L299.473 149.871L299.483 149.866L299.344 149.6ZM302.474 148.329L302.389 148.041L302.388 148.041L302.474 148.329ZM305.941 148.233L306.083 148.498L306.782 148.123L306.01 147.941L305.941 148.233ZM301.039 149.825L300.911 149.554L300.907 149.556L301.039 149.825ZM296.811 153.285L296.569 153.109L296.561 153.12L296.553 153.132L296.811 153.285ZM293.551 161.858L293.272 161.747L293.271 161.749L293.551 161.858ZM290.29 170.205L290.01 170.096L290.009 170.101L290.29 170.205ZM286.866 179.159L286.575 179.088L286.574 179.091L286.866 179.159ZM283.605 177.428L283.352 177.268L283.268 177.4L283.329 177.544L283.605 177.428ZM291.094 164.289L290.828 164.151L290.828 164.151L291.094 164.289ZM296.366 152.758L296.094 152.631L296.089 152.641L296.086 152.65L296.366 152.758ZM298.224 147.161L298.518 147.221L298.521 147.209L298.522 147.198L298.224 147.161ZM294.388 141.971L294.533 141.708L294.53 141.706L294.388 141.971ZM293.985 141.754L294.127 141.49L294.004 141.424L293.874 141.476L293.985 141.754ZM293.985 142.325L293.742 142.5L293.748 142.509L293.755 142.517L293.985 142.325ZM297.637 147.066L297.928 146.993L297.927 146.988L297.637 147.066ZM297.887 148.528L297.595 148.593L298.181 148.466L297.887 148.528ZM298.463 146.971L298.763 146.986L298.763 146.974L298.463 146.971ZM298.626 145.24L298.333 145.179L298.331 145.188L298.626 145.24ZM299.018 141.175L299.037 140.875L298.713 140.855L298.718 141.18L299.018 141.175ZM301.463 141.331L301.743 141.439L301.89 141.057L301.482 141.031L301.463 141.331ZM297.024 153.199C297.051 152.348 297.377 151.511 297.977 150.786L297.515 150.404C296.837 151.222 296.456 152.184 296.425 153.181L297.024 153.199ZM297.944 150.821C298.377 150.442 298.89 150.122 299.462 149.876L299.225 149.325C298.599 149.594 298.032 149.946 297.548 150.369L297.944 150.821ZM299.483 149.866C300.446 149.36 301.478 148.94 302.56 148.616L302.388 148.041C301.27 148.376 300.202 148.81 299.204 149.335L299.483 149.866ZM302.559 148.616C303.621 148.302 304.785 148.27 305.873 148.526L306.01 147.941C304.821 147.662 303.552 147.697 302.389 148.041L302.559 148.616ZM305.799 147.969C305.104 148.342 304.298 148.551 303.443 148.761C302.602 148.967 301.71 149.175 300.911 149.554L301.168 150.096C301.901 149.749 302.727 149.554 303.586 149.343C304.432 149.136 305.311 148.912 306.083 148.498L305.799 147.969ZM300.907 149.556C299.122 150.433 297.629 151.651 296.569 153.109L297.054 153.462C298.051 152.092 299.463 150.933 301.172 150.094L300.907 149.556ZM296.553 153.132C295.764 154.459 295.213 155.942 294.725 157.423C294.233 158.914 293.811 160.387 293.272 161.747L293.83 161.968C294.377 160.586 294.813 159.071 295.295 157.61C295.78 156.139 296.315 154.707 297.069 153.439L296.553 153.132ZM293.271 161.749L290.01 170.096L290.569 170.315L293.83 161.967L293.271 161.749ZM290.009 170.101C289.468 171.559 288.801 173.03 288.167 174.536C287.537 176.035 286.945 177.558 286.575 179.088L287.158 179.229C287.516 177.748 288.092 176.262 288.72 174.769C289.345 173.284 290.025 171.784 290.571 170.31L290.009 170.101ZM286.574 179.091C286.586 179.041 286.611 179.038 286.571 179.066C286.538 179.089 286.479 179.119 286.391 179.142C286.216 179.189 285.964 179.203 285.677 179.134C285.116 178.999 284.394 178.536 283.882 177.313L283.329 177.544C283.903 178.916 284.763 179.53 285.536 179.717C285.916 179.809 286.27 179.796 286.546 179.722C286.683 179.685 286.811 179.631 286.914 179.558C287.011 179.491 287.122 179.382 287.158 179.226L286.574 179.091ZM283.859 177.589C286.592 173.255 289.064 168.879 291.361 164.426L290.828 164.151C288.538 168.591 286.075 172.951 283.352 177.268L283.859 177.589ZM291.361 164.426C293.32 160.64 295.141 156.798 296.646 152.865L296.086 152.65C294.591 156.555 292.781 160.376 290.828 164.151L291.361 164.426ZM296.638 152.884C297.492 151.05 298.122 149.154 298.518 147.221L297.93 147.101C297.544 148.986 296.929 150.838 296.094 152.631L296.638 152.884ZM298.522 147.198C298.657 146.108 298.106 144.99 297.333 144.042C296.553 143.086 295.504 142.249 294.533 141.709L294.242 142.233C295.152 142.739 296.14 143.529 296.868 144.421C297.603 145.322 298.031 146.276 297.927 147.124L298.522 147.198ZM294.53 141.706L294.127 141.49L293.843 142.019L294.245 142.235L294.53 141.706ZM293.874 141.476C293.754 141.524 293.654 141.608 293.597 141.726C293.542 141.838 293.538 141.953 293.549 142.045C293.571 142.222 293.661 142.388 293.742 142.5L294.229 142.15C294.207 142.119 294.186 142.084 294.17 142.049C294.154 142.013 294.146 141.986 294.144 141.97C294.142 141.954 294.148 141.966 294.136 141.99C294.13 142.003 294.121 142.014 294.111 142.023C294.101 142.031 294.095 142.034 294.096 142.033L293.874 141.476ZM293.755 142.517C294.086 142.916 294.453 143.3 294.818 143.674C295.186 144.052 295.55 144.418 295.891 144.793C296.573 145.546 297.122 146.298 297.348 147.143L297.927 146.988C297.664 146 297.033 145.16 296.335 144.39C295.985 144.004 295.609 143.627 295.248 143.256C294.883 142.882 294.531 142.513 294.216 142.134L293.755 142.517ZM297.346 147.139C297.402 147.359 297.435 147.588 297.469 147.835C297.503 148.076 297.537 148.336 297.595 148.593L298.18 148.462C298.129 148.234 298.098 148.002 298.064 147.752C298.03 147.508 297.993 147.248 297.928 146.993L297.346 147.139ZM298.181 148.466C298.185 148.483 298.18 148.481 298.187 148.449C298.193 148.419 298.205 148.377 298.226 148.322C298.27 148.212 298.335 148.08 298.411 147.93C298.484 147.785 298.566 147.623 298.631 147.47C298.694 147.322 298.755 147.149 298.763 146.986L298.164 146.955C298.161 147.008 298.136 147.099 298.079 147.236C298.023 147.366 297.951 147.508 297.875 147.659C297.802 147.805 297.723 147.962 297.667 148.105C297.639 148.177 297.614 148.254 297.599 148.329C297.584 148.403 297.574 148.494 297.594 148.589L298.181 148.466ZM298.763 146.974C298.77 146.412 298.823 145.85 298.922 145.293L298.331 145.188C298.227 145.777 298.171 146.372 298.163 146.967L298.763 146.974ZM298.92 145.302C299.207 143.937 299.34 142.554 299.318 141.17L298.718 141.18C298.739 142.519 298.611 143.857 298.333 145.179L298.92 145.302ZM298.999 141.474L301.444 141.63L301.482 141.031L299.037 140.875L298.999 141.474ZM301.183 141.222L296.575 153.151L297.135 153.367L301.743 141.439L301.183 141.222Z" fill="black" mask="url(#path-20-inside-4)"/>
<path d="M126.667 130.339L126.909 130.321L126.786 130.113C126.254 129.208 126.227 128.358 126.528 127.624C126.831 126.884 127.474 126.247 128.311 125.792C129.988 124.881 132.384 124.736 134.182 125.928L134.182 125.928C134.504 126.141 134.788 126.432 135.088 126.74C135.163 126.816 135.238 126.893 135.315 126.97C135.695 127.351 136.115 127.727 136.649 127.917C137.325 128.163 137.923 128.124 138.507 128.016C138.707 127.979 138.902 127.935 139.096 127.89C139.479 127.804 139.861 127.717 140.287 127.683L140.29 127.683C141.494 127.567 142.713 127.729 143.802 128.148C144.892 128.568 145.802 129.226 146.428 130.04C147.053 130.853 147.369 131.788 147.343 132.734C147.317 133.679 146.95 134.603 146.28 135.395L146.134 135.567L146.35 135.635C147.926 136.128 148.388 137.861 147.722 139.125C146.872 140.379 145.616 141.435 144.079 142.182L143.885 142.276L144.041 142.425C145.332 143.658 146.336 145.063 147.007 146.572C147.325 147.316 147.429 148.106 147.313 148.884C147.197 149.662 146.863 150.412 146.334 151.079C145.78 151.717 144.953 152.183 143.998 152.386C143.041 152.59 142.025 152.515 141.133 152.176L140.979 152.118L140.935 152.276C140.713 153.078 140.183 153.812 139.409 154.374C138.636 154.936 137.66 155.297 136.613 155.403C135.567 155.51 134.506 155.356 133.576 154.965C132.645 154.574 131.896 153.966 131.424 153.23L131.331 153.086L131.201 153.197C130.268 153.989 128.902 154.289 127.543 154.171C126.187 154.053 124.866 153.522 124.027 152.69C123.246 151.792 122.796 150.743 122.722 149.661C122.647 148.577 122.952 147.495 123.607 146.536L123.716 146.376L123.534 146.311C122.634 145.985 121.882 145.457 121.367 144.797C120.854 144.138 120.6 143.377 120.633 142.61C120.738 141.04 121.428 139.526 122.623 138.261C122.961 137.926 123.208 137.534 123.343 137.112L123.349 137.093L123.35 137.072C123.372 136.569 123.255 136.07 123.01 135.61C122.564 134.498 122.646 133.296 123.243 132.228C123.553 131.709 124.029 131.26 124.63 130.927C125.231 130.594 125.933 130.39 126.667 130.339Z" fill="white" stroke="black" stroke-width="0.3"/>
<mask id="path-23-inside-5" fill="white">
<path d="M138.373 152.974C137.787 152.09 137.534 151.09 137.645 150.094C137.814 149.537 138.1 149.008 138.493 148.528C139.074 147.644 139.781 146.817 140.601 146.062C141.426 145.306 142.535 144.781 143.764 144.566C142.895 145.889 141.188 146.755 140.21 148.026C139.139 149.542 138.553 151.244 138.504 152.983C138.721 156.01 140.188 159.324 140.96 162.308C141.732 165.292 142.525 168.363 143.319 171.399C144.145 174.591 144.612 178.034 145.862 181.14C146.047 181.572 144.384 182.87 141.677 180.811C141.471 175.707 140.938 170.595 140.232 165.526C139.623 161.201 138.862 156.875 137.743 152.628C137.364 150.594 136.745 148.593 135.895 146.651C134.873 144.748 131.406 143.588 128.961 143.346H128.45C128.287 143.528 128.58 143.753 128.83 143.865C131.004 144.791 133.656 145.293 135.276 146.798C135.7 147.196 136.047 147.663 136.449 148.061C136.189 147.801 136.243 146.789 135.993 146.383C135.625 145.823 135.302 145.245 135.026 144.652C134.429 143.284 133.68 141.961 132.787 140.699L135.167 139.834C135.167 139.834 136.656 145.604 138.515 152.81"/>
</mask>
<path d="M138.373 152.974C137.787 152.09 137.534 151.09 137.645 150.094C137.814 149.537 138.1 149.008 138.493 148.528C139.074 147.644 139.781 146.817 140.601 146.062C141.426 145.306 142.535 144.781 143.764 144.566C142.895 145.889 141.188 146.755 140.21 148.026C139.139 149.542 138.553 151.244 138.504 152.983C138.721 156.01 140.188 159.324 140.96 162.308C141.732 165.292 142.525 168.363 143.319 171.399C144.145 174.591 144.612 178.034 145.862 181.14C146.047 181.572 144.384 182.87 141.677 180.811C141.471 175.707 140.938 170.595 140.232 165.526C139.623 161.201 138.862 156.875 137.743 152.628C137.364 150.594 136.745 148.593 135.895 146.651C134.873 144.748 131.406 143.588 128.961 143.346H128.45C128.287 143.528 128.58 143.753 128.83 143.865C131.004 144.791 133.656 145.293 135.276 146.798C135.7 147.196 136.047 147.663 136.449 148.061C136.189 147.801 136.243 146.789 135.993 146.383C135.625 145.823 135.302 145.245 135.026 144.652C134.429 143.284 133.68 141.961 132.787 140.699L135.167 139.834C135.167 139.834 136.656 145.604 138.515 152.81" fill="white"/>
<path d="M137.645 150.094L137.358 150.007L137.35 150.033L137.347 150.06L137.645 150.094ZM138.493 148.528L138.725 148.718L138.735 148.706L138.744 148.693L138.493 148.528ZM140.601 146.062L140.399 145.841L140.398 145.842L140.601 146.062ZM143.764 144.566L144.015 144.731L144.396 144.151L143.713 144.27L143.764 144.566ZM140.21 148.026L139.972 147.843L139.965 147.853L140.21 148.026ZM138.504 152.983L138.204 152.974L138.203 152.989L138.204 153.004L138.504 152.983ZM143.319 171.399L143.609 171.324L143.609 171.324L143.319 171.399ZM145.862 181.14L145.584 181.252L145.586 181.258L145.862 181.14ZM141.677 180.811L141.378 180.823L141.383 180.964L141.496 181.05L141.677 180.811ZM140.232 165.526L140.529 165.484L140.529 165.484L140.232 165.526ZM137.743 152.628L137.448 152.683L137.45 152.694L137.453 152.705L137.743 152.628ZM135.895 146.651L136.17 146.53L136.165 146.519L136.159 146.509L135.895 146.651ZM128.961 143.346L128.99 143.048L128.976 143.046H128.961V143.346ZM128.45 143.346V143.046H128.316L128.227 143.146L128.45 143.346ZM128.83 143.865L128.707 144.139L128.713 144.141L128.83 143.865ZM135.276 146.798L135.481 146.579L135.48 146.578L135.276 146.798ZM136.449 148.061L136.238 148.274L136.661 147.848L136.449 148.061ZM135.993 146.383L136.249 146.225L136.244 146.218L135.993 146.383ZM135.026 144.652L134.751 144.772L134.754 144.779L135.026 144.652ZM132.787 140.699L132.684 140.417L132.315 140.552L132.542 140.873L132.787 140.699ZM135.167 139.834L135.457 139.759L135.375 139.439L135.064 139.552L135.167 139.834ZM138.623 152.808C138.073 151.979 137.841 151.049 137.943 150.127L137.347 150.06C137.228 151.131 137.501 152.201 138.123 153.14L138.623 152.808ZM137.932 150.181C138.089 149.664 138.356 149.169 138.725 148.718L138.261 148.338C137.845 148.846 137.539 149.41 137.358 150.007L137.932 150.181ZM138.744 148.693C139.31 147.83 140.002 147.022 140.805 146.283L140.398 145.842C139.561 146.612 138.837 147.458 138.242 148.363L138.744 148.693ZM140.804 146.284C141.582 145.57 142.637 145.068 143.816 144.862L143.713 144.27C142.434 144.494 141.27 145.042 140.399 145.841L140.804 146.284ZM143.514 144.401C143.108 145.019 142.499 145.54 141.837 146.084C141.19 146.616 140.487 147.174 139.972 147.843L140.448 148.209C140.912 147.606 141.551 147.096 142.219 146.547C142.872 146.01 143.552 145.436 144.015 144.731L143.514 144.401ZM139.965 147.853C138.863 149.414 138.255 151.173 138.204 152.974L138.804 152.991C138.851 151.316 139.416 149.67 140.455 148.199L139.965 147.853ZM138.204 153.004C138.316 154.554 138.746 156.167 139.238 157.751C139.733 159.347 140.286 160.899 140.67 162.383L141.251 162.233C140.863 160.732 140.296 159.135 139.811 157.573C139.321 155.997 138.909 154.439 138.803 152.961L138.204 153.004ZM140.67 162.383C141.441 165.367 142.235 168.439 143.028 171.475L143.609 171.324C142.816 168.288 142.022 165.217 141.251 162.233L140.67 162.383ZM143.028 171.475C143.44 173.066 143.759 174.707 144.139 176.369C144.516 178.021 144.95 179.677 145.584 181.252L146.14 181.028C145.524 179.497 145.099 177.878 144.724 176.235C144.351 174.601 144.023 172.925 143.609 171.324L143.028 171.475ZM145.586 181.258C145.565 181.208 145.585 181.184 145.573 181.21C145.562 181.234 145.532 181.279 145.469 181.334C145.345 181.443 145.124 181.561 144.805 181.614C144.176 181.718 143.165 181.566 141.859 180.572L141.496 181.05C142.896 182.115 144.07 182.344 144.903 182.206C145.315 182.137 145.644 181.979 145.864 181.786C145.973 181.691 146.064 181.58 146.119 181.458C146.174 181.339 146.205 181.18 146.138 181.022L145.586 181.258ZM141.977 180.799C141.77 175.683 141.236 170.56 140.529 165.484L139.935 165.567C140.64 170.63 141.172 175.732 141.378 180.823L141.977 180.799ZM140.529 165.484C139.919 161.153 139.157 156.815 138.033 152.552L137.453 152.705C138.568 156.936 139.327 161.249 139.935 165.568L140.529 165.484ZM138.038 152.573C137.654 150.516 137.029 148.493 136.17 146.53L135.62 146.771C136.461 148.693 137.073 150.672 137.448 152.683L138.038 152.573ZM136.159 146.509C135.6 145.466 134.399 144.666 133.08 144.1C131.75 143.529 130.241 143.172 128.99 143.048L128.931 143.645C130.126 143.763 131.574 144.106 132.844 144.651C134.125 145.201 135.169 145.932 135.631 146.793L136.159 146.509ZM128.961 143.046H128.45V143.646H128.961V143.046ZM128.227 143.146C128.128 143.256 128.085 143.396 128.11 143.54C128.132 143.667 128.202 143.766 128.263 143.833C128.386 143.969 128.563 144.074 128.707 144.139L128.953 143.592C128.848 143.544 128.753 143.481 128.708 143.43C128.685 143.405 128.696 143.407 128.701 143.436C128.704 143.454 128.704 143.477 128.697 143.502C128.689 143.526 128.678 143.541 128.673 143.547L128.227 143.146ZM128.713 144.141C129.801 144.605 131.053 144.979 132.155 145.395C133.284 145.821 134.306 146.306 135.071 147.018L135.48 146.578C134.626 145.784 133.512 145.266 132.367 144.834C131.194 144.391 130.034 144.052 128.948 143.589L128.713 144.141ZM135.07 147.017C135.271 147.205 135.455 147.411 135.645 147.627C135.833 147.841 136.028 148.066 136.238 148.274L136.66 147.847C136.469 147.658 136.289 147.45 136.096 147.231C135.906 147.015 135.705 146.789 135.481 146.579L135.07 147.017ZM136.661 147.848C136.663 147.85 136.654 147.841 136.639 147.808C136.624 147.775 136.609 147.731 136.594 147.671C136.563 147.551 136.539 147.403 136.514 147.232C136.489 147.068 136.463 146.884 136.426 146.716C136.39 146.551 136.338 146.371 136.249 146.225L135.737 146.54C135.773 146.597 135.808 146.696 135.84 146.844C135.871 146.988 135.895 147.149 135.92 147.321C135.945 147.487 135.973 147.666 136.013 147.821C136.05 147.965 136.111 148.147 136.238 148.273L136.661 147.848ZM136.244 146.218C135.883 145.67 135.567 145.105 135.298 144.526L134.754 144.779C135.036 145.385 135.366 145.976 135.742 146.547L136.244 146.218ZM135.301 144.533C134.696 143.145 133.936 141.804 133.031 140.526L132.542 140.873C133.424 142.118 134.163 143.423 134.751 144.772L135.301 144.533ZM132.889 140.981L135.269 140.116L135.064 139.552L132.684 140.417L132.889 140.981ZM135.167 139.834C134.876 139.909 134.876 139.909 134.876 139.909C134.876 139.909 134.877 139.909 134.877 139.909C134.877 139.91 134.877 139.91 134.877 139.91C134.877 139.911 134.877 139.912 134.878 139.913C134.878 139.916 134.879 139.92 134.881 139.926C134.884 139.937 134.888 139.954 134.894 139.976C134.905 140.02 134.922 140.085 134.944 140.171C134.988 140.343 135.054 140.597 135.138 140.923C135.307 141.577 135.551 142.523 135.853 143.695C136.458 146.038 137.295 149.282 138.224 152.885L138.805 152.735C137.876 149.132 137.039 145.888 136.434 143.545C136.132 142.373 135.888 141.427 135.719 140.773C135.635 140.447 135.569 140.193 135.525 140.021C135.503 139.935 135.486 139.87 135.475 139.826C135.469 139.804 135.465 139.787 135.462 139.776C135.46 139.77 135.459 139.766 135.459 139.763C135.458 139.762 135.458 139.761 135.458 139.76C135.458 139.76 135.458 139.76 135.457 139.76C135.457 139.759 135.457 139.759 135.457 139.759C135.457 139.759 135.457 139.759 135.167 139.834Z" fill="black" mask="url(#path-23-inside-5)"/>
<path d="M184.295 116.686C185.382 115.198 187.001 113.909 187.827 112.291C188.548 110.583 188.832 108.777 188.664 106.98C189.034 108.618 189.176 110.283 189.088 111.945C189.912 111.741 190.786 111.695 191.636 111.812C192.487 111.93 193.29 112.207 193.979 112.62C191.805 112.776 189.545 112.958 187.773 113.961C185.599 115.198 184.665 117.421 184.36 119.532C184.056 121.643 184.23 123.805 183.643 125.89C183.643 124.333 182.665 122.845 182.447 121.357C182.23 119.869 183.328 117.958 184.295 116.686Z" fill="#3E3E54"/>
<path d="M172.383 108.979C171.905 108.184 171.524 107.249 170.535 106.843L174.133 112.327L168.492 113.754C168.003 113.875 167.405 114.187 167.601 114.559C169.155 114.671 170.655 114.126 172.198 113.953C173.915 113.793 175.651 114.079 177.147 114.768C178.644 115.457 179.82 116.512 180.502 117.777C180.361 117.5 180.828 116.47 180.828 116.107C180.877 115.58 180.749 115.052 180.459 114.576C179.97 114.014 178.807 113.772 178.089 113.417C175.697 112.398 173.718 110.859 172.383 108.979Z" fill="#3E3E54"/>
<path d="M155.536 133.331L155.78 133.314L155.653 133.104C155.11 132.209 155.071 131.365 155.359 130.633C155.649 129.896 156.279 129.257 157.102 128.797C158.752 127.876 161.123 127.708 162.91 128.87C163.231 129.079 163.516 129.366 163.818 129.669C163.893 129.745 163.97 129.822 164.048 129.899C164.432 130.276 164.854 130.647 165.388 130.832L165.389 130.832C166.065 131.065 166.657 131.02 167.235 130.906C167.434 130.867 167.626 130.821 167.819 130.775C168.198 130.685 168.579 130.594 169.005 130.554L169.007 130.554C170.203 130.427 171.418 130.576 172.508 130.982C173.598 131.389 174.512 132.035 175.146 132.839C175.78 133.642 176.107 134.569 176.094 135.51C176.08 136.45 175.728 137.372 175.071 138.164L174.928 138.337L175.143 138.403C176.72 138.889 177.201 140.606 176.557 141.869C175.726 143.119 174.493 144.177 172.979 144.933L172.786 145.03L172.943 145.177C174.245 146.395 175.263 147.785 175.952 149.282C176.279 150.016 176.394 150.797 176.291 151.57C176.187 152.342 175.868 153.088 175.353 153.753C174.811 154.393 173.997 154.865 173.049 155.077C172.101 155.29 171.089 155.227 170.195 154.901L170.043 154.845L169.999 155.001C169.779 155.791 169.258 156.515 168.5 157.072C167.741 157.63 166.783 157.991 165.753 158.105C164.723 158.219 163.675 158.08 162.749 157.707C161.824 157.334 161.07 156.747 160.583 156.03L160.487 155.888L160.359 156.003C159.475 156.797 158.125 157.115 156.765 157.016C155.409 156.916 154.075 156.402 153.232 155.57C152.445 154.681 151.985 153.642 151.896 152.566C151.807 151.489 152.092 150.411 152.726 149.449L152.832 149.288L152.65 149.225C151.754 148.913 151 148.398 150.48 147.749C149.961 147.102 149.698 146.351 149.718 145.592C149.793 144.029 150.453 142.514 151.622 141.244C151.956 140.908 152.196 140.516 152.321 140.093L152.326 140.075L152.327 140.057C152.349 139.559 152.232 139.064 151.986 138.609C151.514 137.507 151.574 136.306 152.156 135.236C152.453 134.716 152.92 134.263 153.513 133.927C154.107 133.591 154.805 133.385 155.536 133.331Z" fill="white" stroke="black" stroke-width="0.3"/>
<path d="M171.333 183.31L171.332 183.296C171.329 183.24 171.324 183.156 171.317 183.047C171.303 182.829 171.281 182.507 171.251 182.094C171.192 181.269 171.097 180.079 170.96 178.618C170.685 175.696 170.237 171.692 169.546 167.362C168.854 163.034 167.919 158.377 166.668 154.152C165.443 150.015 163.912 146.28 162.004 143.669L164.021 142.93L164.102 143.227L164.452 144.513C164.755 145.622 165.187 147.206 165.706 149.108C166.743 152.912 168.129 157.989 169.519 163.078C170.91 168.167 172.306 173.269 173.364 177.124C173.893 179.051 174.338 180.667 174.655 181.814C174.814 182.387 174.941 182.844 175.031 183.163C175.076 183.323 175.112 183.448 175.138 183.538C175.162 183.621 175.18 183.683 175.189 183.705C175.189 183.705 175.189 183.705 175.189 183.705C175.189 183.707 175.194 183.727 175.173 183.773C175.15 183.821 175.105 183.883 175.032 183.948C174.887 184.077 174.645 184.208 174.31 184.27C173.655 184.392 172.64 184.25 171.333 183.31Z" fill="white" stroke="black" stroke-width="0.3"/>
<path d="M168.426 152.135C169.233 151.273 169.96 150.365 170.6 149.419C171.043 148.358 171.216 147.238 171.111 146.123C171.339 147.139 171.426 148.172 171.372 149.203C171.882 149.077 172.423 149.049 172.95 149.121C173.478 149.193 173.976 149.363 174.404 149.618C173.048 149.63 171.72 149.929 170.556 150.483C169.925 150.914 169.411 151.443 169.046 152.038C168.682 152.633 168.474 153.282 168.437 153.943C168.38 155.263 168.235 156.58 168.002 157.888C167.824 156.94 167.577 156.001 167.263 155.076C167.268 154.025 167.673 152.999 168.426 152.135Z" fill="white"/>
<path d="M161.046 147.36C160.742 146.867 160.513 146.279 159.894 146.037L162.068 149.437L158.579 150.302C158.274 150.38 157.894 150.578 158.024 150.803C158.988 150.765 159.943 150.64 160.872 150.431C161.937 150.329 163.016 150.505 163.945 150.933C164.874 151.36 165.603 152.016 166.024 152.802C165.937 152.629 166.22 151.989 166.22 151.764C166.254 151.436 166.175 151.107 165.991 150.812C165.687 150.466 164.97 150.319 164.524 150.094C163.068 149.458 161.864 148.511 161.046 147.36Z" fill="white"/>
<path d="M244.331 68.4935C243.036 63.5418 238.554 59.3801 233.11 56.8385C227.655 54.2916 221.308 53.2187 215.022 52.8545C219.495 47.8607 222.032 41.9238 222.304 35.7808C222.574 29.706 220.617 23.7069 216.684 18.5131C216.793 18.5239 216.914 18.5263 217.043 18.5219C217.457 18.5076 217.989 18.4221 218.595 18.2874C219.81 18.0176 221.351 17.5443 222.898 17.0188C225.993 15.9677 229.13 14.7009 229.771 14.4131L229.772 14.4129C234.067 12.4645 237.927 9.95951 241.19 6.99998C242.057 6.21437 242.796 5.36659 243.518 4.51971C243.593 4.43144 243.668 4.34321 243.743 4.25505C244.388 3.49553 245.029 2.74217 245.749 2.03025L245.75 2.02984C246.146 1.63511 246.453 1.30236 246.699 1.03437C246.81 0.914056 246.909 0.806794 246.998 0.712833C247.295 0.401575 247.483 0.244371 247.684 0.182131C247.88 0.121361 248.115 0.143807 248.525 0.274622C248.819 0.368423 249.186 0.511386 249.672 0.701206C249.864 0.77607 250.075 0.858222 250.307 0.947521C252.175 1.67141 253.837 2.54087 255.496 3.40834C256.029 3.68719 256.562 3.96583 257.101 4.23937C259.314 5.36198 261.621 6.39182 264.461 6.96668L264.462 6.96684C271.107 8.27198 278.662 7.55309 284.017 4.12873C283.32 8.7447 284.193 13.4259 286.547 17.6813C288.919 21.9726 292.706 25.666 297.497 28.3736C294.849 29.9994 292.143 31.7241 289.854 33.6718C287.502 35.673 285.579 37.9184 284.61 40.5474L284.61 40.5479C283.299 44.1387 283.98 47.7671 285.11 51.391C285.449 52.4771 285.83 53.5702 286.211 54.6627C286.465 55.3891 286.718 56.1152 286.959 56.8389C287.532 58.5608 288.037 60.281 288.318 62.0012C281.314 58.4609 272.885 57.1607 264.724 58.3649C256.566 59.5687 249.28 63.1864 244.331 68.4935Z" fill="white" stroke="black" stroke-width="0.3"/>
<path d="M283.585 31.2553C283.585 42.7038 271.91 52.0393 257.432 52.0393C242.955 52.0393 231.279 42.7038 231.279 31.2553C231.279 19.8067 242.955 10.4713 257.432 10.4713C271.91 10.4713 283.585 19.8067 283.585 31.2553Z" fill="white" stroke="black" stroke-width="0.3"/>
</svg>
