<svg width="16" height="16" viewBox="0 0 16 16" fill="none" xmlns="http://www.w3.org/2000/svg">
<path d="M2.34375 15.8172H13.6562C14.9486 15.8172 16 14.8016 16 13.5532V2.62599C16 1.37765 14.9486 0.362061 13.6562 0.362061H2.34375C1.05139 0.362061 0 1.37765 0 2.62599V13.5532C0 14.8016 1.05139 15.8172 2.34375 15.8172ZM0.9375 2.62599C0.9375 1.87701 1.56836 1.26763 2.34375 1.26763H13.6562C14.4316 1.26763 15.0625 1.87701 15.0625 2.62599V13.5532C15.0625 14.3022 14.4316 14.9116 13.6562 14.9116H2.34375C1.56836 14.9116 0.9375 14.3022 0.9375 13.5532V2.62599Z" fill="#F5F5F5"/>
<path d="M8.57178 11.4014C10.7773 11.4014 12.5718 9.66809 12.5718 7.53772C12.5718 5.40735 10.7773 3.67407 8.57178 3.67407C6.36622 3.67407 4.57178 5.40735 4.57178 7.53772C4.57178 9.66809 6.36622 11.4014 8.57178 11.4014ZM8.57178 4.53266C10.2873 4.53266 11.6829 5.88069 11.6829 7.53772C11.6829 9.19474 10.2873 10.5428 8.57178 10.5428C6.85627 10.5428 5.46067 9.19474 5.46067 7.53772C5.46067 5.88069 6.85627 4.53266 8.57178 4.53266Z" fill="#F5F5F5"/>
<path d="M13.1432 3.67345C13.4583 3.67345 13.7146 3.4259 13.7146 3.12164C13.7146 2.81737 13.4583 2.56982 13.1432 2.56982C12.8281 2.56982 12.5718 2.81737 12.5718 3.12164C12.5718 3.4259 12.8281 3.67345 13.1432 3.67345ZM13.1432 2.9377C13.2482 2.9377 13.3337 3.02023 13.3337 3.12164C13.3337 3.22304 13.2482 3.30558 13.1432 3.30558C13.0382 3.30558 12.9527 3.22304 12.9527 3.12164C12.9527 3.02023 13.0382 2.9377 13.1432 2.9377Z" fill="#F5F5F5"/>
</svg>
