<svg width="119" height="50" viewBox="0 0 119 50" fill="none" xmlns="http://www.w3.org/2000/svg">
<path d="M19.328 9.576C19.328 10.7707 19.4347 11.9867 19.648 13.224C19.9467 14.9733 20.3733 15.848 20.928 15.848C23.1467 15.848 24.256 14.248 24.256 11.048C24.256 10.0667 23.936 9.17066 23.296 8.36C22.6987 7.50666 21.9307 7.08 20.992 7.08C19.8827 7.08 19.328 7.912 19.328 9.576ZM22.464 22.376C21.2693 22.376 20.6507 22.824 20.608 23.72L20.352 28.52C20.1387 31.4213 20.8853 32.872 22.592 32.872C25.2373 32.872 26.56 31.1867 26.56 27.816C26.56 24.1893 25.1947 22.376 22.464 22.376ZM3.648 4.968C3.776 2.06666 8 0.615997 16.32 0.615997C17.2587 0.615997 18.3893 0.63733 19.712 0.679996C21.0773 0.722665 21.9093 0.743999 22.208 0.743999C25.6213 0.743999 28.5013 1.384 30.848 2.664C33.8347 4.28533 35.328 6.65333 35.328 9.768C35.328 11.4747 34.9013 12.968 34.048 14.248C33.2373 15.4853 32.384 16.7227 31.488 17.96C34.048 18.8133 36.2667 20.392 38.144 22.696C40.6187 25.6827 41.856 29.3093 41.856 33.576C41.856 44.072 34.7733 49.32 20.608 49.32C14.848 49.32 11.0933 49.2133 9.344 49C3.79733 48.3173 0.896 46.76 0.64 44.328C0.597333 43.9013 0.576 43.5173 0.576 43.176C0.576 41.768 1.19467 40.5093 2.432 39.4C3.84 38.1627 4.736 36.5627 5.12 34.6C5.76 31.6133 6.42133 28.648 7.104 25.704C7.82933 22.12 8.21333 19.0907 8.256 16.616C8.256 13.5013 7.76533 11.112 6.784 9.448L6.528 9.32C5.93067 8.808 5.184 8.168 4.288 7.4C3.81867 6.888 3.60533 6.07733 3.648 4.968ZM48.3255 13.096C48.0695 10.8773 47.5575 9.46933 46.7895 8.872C46.4055 8.65866 45.8722 8.33867 45.1895 7.912C44.6775 7.4 44.4215 6.67466 44.4215 5.736C44.4215 3.98667 45.5308 2.68533 47.7495 1.832C49.5842 1.10667 51.8455 0.765333 54.5335 0.807999C55.0455 0.807999 55.8135 0.850665 56.8375 0.935997C57.9042 1.02133 58.7148 1.064 59.2695 1.064C60.7202 1.064 63.0882 0.957333 66.3735 0.743999C69.6588 0.530664 71.9842 0.423996 73.3495 0.423996C75.1842 0.423996 76.6135 1.576 77.6375 3.88C78.4055 5.672 78.7895 7.61333 78.7895 9.704C78.7895 11.0267 78.5335 12.136 78.0215 13.032C77.3388 14.1413 76.4002 14.696 75.2055 14.696C74.0535 14.696 73.0722 14.1627 72.2615 13.096C71.0668 11.5173 70.1495 10.5147 69.5095 10.088C67.9308 8.97867 65.6055 8.424 62.5335 8.424C61.6375 8.424 61.1682 8.424 61.1255 8.424C60.6988 8.59466 60.4002 9.10666 60.2295 9.96C60.1442 10.2587 60.1015 10.5573 60.1015 10.856C60.1015 12.264 60.8055 13.416 62.2135 14.312C63.4508 15.08 64.9228 15.464 66.6295 15.464C66.9708 15.464 67.3762 15.2293 67.8455 14.76C68.3575 14.2907 68.7842 14.056 69.1255 14.056C69.7655 14.056 70.0855 14.5253 70.0855 15.464C70.0855 16.9573 69.8935 18.3867 69.5095 19.752C68.9548 21.672 68.1442 22.632 67.0775 22.632C66.3948 22.632 65.7335 22.0987 65.0935 21.032C64.4962 19.9653 63.6002 19.432 62.4055 19.432C61.0402 19.432 60.3575 20.5627 60.3575 22.824C60.3575 28.1573 63.4508 30.824 69.6375 30.824C69.8935 30.824 70.2988 30.76 70.8535 30.632C71.4082 30.504 71.8348 30.4827 72.1335 30.568C72.4322 30.6107 72.6882 30.632 72.9015 30.632C73.9682 30.632 74.8428 30.12 75.5255 29.096C76.2508 28.072 76.8268 27.56 77.2535 27.56C77.8935 27.56 78.4482 27.9867 78.9175 28.84C79.3868 29.6933 79.6215 30.4827 79.6215 31.208C79.6215 31.6347 79.6642 32.744 79.7495 34.536C79.8775 36.2853 79.9415 37.736 79.9415 38.888C79.9415 44.0933 78.8748 47.464 76.7415 49C75.9308 49.5547 73.2215 49.832 68.6135 49.832C67.3335 49.832 65.5842 49.8533 63.3655 49.896C61.5308 49.9387 59.7388 49.9387 57.9895 49.896L45.9575 49.832C43.7815 49.7893 42.6935 48.744 42.6935 46.696C42.6935 45.8853 43.0135 45.16 43.6535 44.52C44.7202 43.4533 45.3175 42.792 45.4455 42.536L46.6615 40.616C47.2588 39.6347 47.6215 37.2027 47.7495 33.32L48.2615 16.808C48.3468 15.4 48.3682 14.1627 48.3255 13.096ZM86.9505 13.096C86.6945 10.8773 86.1825 9.46933 85.4145 8.872C85.0305 8.65866 84.4972 8.33867 83.8145 7.912C83.3025 7.4 83.0465 6.67466 83.0465 5.736C83.0465 3.98667 84.1558 2.68533 86.3745 1.832C88.2092 1.10667 90.4705 0.765333 93.1585 0.807999C93.6705 0.807999 94.4385 0.850665 95.4625 0.935997C96.5292 1.02133 97.3398 1.064 97.8945 1.064C99.3452 1.064 101.713 0.957333 104.999 0.743999C108.284 0.530664 110.609 0.423996 111.975 0.423996C113.809 0.423996 115.239 1.576 116.263 3.88C117.031 5.672 117.415 7.61333 117.415 9.704C117.415 11.0267 117.159 12.136 116.647 13.032C115.964 14.1413 115.025 14.696 113.831 14.696C112.679 14.696 111.697 14.1627 110.887 13.096C109.692 11.5173 108.775 10.5147 108.135 10.088C106.556 8.97867 104.231 8.424 101.159 8.424C100.263 8.424 99.7932 8.424 99.7505 8.424C99.3238 8.59466 99.0252 9.10666 98.8545 9.96C98.7692 10.2587 98.7265 10.5573 98.7265 10.856C98.7265 12.264 99.4305 13.416 100.839 14.312C102.076 15.08 103.548 15.464 105.255 15.464C105.596 15.464 106.001 15.2293 106.471 14.76C106.983 14.2907 107.409 14.056 107.751 14.056C108.391 14.056 108.711 14.5253 108.711 15.464C108.711 16.9573 108.519 18.3867 108.135 19.752C107.58 21.672 106.769 22.632 105.703 22.632C105.02 22.632 104.359 22.0987 103.719 21.032C103.121 19.9653 102.225 19.432 101.031 19.432C99.6652 19.432 98.9825 20.5627 98.9825 22.824C98.9825 28.1573 102.076 30.824 108.263 30.824C108.519 30.824 108.924 30.76 109.479 30.632C110.033 30.504 110.46 30.4827 110.759 30.568C111.057 30.6107 111.313 30.632 111.527 30.632C112.593 30.632 113.468 30.12 114.151 29.096C114.876 28.072 115.452 27.56 115.879 27.56C116.519 27.56 117.073 27.9867 117.543 28.84C118.012 29.6933 118.247 30.4827 118.247 31.208C118.247 31.6347 118.289 32.744 118.375 34.536C118.503 36.2853 118.567 37.736 118.567 38.888C118.567 44.0933 117.5 47.464 115.367 49C114.556 49.5547 111.847 49.832 107.239 49.832C105.959 49.832 104.209 49.8533 101.991 49.896C100.156 49.9387 98.3638 49.9387 96.6145 49.896L84.5825 49.832C82.4065 49.7893 81.3185 48.744 81.3185 46.696C81.3185 45.8853 81.6385 45.16 82.2785 44.52C83.3452 43.4533 83.9425 42.792 84.0705 42.536L85.2865 40.616C85.8838 39.6347 86.2465 37.2027 86.3745 33.32L86.8865 16.808C86.9718 15.4 86.9932 14.1627 86.9505 13.096Z" fill="white"/>
</svg>
