<svg width="323" height="217" viewBox="0 0 323 217" fill="none" xmlns="http://www.w3.org/2000/svg">
<path d="M121.978 204.625C105.725 202.433 89.3057 202.522 72.8676 202.855C70.9042 202.894 68.9406 202.937 66.977 202.98C52.4969 203.298 38.0156 203.617 23.6194 202.546L23.6193 202.546C19.4792 202.241 15.0981 201.674 11.1888 200.388C7.2796 199.102 3.85443 197.099 1.61009 193.929L1.61032 193.929L1.60464 193.922C1.01042 193.182 0.585026 192.34 0.353152 191.447C0.121784 190.556 0.087668 189.631 0.252728 188.728C0.764958 186.813 2.38004 185.634 4.45248 184.928C6.52576 184.222 9.02546 184.002 11.2394 183.986L11.2397 183.986C41.5126 183.717 71.8051 182.492 102.111 181.212C103.925 181.136 105.738 181.059 107.552 180.982C136.046 179.776 164.552 178.569 193.067 178.112C194.768 178.086 196.47 178.06 198.172 178.033C213.854 177.792 229.572 177.551 245.326 177.551L245.327 177.551C268.543 177.419 291.959 177.477 314.645 182.036L314.675 181.889L314.645 182.036C316.266 182.36 318.042 182.886 319.43 183.705C320.819 184.524 321.795 185.619 321.88 187.078C321.953 188.31 321.346 189.384 320.396 190.314C319.446 191.245 318.168 192.016 316.939 192.636L316.939 192.637C304.848 198.773 291.605 202.122 277.979 204.536C271.167 205.743 264.261 206.716 257.356 207.688L257.258 207.702C250.387 208.669 243.519 209.635 236.751 210.83C233.76 211.359 230.776 211.933 227.794 212.508C218.889 214.223 209.996 215.936 200.933 216.405C187.596 217.089 174.483 215.03 161.389 212.355C157.669 211.596 153.951 210.786 150.229 209.976C140.853 207.935 131.457 205.89 121.978 204.625ZM121.978 204.625C121.978 204.625 121.978 204.625 121.978 204.626L121.958 204.774L121.978 204.625C121.978 204.625 121.978 204.625 121.978 204.625Z" stroke="black" stroke-width="0.3"/>
<path d="M279.422 174.624L279.422 174.624L279.431 174.629C281.716 175.857 284.154 176.826 286.693 177.513L286.694 177.513C287.185 177.643 287.728 177.844 288.126 178.118C288.524 178.393 288.738 178.712 288.675 179.085C288.63 179.259 288.548 179.423 288.432 179.568C288.316 179.714 288.168 179.839 287.998 179.933C286.756 180.577 285.331 180.859 283.91 180.741L283.902 180.74L283.894 180.74C279.47 180.856 275.045 180.544 270.693 179.81C269.471 179.581 268.454 178.919 268.038 178.13C267.833 177.739 267.773 177.318 267.903 176.894C268.034 176.468 268.361 176.021 268.958 175.593C269.334 175.337 269.929 175.072 270.648 174.824C271.364 174.576 272.195 174.347 273.033 174.161C273.872 173.974 274.717 173.829 275.463 173.749C276.208 173.669 276.844 173.654 277.275 173.72C278.042 173.906 278.768 174.212 279.422 174.624Z" fill="white" stroke="black" stroke-width="0.3"/>
<path d="M239.109 148.909L239.11 148.909C239.612 148.674 240.123 148.425 240.641 148.172C242.644 147.196 244.759 146.165 246.915 145.67C249.402 145.27 251.911 144.995 254.43 144.847L254.43 144.847L254.439 144.846L272.55 142.685L272.552 142.685C273.935 142.508 275.43 142.384 276.807 142.525C278.185 142.667 279.427 143.072 280.322 143.939L280.323 143.94C280.973 144.553 281.323 145.324 281.531 146.166C281.714 146.907 281.784 147.692 281.853 148.467C281.863 148.577 281.873 148.686 281.883 148.795C281.935 149.382 282.003 149.966 282.071 150.548C282.271 152.261 282.468 153.954 282.269 155.644C281.764 159.892 278.734 163.719 274.79 166.378C270.847 169.036 266.078 170.631 261.249 171.843C255.043 173.29 248.761 174.44 242.426 175.289L242.432 175.587C250.392 176.361 258.395 176.695 266.399 176.585H266.399C266.973 176.577 267.572 176.578 268.127 176.665C268.682 176.753 269.181 176.925 269.565 177.251L269.567 177.253C270.103 177.693 270.248 178.318 270.111 178.951C269.973 179.586 269.55 180.219 268.962 180.64C267.632 181.403 266.115 181.849 264.55 181.937L264.549 181.936L264.537 181.938C262.608 182.216 260.687 182.521 258.769 182.826C254.969 183.431 251.178 184.034 247.347 184.413C242.432 184.897 237.474 184.994 232.516 185.091L232.208 185.097L232.205 185.097C229.54 185.205 226.869 185.12 224.218 184.842C218.935 184.152 214.103 181.935 209.364 179.74C207.618 178.929 205.845 178.077 204.786 176.695C204.15 175.743 203.801 174.654 203.773 173.54C203.746 172.424 204.041 171.32 204.63 170.343C205.878 168.329 207.564 166.572 209.584 165.182L209.584 165.182L209.59 165.178C218.338 158.491 228.764 153.671 239.109 148.909Z" fill="white" stroke="black" stroke-width="0.3"/>
<path d="M111.105 52.2852L111.095 52.2913C110.248 52.8353 109.364 53.3279 108.447 53.7663C104.697 55.9511 103.531 60.7828 104.842 64.7155C106.154 68.6536 109.449 71.7819 113.038 74.3177C114.668 75.4691 116.79 76.516 118.949 77.5815C119.156 77.6839 119.364 77.7865 119.572 77.8894C121.866 79.0247 124.152 80.194 125.849 81.5374C126.295 80.5966 126.809 79.8944 127.402 79.3663C128.032 78.8055 128.743 78.4468 129.541 78.2041C130.337 77.9621 131.221 77.8349 132.195 77.7376C132.637 77.6933 133.1 77.6551 133.583 77.6153L133.73 77.6031C134.266 77.5588 134.827 77.5115 135.415 77.4508C136.044 77.3819 136.673 77.3284 137.3 77.2751C138.227 77.1963 139.15 77.1179 140.06 76.9905C141.579 76.7781 143.03 76.4328 144.331 75.7353C145.621 75.0436 146.652 73.8148 147.12 72.5097C147.587 71.2057 147.485 69.8498 146.553 68.8674C146.081 68.3701 145.469 68.0097 144.788 67.7102C144.246 67.4722 143.67 67.2762 143.091 67.0794C142.94 67.0278 142.788 66.9762 142.637 66.9239C141.199 66.4257 139.788 65.8528 139.179 64.5288C139.179 64.5287 139.179 64.5286 139.179 64.5286L139.315 64.4659C138.589 62.8984 139.602 61.0669 141.011 59.9531C141.767 59.3553 142.623 58.8859 143.481 58.4159C144.221 58.0103 144.962 57.6043 145.639 57.1151L111.105 52.2852ZM111.105 52.2852L111.113 52.2778C111.678 51.7819 112.115 51.1747 112.391 50.5006C112.668 49.8264 112.776 49.1031 112.707 48.3846C112.638 47.6661 112.395 46.9717 111.995 46.353C111.596 45.7343 111.051 45.2072 110.402 44.8101L110.402 44.8098L110.394 44.8054C108.591 43.8548 108.186 41.7636 108.689 39.55C109.191 37.3412 110.588 35.0823 112.285 33.8902L112.202 33.7725L112.285 33.8902C113.157 33.2766 114.171 32.8064 115.191 32.3331C115.625 32.1318 116.06 31.93 116.486 31.7163C117.899 31.0078 119.198 30.1727 119.885 28.8022L119.885 28.8021C120.699 27.1776 120.323 25.4329 119.855 23.7125C119.806 23.5333 119.756 23.3543 119.706 23.1757C119.273 21.619 118.846 20.0856 119.136 18.5996L119.136 18.5996C119.545 16.5049 121.139 15.0905 123.214 13.9884C124.762 13.1661 126.553 12.5296 128.282 11.9153C128.873 11.7052 129.457 11.4977 130.021 11.2863L130.022 11.2858C135.468 9.19141 140.047 5.56772 143.112 0.942324L111.105 52.2852Z" fill="white" stroke="black" stroke-width="0.3"/>
<path d="M102.273 172.038L102.273 172.038C103.333 169.473 105.183 167.245 107.597 165.627C110.012 164.008 112.888 163.069 115.874 162.925C118.86 162.781 121.827 163.439 124.413 164.817C126.999 166.195 129.092 168.234 130.438 170.683L130.533 170.856L130.674 170.719C132.222 169.214 134.423 168.532 136.697 168.542C138.97 168.552 141.302 169.255 143.096 170.503C146.644 172.97 148.608 177.006 149.673 181.047C138.871 181.59 128.064 181.824 117.25 181.747H117.249C116.409 181.747 115.232 181.826 113.903 181.915L113.898 181.915C112.564 182.004 111.073 182.104 109.602 182.146C108.13 182.189 106.683 182.175 105.436 182.037C104.183 181.899 103.155 181.638 102.504 181.203C101.212 180.339 100.879 178.698 101.018 176.914C101.156 175.137 101.76 173.272 102.273 172.038Z" fill="white" stroke="black" stroke-width="0.3"/>
<path d="M227.501 136.81L227.673 136.904L227.719 136.714C228.223 134.658 228.837 132.6 229.465 130.535C229.543 130.279 229.621 130.023 229.699 129.767C230.251 127.958 230.804 126.143 231.293 124.324C232.409 120.17 233.192 115.98 232.854 111.743L232.854 111.743C232.752 110.48 232.913 108.868 233.346 107.279C233.778 105.688 234.479 104.132 235.448 102.974C236.427 101.804 237.229 101.225 238.093 101.048C238.961 100.871 239.924 101.093 241.243 101.607L241.244 101.607C243.022 102.298 244.003 103.365 244.684 104.689C245.181 105.654 245.516 106.747 245.881 107.938C246.023 108.4 246.169 108.878 246.331 109.368C247.469 112.811 247.409 116.49 247.06 120.098C246.177 129.011 243.602 137.713 239.451 145.809L239.451 145.809C238.436 147.791 237.051 149.879 234.796 150.224C233.438 150.32 232.079 150.058 230.877 149.472L230.878 149.471L230.867 149.467C227.703 148.222 223.059 146.96 218.092 145.61C216.347 145.136 214.563 144.651 212.788 144.152C205.95 142.229 199.274 140.102 195.562 137.594C195.071 137.261 194.961 136.991 194.981 136.759C194.993 136.633 195.043 136.5 195.126 136.353C195.209 136.206 195.32 136.054 195.443 135.889C195.461 135.865 195.479 135.841 195.497 135.817C195.727 135.511 195.989 135.162 196.134 134.766C196.293 134.326 196.309 133.83 196.015 133.26C195.881 133.002 195.841 132.833 195.848 132.728C195.852 132.679 195.865 132.646 195.883 132.622C195.901 132.597 195.931 132.573 195.978 132.551C196.078 132.506 196.234 132.483 196.452 132.483C196.667 132.483 196.922 132.505 197.21 132.536C197.318 132.547 197.43 132.56 197.546 132.572C198.042 132.628 198.602 132.691 199.158 132.697C199.82 132.704 200.494 132.632 201.07 132.363C204.966 133.999 209.366 134.137 213.714 134.273C213.969 134.281 214.225 134.289 214.48 134.298C219.112 134.448 223.649 134.697 227.501 136.81Z" fill="white" stroke="black" stroke-width="0.3"/>
<path d="M231.241 113.228L231.241 113.228L231.235 113.219C231.119 113.032 231.048 112.825 231.027 112.612C231.007 112.404 231.034 112.194 231.108 111.996C232.753 109.397 233.511 105.667 234.185 102.069C234.226 101.852 234.266 101.635 234.306 101.419C234.601 99.8373 234.888 98.294 235.237 96.8882C235.634 95.2895 236.107 93.8817 236.753 92.808C236.914 92.5402 237.039 92.3949 237.134 92.3294C237.178 92.2983 237.208 92.2909 237.226 92.2901C237.242 92.2894 237.261 92.2932 237.287 92.3109C237.349 92.3526 237.423 92.4515 237.511 92.6277C237.597 92.7984 237.684 93.0169 237.783 93.2717C237.797 93.3074 237.811 93.3437 237.825 93.3807C238.213 94.3813 238.774 95.8284 240.017 96.5789C241.821 97.7227 243.224 99.3217 244.058 101.181C245.092 103.611 245.656 106.189 245.723 108.797L245.723 108.797L245.723 108.803C245.972 112.741 245.797 116.692 245.201 120.598C240.195 119.69 235.594 117.439 231.98 114.128L231.981 114.128L231.974 114.122C231.667 113.871 231.418 113.567 231.241 113.228Z" fill="white" stroke="black" stroke-width="0.3"/>
<path d="M245.047 85.5121L245.047 85.512C250.646 83.3902 256.427 84.8131 261.173 89.2271L261.173 89.2274C272.622 99.8149 279.723 109.764 285.616 123.702L285.616 123.702C287.203 127.444 288.557 131.31 288.753 135.3C288.949 139.288 287.844 143.435 285.009 146.426C280.876 150.765 273.946 151.881 267.636 151.445C262.677 151.099 257.512 149.816 254.187 146.481C252.146 144.433 250.963 141.803 249.814 139.192L249.813 139.192L242.978 123.707C239.28 115.328 235.564 106.76 235.564 97.722C235.564 95.0172 235.931 92.2546 237.667 90.0346C239.405 87.8112 242.245 86.5691 245.047 85.5121Z" fill="white" stroke="black" stroke-width="0.3"/>
<path d="M247.848 75.8504C247.842 78.1255 248.145 80.3923 248.751 82.598C248.967 83.3877 249.187 84.2505 249.195 85.0471C249.203 85.8385 249 86.5424 248.39 87.0436C247.951 87.3691 247.439 87.602 246.889 87.725L246.889 87.7247L246.881 87.7271C244.894 88.2935 242.823 88.57 240.743 88.5464L240.743 88.5463L240.738 88.5464C240.452 88.5538 240.167 88.5096 239.9 88.4167C239.601 88.2804 239.413 88.0301 239.282 87.7158C239.156 87.4111 239.089 87.0623 239.024 86.7228C239.021 86.7058 239.017 86.6888 239.014 86.6719C238.858 85.8421 238.596 85.0322 238.235 84.2592C238.064 83.7656 237.73 83.3357 237.283 83.0286L237.276 83.0237L237.268 83.0197C236.619 82.676 235.899 82.8203 235.219 82.9913C235.143 83.0103 235.068 83.0297 234.993 83.0489C234.374 83.2081 233.785 83.3595 233.226 83.2524L233.225 83.2523C232.455 83.1075 231.971 82.5507 231.491 81.8762C231.421 81.7787 231.352 81.6785 231.282 81.577C230.876 80.9922 230.442 80.3661 229.815 79.9727C229.589 79.8297 229.337 79.7151 229.086 79.6104C228.999 79.5737 228.912 79.5386 228.826 79.5039C228.664 79.4378 228.505 79.3734 228.351 79.3032C227.88 79.0889 227.521 78.8483 227.373 78.4547L227.372 78.4531C227.258 78.1594 227.286 77.7782 227.42 77.3249C227.552 76.8749 227.781 76.3781 228.038 75.8666C228.132 75.6801 228.23 75.4907 228.327 75.3015C228.495 74.9775 228.662 74.6541 228.807 74.3461C229.038 73.8579 229.225 73.3856 229.283 72.9758L229.283 72.9758L229.283 72.972C229.357 72.3184 229.313 71.6625 229.27 71.0248C229.268 70.9908 229.266 70.9567 229.264 70.9228C229.219 70.2478 229.182 69.5934 229.282 68.9522L229.282 68.9513C229.506 67.4611 230.804 65.9226 232.473 64.7076C234.135 63.4972 236.127 62.6373 237.684 62.4786C239.739 62.4026 241.755 63.0016 243.372 64.1666L243.371 64.167L243.383 64.1736C244.976 65.1264 246.258 66.4572 247.093 68.0236C247.671 69.213 247.862 70.4961 247.907 71.8216C247.929 72.4847 247.915 73.1562 247.894 73.8308C247.891 73.9521 247.887 74.0735 247.883 74.195C247.866 74.7478 247.848 75.302 247.848 75.8504ZM247.848 75.8504C247.848 75.8506 247.848 75.8507 247.848 75.8509H247.998L247.848 75.8504Z" fill="white" stroke="black" stroke-width="0.3"/>
<path d="M239.193 82.4554L239.192 82.4553L239.192 82.4633C239.165 83.402 239.067 84.3379 238.9 85.2643C238.538 86.5899 237.661 87.7516 236.431 88.5292C235.198 89.3082 233.697 89.6469 232.21 89.4798L232.208 89.4796C231.78 89.4373 231.374 89.2886 231.033 89.0506C230.728 88.7575 230.502 88.4051 230.37 88.0209L230.367 88.0112L230.362 88.0021C229.702 86.692 229.254 85.3007 229.031 83.8721C228.925 83.1717 228.982 82.4584 229.197 81.7792C229.412 81.1034 229.779 80.476 230.277 79.9381C231.288 79.1434 232.471 78.5532 233.748 78.2068L233.748 78.2074L233.761 78.2027C235.606 77.52 237.382 76.6882 239.067 75.7169L239.067 75.7172L239.075 75.7119C239.666 75.3204 240.322 75.0207 241.02 74.8252C241.366 74.752 241.629 74.7257 241.824 74.7336C242.021 74.7416 242.133 74.784 242.194 74.8317C242.248 74.8744 242.277 74.9331 242.28 75.0222C242.283 75.117 242.255 75.2395 242.197 75.3871C242.079 75.6816 241.857 76.028 241.621 76.3634C241.522 76.5036 241.419 76.6439 241.322 76.7759C241.194 76.9506 241.076 77.1108 240.993 77.2368L240.993 77.2377C239.961 78.8241 239.344 80.6104 239.193 82.4554Z" fill="white" stroke="black" stroke-width="0.3"/>
<path d="M228.582 70.6061L228.582 70.606L228.578 70.6069C227.633 70.8398 226.64 70.8579 225.685 70.6599C224.732 70.4619 223.845 70.0543 223.102 69.4728C222.389 68.8728 221.926 68.0669 221.786 67.1926C221.647 66.3189 221.84 65.4269 222.333 64.6665C222.87 63.9299 223.659 63.4596 224.563 63.1062C225.234 62.8437 225.954 62.6501 226.67 62.4576C226.923 62.3895 227.176 62.3216 227.426 62.2508C229.019 61.8038 230.467 60.9474 231.876 60.1141C232.074 59.9969 232.272 59.8801 232.469 59.765C234.075 58.8264 235.651 57.9962 237.398 57.8587C239.293 57.7323 241.195 57.9834 242.975 58.5947C244.755 59.2061 246.369 60.1631 247.709 61.3999L247.709 61.4L247.714 61.4049C248.795 62.305 249.647 63.4117 250.21 64.646C250.655 65.9 250.89 67.2085 250.908 68.527L250.908 68.527L250.908 68.5352C251.123 71.6966 251.303 74.8553 251.446 78.0112L251.446 78.0117C251.482 78.7443 251.456 79.5508 251.245 80.2396C251.035 80.9248 250.647 81.479 249.963 81.742L249.963 81.742C249.377 81.9677 248.745 81.8984 248.142 81.6523C247.538 81.406 246.974 80.9865 246.537 80.5322L246.537 80.5317C245.049 78.9986 244.173 77.0483 244.05 75.001C244.096 74.1538 244 73.3052 243.766 72.4851L243.764 72.4781L243.761 72.4714C243.682 72.2703 243.551 71.991 243.385 71.7219C243.22 71.4555 243.014 71.1858 242.779 71.0175C242.54 70.8455 242.248 70.7657 241.954 70.9416C241.681 71.1047 241.443 71.4702 241.237 72.0735L241.224 72.111L241.231 72.1499C241.359 72.8261 241.54 73.2838 241.717 73.7317L241.719 73.7375C241.876 74.1343 242.03 74.5243 242.148 75.0637C240.927 74.8043 240.215 73.7968 239.516 72.6248C239.438 72.4939 239.36 72.3609 239.282 72.2271C238.994 71.7367 238.7 71.2347 238.368 70.7796C237.943 70.1979 237.447 69.6795 236.802 69.341C235.515 68.6653 234.128 68.8464 232.742 69.2546C232.176 69.4212 231.604 69.6278 231.036 69.8332C230.907 69.8796 230.779 69.926 230.651 69.9718C229.953 70.2213 229.263 70.4557 228.582 70.6061Z" fill="white" stroke="black" stroke-width="0.3"/>
<path d="M247.186 148.132L247.186 148.132C236.84 153.232 226.415 158.381 217.667 165.546L217.661 165.55L217.661 165.55C215.618 167.065 213.932 168.946 212.707 171.078C211.613 173.239 211.458 175.93 212.859 177.882L212.859 177.883C213.919 179.373 215.695 180.308 217.447 181.134L217.45 181.135C222.18 183.488 227.011 185.86 232.293 186.599C234.941 186.9 237.612 186.988 240.277 186.862L240.282 186.862L240.282 186.862C245.342 186.771 250.403 186.672 255.419 186.137L255.419 186.137C259.024 185.761 262.584 185.161 266.151 184.56C268.298 184.198 270.447 183.836 272.609 183.522M247.186 148.132L272.631 183.671M247.186 148.132C247.731 147.863 248.287 147.575 248.851 147.282C250.812 146.266 252.881 145.194 254.996 144.653L247.186 148.132ZM272.609 183.522L272.631 183.671M272.609 183.522L272.609 183.522L272.631 183.671M272.609 183.522L272.616 183.521C274.212 183.289 275.843 183.052 277.025 182.141C277.607 181.692 278.035 181.009 278.177 180.321C278.318 179.635 278.174 178.958 277.636 178.487L277.634 178.485C277.251 178.136 276.752 177.952 276.199 177.859C275.644 177.765 275.047 177.765 274.472 177.773C266.466 177.889 258.46 177.534 250.504 176.708L250.498 176.411C256.84 175.495 263.123 174.262 269.319 172.718M272.631 183.671L272.661 183.666C274.24 183.437 275.904 183.194 277.116 182.26C278.336 181.319 278.91 179.405 277.735 178.374C276.91 177.623 275.618 177.607 274.47 177.623C266.675 177.736 258.88 177.402 251.13 176.621C250.934 176.65 250.737 176.679 250.541 176.707L250.519 176.559L250.535 176.41C250.732 176.43 250.929 176.45 251.127 176.47C257.268 175.563 263.353 174.359 269.357 172.863M269.319 172.718C269.319 172.718 269.318 172.718 269.318 172.718L269.357 172.863M269.319 172.718C269.32 172.718 269.32 172.718 269.321 172.717L269.357 172.863M269.319 172.718C274.148 171.424 278.917 169.714 282.859 166.875C286.802 164.037 289.836 159.93 290.342 155.373M269.357 172.863C274.192 171.568 278.982 169.852 282.947 166.997C286.912 164.143 289.979 160.001 290.491 155.389M290.491 155.389L290.342 155.373M290.491 155.389C290.692 153.541 290.492 151.716 290.293 149.886C290.225 149.266 290.157 148.645 290.105 148.022L289.956 148.035C290.008 148.666 290.077 149.292 290.145 149.915C290.344 151.741 290.541 153.543 290.342 155.373M290.491 155.389L290.342 155.373C290.342 155.373 290.342 155.373 290.342 155.373M288.499 142.693C286.643 140.762 283.377 140.96 280.606 141.307L288.499 142.693Z" fill="white" stroke="black" stroke-width="0.3"/>
<path d="M236.645 129.04L236.793 129.162L236.876 128.989C240.598 121.211 243.048 112.969 244.147 104.531L243.998 104.512L244.147 104.531C244.231 103.885 244.25 103.13 244.271 102.34L244.271 102.337L244.271 102.337C244.292 101.542 244.314 100.708 244.4 99.8933C244.574 98.2584 245.006 96.7392 246.174 95.7926C247.345 94.8424 249.06 94.5813 250.8 94.7508C252.536 94.9199 254.265 95.5155 255.437 96.2409C258.663 98.2409 260.457 101.8 260.856 105.378C261.257 108.96 260.43 112.565 259.329 116.041C256.604 124.629 252.262 132.71 246.5 139.918L246.5 139.918C245.803 140.794 244.999 141.689 244.08 142.356C243.164 143.022 242.142 143.456 241.003 143.426C239.651 143.281 238.372 142.788 237.315 142.003L237.315 142.003L237.305 141.997C229.652 137.222 223.231 130.972 216.951 124.693L216.949 124.69C215.224 123.038 213.471 121.2 212.891 118.986C212.318 116.799 213.318 114.109 215.583 113.412C222.897 118.277 229.928 123.494 236.645 129.04Z" fill="white" stroke="black" stroke-width="0.3"/>
<path d="M240.866 113.998L240.871 113.984L240.873 113.969L242.523 101.504C242.707 100.129 243.169 97.2073 244.057 94.576C244.501 93.2597 245.049 92.0248 245.716 91.0937C246.383 90.161 247.155 89.5537 248.044 89.4475C248.509 89.3918 248.964 89.3309 249.41 89.2713C250.793 89.0862 252.083 88.9135 253.305 88.9483C254.909 88.994 256.377 89.3983 257.74 90.607L257.74 90.6075C258.251 91.0561 258.722 91.9158 259.15 93.0232C259.575 94.1243 259.949 95.4472 260.277 96.7991C260.605 98.1504 260.886 99.5269 261.126 100.735C261.165 100.933 261.204 101.128 261.241 101.317C261.43 102.272 261.592 103.091 261.73 103.654C262.307 106.337 262.472 109.082 262.22 111.807L262.22 111.807L262.22 111.811C262.037 114.66 261.651 117.494 261.065 120.296L261.065 120.296L261.063 120.308C261.028 120.588 260.918 120.857 260.743 121.09C260.506 121.296 260.206 121.433 259.881 121.482C257.934 121.754 255.943 121.517 254.136 120.798L254.136 120.798L254.128 120.795C249.882 119.395 245.772 117.668 241.843 115.631L241.829 115.624L241.813 115.62C241.632 115.57 241.463 115.488 241.318 115.378L241.228 115.498L241.318 115.378C241.173 115.269 241.053 115.135 240.966 114.984C240.879 114.833 240.825 114.668 240.808 114.5C240.791 114.331 240.811 114.16 240.866 113.998Z" fill="white" stroke="black" stroke-width="0.3"/>
<path d="M286.905 177.561L286.905 177.561L286.912 177.565C289.194 178.801 291.633 179.769 294.175 180.449L294.175 180.449C294.666 180.58 295.21 180.78 295.609 181.055C296.008 181.33 296.224 181.649 296.166 182.023C296.12 182.197 296.038 182.362 295.922 182.508C295.806 182.656 295.659 182.782 295.488 182.878C294.247 183.522 292.821 183.804 291.401 183.686L291.392 183.685L291.384 183.685C286.961 183.799 282.537 183.491 278.183 182.764C276.962 182.534 275.945 181.871 275.529 181.08C275.323 180.689 275.264 180.268 275.394 179.844C275.525 179.418 275.852 178.972 276.45 178.546C276.827 178.281 277.424 178.01 278.144 177.757C278.862 177.504 279.692 177.272 280.531 177.085C281.37 176.897 282.214 176.754 282.958 176.677C283.703 176.6 284.337 176.591 284.764 176.664C285.527 176.853 286.25 177.156 286.905 177.561Z" fill="white" stroke="black" stroke-width="0.3"/>
<path d="M196.544 137.599L196.543 137.599C193.513 138.425 190.252 138.109 187.478 136.725C184.704 135.34 182.644 133.001 181.749 130.222L177.586 117.305C177.388 116.69 177.463 116.025 177.798 115.457C178.134 114.888 178.703 114.463 179.382 114.278L179.398 114.274L179.413 114.265L179.43 114.256L197.139 109.429C197.818 109.244 198.547 109.315 199.165 109.623C199.783 109.932 200.24 110.452 200.438 111.067L204.603 123.992C205.047 125.37 205.192 126.815 205.028 128.245C204.864 129.675 204.395 131.062 203.646 132.326C202.898 133.59 201.886 134.707 200.667 135.612C199.448 136.517 198.047 137.192 196.544 137.599Z" fill="white" stroke="black" stroke-width="0.3"/>
<path d="M204.028 124.616L202.943 122.069C203.352 121.901 204 121.583 204.643 121.139C205.367 120.641 206.102 119.972 206.469 119.168L206.469 119.168L206.47 119.166C206.651 118.749 206.735 118.302 206.717 117.853C206.699 117.406 206.58 116.967 206.368 116.565C205.581 114.83 204.267 114.207 203.064 114.053C201.993 113.916 201.012 114.15 200.562 114.285L199.534 111.723C200.74 111.327 202.555 111.087 204.345 111.509C206.202 111.946 208.034 113.094 209.138 115.53L209.138 115.53L209.14 115.534C209.502 116.268 209.695 117.063 209.709 117.868C209.722 118.672 209.556 119.471 209.219 120.215C208.554 121.664 207.331 122.74 206.212 123.475C205.254 124.104 204.383 124.477 204.028 124.616Z" fill="white" stroke="black" stroke-width="0.3"/>
<path d="M165.009 120.714C165.098 120.56 165.302 120.411 165.749 120.354L180.303 122.565L182.648 129.855L165.496 122.251C165.486 122.238 165.473 122.221 165.457 122.2C165.419 122.148 165.367 122.075 165.31 121.985C165.194 121.805 165.065 121.569 164.993 121.331C164.92 121.09 164.916 120.876 165.009 120.714Z" fill="white" stroke="black" stroke-width="0.3"/>
<path d="M208.254 110.61L208.261 110.61L208.269 110.609C209.412 110.475 210.885 110.501 212.241 110.822C213.601 111.143 214.817 111.752 215.482 112.762C216.173 113.812 216.882 115.082 217.36 116.4C217.839 117.719 218.081 119.074 217.855 120.3L217.854 120.3L217.853 120.314C217.845 120.398 217.813 120.48 217.758 120.551C217.653 120.614 217.529 120.648 217.402 120.647L217.402 120.647L217.391 120.648L210.897 121.069L210.897 121.068L210.888 121.069C210.066 121.172 209.229 121.121 208.429 120.918C206.99 120.427 206.171 119.042 205.516 117.696L205.516 117.696L205.512 117.688C205.131 117.005 204.882 116.267 204.776 115.507C204.734 115.14 204.788 114.768 204.934 114.424C205.078 114.082 205.31 113.775 205.61 113.529C206.031 113.287 206.47 113.075 206.926 112.893L206.926 112.893L206.929 112.892C207.185 112.782 207.405 112.608 207.561 112.388C207.717 112.167 207.804 111.909 207.809 111.643L207.81 111.635L207.809 111.626C207.801 111.538 207.78 111.453 207.758 111.376C207.749 111.344 207.741 111.314 207.733 111.287C207.719 111.242 207.707 111.201 207.696 111.157C207.663 111.026 207.658 110.932 207.695 110.85C207.761 110.78 207.842 110.722 207.935 110.68C208.034 110.636 208.143 110.612 208.254 110.61Z" fill="white" stroke="black" stroke-width="0.3"/>
<path d="M126.434 53.1443L126.732 169.135L123.115 166.356L126.434 53.1443Z" fill="white" stroke="black" stroke-width="0.3"/>
<path d="M208.854 47.3911C208.907 47.3607 208.951 47.3351 208.983 47.3151C209.001 47.3255 209.023 47.3377 209.046 47.3519C209.133 47.4042 209.256 47.4818 209.395 47.5824C209.675 47.7845 210.016 48.0749 210.278 48.4337C210.539 48.792 210.713 49.2091 210.679 49.6706C210.645 50.1307 210.402 50.6623 209.773 51.2468C209.13 51.8447 208.667 52.2844 208.401 52.6882C208.265 52.8936 208.176 53.0955 208.139 53.3101C208.102 53.5252 208.12 53.7436 208.184 53.9797C208.312 54.4434 208.628 54.995 209.104 55.7533C209.245 55.9783 209.4 56.2224 209.571 56.4894C209.979 57.1305 210.472 57.9033 211.048 58.8591C211.447 59.5227 211.622 60.0771 211.631 60.5506C211.64 61.0206 211.486 61.4245 211.203 61.7913C210.917 62.1611 210.499 62.4938 209.982 62.8123C209.465 63.1304 208.857 63.4295 208.198 63.7359C207.963 63.8451 207.721 63.9551 207.475 64.0671C206.346 64.5816 205.124 65.1384 204.016 65.846C202.664 66.7094 201.466 67.8068 200.795 69.3479C200.125 70.8855 200.216 72.0092 200.657 72.9279C201.01 73.663 201.587 74.2608 202.13 74.8225C202.252 74.9493 202.373 75.0742 202.489 75.1985C203.129 75.885 203.633 76.5557 203.646 77.4429C203.658 78.334 203.176 79.4871 201.717 81.1305C200.284 82.7449 198.585 83.2711 196.866 83.3021C195.25 83.3312 193.625 82.9228 192.188 82.5618C192.089 82.5369 191.991 82.5123 191.894 82.4881C191.145 82.301 190.449 82.1359 189.849 82.0732C189.253 82.0109 188.722 82.0461 188.321 82.2885C187.909 82.5374 187.667 82.9828 187.603 83.6581C187.539 84.3292 187.647 85.2472 187.95 86.4799C188.857 90.1716 190.26 92.5848 191.256 94.2983C191.589 94.8718 191.877 95.3669 192.085 95.8053C192.294 96.2441 192.42 96.6178 192.444 96.9553C192.467 97.2872 192.392 97.5901 192.186 97.8928C191.977 98.2 191.628 98.5124 191.095 98.85C190.562 99.187 189.854 99.5441 188.933 99.9438C187.097 100.741 185.141 101.273 183.282 101.71C182.659 101.856 182.045 101.992 181.45 102.124C180.277 102.384 179.177 102.627 178.226 102.902C177.507 103.11 176.865 103.338 176.33 103.608C175.797 103.878 175.362 104.195 175.069 104.584C174.773 104.978 174.626 105.438 174.657 105.981C174.688 106.519 174.894 107.131 175.29 107.836C175.993 109.087 176.802 110.292 177.547 111.4C177.63 111.524 177.713 111.647 177.795 111.77C178.608 112.982 179.311 114.06 179.687 114.956C180.066 115.859 180.082 116.503 179.648 116.923C179.423 117.141 179.059 117.318 178.511 117.432C177.964 117.546 177.245 117.596 176.322 117.57C174.473 117.519 172.489 117.244 170.568 116.94C170.111 116.868 169.658 116.794 169.21 116.721C167.781 116.487 166.415 116.265 165.209 116.14C164.416 116.059 163.687 116.019 163.05 116.048C162.414 116.076 161.859 116.173 161.42 116.371C160.977 116.571 160.649 116.875 160.482 117.314C160.316 117.748 160.315 118.293 160.483 118.961C160.814 120.278 161.336 121.516 161.819 122.652L161.843 122.709C162.319 123.829 162.748 124.841 162.932 125.747C163.117 126.663 163.045 127.446 162.53 128.11C162.008 128.783 161.013 129.361 159.281 129.81C155.795 130.714 151.362 131.964 147.801 132.988C146.021 133.5 144.459 133.956 143.341 134.283C142.782 134.447 142.335 134.579 142.027 134.67L141.699 134.767L141.632 134.522C141.564 134.266 141.463 133.893 141.337 133.422C141.086 132.479 140.732 131.145 140.324 129.58C139.508 126.448 138.474 122.391 137.605 118.684C137.176 116.855 137.327 115.499 137.828 114.414C138.331 113.325 139.195 112.49 140.224 111.719C140.739 111.333 141.291 110.965 141.859 110.589L141.923 110.547C142.468 110.186 143.026 109.816 143.569 109.419C144.698 108.593 145.771 107.64 146.557 106.364C147.368 105.047 147.102 103.546 146.417 101.953C145.97 100.912 145.331 99.8048 144.669 98.6587C144.321 98.055 143.966 97.4405 143.63 96.8193C142.648 95.006 141.813 93.1181 141.677 91.1927C141.54 89.2765 142.095 87.3105 143.92 85.3331C147.294 81.6774 151.26 80.5858 154.361 79.7322C154.634 79.6571 154.9 79.5839 155.158 79.5109C155.956 79.2857 156.685 79.0615 157.308 78.7914C157.931 78.5213 158.458 78.2013 158.847 77.7791C159.637 76.9202 159.812 75.6883 159.202 73.7598C159.019 73.1827 158.841 72.6358 158.672 72.1167C158.28 70.915 157.937 69.8623 157.7 68.9299C157.361 67.594 157.249 66.5388 157.51 65.6791C157.769 64.8304 158.4 64.1448 159.616 63.5687C160.838 62.9905 162.633 62.5305 165.191 62.1309C169.181 61.5075 172.264 61.9518 174.641 62.2944C175.3 62.3895 175.905 62.4767 176.46 62.5311C177.73 62.6557 178.768 62.6114 179.569 62.0436C180.372 61.475 180.899 60.4092 181.228 58.594C181.884 54.9783 182.588 52.581 184.39 51.1439C186.194 49.7057 189.137 49.2005 194.366 49.5016C199.611 49.8036 203.278 49.2496 205.638 48.6171C206.818 48.3009 207.67 47.9651 208.23 47.7073C208.51 47.5783 208.716 47.4689 208.854 47.3911Z" fill="white" stroke="black" stroke-width="0.3"/>
<path d="M113.137 133.318L113.071 133.563L112.742 133.465C112.434 133.375 111.986 133.243 111.427 133.079C110.309 132.751 108.745 132.296 106.964 131.784C103.401 130.76 98.9661 129.509 95.4792 128.605C93.7481 128.157 92.7504 127.578 92.2271 126.906C91.71 126.242 91.6359 125.459 91.82 124.543C92.0042 123.626 92.4415 122.602 92.9259 121.468L92.9343 121.448C93.4194 120.312 93.9465 119.074 94.2861 117.758C94.4585 117.089 94.4614 116.544 94.2981 116.11C94.1329 115.671 93.8056 115.366 93.3631 115.167C92.9247 114.969 92.3695 114.872 91.7327 114.843C91.0944 114.815 90.3641 114.855 89.5698 114.936C88.3602 115.06 86.9899 115.283 85.5562 115.517C85.1089 115.59 84.6555 115.663 84.1988 115.735C82.2741 116.039 80.2875 116.314 78.4388 116.366C77.5155 116.391 76.7965 116.342 76.2494 116.228C75.7012 116.113 75.3381 115.937 75.1124 115.719C74.6782 115.299 74.6946 114.655 75.0739 113.751C75.4495 112.856 76.1525 111.778 76.9655 110.565C77.0474 110.443 77.1303 110.32 77.2141 110.195C77.9586 109.087 78.7681 107.883 79.4708 106.631C79.8663 105.927 80.0723 105.315 80.1034 104.776C80.1348 104.234 79.9878 103.773 79.6918 103.38C79.3984 102.99 78.964 102.674 78.4302 102.404C77.8959 102.133 77.2534 101.906 76.5347 101.698C75.5832 101.423 74.4839 101.179 73.3104 100.919C72.7158 100.788 72.1021 100.652 71.4789 100.505C69.6196 100.069 67.6632 99.5364 65.8277 98.7395C64.907 98.3397 64.1983 97.9827 63.6656 97.6456C63.1322 97.308 62.7838 96.9956 62.5745 96.6885C62.3683 96.3857 62.2936 96.0828 62.317 95.751C62.3408 95.4135 62.4667 95.0398 62.6753 94.6009C62.8837 94.1625 63.1715 93.6674 63.5048 93.0939C64.5007 91.3804 65.9033 88.9672 66.8107 85.2755C67.1137 84.0428 67.2215 83.125 67.1573 82.4544C67.0926 81.7794 66.8505 81.3346 66.4382 81.0864C66.0367 80.8448 65.5055 80.8105 64.9088 80.8736C64.3086 80.9371 63.6125 81.1031 62.8633 81.2909C62.7675 81.315 62.6707 81.3393 62.5731 81.364C61.1348 81.7266 59.5074 82.1369 57.8906 82.1081C56.1727 82.0775 54.4748 81.5508 53.0439 79.9345C51.5872 78.289 51.1056 77.1345 51.1189 76.242C51.1322 75.3535 51.6359 74.682 52.2755 73.995C52.3914 73.8706 52.512 73.7455 52.6343 73.6186C53.1762 73.0566 53.7527 72.4586 54.105 71.7235C54.5454 70.8047 54.6358 69.6811 53.9661 68.1435C53.295 66.6024 52.0965 65.505 50.7445 64.6416C49.6366 63.934 48.4144 63.3771 47.2854 62.8627C47.0395 62.7507 46.798 62.6406 46.5631 62.5315C45.9036 62.2251 45.2958 61.926 44.779 61.6079C44.2616 61.2893 43.8438 60.9567 43.5581 60.5868C43.2749 60.22 43.121 59.8162 43.1299 59.3462C43.1388 58.8727 43.3133 58.3183 43.7131 57.6547C44.2935 56.6911 44.7899 55.9134 45.201 55.2692C45.3674 55.0084 45.5199 54.7695 45.6583 54.5489C46.1344 53.7907 46.452 53.2392 46.5806 52.7756C46.646 52.5396 46.6642 52.3212 46.628 52.1061C46.5918 51.8914 46.503 51.6895 46.3677 51.484C46.1018 51.08 45.6398 50.6403 44.9964 50.0423C44.3673 49.4578 44.1242 48.9267 44.0903 48.4675C44.0564 48.0068 44.2308 47.5908 44.4918 47.2336C44.753 46.8758 45.0945 46.5864 45.3742 46.3851C45.5134 46.2849 45.6359 46.2076 45.7232 46.1555C45.747 46.1414 45.768 46.1291 45.7861 46.1188C45.819 46.1387 45.8622 46.1643 45.916 46.1947C46.0534 46.2722 46.2598 46.3813 46.5396 46.5099C47.0993 46.767 47.9522 47.1017 49.1321 47.4168C51.4922 48.0473 55.1591 48.5992 60.4034 48.2972C65.6323 47.9961 68.5752 48.5033 70.3793 49.9436C72.182 51.3828 72.8852 53.7822 73.5411 57.3978C73.8705 59.213 74.398 60.2784 75.2005 60.8462C76.0018 61.4132 77.0397 61.4564 78.3097 61.3308C78.8635 61.276 79.4669 61.1886 80.1244 61.0935C82.5021 60.7492 85.586 60.3027 89.5788 60.9265C92.1363 61.3261 93.9319 61.7871 95.1531 62.3667C96.3696 62.9441 97.0009 63.6315 97.2591 64.4818C97.5207 65.3432 97.4088 66.3997 97.0693 67.736C96.8317 68.6711 96.4874 69.7269 96.0945 70.9318C95.9263 71.4476 95.7492 71.9908 95.5677 72.5636C94.9572 74.4901 95.1325 75.7215 95.9231 76.5806C96.3117 77.0029 96.8388 77.3233 97.4619 77.5938C98.085 77.8643 98.8135 78.089 99.6111 78.3148C99.8705 78.3882 100.138 78.4619 100.412 78.5374C103.512 79.3928 107.477 80.4863 110.85 84.137C112.675 86.1123 113.229 88.0767 113.093 89.9918C112.956 91.916 112.121 93.8031 111.14 95.616C110.804 96.2366 110.449 96.8506 110.101 97.4538C109.439 98.6001 108.8 99.7076 108.352 100.748C107.668 102.341 107.402 103.843 108.213 105.16C108.999 106.435 110.072 107.388 111.2 108.214C111.743 108.612 112.301 108.981 112.847 109.342L112.911 109.385C113.478 109.761 114.031 110.128 114.546 110.514C115.575 111.286 116.438 112.121 116.941 113.209C117.443 114.295 117.594 115.651 117.165 117.48C116.295 121.186 115.262 125.244 114.446 128.375C114.038 129.941 113.684 131.275 113.432 132.217C113.306 132.689 113.206 133.062 113.137 133.318Z" fill="white" stroke="black" stroke-width="0.3"/>
<path d="M135.186 152.238L135.186 152.236C136.17 142.034 140.354 131.061 146.085 120.334C151.815 109.608 159.086 99.1381 166.237 89.9433C173.387 80.749 180.415 72.8324 185.654 67.2144C187.769 64.9471 189.592 63.0544 191.015 61.6032C187.052 66.4576 180.058 75.0851 168.065 89.9551C149.252 113.281 141.664 133.959 138.781 148.813C137.34 156.239 137.075 162.208 137.171 166.322C137.218 168.379 137.357 169.972 137.483 171.053C137.546 171.593 137.606 172.004 137.651 172.282C137.666 172.379 137.68 172.46 137.691 172.524H133.024L135.186 152.238Z" fill="white" stroke="black" stroke-width="0.3"/>
<path d="M52.9122 53.0784C59.7764 57.3226 65.8893 61.9467 71.3329 66.8228C69.1997 65.0724 67.0853 63.406 65.0523 61.8499C60.4087 58.2957 56.1859 55.3151 53.124 53.223C53.0527 53.1743 52.9821 53.1261 52.9122 53.0784ZM117.629 166.319L115.851 167.029C115.854 166.88 115.856 166.659 115.856 166.369C115.856 165.788 115.848 164.931 115.811 163.827C115.739 161.618 115.558 158.42 115.121 154.46C114.248 146.54 112.354 135.57 108.271 123.369C102.996 107.603 94.0651 89.7783 78.9583 73.8216C83.8255 78.2933 88.375 83.0417 91.8137 87.7287C98.53 96.8832 105.963 111.754 111.225 126.743C113.856 134.237 115.943 141.756 117.127 148.602C118.304 155.412 118.587 161.545 117.629 166.319Z" fill="white" stroke="black" stroke-width="0.3"/>
</svg>
