<svg width="28" height="28" viewBox="0 0 28 28" fill="none" xmlns="http://www.w3.org/2000/svg">
<path d="M27.1248 28H0.875162C0.390919 28 0 27.637 0 27.1851V24.7607C0 22.7843 1.32933 21.0155 3.30985 20.3579L9.62471 18.2512V15.2716H11.375V18.8257C11.375 19.1694 11.1428 19.4774 10.7944 19.5932L3.89883 21.8921C2.61408 22.317 1.75136 23.4708 1.75136 24.7607V26.3712H26.2507V24.7607C26.2507 23.4708 25.387 22.3199 24.1043 21.8921L17.2067 19.5913C16.8583 19.4755 16.626 19.1684 16.626 18.8257V15.065H18.3763V18.2512L24.6943 20.3579C26.6707 21.0155 28 22.7843 28 24.7607V27.1851C27.999 27.637 27.608 28 27.1248 28Z" fill="#F5F5F5"/>
<path d="M13.8262 17.0665C9.53545 17.0665 6.04517 13.2392 6.04517 8.53324C6.04517 3.82731 9.53545 0 13.8262 0C18.1181 0 21.6094 3.82731 21.6094 8.53324C21.6094 13.2392 18.1181 17.0665 13.8262 17.0665ZM13.8262 1.62979C10.5019 1.62979 7.79446 4.72621 7.79446 8.53227C7.79446 12.3403 10.5019 15.4367 13.8262 15.4367C17.1537 15.4367 19.858 12.3403 19.858 8.53227C19.858 4.72717 17.1537 1.62979 13.8262 1.62979Z" fill="#F5F5F5"/>
<path d="M18.8511 8.82164C17.2387 8.82164 15.9343 8.17008 14.8206 6.7994C13.5836 7.90946 11.5461 8.70388 9.68273 8.70388C8.55041 8.70388 7.5726 8.48283 6.60205 8.00985L7.41499 6.5687C8.1315 6.91813 8.83246 7.07257 9.68273 7.07257C11.4009 7.07257 13.51 6.09958 14.1093 5.0291C14.2586 4.76655 14.549 4.59762 14.8683 4.59183C15.1981 4.57542 15.4853 4.74338 15.645 5.00304C16.7929 6.87276 17.9386 7.43262 19.8798 7.08802L20.6201 7.02238L20.7788 8.64499L20.1234 8.70098C19.6796 8.77917 19.2555 8.82164 18.8511 8.82164Z" fill="#F5F5F5"/>
</svg>
