<svg width="360" height="1094" viewBox="0 0 360 1094" fill="none" xmlns="http://www.w3.org/2000/svg">
<path d="M368.337 133.79L492.299 20.5512C504.337 9.55431 522.567 8.88867 535.375 18.9783C543.463 25.3496 548.15 35.1032 548.071 45.3991L547.774 84.1523C547.423 129.9 519.379 170.87 476.859 187.753L354.807 236.217L188.467 280.158C26.1763 323.029 -125.242 399.661 -255.894 505.047C-315.685 553.275 -379.993 595.616 -447.924 631.48L-815.822 825.716C-831.676 834.086 -846.736 843.881 -860.816 854.98L-1127.08 1064.87C-1155.82 1087.53 -1198.32 1075.18 -1210.45 1040.65C-1217.79 1019.76 -1211.46 996.511 -1194.55 982.219L-928.174 757.113C-916.878 747.568 -909.09 734.526 -906.043 720.055C-900.421 693.355 -879.046 672.807 -852.146 668.24L-639.811 632.198C-585.277 622.941 -533.395 601.979 -487.738 570.754L-444.548 541.217C-419.627 524.174 -393.498 508.969 -366.368 495.724L-256.73 442.197L-110.889 351.101L120.277 232.259C151.197 216.363 184.151 204.784 218.218 197.845L258.575 189.625C299.538 181.281 337.472 161.985 368.337 133.79Z" fill="#D9F7FA"/>
</svg>
