<svg width="360" height="694" viewBox="0 0 360 694" fill="none" xmlns="http://www.w3.org/2000/svg">
<path d="M442.757 95.8263L596.003 8.01596C605.784 2.41141 618.185 4.71138 625.305 13.4507C633.82 23.9005 631.578 39.3964 620.452 47.0054L456.23 159.313C424.203 181.216 386.64 193.626 347.869 195.115L162.196 202.243C42.65 206.833 -74.582 236.595 -181.84 289.585L-247.423 321.986C-316.293 356.011 -388.289 383.306 -462.407 403.49L-863.813 512.802C-881.111 517.513 -897.945 523.787 -914.107 531.547L-1219.74 678.307C-1252.73 694.148 -1291.52 672.829 -1295.82 636.486C-1298.43 614.498 -1287.18 593.187 -1267.56 582.928L-1014.51 450.629C-964.108 424.279 -909.324 407.343 -852.846 400.654L-637.633 375.164C-591.013 369.642 -547.244 349.828 -512.333 318.44C-470.431 280.767 -416.035 259.991 -359.688 260.139L-300.271 260.295C-256.764 260.409 -213.557 253.085 -172.517 238.64L-72.3305 203.376L179.192 137.818C212.834 129.049 247.521 124.936 282.281 125.595L323.459 126.376C365.256 127.168 406.485 116.61 442.757 95.8263Z" fill="#F6D6FC"/>
</svg>
