<svg width="236" height="301" viewBox="0 0 236 301" fill="none" xmlns="http://www.w3.org/2000/svg">
<path d="M3.70943 276.771L3.70975 276.771L166.332 263.988L166.331 264.138C166.331 264.138 166.331 264.138 166.331 264.138C186.012 264.268 205.686 263.991 225.354 263.309V263.309L225.364 263.308C227.496 263.082 229.651 263.323 231.679 264.016C233.624 264.85 235.202 266.842 234.88 268.877C234.554 270.663 233.04 271.941 231.531 273.071L231.53 273.072C225.528 277.609 219.459 282.089 213.32 286.511L213.316 286.514C208.996 289.847 204.361 292.752 199.479 295.188C186.667 301.117 171.911 300.548 157.754 299.862L68.7377 295.512C68.7376 295.512 68.7376 295.512 68.7376 295.512C45.9046 294.385 22.2624 293.054 2.07862 282.405L2.07098 282.401L2.06294 282.398C1.35829 282.124 0.758207 281.634 0.348408 280.999C-0.0862594 280.136 0.23206 279.284 0.941327 278.529C1.65271 277.771 2.73076 277.144 3.70943 276.771Z" fill="url(#paint0_linear)" stroke="black" stroke-width="0.3"/>
<path d="M95.1503 0.15H210.89C221.047 0.15 229.28 8.38348 229.28 18.54V247.71C229.28 257.866 221.047 266.1 210.89 266.1H95.1503C84.9938 266.1 76.7604 257.866 76.7604 247.71V18.54C76.7604 8.38348 84.9938 0.15 95.1503 0.15Z" fill="#FCFCFC" stroke="black" stroke-width="0.3"/>
<path d="M85.6401 0.25H201.38C211.481 0.25 219.67 8.43871 219.67 18.54V247.71C219.67 257.811 211.481 266 201.38 266H85.6401C75.5388 266 67.3501 257.811 67.3501 247.71V18.54C67.3501 8.43871 75.5388 0.25 85.6401 0.25Z" fill="white" stroke="black" stroke-width="0.5"/>
<path d="M79.5001 30.4801L79.5001 30.48C79.4988 28.9067 79.8074 27.3486 80.4083 25.8947C81.0091 24.4407 81.8905 23.1193 83.002 22.0059C84.1135 20.8926 85.4335 20.009 86.8864 19.4058C88.3394 18.8025 89.897 18.4914 91.4702 18.4901H196.25C199.429 18.4927 202.477 19.7568 204.725 22.0048C206.973 24.2528 208.237 27.301 208.24 30.4801V226.39C208.24 230.255 206.705 233.962 203.973 236.696C201.241 239.43 197.535 240.967 193.67 240.97H94.0701C92.1559 240.97 90.2605 240.593 88.4921 239.86C86.7238 239.127 85.1171 238.053 83.7641 236.699C82.411 235.345 81.338 233.738 80.6063 231.969C79.8747 230.2 79.4988 228.304 79.5001 226.39L79.5001 30.4801Z" fill="white" stroke="black" stroke-width="0.3"/>
<mask id="path-5-inside-1" fill="white">
<path d="M152.292 131.195C148.957 134.778 147.023 139.385 145.13 143.93L139.799 156.849C139.627 157.144 139.522 157.473 139.492 157.813C139.462 158.152 139.508 158.495 139.625 158.815C139.827 159.072 140.083 159.281 140.375 159.427C140.667 159.574 140.987 159.655 141.314 159.665C144.027 160.075 146.759 160.349 149.499 160.484C163.339 161.343 177.203 161.661 191.091 161.436C192.756 161.523 194.42 161.24 195.962 160.606C199.788 158.672 200.054 153.348 199.41 149.12C198.637 144.194 197.262 139.38 195.317 134.789C194.634 132.969 193.629 131.287 192.35 129.824C189.178 126.497 184.164 125.964 179.55 125.831C170.791 125.616 158.861 124.122 152.292 131.195Z"/>
</mask>
<path d="M152.292 131.195C148.957 134.778 147.023 139.385 145.13 143.93L139.799 156.849C139.627 157.144 139.522 157.473 139.492 157.813C139.462 158.152 139.508 158.495 139.625 158.815C139.827 159.072 140.083 159.281 140.375 159.427C140.667 159.574 140.987 159.655 141.314 159.665C144.027 160.075 146.759 160.349 149.499 160.484C163.339 161.343 177.203 161.661 191.091 161.436C192.756 161.523 194.42 161.24 195.962 160.606C199.788 158.672 200.054 153.348 199.41 149.12C198.637 144.194 197.262 139.38 195.317 134.789C194.634 132.969 193.629 131.287 192.35 129.824C189.178 126.497 184.164 125.964 179.55 125.831C170.791 125.616 158.861 124.122 152.292 131.195Z" fill="#FCFCFC"/>
<path d="M152.292 131.195L152.512 131.4L152.512 131.4L152.292 131.195ZM145.13 143.93L144.853 143.815L144.853 143.816L145.13 143.93ZM139.799 156.849L140.058 157.001L140.069 156.983L140.077 156.964L139.799 156.849ZM139.625 158.815L139.344 158.918L139.36 158.963L139.39 159L139.625 158.815ZM141.314 159.665L141.359 159.368L141.34 159.365L141.322 159.365L141.314 159.665ZM149.499 160.484L149.518 160.184L149.514 160.184L149.499 160.484ZM191.091 161.436L191.107 161.136L191.097 161.135L191.087 161.136L191.091 161.436ZM195.962 160.606L196.076 160.884L196.087 160.879L196.097 160.874L195.962 160.606ZM199.41 149.12L199.706 149.075L199.706 149.074L199.41 149.12ZM195.317 134.789L195.036 134.894L195.041 134.906L195.317 134.789ZM192.35 129.824L192.576 129.626L192.567 129.617L192.35 129.824ZM179.55 125.831L179.559 125.531L179.557 125.531L179.55 125.831ZM152.073 130.991C148.694 134.62 146.742 139.278 144.853 143.815L145.407 144.046C147.304 139.492 149.219 134.937 152.512 131.4L152.073 130.991ZM144.853 143.816L139.522 156.735L140.077 156.964L145.407 144.045L144.853 143.816ZM139.54 156.698C139.346 157.031 139.228 157.402 139.194 157.786L139.791 157.839C139.817 157.543 139.909 157.257 140.058 157.001L139.54 156.698ZM139.194 157.786C139.16 158.17 139.211 158.557 139.344 158.918L139.907 158.711C139.805 158.433 139.765 158.135 139.791 157.839L139.194 157.786ZM139.39 159C139.619 159.292 139.909 159.529 140.24 159.695L140.51 159.159C140.258 159.032 140.036 158.851 139.861 158.629L139.39 159ZM140.24 159.695C140.571 159.862 140.935 159.954 141.305 159.964L141.322 159.365C141.04 159.357 140.762 159.287 140.51 159.159L140.24 159.695ZM141.269 159.961C143.992 160.373 146.734 160.648 149.484 160.783L149.514 160.184C146.783 160.049 144.061 159.777 141.359 159.368L141.269 159.961ZM149.48 160.783C163.329 161.643 177.2 161.961 191.096 161.736L191.087 161.136C177.206 161.361 163.35 161.044 149.518 160.184L149.48 160.783ZM191.076 161.735C192.785 161.825 194.493 161.535 196.076 160.884L195.848 160.329C194.347 160.946 192.728 161.222 191.107 161.136L191.076 161.735ZM196.097 160.874C198.118 159.852 199.18 157.941 199.655 155.788C200.131 153.637 200.032 151.209 199.706 149.075L199.113 149.166C199.433 151.26 199.523 153.607 199.07 155.659C198.617 157.707 197.632 159.426 195.826 160.339L196.097 160.874ZM199.706 149.074C198.93 144.123 197.548 139.286 195.593 134.672L195.041 134.906C196.977 139.475 198.344 144.264 199.113 149.167L199.706 149.074ZM195.598 134.683C194.903 132.83 193.879 131.116 192.576 129.626L192.124 130.021C193.38 131.457 194.366 133.108 195.036 134.894L195.598 134.683ZM192.567 129.617C189.301 126.19 184.164 125.664 179.559 125.531L179.541 126.131C184.165 126.264 189.056 126.803 192.133 130.031L192.567 129.617ZM179.557 125.531C175.203 125.424 169.994 124.995 165.071 125.482C160.141 125.968 155.429 127.376 152.073 130.991L152.512 131.4C155.724 127.941 160.262 126.559 165.13 126.079C170.003 125.597 175.139 126.023 179.543 126.131L179.557 125.531Z" fill="black" mask="url(#path-5-inside-1)"/>
<path d="M141.967 129.283L141.964 129.264C141.884 128.832 141.647 128.444 141.298 128.176C140.95 127.907 140.515 127.777 140.076 127.81L140.067 127.811L140.058 127.81C138.861 127.758 137.661 127.802 136.471 127.943L136.457 127.944L136.457 127.944C135.725 127.964 135.02 128.226 134.452 128.689C134.045 129.185 133.793 129.791 133.727 130.43L133.726 130.442L133.726 130.441C133.243 133.059 133.28 135.713 133.493 138.386C133.6 139.722 133.75 141.061 133.901 142.402L133.904 142.427C134.054 143.759 134.204 145.093 134.311 146.423C134.311 146.423 134.311 146.423 134.311 146.423L134.161 146.435C134.198 146.888 134.231 147.343 134.264 147.801C134.495 151.028 134.732 154.33 136.453 157.02L141.967 129.283ZM141.967 129.283L141.975 129.3C146.025 138.099 147.405 148.098 148.111 157.686L148.111 157.686L148.112 157.697C148.206 158.335 148.149 158.987 147.946 159.599C147.703 160.181 147.219 160.596 146.619 160.867C146.017 161.139 145.308 161.262 144.639 161.262L144.638 161.262C143.04 161.273 141.465 160.883 140.057 160.128C138.65 159.373 137.454 158.276 136.579 156.939L141.967 129.283Z" fill="white" stroke="black" stroke-width="0.3"/>
<path d="M143.582 120.464L143.582 120.464C143.788 120.149 143.923 119.793 143.979 119.42C143.999 119.247 143.967 119.071 143.886 118.915C143.806 118.762 143.683 118.636 143.532 118.553C143.234 118.442 142.953 118.582 142.604 118.832C142.548 118.872 142.489 118.915 142.429 118.96C142.312 119.047 142.189 119.138 142.067 119.218C141.878 119.34 141.672 119.449 141.446 119.495C140.996 119.587 140.612 119.452 140.282 119.23C139.975 119.023 139.703 118.735 139.458 118.474C139.444 118.459 139.429 118.444 139.415 118.429C137.154 116.177 134.482 114.378 131.545 113.129L131.535 113.125L131.526 113.12C131.391 113.038 131.242 112.985 131.086 112.964C130.934 112.942 130.78 112.951 130.632 112.989C130.538 113.037 130.463 113.156 130.446 113.286C130.429 113.423 130.479 113.493 130.543 113.513L130.51 113.806C130.165 113.833 129.821 113.748 129.528 113.565C129.407 113.515 129.262 113.489 129.138 113.503C129.012 113.518 128.932 113.568 128.895 113.648C128.88 113.68 128.876 113.724 128.889 113.793C128.902 113.863 128.93 113.94 128.965 114.032C128.966 114.037 128.968 114.042 128.97 114.046C129.002 114.13 129.038 114.227 129.059 114.322C129.082 114.423 129.092 114.539 129.055 114.654L129.023 114.756L128.916 114.758C128.554 114.767 128.193 114.71 127.851 114.59L143.582 120.464ZM143.582 120.464L143.578 120.471C143.332 120.897 143.072 121.32 142.812 121.746C142.268 122.633 141.718 123.528 141.28 124.474M143.582 120.464L141.28 124.474M141.28 124.474C141.281 124.473 141.281 124.473 141.281 124.473L141.416 124.538L141.28 124.475C141.28 124.475 141.28 124.474 141.28 124.474Z" fill="white" stroke="black" stroke-width="0.3"/>
<path d="M183.485 145.19L183.485 145.19L183.489 145.203C183.683 145.831 183.736 146.493 183.646 147.144C183.555 147.791 183.324 148.411 182.969 148.96C182.124 149.983 180.639 150.199 179.235 150.271L179.235 150.271C176.786 150.4 174.321 150.33 171.851 150.26C170.887 150.233 169.921 150.206 168.956 150.19C165.526 150.135 162.104 150.229 158.753 151.01C157.762 151.138 156.848 151.611 156.172 152.346L156.161 152.359L156.152 152.374C155.564 153.415 155.394 154.64 155.674 155.801L156.223 160.474L149.771 159.302L149.771 159.302L149.765 159.301C149.541 159.271 149.325 159.197 149.13 159.084C148.85 158.807 148.685 158.434 148.667 158.04L148.666 158.028L148.663 158.016C148.121 155.482 147.885 152.893 147.961 150.303C148.048 147.717 149.064 145.249 150.822 143.352C152.493 141.868 154.509 140.826 156.685 140.32L156.685 140.32L156.693 140.318C161.774 138.853 167.122 138.422 172.437 137.993L172.492 137.989C172.704 137.972 172.929 137.952 173.164 137.932C174.208 137.84 175.444 137.732 176.655 137.768C178.141 137.813 179.552 138.075 180.5 138.827C181.294 139.468 181.939 140.564 182.439 141.758C182.937 142.948 183.282 144.218 183.485 145.19Z" fill="#FDFDFD" stroke="black" stroke-width="0.3"/>
<path d="M155.623 109.929L155.624 109.929L155.624 109.923C155.829 106.79 156.026 103.671 156.217 100.565L156.068 100.556L156.217 100.566C156.24 100.205 156.256 99.8538 156.272 99.5116C156.359 97.6675 156.433 96.0733 157.413 94.493L157.413 94.493L157.413 94.4919C158.552 92.6206 160.257 91.1615 162.281 90.3268C164.305 89.4921 166.542 89.3252 168.667 89.8504C173.322 91.0428 176.853 95.1011 178.57 99.6266L178.57 99.6267L178.571 99.6286C179.338 101.566 179.74 103.629 179.758 105.713C179.676 107.523 179.462 109.324 179.116 111.102L179.116 111.102L179.115 111.108C178.715 113.683 178.499 116.283 178.469 118.889L178.469 118.889L178.469 118.896C178.536 120.834 178.423 122.775 178.133 124.692C177.826 126.599 176.796 128.313 175.256 129.478C174.487 130.022 173.559 130.298 172.618 130.26C171.677 130.223 170.775 129.875 170.053 129.272C169.362 128.604 169.03 127.735 168.692 126.795C168.677 126.755 168.663 126.715 168.649 126.675C168.326 125.778 167.985 124.827 167.294 124.005C166.568 123.14 165.58 122.658 164.534 122.291C164.088 122.135 163.627 121.998 163.169 121.862C163.09 121.839 163.011 121.816 162.933 121.792C162.396 121.633 161.867 121.469 161.362 121.269C159.994 120.726 158.776 119.863 157.807 118.755C156.84 117.647 156.15 116.325 155.795 114.897C155.5 113.258 155.442 111.585 155.623 109.929Z" fill="url(#paint1_linear)" stroke="black" stroke-width="0.3"/>
<path d="M151.49 84.8134L151.491 84.8134L151.49 84.8035C151.472 84.4767 151.553 84.1521 151.721 83.8714C151.95 83.5651 152.308 83.466 152.74 83.4948C153.175 83.5239 153.656 83.6826 154.076 83.8549C156.376 84.8085 158.933 84.9413 161.319 84.2313C163.581 83.8643 165.901 84.1887 167.975 85.1624L167.975 85.1627L167.985 85.1668C172.625 86.9268 176.532 90.2077 179.069 94.4745C179.542 95.4618 180.181 96.3604 180.958 97.1309L180.958 97.1309L180.962 97.1342C181.187 97.3435 181.442 97.5159 181.694 97.6777C181.742 97.7089 181.791 97.7397 181.839 97.7703C182.042 97.9 182.24 98.026 182.425 98.1671C183.573 99.0584 184.161 100.342 184.406 101.793C184.652 103.246 184.552 104.856 184.333 106.38C183.893 109.436 183.1 112.581 181.085 114.839L181.084 114.839L181.076 114.849C180.86 115.14 180.555 115.353 180.208 115.456C179.953 115.472 179.697 115.435 179.457 115.345C179.213 115.254 178.991 115.111 178.806 114.925L178.8 114.919L178.792 114.913C178.251 114.492 177.736 114.038 177.251 113.553L177.245 113.547L177.238 113.542C177.089 113.424 176.983 113.26 176.936 113.075C176.929 112.853 177.007 112.636 177.155 112.469L177.16 112.463L177.165 112.456C177.431 112.083 177.737 111.739 178.049 111.388C178.085 111.348 178.12 111.308 178.156 111.268C178.502 110.879 178.848 110.478 179.132 110.027C179.452 109.583 179.644 109.059 179.686 108.513C179.727 107.965 179.617 107.416 179.366 106.927L179.362 106.919L179.358 106.913C179.038 106.428 178.444 106.17 177.89 106.166C177.334 106.162 176.774 106.416 176.573 107.008L176.573 107.009C176.567 107.025 176.562 107.042 176.556 107.059C176.481 107.286 176.394 107.548 176.285 107.731C176.225 107.83 176.172 107.882 176.132 107.902C176.115 107.91 176.101 107.912 176.088 107.91C176.082 107.909 176.074 107.908 176.064 107.904C175.672 105.534 175.2 103.03 174.337 100.765C173.465 98.4769 172.189 96.4233 170.182 94.998L170.182 94.9979L170.177 94.9947C168.1 93.6382 165.582 93.1291 163.141 93.5719C160.7 94.0147 158.521 95.3758 157.052 97.3757L157.052 97.3757L157.05 97.378C157.015 97.4275 156.98 97.4773 156.945 97.5271C156.705 97.87 156.462 98.2159 156.186 98.4905C155.874 98.7995 155.538 98.9997 155.138 99.0036C154.825 98.9509 154.532 98.8114 154.294 98.6009C154.053 98.3878 153.877 98.1105 153.787 97.8013L153.787 97.8012L153.783 97.7909C153.665 97.4733 153.589 97.1479 153.511 96.8159C153.508 96.8007 153.504 96.7854 153.501 96.7702C153.42 96.4258 153.336 96.074 153.198 95.7387L153.198 95.738C152.936 95.1138 152.507 94.5887 152.047 94.0965C151.892 93.9304 151.735 93.7691 151.578 93.609C151.265 93.2881 150.956 92.9719 150.679 92.6303C150.274 92.1309 149.959 91.4818 149.86 90.85C149.762 90.2225 149.878 89.6301 150.303 89.204C150.949 88.7146 151.75 88.4764 152.558 88.5339L152.899 88.5583L152.685 88.2906C151.897 87.3047 151.475 86.0759 151.49 84.8134Z" fill="white" stroke="black" stroke-width="0.3"/>
<path d="M208.24 161.47V226.39C208.24 230.255 206.705 233.962 203.973 236.696C201.241 239.43 197.535 240.967 193.67 240.97H106.65V161.47H208.24Z" stroke="black" stroke-width="0.3"/>
<path d="M208.23 161.47V226.39C208.227 230.253 206.693 233.957 203.964 236.69C201.234 239.423 197.532 240.962 193.67 240.97H106.65V161.47H208.23Z" stroke="black" stroke-width="0.3"/>
<path d="M208.23 199H208.38V226.39C208.386 230.17 206.931 233.807 204.32 236.54M208.23 199V198.85H109.82V199M208.23 199V226.39V226.39C208.236 230.111 206.812 233.69 204.256 236.39M208.23 199H109.82M109.82 199H109.67V236.39H109.82M109.82 199V236.39M109.82 236.39V236.54H204.32M109.82 236.39H204.256M204.32 236.54L204.211 236.436C204.226 236.421 204.241 236.406 204.256 236.39M204.32 236.54V236.39H204.256" fill="url(#paint2_linear)"/>
<path d="M208.23 199H208.38V226.39C208.386 230.17 206.931 233.807 204.32 236.54M208.23 199V198.85H109.82V199M208.23 199V226.39V226.39C208.236 230.111 206.812 233.69 204.256 236.39M208.23 199H109.82M109.82 199H109.67V236.39H109.82M109.82 199V236.39M109.82 236.39V236.54H204.32M109.82 236.39H204.256M204.32 236.54L204.211 236.436C204.226 236.421 204.241 236.406 204.256 236.39M204.32 236.54V236.39H204.256" fill="url(#paint3_linear)"/>
<path d="M208.23 199H208.38V226.39C208.386 230.17 206.931 233.807 204.32 236.54M208.23 199V198.85H109.82V199M208.23 199V226.39V226.39C208.236 230.111 206.812 233.69 204.256 236.39M208.23 199H109.82M109.82 199H109.67V236.39H109.82M109.82 199V236.39M109.82 236.39V236.54H204.32M109.82 236.39H204.256M204.32 236.54L204.211 236.436C204.226 236.421 204.241 236.406 204.256 236.39M204.32 236.54V236.39H204.256" stroke="black" stroke-width="0.3"/>
<path d="M94.5784 18.4899L66.9151 51.4436L66.8593 51.5101H47.1084L47.6725 50.9795L47.6727 50.9793L58.8025 40.5495L58.8028 40.5498L58.8098 40.5422L79.3253 18.4801L94.5784 18.4899Z" fill="url(#paint4_linear)" stroke="black" stroke-width="0.3"/>
<path d="M147.669 51.3905L127.821 51.5079L128.383 50.9794L128.39 50.9724L128.397 50.9645L154.683 18.4785L175.096 18.0175L147.669 51.3905Z" fill="url(#paint5_linear)" stroke="black" stroke-width="0.3"/>
<path d="M185.029 51.3905L165.181 51.5079L165.743 50.9794L165.75 50.9724L165.756 50.9645L192.043 18.4785L212.456 18.0175L185.029 51.3905Z" fill="#FCFCFC" stroke="black" stroke-width="0.3"/>
<path d="M107.79 51.73H127.6C127.268 54.121 126.082 56.3112 124.262 57.8964C122.441 59.4817 120.109 60.3549 117.695 60.3549C115.281 60.3549 112.949 59.4817 111.128 57.8964C109.308 56.3112 108.122 54.121 107.79 51.73V51.73Z" fill="#68E1FD"/>
<path d="M87.6699 51.73H107.48C107.148 54.121 105.962 56.3112 104.142 57.8964C102.321 59.4817 99.9889 60.3549 97.5749 60.3549C95.161 60.3549 92.8285 59.4817 91.008 57.8964C89.1875 56.3112 88.0019 54.121 87.6699 51.73V51.73Z" fill="#68E1FD"/>
<path d="M167.79 51.6101C167.479 54.0106 166.309 56.217 164.495 57.8201C162.682 59.4232 160.348 60.3141 157.928 60.3275C155.507 60.3409 153.164 59.476 151.333 57.8932C149.502 56.3103 148.307 54.117 147.97 51.7201H167.67L167.79 51.6101Z" fill="#68E1FD"/>
<path d="M185.01 51.6101C184.53 56.6101 180.85 60.4801 176.39 60.4801C171.93 60.4801 168.3 56.6501 167.78 51.7201H184.94L185.01 51.6101Z" fill="black"/>
<path d="M67.6699 51.73H87.4799C87.148 54.121 85.9623 56.3112 84.1418 57.8964C82.3213 59.4817 79.9889 60.3549 77.5749 60.3549C75.161 60.3549 72.8285 59.4817 71.008 57.8964C69.1875 56.3112 68.0019 54.121 67.6699 51.73V51.73Z" fill="white"/>
<path d="M127.88 51.73H147.67C147.338 54.121 146.153 56.3112 144.332 57.8964C142.512 59.4817 140.179 60.3549 137.765 60.3549C135.351 60.3549 133.019 59.4817 131.198 57.8964C129.378 56.3112 128.192 54.121 127.86 51.73H127.88Z" fill="white"/>
<path d="M47.5303 51.73H67.3403C67.0083 54.121 65.8227 56.3112 64.0022 57.8964C62.1817 59.4817 59.8492 60.3549 57.4353 60.3549C55.0213 60.3549 52.6889 59.4817 50.8684 57.8964C49.0479 56.3112 47.8622 54.121 47.5303 51.73V51.73Z" fill="white"/>
<path d="M111.227 57.7833C109.477 56.2597 108.322 54.1686 107.964 51.88H127.426C127.068 54.1686 125.913 56.2597 124.163 57.7833C122.37 59.3448 120.073 60.2049 117.695 60.2049C115.317 60.2049 113.02 59.3448 111.227 57.7833Z" fill="white" stroke="black" stroke-width="0.3"/>
<path d="M91.1065 57.7833C89.3567 56.2597 88.2024 54.1686 87.8437 51.88H107.306C106.947 54.1686 105.793 56.2597 104.043 57.7833C102.25 59.3448 99.9527 60.2049 97.5749 60.2049C95.1972 60.2049 92.8997 59.3448 91.1065 57.7833Z" fill="white" stroke="black" stroke-width="0.3"/>
<path d="M148.134 51.99H167.591C167.233 54.246 166.102 56.3109 164.386 57.8276C162.6 59.4066 160.301 60.2841 157.917 60.2974C155.533 60.3106 153.225 59.4586 151.421 57.8995C149.661 56.3781 148.498 54.2842 148.134 51.99Z" fill="white" stroke="black" stroke-width="0.3"/>
<path d="M167.948 51.9402H184.771C184.197 56.7427 180.632 60.4002 176.36 60.4002C172.055 60.4002 168.525 56.7225 167.948 51.9402Z" fill="white" stroke="black" stroke-width="0.3"/>
<path d="M71.1065 57.7833C69.3567 56.2597 68.2024 54.1686 67.8437 51.88H87.3061C86.9475 54.1686 85.7931 56.2597 84.0433 57.7833C82.2501 59.3448 79.9527 60.2049 77.5749 60.2049C75.1972 60.2049 72.8997 59.3448 71.1065 57.7833Z" fill="white" stroke="black" stroke-width="0.3"/>
<path d="M131.297 57.7833C129.547 56.2597 128.393 54.1686 128.034 51.88H147.497C147.138 54.1686 145.984 56.2597 144.234 57.7833C142.441 59.3448 140.143 60.2049 137.765 60.2049C135.388 60.2049 133.09 59.3448 131.297 57.7833Z" fill="white" stroke="black" stroke-width="0.3"/>
<path d="M50.9669 57.7833C49.2171 56.2597 48.0627 54.1686 47.7041 51.88H67.1665C66.8078 54.1686 65.6535 56.2597 63.9037 57.7833C62.1105 59.3448 59.813 60.2049 57.4353 60.2049C55.0575 60.2049 52.7601 59.3448 50.9669 57.7833Z" fill="white" stroke="black" stroke-width="0.3"/>
<path d="M87.3494 51.5801H67.6485L94.7815 18.7292L114.668 18.4841L87.3494 51.5801Z" fill="url(#paint6_linear)" stroke="black" stroke-width="0.3"/>
<path d="M127.627 51.5801H107.929L135.062 18.7286L153.717 18.3073L127.627 51.5801Z" fill="url(#paint7_linear)" stroke="black" stroke-width="0.3"/>
<path d="M167.897 51.5801H148.208L175.332 18.7286L193.996 18.3073L167.897 51.5801Z" fill="url(#paint8_linear)" stroke="#FCFCFC" stroke-width="0.3"/>
<path d="M211.516 46.1257L185.484 51.2812L212.937 18.0249L211.516 46.1257Z" fill="#FCFCFC" stroke="black" stroke-width="0.3"/>
<path d="M127.1 247.5H148.38C151.423 247.5 153.89 249.967 153.89 253.01C153.89 256.053 151.423 258.52 148.38 258.52H127.1C124.057 258.52 121.59 256.053 121.59 253.01C121.59 249.967 124.057 247.5 127.1 247.5Z" fill="white" stroke="black" stroke-width="0.3"/>
<path d="M109.78 165.05H208.23V194.03H109.78V165.05Z" stroke="black" stroke-width="0.3"/>
<path d="M116.71 173.39H135.34V193.65H116.71V173.39Z" stroke="black" stroke-width="0.3"/>
<path d="M116.71 173.39H135.34V193.65H116.71V173.39Z" stroke="black" stroke-width="0.3"/>
<path d="M159.94 182.15H141.01V193.8H159.94V182.15Z" fill="url(#paint9_linear)"/>
<path d="M114.02 173.39H132.65V193.65H114.02V173.39Z" fill="white" stroke="black" stroke-width="0.3"/>
<path d="M141.55 183.47H155.96V193.88H141.55V183.47Z" stroke="black" stroke-width="0.3"/>
<path d="M116.29 214.96H134.92V235.22H116.29V214.96Z" stroke="black" stroke-width="0.3"/>
<path d="M141.13 225.04H155.54V235.45H141.13V225.04Z" stroke="black" stroke-width="0.3"/>
<path d="M180.27 187.37C180.27 190.966 177.355 193.88 173.76 193.88C170.165 193.88 167.25 190.966 167.25 187.37C167.25 183.775 170.165 180.86 173.76 180.86C177.355 180.86 180.27 183.775 180.27 187.37Z" fill="url(#paint10_linear)" stroke="black" stroke-width="0.3"/>
<path d="M174.17 229C174.17 232.595 171.255 235.51 167.66 235.51C164.065 235.51 161.15 232.595 161.15 229C161.15 225.405 164.065 222.49 167.66 222.49C171.255 222.49 174.17 225.405 174.17 229Z" fill="url(#paint11_linear)" stroke="black" stroke-width="0.3"/>
<path d="M177.82 187.37C177.82 190.966 174.905 193.88 171.31 193.88C167.715 193.88 164.8 190.966 164.8 187.37C164.8 183.775 167.715 180.86 171.31 180.86C174.905 180.86 177.82 183.775 177.82 187.37Z" stroke="black" stroke-width="0.3"/>
<path d="M171.74 229.12C171.74 232.716 168.826 235.63 165.23 235.63C161.635 235.63 158.72 232.716 158.72 229.12C158.72 225.525 161.635 222.61 165.23 222.61C168.826 222.61 171.74 225.525 171.74 229.12Z" fill="#FCFCFC" stroke="black" stroke-width="0.3"/>
<path d="M194.61 226.22C194.61 231.042 190.701 234.95 185.88 234.95C181.059 234.95 177.15 231.042 177.15 226.22C177.15 221.399 181.059 217.49 185.88 217.49C190.701 217.49 194.61 221.399 194.61 226.22Z" fill="url(#paint12_linear)" stroke="black" stroke-width="0.3"/>
<path d="M200.29 185.15C200.29 189.971 196.381 193.88 191.56 193.88C186.738 193.88 182.83 189.971 182.83 185.15C182.83 180.329 186.738 176.42 191.56 176.42C196.381 176.42 200.29 180.329 200.29 185.15Z" stroke="black" stroke-width="0.3"/>
<path d="M191.88 226.59C191.88 231.412 187.971 235.32 183.15 235.32C178.329 235.32 174.42 231.412 174.42 226.59C174.42 221.769 178.329 217.86 183.15 217.86C187.971 217.86 191.88 221.769 191.88 226.59Z" fill="#FCFCFC" stroke="black" stroke-width="0.3"/>
<defs>
<linearGradient id="paint0_linear" x1="122.069" y1="205.514" x2="114.172" y2="324.632" gradientUnits="userSpaceOnUse">
<stop offset="0.01" stop-color="white"/>
<stop offset="0.13" stop-color="white"/>
<stop offset="1" stop-color="white"/>
</linearGradient>
<linearGradient id="paint1_linear" x1="14330.4" y1="-27817.8" x2="14936.6" y2="-28061.2" gradientUnits="userSpaceOnUse">
<stop stop-color="white"/>
<stop offset="0.42" stop-color="#EAD4D1"/>
<stop offset="1" stop-color="#F0E9CB"/>
</linearGradient>
<linearGradient id="paint2_linear" x1="23602.6" y1="9514.31" x2="23809.8" y2="13882.7" gradientUnits="userSpaceOnUse">
<stop offset="0.01" stop-color="#FCFCFC"/>
<stop offset="0.13" stop-opacity="0.69"/>
<stop offset="1" stop-opacity="0"/>
</linearGradient>
<linearGradient id="paint3_linear" x1="23602.6" y1="9514.31" x2="23809.8" y2="13882.7" gradientUnits="userSpaceOnUse">
<stop offset="0.01" stop-color="#FCFCFC"/>
<stop offset="0.13" stop-opacity="0.69"/>
<stop offset="1" stop-opacity="0"/>
</linearGradient>
<linearGradient id="paint4_linear" x1="23044.1" y1="2269.77" x2="22997.8" y2="4721.95" gradientUnits="userSpaceOnUse">
<stop offset="0.01" stop-color="#FCFCFC"/>
<stop offset="0.13" stop-opacity="0.69"/>
<stop offset="1" stop-opacity="0"/>
</linearGradient>
<linearGradient id="paint5_linear" x1="9757.5" y1="2158.75" x2="9618.98" y2="4669.69" gradientUnits="userSpaceOnUse">
<stop offset="0.01" stop-opacity="0"/>
<stop offset="0.13" stop-opacity="0.69"/>
<stop offset="1" stop-opacity="0"/>
</linearGradient>
<linearGradient id="paint6_linear" x1="5516.3" y1="3114.18" x2="7787.77" y2="3114.18" gradientUnits="userSpaceOnUse">
<stop offset="0.02" stop-color="#FCFCFC"/>
<stop offset="0.32" stop-color="white" stop-opacity="0.39"/>
<stop offset="0.68" stop-color="white" stop-opacity="0.68"/>
<stop offset="1" stop-color="white"/>
</linearGradient>
<linearGradient id="paint7_linear" x1="7284.61" y1="3127.66" x2="9439.42" y2="3127.66" gradientUnits="userSpaceOnUse">
<stop offset="0.02" stop-color="white" stop-opacity="0"/>
<stop offset="0.32" stop-color="white" stop-opacity="0.39"/>
<stop offset="0.68" stop-color="white" stop-opacity="0.68"/>
<stop offset="1" stop-color="white"/>
</linearGradient>
<linearGradient id="paint8_linear" x1="9194.68" y1="3127.66" x2="11349.5" y2="3127.66" gradientUnits="userSpaceOnUse">
<stop offset="0.02" stop-color="white" stop-opacity="0"/>
<stop offset="0.32" stop-color="white" stop-opacity="0.39"/>
<stop offset="0.68" stop-color="white" stop-opacity="0.68"/>
<stop offset="1" stop-color="white"/>
</linearGradient>
<linearGradient id="paint9_linear" x1="4056.49" y1="3014.97" x2="3543.91" y2="3234.79" gradientUnits="userSpaceOnUse">
<stop offset="0.01"/>
<stop offset="0.13" stop-opacity="0.69"/>
<stop offset="1" stop-opacity="0"/>
</linearGradient>
<linearGradient id="paint10_linear" x1="3150.91" y1="3333.69" x2="3013.32" y2="3686.14" gradientUnits="userSpaceOnUse">
<stop offset="0.01" stop-opacity="0"/>
<stop offset="0.13" stop-opacity="0.69"/>
<stop offset="1" stop-opacity="0"/>
</linearGradient>
<linearGradient id="paint11_linear" x1="3144.81" y1="3375.32" x2="3007.22" y2="3727.77" gradientUnits="userSpaceOnUse">
<stop offset="0.01" stop-opacity="0"/>
<stop offset="0.13" stop-opacity="0.69"/>
<stop offset="1" stop-opacity="0"/>
</linearGradient>
<linearGradient id="paint12_linear" x1="4548.8" y1="4332.69" x2="4304.07" y2="4959.26" gradientUnits="userSpaceOnUse">
<stop offset="0.01" stop-color="white"/>
<stop offset="0.13" stop-opacity="0.69"/>
<stop offset="1" stop-opacity="0"/>
</linearGradient>
</defs>
</svg>
