<svg width="1368" height="1010" viewBox="0 0 1368 1010" fill="none" xmlns="http://www.w3.org/2000/svg">
<g clip-path="url(#clip0)">
<path d="M1284.4 94.138L1460.74 -10.8762C1475.22 -19.5024 1491.01 -1.86954 1480.85 11.5803C1479.42 13.4725 1478.45 15.6703 1478.01 18.0013L1473.5 41.9849C1464.52 89.7034 1427.51 127.219 1379.92 136.851L1290.55 154.939L1161.67 179.151C1043.66 201.321 928.625 237.149 818.894 285.912L669.15 330.323L249.434 463.604C235.277 468.1 221.558 473.874 208.447 480.855L-39.4996 612.873C-66.2635 627.124 -99.1024 610.812 -103.918 580.876C-106.831 562.764 -98.256 544.735 -82.367 535.567L162.642 394.196C176.665 386.104 187.588 373.565 193.681 358.565C201.219 340.006 216.079 325.376 234.754 318.128L434.688 240.528C475.947 224.514 521.837 225.293 562.529 242.699C604.544 260.67 652.04 260.894 694.223 243.319L719.486 232.794L777.719 202.143C820.322 179.72 867.063 166.254 915.065 162.576C939.292 160.719 963.263 156.364 986.594 149.581L1099.8 116.667C1127.43 108.634 1155.99 104.236 1184.75 103.584L1257.25 101.942C1266.82 101.725 1276.17 99.0366 1284.4 94.138Z" fill="#D9F7FA"/>
<path d="M1284.4 94.138L1460.74 -10.8762C1475.22 -19.5024 1491.01 -1.86954 1480.85 11.5803C1479.42 13.4725 1478.45 15.6703 1478.01 18.0013L1473.5 41.9849C1464.52 89.7034 1427.51 127.219 1379.92 136.851L1290.55 154.939L1161.67 179.151C1043.66 201.321 928.625 237.149 818.894 285.912L669.15 330.323L249.434 463.604C235.277 468.1 221.558 473.874 208.447 480.855L-39.4996 612.873C-66.2635 627.124 -99.1024 610.812 -103.918 580.876C-106.831 562.764 -98.256 544.735 -82.367 535.567L162.642 394.196C176.665 386.104 187.588 373.565 193.681 358.565C201.219 340.006 216.079 325.376 234.754 318.128L434.688 240.528C475.947 224.514 521.837 225.293 562.529 242.699C604.544 260.67 652.04 260.894 694.223 243.319L719.486 232.794L777.719 202.143C820.322 179.72 867.063 166.254 915.065 162.576C939.292 160.719 963.263 156.364 986.594 149.581L1099.8 116.667C1127.43 108.634 1155.99 104.236 1184.75 103.584L1257.25 101.942C1266.82 101.725 1276.17 99.0366 1284.4 94.138Z" fill="url(#paint0_linear)"/>
<path d="M1345.58 125.989L1467.61 49.1527C1476.55 43.5223 1488.25 45.1929 1495.26 53.1003C1502.36 61.1068 1502.52 73.1043 1495.64 81.299L1451.74 133.594C1442.63 144.454 1431.32 153.267 1418.56 159.456L1364.23 185.814C1334.53 200.223 1303.1 210.737 1270.71 217.096L1148.22 241.141C1074.79 255.556 1002.69 276.068 932.672 302.463L865.025 327.964L698.093 382.901L282.136 514.989C265.479 520.279 249.336 527.073 233.909 535.287L-17.0879 668.93C-42.2853 682.346 -73.5036 669.999 -82.7075 642.977C-89.9204 621.802 -80.9693 598.497 -61.4356 587.594L159.322 464.375C194.98 444.472 233.85 430.971 274.169 424.485L460.865 394.453C499.267 388.275 534.816 370.365 562.633 343.179C596.021 310.55 640.333 291.477 686.982 289.658L736.172 287.739C772.191 286.335 807.706 278.783 841.18 265.411L922.899 232.767L1128.85 169.831C1156.4 161.413 1184.97 156.814 1213.76 156.161L1247.88 155.388C1282.5 154.604 1316.27 144.443 1345.58 125.989Z" fill="#F6D6FC"/>
<path d="M1345.58 125.989L1467.61 49.1527C1476.55 43.5223 1488.25 45.1929 1495.26 53.1003C1502.36 61.1068 1502.52 73.1043 1495.64 81.299L1451.74 133.594C1442.63 144.454 1431.32 153.267 1418.56 159.456L1364.23 185.814C1334.53 200.223 1303.1 210.737 1270.71 217.096L1148.22 241.141C1074.79 255.556 1002.69 276.068 932.672 302.463L865.025 327.964L698.093 382.901L282.136 514.989C265.479 520.279 249.336 527.073 233.909 535.287L-17.0879 668.93C-42.2853 682.346 -73.5036 669.999 -82.7075 642.977C-89.9204 621.802 -80.9693 598.497 -61.4356 587.594L159.322 464.375C194.98 444.472 233.85 430.971 274.169 424.485L460.865 394.453C499.267 388.275 534.816 370.365 562.633 343.179C596.021 310.55 640.333 291.477 686.982 289.658L736.172 287.739C772.191 286.335 807.706 278.783 841.18 265.411L922.899 232.767L1128.85 169.831C1156.4 161.413 1184.97 156.814 1213.76 156.161L1247.88 155.388C1282.5 154.604 1316.27 144.443 1345.58 125.989Z" fill="url(#paint1_linear)"/>
<path d="M11.9412 674.274L140.507 597.751C200.202 562.22 266.082 538.307 334.669 527.274L450.465 508.647C508.25 499.351 564.566 482.514 617.969 458.566L661.782 438.919C670.458 435.028 679.476 431.952 688.72 429.731L781.405 407.459C809.674 400.666 838.267 417.39 846.203 445.36C855.208 477.096 834.007 509.448 801.314 513.859L578.433 543.931C564.38 545.828 550.513 548.92 536.986 553.175L277.875 634.681L19.3566 746.696C18.1214 747.231 16.9367 747.876 15.8166 748.622C-3.49144 761.494 -27.2998 740.297 -16.7464 719.63L-0.201269 687.229C2.54426 681.853 6.75357 677.362 11.9412 674.274Z" fill="#FFFFC4"/>
<path d="M11.9412 674.274L140.507 597.751C200.202 562.22 266.082 538.307 334.669 527.274L450.465 508.647C508.25 499.351 564.566 482.514 617.969 458.566L661.782 438.919C670.458 435.028 679.476 431.952 688.72 429.731L781.405 407.459C809.674 400.666 838.267 417.39 846.203 445.36C855.208 477.096 834.007 509.448 801.314 513.859L578.433 543.931C564.38 545.828 550.513 548.92 536.986 553.175L277.875 634.681L19.3566 746.696C18.1214 747.231 16.9367 747.876 15.8166 748.622C-3.49144 761.494 -27.2998 740.297 -16.7464 719.63L-0.201269 687.229C2.54426 681.853 6.75357 677.362 11.9412 674.274Z" fill="url(#paint2_linear)"/>
<path d="M-130.184 679.996L67.946 572.356C169.893 516.97 280.489 479.263 395.037 460.836L433.004 454.729C496.481 444.518 558.344 426.022 617.009 399.715L658.299 381.199C663.385 378.918 668.63 377.011 673.992 375.493L765.393 349.617C783.409 344.516 801.81 356.385 804.594 374.9C806.786 389.483 798.429 403.599 784.589 408.689L706.842 437.288L265.847 577.327L-99.0655 742.578C-135.995 759.301 -167.027 710.309 -136.126 684.068C-134.291 682.51 -132.3 681.145 -130.184 679.996Z" fill="#FFD9C9"/>
<path d="M-130.184 679.996L67.946 572.356C169.893 516.97 280.489 479.263 395.037 460.836L433.004 454.729C496.481 444.518 558.344 426.022 617.009 399.715L658.299 381.199C663.385 378.918 668.63 377.011 673.992 375.493L765.393 349.617C783.409 344.516 801.81 356.385 804.594 374.9C806.786 389.483 798.429 403.599 784.589 408.689L706.842 437.288L265.847 577.327L-99.0655 742.578C-135.995 759.301 -167.027 710.309 -136.126 684.068C-134.291 682.51 -132.3 681.145 -130.184 679.996Z" fill="url(#paint3_linear)"/>
<path d="M587.5 250.5L610.617 255.604C620.804 257.853 631.29 258.426 641.662 257.302L654.167 255.946C663.013 254.987 671.682 252.802 679.926 249.456L707.413 238.298C714.446 235.443 721.116 231.764 727.282 227.338L743.949 215.375C766.82 198.96 795.744 193.411 823.067 200.197L864.677 210.532C872.247 212.412 880.018 213.363 887.818 213.363L962.258 213.363C986.516 213.363 1009.87 204.18 1027.64 187.66L1057.6 159.789C1084.72 134.567 1123.93 127.194 1158.36 140.843L1225.06 167.283C1241.53 173.814 1259.5 175.657 1276.96 172.608L1426.29 146.523C1450.27 142.334 1474.95 147.411 1495.32 160.726L1545.56 193.554C1554.63 199.479 1566.44 199.11 1575.12 192.629V192.629C1591.51 180.392 1614.94 191.18 1616.3 211.589L1616.41 213.28C1616.96 221.559 1613.64 229.625 1607.41 235.11L1594.3 246.661C1576.52 262.331 1551.37 266.532 1529.46 257.495L1485.22 239.251C1467.58 231.979 1448.18 230.125 1429.49 233.927L1298.23 260.62C1285.36 263.238 1272.08 263.186 1259.23 260.467L1147.35 236.8C1133.54 233.879 1119.26 234.038 1105.53 237.266L989.302 264.575C974.88 267.964 959.868 267.968 945.444 264.589L905.037 255.121C887.652 251.048 869.476 251.904 852.551 257.593L784.276 280.542C776.458 283.17 768.333 284.779 760.104 285.33L671.495 291.264C664.189 291.753 656.963 293.077 649.958 295.209L626 302.5" stroke="#F9FFFD"/>
<path d="M700 440L774 414.5L819.128 396.747C879.325 373.067 942.909 359.125 1007.49 355.445L1049.69 353.04C1073.47 351.685 1097.32 353.373 1120.66 358.062V358.062C1175.62 369.099 1232.62 363.367 1284.27 341.611L1287 340.463L1364.96 315.686C1398.47 305.033 1427.3 341.603 1409.11 371.703V371.703C1406.4 376.186 1402.79 380.063 1398.52 383.09L1384.21 393.229C1374.13 400.368 1363.02 405.939 1351.27 409.752L1260.71 439.139C1233.23 448.058 1203.4 446.421 1177.06 434.546V434.546C1142.27 418.861 1101.99 421.256 1069.3 440.953L1005.93 479.135C980.038 494.734 947.233 492.872 923.275 474.442V474.442C896.879 454.138 860.123 454.143 833.733 474.454L807.085 494.963C791.29 507.12 772.654 515.044 752.941 517.987L716 523.5M690.5 372L839 328L883.42 319.29C921.717 311.781 960.651 308 999.676 308L1021.98 308C1046.27 308 1070.5 305.641 1094.34 300.955L1135.06 292.95C1161.7 287.713 1189.16 288.343 1215.53 294.795V294.795C1250.75 303.412 1287.71 301.6 1321.92 289.58L1403.25 261" stroke="#F9FFFD"/>
</g>
<defs>
<linearGradient id="paint0_linear" x1="685" y1="248" x2="434" y2="304" gradientUnits="userSpaceOnUse">
<stop stop-color="#36BDCB"/>
<stop offset="1" stop-color="white" stop-opacity="0"/>
</linearGradient>
<linearGradient id="paint1_linear" x1="789.583" y1="313.402" x2="632.343" y2="342.14" gradientUnits="userSpaceOnUse">
<stop offset="0.30144" stop-color="#36BDCB"/>
<stop offset="0.828125" stop-color="#F6D6FC"/>
</linearGradient>
<linearGradient id="paint2_linear" x1="768.001" y1="431" x2="650.681" y2="446.001" gradientUnits="userSpaceOnUse">
<stop stop-color="#36BDCB"/>
<stop offset="0.837471" stop-color="#FFFFC4"/>
</linearGradient>
<linearGradient id="paint3_linear" x1="787.5" y1="378.5" x2="649.117" y2="412.438" gradientUnits="userSpaceOnUse">
<stop stop-color="#36BDCB"/>
<stop offset="0.794682" stop-color="#FFD9C9"/>
</linearGradient>
<clipPath id="clip0">
<rect x="-311.467" y="-237" width="1758.64" height="1078.54" transform="rotate(5.66864 -311.467 -237)" fill="white"/>
</clipPath>
</defs>
</svg>
