<svg width="152" height="40" viewBox="0 0 152 40" fill="none" xmlns="http://www.w3.org/2000/svg">
<g filter="url(#filter0_d)">
<rect width="148" height="36" rx="18" fill="#36BDCB"/>
<path d="M30.6233 13.6C31.6953 13.6 32.5353 13.856 33.1433 14.368C33.7513 14.88 34.0553 15.584 34.0553 16.48C34.0553 17.376 33.7513 18.08 33.1433 18.592C32.5353 19.096 31.6953 19.348 30.6233 19.348H28.3673V22H27.4793V13.6H30.6233ZM30.5993 18.568C31.4313 18.568 32.0673 18.388 32.5073 18.028C32.9473 17.66 33.1673 17.144 33.1673 16.48C33.1673 15.8 32.9473 15.28 32.5073 14.92C32.0673 14.552 31.4313 14.368 30.5993 14.368H28.3673V18.568H30.5993ZM41.9154 21.232V22H35.9754V13.6H41.7354V14.368H36.8634V17.356H41.2074V18.112H36.8634V21.232H41.9154ZM49.7388 22L47.8188 19.3C47.6028 19.324 47.3788 19.336 47.1468 19.336H44.8908V22H44.0028V13.6H47.1468C48.2188 13.6 49.0588 13.856 49.6668 14.368C50.2748 14.88 50.5788 15.584 50.5788 16.48C50.5788 17.136 50.4108 17.692 50.0748 18.148C49.7468 18.596 49.2748 18.92 48.6588 19.12L50.7108 22H49.7388ZM47.1228 18.58C47.9548 18.58 48.5908 18.396 49.0308 18.028C49.4708 17.66 49.6908 17.144 49.6908 16.48C49.6908 15.8 49.4708 15.28 49.0308 14.92C48.5908 14.552 47.9548 14.368 47.1228 14.368H44.8908V18.58H47.1228ZM54.9906 22.072C54.3666 22.072 53.7666 21.972 53.1906 21.772C52.6226 21.572 52.1826 21.308 51.8706 20.98L52.2186 20.296C52.5226 20.6 52.9266 20.848 53.4306 21.04C53.9346 21.224 54.4546 21.316 54.9906 21.316C55.7426 21.316 56.3066 21.18 56.6826 20.908C57.0586 20.628 57.2466 20.268 57.2466 19.828C57.2466 19.492 57.1426 19.224 56.9346 19.024C56.7346 18.824 56.4866 18.672 56.1906 18.568C55.8946 18.456 55.4826 18.336 54.9546 18.208C54.3226 18.048 53.8186 17.896 53.4426 17.752C53.0666 17.6 52.7426 17.372 52.4706 17.068C52.2066 16.764 52.0746 16.352 52.0746 15.832C52.0746 15.408 52.1866 15.024 52.4106 14.68C52.6346 14.328 52.9786 14.048 53.4426 13.84C53.9066 13.632 54.4826 13.528 55.1706 13.528C55.6506 13.528 56.1186 13.596 56.5746 13.732C57.0386 13.86 57.4386 14.04 57.7746 14.272L57.4746 14.98C57.1226 14.748 56.7466 14.576 56.3466 14.464C55.9466 14.344 55.5546 14.284 55.1706 14.284C54.4346 14.284 53.8786 14.428 53.5026 14.716C53.1346 14.996 52.9506 15.36 52.9506 15.808C52.9506 16.144 53.0506 16.416 53.2506 16.624C53.4586 16.824 53.7146 16.98 54.0186 17.092C54.3306 17.196 54.7466 17.312 55.2666 17.44C55.8826 17.592 56.3786 17.744 56.7546 17.896C57.1386 18.04 57.4626 18.264 57.7266 18.568C57.9906 18.864 58.1226 19.268 58.1226 19.78C58.1226 20.204 58.0066 20.592 57.7746 20.944C57.5506 21.288 57.2026 21.564 56.7306 21.772C56.2586 21.972 55.6786 22.072 54.9906 22.072ZM63.7295 22.072C62.8975 22.072 62.1415 21.888 61.4615 21.52C60.7895 21.144 60.2615 20.632 59.8775 19.984C59.5015 19.336 59.3135 18.608 59.3135 17.8C59.3135 16.992 59.5015 16.264 59.8775 15.616C60.2615 14.968 60.7895 14.46 61.4615 14.092C62.1415 13.716 62.8975 13.528 63.7295 13.528C64.5615 13.528 65.3095 13.712 65.9735 14.08C66.6455 14.448 67.1735 14.96 67.5575 15.616C67.9415 16.264 68.1335 16.992 68.1335 17.8C68.1335 18.608 67.9415 19.34 67.5575 19.996C67.1735 20.644 66.6455 21.152 65.9735 21.52C65.3095 21.888 64.5615 22.072 63.7295 22.072ZM63.7295 21.28C64.3935 21.28 64.9935 21.132 65.5295 20.836C66.0655 20.532 66.4855 20.116 66.7895 19.588C67.0935 19.052 67.2455 18.456 67.2455 17.8C67.2455 17.144 67.0935 16.552 66.7895 16.024C66.4855 15.488 66.0655 15.072 65.5295 14.776C64.9935 14.472 64.3935 14.32 63.7295 14.32C63.0655 14.32 62.4615 14.472 61.9175 14.776C61.3815 15.072 60.9575 15.488 60.6455 16.024C60.3415 16.552 60.1895 17.144 60.1895 17.8C60.1895 18.456 60.3415 19.052 60.6455 19.588C60.9575 20.116 61.3815 20.532 61.9175 20.836C62.4615 21.132 63.0655 21.28 63.7295 21.28ZM77.1439 13.6V22H76.4119L71.0119 15.184V22H70.1239V13.6H70.8559L76.2679 20.416V13.6H77.1439ZM85.1536 19.756H80.4736L79.4656 22H78.5416L82.3816 13.6H83.2576L87.0976 22H86.1616L85.1536 19.756ZM84.8296 19.036L82.8136 14.524L80.7976 19.036H84.8296ZM88.4871 13.6H89.3751V21.232H94.0791V22H88.4871V13.6ZM95.5535 13.6H96.4415V22H95.5535V13.6ZM101.491 22.072C100.867 22.072 100.267 21.972 99.6906 21.772C99.1226 21.572 98.6826 21.308 98.3706 20.98L98.7186 20.296C99.0226 20.6 99.4266 20.848 99.9306 21.04C100.435 21.224 100.955 21.316 101.491 21.316C102.243 21.316 102.807 21.18 103.183 20.908C103.559 20.628 103.747 20.268 103.747 19.828C103.747 19.492 103.643 19.224 103.435 19.024C103.235 18.824 102.987 18.672 102.691 18.568C102.395 18.456 101.983 18.336 101.455 18.208C100.823 18.048 100.319 17.896 99.9426 17.752C99.5666 17.6 99.2426 17.372 98.9706 17.068C98.7066 16.764 98.5746 16.352 98.5746 15.832C98.5746 15.408 98.6866 15.024 98.9106 14.68C99.1346 14.328 99.4786 14.048 99.9426 13.84C100.407 13.632 100.983 13.528 101.671 13.528C102.151 13.528 102.619 13.596 103.075 13.732C103.539 13.86 103.939 14.04 104.275 14.272L103.975 14.98C103.623 14.748 103.247 14.576 102.847 14.464C102.447 14.344 102.055 14.284 101.671 14.284C100.935 14.284 100.379 14.428 100.003 14.716C99.6346 14.996 99.4506 15.36 99.4506 15.808C99.4506 16.144 99.5506 16.416 99.7506 16.624C99.9586 16.824 100.215 16.98 100.519 17.092C100.831 17.196 101.247 17.312 101.767 17.44C102.383 17.592 102.879 17.744 103.255 17.896C103.639 18.04 103.963 18.264 104.227 18.568C104.491 18.864 104.623 19.268 104.623 19.78C104.623 20.204 104.507 20.592 104.275 20.944C104.051 21.288 103.703 21.564 103.231 21.772C102.759 21.972 102.179 22.072 101.491 22.072ZM112.497 21.232V22H106.557V13.6H112.317V14.368H107.445V17.356H111.789V18.112H107.445V21.232H112.497ZM120.321 22L118.401 19.3C118.185 19.324 117.961 19.336 117.729 19.336H115.473V22H114.585V13.6H117.729C118.801 13.6 119.641 13.856 120.249 14.368C120.857 14.88 121.161 15.584 121.161 16.48C121.161 17.136 120.993 17.692 120.657 18.148C120.329 18.596 119.857 18.92 119.241 19.12L121.293 22H120.321ZM117.705 18.58C118.537 18.58 119.173 18.396 119.613 18.028C120.053 17.66 120.273 17.144 120.273 16.48C120.273 15.8 120.053 15.28 119.613 14.92C119.173 14.552 118.537 14.368 117.705 14.368H115.473V18.58H117.705Z" fill="#F5F5F5"/>
</g>
<defs>
<filter id="filter0_d" x="0" y="0" width="152" height="40" filterUnits="userSpaceOnUse" color-interpolation-filters="sRGB">
<feFlood flood-opacity="0" result="BackgroundImageFix"/>
<feColorMatrix in="SourceAlpha" type="matrix" values="0 0 0 0 0 0 0 0 0 0 0 0 0 0 0 0 0 0 127 0"/>
<feOffset dx="4" dy="4"/>
<feColorMatrix type="matrix" values="0 0 0 0 0.964706 0 0 0 0 0.839216 0 0 0 0 0.988235 0 0 0 1 0"/>
<feBlend mode="normal" in2="BackgroundImageFix" result="effect1_dropShadow"/>
<feBlend mode="normal" in="SourceGraphic" in2="effect1_dropShadow" result="shape"/>
</filter>
</defs>
</svg>
