<svg width="73" height="55" viewBox="0 0 73 55" fill="none" xmlns="http://www.w3.org/2000/svg">
<path d="M62.1294 15.5152L63.4602 17.6316L62.1294 15.5152ZM63.5041 12.5625C64.8503 12.8693 65.6929 14.2092 65.3862 15.5554L60.3874 37.4931C60.0807 38.8394 58.7407 39.682 57.3945 39.3753C56.0483 39.0685 55.2057 37.7285 55.5124 36.3823L59.9557 16.8821L40.4555 12.4388C39.1093 12.1321 38.2667 10.7921 38.5734 9.44589C38.8802 8.09968 40.2202 7.25703 41.5664 7.56378L63.5041 12.5625ZM60.7985 13.3989L61.6178 12.8837L64.2795 17.1164L63.4602 17.6316L60.7985 13.3989ZM5.69562 30.8636C25.252 29.836 44.2206 23.8239 60.7985 13.3989L63.4602 17.6316C46.1605 28.5105 26.3659 34.7843 5.95799 35.8567L5.69562 30.8636Z" fill="#6C6C6C"/>
</svg>
