<svg width="72" height="53" viewBox="0 0 72 53" fill="none" xmlns="http://www.w3.org/2000/svg">
<path d="M9.97145 15.1079L11.2346 12.9504L9.97145 15.1079ZM8.50195 12.199C7.16613 12.5482 6.36634 13.9142 6.71557 15.25L12.4066 37.0184C12.7558 38.3542 14.1218 39.154 15.4576 38.8048C16.7934 38.4556 17.5932 37.0896 17.244 35.7537L12.1853 16.4041L31.535 11.3454C32.8708 10.9962 33.6706 9.63017 33.3214 8.29436C32.9721 6.95854 31.6061 6.15875 30.2703 6.50798L8.50195 12.199ZM11.2346 12.9504L10.3974 12.4603L7.87112 16.7751L8.70829 17.2653L11.2346 12.9504ZM66.7524 29.1945C47.1936 28.4195 28.1264 22.8406 11.2346 12.9504L8.70829 17.2653C26.3085 27.5702 46.1753 33.383 66.5544 34.1906L66.7524 29.1945Z" fill="#6C6C6C"/>
</svg>
