<svg width="30" height="30" viewBox="0 0 30 30" fill="none" xmlns="http://www.w3.org/2000/svg">
<path d="M29.6567 27.9991L21.1927 19.5351C25.049 14.8432 24.7866 7.87823 20.4046 3.49624C15.7429 -1.16541 8.1579 -1.16541 3.49624 3.49624C-1.16541 8.1579 -1.16541 15.7429 3.49624 20.4046C7.87706 24.7854 14.8412 25.0506 19.5351 21.1927L27.9991 29.6567C28.4568 30.1144 29.1989 30.1144 29.6566 29.6567C30.1144 29.1989 30.1144 28.4568 29.6567 27.9991ZM18.747 18.747C14.9994 22.4946 8.90151 22.4946 5.15386 18.747C1.40621 14.9993 1.40621 8.90146 5.15386 5.1538C8.9014 1.40632 14.9992 1.40603 18.747 5.1538C22.4947 8.90146 22.4947 14.9993 18.747 18.747Z" fill="#6C6C6C"/>
<path d="M17.6892 10.7783H13.1224V6.21148C13.1224 5.56413 12.5977 5.03937 11.9503 5.03937C11.303 5.03937 10.7782 5.56413 10.7782 6.21148V10.7783H6.21142C5.56407 10.7783 5.03931 11.303 5.03931 11.9504C5.03931 12.5977 5.56407 13.1225 6.21142 13.1225H10.7782V17.6893C10.7782 18.3366 11.303 18.8614 11.9503 18.8614C12.5977 18.8614 13.1224 18.3366 13.1224 17.6893V13.1225H17.6892C18.3366 13.1225 18.8613 12.5977 18.8613 11.9504C18.8613 11.303 18.3366 10.7783 17.6892 10.7783Z" fill="#6C6C6C"/>
</svg>
