<svg width="30" height="30" viewBox="0 0 30 30" fill="none" xmlns="http://www.w3.org/2000/svg">
<path d="M29.6567 27.999L21.1928 19.5351C25.049 14.8432 24.7866 7.87821 20.4046 3.49622H20.4046C15.743 -1.16544 8.15784 -1.16538 3.49624 3.49622C-1.16541 8.15788 -1.16541 15.7429 3.49624 20.4045C7.87706 24.7854 14.8412 25.0506 19.5352 21.1927L27.9991 29.6567C28.457 30.1145 29.199 30.1143 29.6567 29.6567C30.1144 29.1989 30.1144 28.4568 29.6567 27.999ZM18.747 18.7469C14.9994 22.4946 8.90145 22.4945 5.15386 18.7469C1.4062 14.9993 1.4062 8.90143 5.15386 5.15378C8.90139 1.40624 14.9993 1.40607 18.747 5.15378C22.4947 8.90143 22.4947 14.9993 18.747 18.7469Z" fill="#6C6C6C"/>
<path d="M17.6894 10.7783H6.21166C5.56432 10.7783 5.03955 11.3031 5.03955 11.9504C5.03955 12.5977 5.56432 13.1225 6.21166 13.1225H17.6894C18.3367 13.1225 18.8615 12.5977 18.8615 11.9504C18.8615 11.3031 18.3367 10.7783 17.6894 10.7783Z" fill="#6C6C6C"/>
</svg>
